<svg width="20" height="20" viewBox="0 0 20 20" fill="none" xmlns="http://www.w3.org/2000/svg">
<path d="M18 19H7.4C5.15979 19 4.03969 19 3.18404 18.564C2.43139 18.1805 1.81947 17.5686 1.43597 16.816C1 15.9603 1 14.8402 1 12.6V4M14.5 12C14.2164 10.8589 12.981 10 11.5 10C10.019 10 8.78364 10.8589 8.5 12M11.5 6H11.51M7.2 16H15.8C16.9201 16 17.4802 16 17.908 15.782C18.2843 15.5903 18.5903 15.2843 18.782 14.908C19 14.4802 19 13.9201 19 12.8V4.2C19 3.0799 19 2.51984 18.782 2.09202C18.5903 1.71569 18.2843 1.40973 17.908 1.21799C17.4802 1 16.9201 1 15.8 1H7.2C6.0799 1 5.51984 1 5.09202 1.21799C4.71569 1.40973 4.40973 1.71569 4.21799 2.09202C4 2.51984 4 3.07989 4 4.2V12.8C4 13.9201 4 14.4802 4.21799 14.908C4.40973 15.2843 4.71569 15.5903 5.09202 15.782C5.51984 16 6.0799 16 7.2 16ZM12.5 6C12.5 6.55228 12.0523 7 11.5 7C10.9477 7 10.5 6.55228 10.5 6C10.5 5.44772 10.9477 5 11.5 5C12.0523 5 12.5 5.44772 12.5 6Z" stroke="#307FF5" stroke-width="2" stroke-linecap="round" stroke-linejoin="round"/>
</svg>
