<svg width="19" height="19" viewBox="0 0 19 19" fill="none" xmlns="http://www.w3.org/2000/svg">
<path d="M12 3.28571L13.8 5L18 1M8 2H5.8C4.11984 2 3.27976 2 2.63803 2.32698C2.07354 2.6146 1.6146 3.07354 1.32698 3.63803C1 4.27976 1 5.11984 1 6.8V13.2C1 14.8802 1 15.7202 1.32698 16.362C1.6146 16.9265 2.07354 17.3854 2.63803 17.673C3.27976 18 4.11984 18 5.8 18H12.2C13.8802 18 14.7202 18 15.362 17.673C15.9265 17.3854 16.3854 16.9265 16.673 16.362C17 15.7202 17 14.8802 17 13.2V7.5M11.2647 13.9375L9.54737 12.2345C8.75802 11.4517 8.36335 11.0603 7.90897 10.9135C7.50924 10.7844 7.079 10.7844 6.67927 10.9135C6.22489 11.0603 5.83021 11.4517 5.04086 12.2345L1.18257 16M11.2647 13.9375L11.6061 13.599C12.412 12.7998 12.815 12.4002 13.2773 12.2543C13.6839 12.126 14.1209 12.1311 14.5244 12.2687C14.9833 12.4251 15.3769 12.8339 16.1643 13.6514L17 14.5M11.2647 13.9375L15 17.8174" stroke="#307FF5" stroke-width="2" stroke-linecap="round" stroke-linejoin="round"/>
</svg>
