<svg width="20" height="18" viewBox="0 0 20 18" fill="none" xmlns="http://www.w3.org/2000/svg">
<path d="M1 1H6M1 9H7M13 9H19M19 4.2V13.8C19 14.9201 19 15.4802 18.782 15.908C18.5903 16.2843 18.2843 16.5903 17.908 16.782C17.4802 17 16.9201 17 15.8 17H4.2C3.0799 17 2.51984 17 2.09202 16.782C1.71569 16.5903 1.40973 16.2843 1.21799 15.908C1 15.4802 1 14.9201 1 13.8V7.2C1 6.0799 1 5.51984 1.21799 5.09202C1.40973 4.71569 1.71569 4.40973 2.09202 4.21799C2.51984 4 3.0799 4 4.2 4H5.67452C6.1637 4 6.40829 4 6.63846 3.94474C6.84254 3.89575 7.03763 3.81494 7.21657 3.70528C7.4184 3.5816 7.59135 3.40865 7.93726 3.06274L9.06274 1.93726C9.40864 1.59136 9.5816 1.4184 9.78343 1.29472C9.96237 1.18506 10.1575 1.10425 10.3615 1.05526C10.5917 1 10.8363 1 11.3255 1H15.8C16.9201 1 17.4802 1 17.908 1.21799C18.2843 1.40973 18.5903 1.71569 18.782 2.09202C19 2.51984 19 3.0799 19 4.2ZM13 10C13 11.6569 11.6569 13 10 13C8.34315 13 7 11.6569 7 10C7 8.34315 8.34315 7 10 7C11.6569 7 13 8.34315 13 10Z" stroke="#307FF5" stroke-width="2" stroke-linecap="round" stroke-linejoin="round"/>
</svg>
