<svg width="20" height="20" viewBox="0 0 20 20" fill="none" xmlns="http://www.w3.org/2000/svg">
<path fill-rule="evenodd" clip-rule="evenodd" d="M10 2C5.58172 2 2 5.58172 2 10C2 11.4769 2.40019 12.8602 3.09803 14.0476L5.11319 12.2229L5.11531 12.221L5.14009 12.1984C5.4975 11.8729 5.80748 11.5906 6.08279 11.3767C6.37474 11.1499 6.68828 10.9506 7.06758 10.8351C7.63708 10.6618 8.24528 10.6618 8.81478 10.8351C9.19408 10.9506 9.50761 11.1499 9.79956 11.3767C10.0749 11.5906 10.3849 11.8729 10.7423 12.1984L11.6477 13.0231C11.8701 12.8231 12.0727 12.6467 12.2593 12.5017C12.5512 12.2749 12.8647 12.0756 13.244 11.9601C13.8135 11.7868 14.4217 11.7868 14.9912 11.9601C15.3705 12.0756 15.6841 12.2749 15.976 12.5017C16.2514 12.7156 16.5613 12.9979 16.9188 13.3235L16.9374 13.3404L17.1733 13.5458C17.7025 12.4771 18 11.2733 18 10C18 5.58172 14.4183 2 10 2ZM16.0573 15.226L15.6157 14.8415L15.599 14.8266C15.207 14.4696 14.955 14.2411 14.7491 14.0811C14.5528 13.9287 14.4606 13.8892 14.4088 13.8734C14.219 13.8157 14.0163 13.8157 13.8264 13.8734C13.7747 13.8892 13.6824 13.9287 13.4862 14.0811C13.3847 14.16 13.272 14.2555 13.1369 14.3748L15.1069 16.1582C15.4489 15.8742 15.7669 15.5623 16.0573 15.226ZM15.6221 18.2712C18.2647 16.4714 20 13.4384 20 10C20 4.47715 15.5228 0 10 0C4.47715 0 0 4.47715 0 10C0 15.5228 4.47715 20 10 20C12.0721 20 13.9971 19.3698 15.5936 18.2905C15.6031 18.2842 15.6126 18.2778 15.6221 18.2712ZM13.351 17.2665L10.9759 15.1163L10.9737 15.1143L9.4225 13.7016C9.03051 13.3446 8.77855 13.1161 8.57259 12.9561C8.37638 12.8037 8.28417 12.7642 8.23238 12.7484C8.04254 12.6907 7.83981 12.6907 7.64998 12.7484C7.59818 12.7642 7.50598 12.8037 7.30976 12.9561C7.1038 13.1161 6.85184 13.3446 6.45985 13.7016L6.45773 13.7035L4.32294 15.6366C5.77222 17.0962 7.78056 18 10 18C11.1965 18 12.3317 17.7373 13.351 17.2665ZM13 6C12.4477 6 12 6.44772 12 7C12 7.55228 12.4477 8 13 8C13.5523 8 14 7.55228 14 7C14 6.44772 13.5523 6 13 6ZM10 7C10 5.34315 11.3431 4 13 4C14.6569 4 16 5.34315 16 7C16 8.65685 14.6569 10 13 10C11.3431 10 10 8.65685 10 7Z" fill="#307FF5"/>
</svg>
