<svg width="22" height="20" viewBox="0 0 22 20" fill="none" xmlns="http://www.w3.org/2000/svg">
<path d="M10.2445 2.17394C10.476 1.50802 10.5917 1.17507 10.7629 1.08279C10.911 1.00292 11.0894 1.00292 11.2375 1.08279C11.4086 1.17507 11.5244 1.50802 11.7558 2.17394L13.2861 6.57633C13.352 6.76586 13.3849 6.86062 13.4443 6.93119C13.4967 6.99353 13.5636 7.04212 13.6391 7.07272C13.7245 7.10737 13.8248 7.10941 14.0255 7.1135L18.6853 7.20846C19.3901 7.22282 19.7425 7.23001 19.8832 7.36426C20.0049 7.48045 20.06 7.65008 20.0298 7.81563C19.995 8.00691 19.7141 8.21987 19.1523 8.64579L15.4382 11.4616C15.2783 11.5828 15.1984 11.6434 15.1496 11.7217C15.1065 11.7908 15.081 11.8694 15.0752 11.9507C15.0687 12.0427 15.0977 12.1387 15.1558 12.3307L16.5055 16.7918C16.7096 17.4666 16.8117 17.804 16.7275 17.9793C16.6546 18.1309 16.5103 18.2358 16.3435 18.2582C16.1508 18.2842 15.8615 18.0828 15.2828 17.6801L11.4571 15.018C11.2924 14.9034 11.2101 14.8461 11.1206 14.8239C11.0415 14.8043 10.9588 14.8043 10.8798 14.8239C10.7903 14.8461 10.7079 14.9034 10.5432 15.018L6.71756 17.6801C6.13888 18.0828 5.84954 18.2842 5.65684 18.2582C5.49007 18.2358 5.34577 18.1309 5.27288 17.9793C5.18867 17.804 5.29074 17.4666 5.49489 16.7918L6.84454 12.3307C6.90264 12.1387 6.93169 12.0427 6.92515 11.9507C6.91938 11.8694 6.89383 11.7908 6.85075 11.7217C6.80197 11.6434 6.72202 11.5828 6.56213 11.4616L2.84809 8.64579C2.28629 8.21987 2.0054 8.00691 1.97052 7.81563C1.94034 7.65008 1.99545 7.48045 2.11718 7.36426C2.25783 7.23001 2.61025 7.22282 3.31511 7.20846L7.97491 7.1135C8.17552 7.10941 8.27582 7.10737 8.36128 7.07272C8.43677 7.04212 8.50365 6.99353 8.55608 6.93119C8.61544 6.86062 8.64838 6.76586 8.71426 6.57633L10.2445 2.17394Z" stroke="#307FF5" stroke-width="2" stroke-linecap="round" stroke-linejoin="round"/>
</svg>
