<svg width="22" height="22" viewBox="0 0 22 22" fill="none" xmlns="http://www.w3.org/2000/svg">
<path d="M6 7V4C6 2.34315 7.34315 1 9 1C10.6569 1 12 2.34315 12 4V6.97545M17 15C17 16.6569 15.6569 18 14 18C12.3431 18 11 16.6569 11 15M3 18C1.89543 18 1 17.1046 1 16V9C1 7.89543 1.89543 7 3 7H15C16.1046 7 17 7.89543 17 9M9.4 21H18.6C19.4401 21 19.8601 21 20.181 20.8365C20.4632 20.6927 20.6927 20.4632 20.8365 20.181C21 19.8601 21 19.4401 21 18.6V14.4C21 13.5599 21 13.1399 20.8365 12.819C20.6927 12.5368 20.4632 12.3073 20.181 12.1635C19.8601 12 19.4401 12 18.6 12H9.4C8.55992 12 8.13988 12 7.81901 12.1635C7.53677 12.3073 7.3073 12.5368 7.16349 12.819C7 13.1399 7 13.5599 7 14.4V18.6C7 19.4401 7 19.8601 7.16349 20.181C7.3073 20.4632 7.53677 20.6927 7.81901 20.8365C8.13988 21 8.55992 21 9.4 21Z" stroke="#307FF5" stroke-width="2" stroke-linecap="round" stroke-linejoin="round"/>
</svg>
