<svg width="203" height="58" viewBox="0 0 203 58" fill="none" xmlns="http://www.w3.org/2000/svg">
<g filter="url(#filter0_d_1573_56182)">
<path d="M32 5H190C194.418 5 198 8.58172 198 13V38C198 42.4183 194.418 46 190 46H32V5Z" fill="#D9BB52"/>
<path d="M32 5H190C194.418 5 198 8.58172 198 13V38C198 42.4183 194.418 46 190 46H32V5Z" fill="url(#paint0_linear_1573_56182)" fill-opacity="0.2"/>
<path d="M32 4.75H31.75V5V46V46.25H32H190C194.556 46.25 198.25 42.5563 198.25 38V13C198.25 8.44365 194.556 4.75 190 4.75H32Z" stroke="white" stroke-width="0.5"/>
</g>
<g filter="url(#filter1_d_1573_56182)">
<circle cx="29" cy="25" r="24" fill="#D9BB52"/>
<circle cx="29" cy="25" r="24" fill="url(#paint1_linear_1573_56182)" fill-opacity="0.2"/>
<circle cx="29" cy="25" r="24.25" stroke="white" stroke-width="0.5"/>
</g>
<circle cx="28.9905" cy="24.9905" r="23.4353" transform="rotate(-180 28.9905 24.9905)" fill="black" fill-opacity="0.25"/>
<circle cx="28.989" cy="24.989" r="22.3059" transform="rotate(-180 28.989 24.989)" fill="#D9BB52"/>
<circle cx="28.989" cy="24.989" r="22.3059" transform="rotate(-180 28.989 24.989)" fill="url(#paint2_linear_1573_56182)" fill-opacity="0.2"/>
<circle cx="28.9918" cy="24.9918" r="16.0941" transform="rotate(-180 28.9918 24.9918)" fill="white" fill-opacity="0.45"/>
<circle cx="28.9901" cy="24.9901" r="15.5294" transform="rotate(-180 28.9901 24.9901)" fill="#D9BB52"/>
<circle cx="28.9901" cy="24.9901" r="15.5294" transform="rotate(-180 28.9901 24.9901)" fill="url(#paint3_linear_1573_56182)" fill-opacity="0.2"/>
<path d="M8.02289 19.5177C8.02289 19.5177 8.00595 19.6307 7.99466 19.817C7.98337 20.0034 7.97207 20.2631 7.97207 20.5624C7.97772 20.8617 8.0116 21.1949 8.06242 21.5281C8.11324 21.8556 8.21489 22.1888 8.33348 22.4768C8.48595 22.8326 8.67795 23.0754 8.86431 23.2335C9.05066 23.3973 9.23701 23.4763 9.40642 23.5215C9.7396 23.6006 9.98242 23.5215 9.98242 23.5215C9.98242 23.5215 9.96548 23.4142 9.9316 23.2504C9.89772 23.081 9.86383 22.8552 9.81866 22.6123C9.77913 22.3639 9.72266 22.0984 9.68313 21.8613C9.63795 21.6241 9.59277 21.4095 9.5363 21.2683C9.41772 20.986 9.04501 20.5681 8.69489 20.201C8.51983 20.0147 8.35042 19.8509 8.22619 19.7267C8.10195 19.6024 8.02289 19.529 8.02289 19.529L8.02289 19.5177Z" fill="black" fill-opacity="0.25"/>
<path d="M10.4613 20.0474C10.4613 20.0474 10.4613 19.9401 10.4613 19.7764C10.4613 19.607 10.4613 19.3754 10.4613 19.1213C10.4726 18.8728 10.4726 18.6018 10.467 18.3533C10.4613 18.1048 10.467 17.8903 10.4331 17.7378C10.4049 17.591 10.3202 17.399 10.2016 17.1957L9.03264 16.71C8.98746 17.0093 8.94229 17.3538 8.93099 17.6983C8.93099 18.0484 8.95358 18.3985 9.02135 18.7147C9.2077 19.4827 9.57476 19.8046 9.88535 19.9458C10.1959 20.087 10.4501 20.0531 10.4501 20.0531L10.4613 20.0474Z" fill="black" fill-opacity="0.25"/>
<path d="M7.40693 24.9729L8.67188 24.9729C8.39517 24.747 8.03941 24.5042 7.75141 24.3178C7.46341 24.1258 7.24882 23.9959 7.24882 23.9959C7.24882 23.9959 7.28835 24.4195 7.40129 24.9785L7.40693 24.9729Z" fill="black" fill-opacity="0.25"/>
<path d="M11.7032 11.9034C11.7032 11.9034 11.6411 11.9994 11.562 12.1688C11.4829 12.3382 11.37 12.5754 11.2571 12.8465C11.0425 13.3999 10.8392 14.1227 10.8618 14.7495C10.8618 15.1335 10.9465 15.4328 11.0594 15.6531C11.1723 15.8733 11.3135 16.0258 11.449 16.1274C11.7201 16.3307 11.9799 16.3477 11.9799 16.3477C11.9799 16.3477 12.0025 16.246 12.0363 16.0822C12.0533 15.9975 12.0759 15.9015 12.0985 15.7886C12.1211 15.6813 12.1493 15.5684 12.1775 15.4441C12.2396 15.2013 12.2848 14.9302 12.3413 14.6987C12.3978 14.4615 12.4316 14.2469 12.4316 14.0945C12.4316 13.7895 12.2509 13.2587 12.0646 12.7844C11.9742 12.5472 11.8839 12.327 11.8105 12.1632C11.7427 12.0051 11.7032 11.9034 11.7032 11.9034Z" fill="black" fill-opacity="0.25"/>
<path d="M13.76 13.3281C13.76 13.3281 13.9238 12.9441 14.1214 12.4754C14.2231 12.2495 14.3304 11.9954 14.4207 11.7639C14.5167 11.538 14.5958 11.3347 14.624 11.1879C14.6522 11.0411 14.6466 10.8321 14.6184 10.5949L13.7205 9.70271C13.5624 9.96248 13.3986 10.2618 13.2518 10.578C13.1162 10.8999 13.009 11.2331 12.9468 11.5493C12.8226 12.3286 13.0428 12.7634 13.2744 13.0119C13.5059 13.2604 13.7544 13.3281 13.7544 13.3281L13.76 13.3281Z" fill="black" fill-opacity="0.25"/>
<path d="M9.04395 16.7116L10.2129 17.1973C10.0322 16.8754 9.8063 16.5196 9.6143 16.2373C9.4223 15.9493 9.28113 15.746 9.28113 15.746C9.28113 15.746 9.24724 15.8476 9.20207 16.017C9.15689 16.1864 9.08913 16.4293 9.04395 16.7116Z" fill="black" fill-opacity="0.25"/>
<path d="M18.018 6.27927C18.018 6.27927 17.9276 6.34703 17.7865 6.46562C17.6453 6.58986 17.4533 6.77056 17.25 6.9795C17.0411 7.18845 16.8265 7.45386 16.6345 7.72492C16.5385 7.86045 16.4425 8.00162 16.3634 8.1428C16.2844 8.28962 16.2166 8.43644 16.1601 8.58327C15.8721 9.30609 16.0077 9.79174 16.1771 10.0797C16.3521 10.3677 16.5837 10.4863 16.5837 10.4863C16.5837 10.4863 16.8208 10.1362 17.1145 9.72962C17.1822 9.62798 17.2557 9.52068 17.3347 9.41339C17.4081 9.30609 17.4815 9.20445 17.5549 9.1028C17.6905 8.89951 17.8091 8.71315 17.8655 8.57198C17.9898 8.29527 18.0124 7.73621 18.0237 7.22233C18.0237 6.96821 18.0237 6.73103 18.0293 6.55598C18.0293 6.38656 18.0293 6.27362 18.0293 6.27362L18.018 6.27927Z" fill="black" fill-opacity="0.25"/>
<path d="M19.3661 8.38086C19.3661 8.38086 19.4395 8.30745 19.5637 8.18886C19.6259 8.12674 19.6936 8.05333 19.7727 7.97427C19.8517 7.90086 19.9421 7.81616 20.0324 7.7258C20.2131 7.55639 20.4051 7.3531 20.5802 7.18369C20.7553 7.01427 20.9021 6.85051 20.9868 6.72627C21.0715 6.60204 21.1393 6.40439 21.207 6.17851L20.7214 5.00957C20.2244 5.36533 19.6428 5.87357 19.304 6.42698C19.095 6.75451 19.0047 7.04815 18.9764 7.29662C18.9482 7.53945 18.9877 7.74274 19.0442 7.90086C19.1628 8.2171 19.3717 8.37522 19.3717 8.37522L19.3661 8.38086Z" fill="black" fill-opacity="0.25"/>
<path d="M13.7213 9.70141L14.6191 10.5936C14.5796 10.2379 14.5006 9.81435 14.4328 9.47553C14.365 9.14235 14.3086 8.89388 14.3086 8.89388C14.3086 8.89388 14.0375 9.22706 13.7213 9.70141Z" fill="black" fill-opacity="0.25"/>
<path d="M26.0078 3.50048C26.0078 3.50048 25.9005 3.52871 25.7198 3.58518C25.5448 3.64165 25.2963 3.73766 25.0252 3.85624C24.7485 3.96919 24.4549 4.1273 24.1669 4.30801C24.0257 4.39836 23.8845 4.48871 23.7546 4.59036C23.6248 4.69201 23.5062 4.80495 23.3932 4.91789C22.8511 5.47695 22.789 5.96824 22.8342 6.30707C22.885 6.64589 23.0544 6.83789 23.0544 6.83789C23.0544 6.83789 23.1448 6.78142 23.2803 6.68542C23.4215 6.60071 23.6191 6.47648 23.8337 6.34659C23.9353 6.27883 24.0483 6.20542 24.1556 6.13766C24.2685 6.06989 24.3758 6.00213 24.4775 5.93436C24.6808 5.79883 24.8615 5.66895 24.9688 5.56165C25.189 5.35836 25.4262 4.84448 25.6351 4.38142C25.7368 4.14989 25.8271 3.92965 25.8949 3.77154C25.9626 3.61342 26.0022 3.51177 26.0022 3.51177L26.0078 3.50048Z" fill="black" fill-opacity="0.25"/>
<path d="M26.4469 5.96484C26.4469 5.96484 26.5429 5.92532 26.701 5.85755C26.7801 5.82367 26.8704 5.78979 26.9721 5.74461C27.0737 5.70508 27.1867 5.66555 27.3052 5.62037C27.5368 5.53002 27.7909 5.42837 28.0168 5.32673C28.2427 5.23637 28.446 5.14602 28.5702 5.06132C28.6944 4.97661 28.8356 4.82414 28.9824 4.63779L28.9824 3.37285C28.6888 3.44626 28.3556 3.54226 28.0337 3.66085C27.7118 3.78508 27.3956 3.95449 27.1302 4.1352C26.8083 4.35543 26.6107 4.59825 26.4921 4.81284C26.3735 5.02743 26.3283 5.23073 26.3227 5.40014C26.3114 5.73896 26.4412 5.96484 26.4412 5.96484L26.4469 5.96484Z" fill="black" fill-opacity="0.25"/>
<path d="M20.7213 5.01661L21.2069 6.18555C21.3086 5.84108 21.3933 5.41755 21.4611 5.07872C21.5232 4.74555 21.5684 4.49143 21.5684 4.49143C21.5684 4.49143 21.5458 4.50273 21.5006 4.52531C21.4611 4.5479 21.3989 4.58743 21.3199 4.62696C21.1674 4.71731 20.9528 4.8472 20.7157 5.01096L20.7213 5.01661Z" fill="black" fill-opacity="0.25"/>
<path d="M34.4434 3.98774C34.4434 3.98774 34.3304 3.97079 34.1441 3.96515C33.9577 3.95385 33.6979 3.94256 33.3987 3.94256C32.8001 3.9595 32.0603 4.04421 31.4899 4.30397C31.1342 4.4508 30.8914 4.64844 30.7276 4.83479C30.5638 5.02115 30.4848 5.21315 30.4396 5.37127C30.3605 5.70444 30.4396 5.94727 30.4396 5.94727C30.4396 5.94727 30.5412 5.93033 30.7107 5.89644C30.8801 5.85691 31.1059 5.82303 31.3488 5.7835C31.5972 5.74397 31.8627 5.6875 32.0998 5.64232C32.337 5.60279 32.5516 5.55197 32.6928 5.4955C32.9751 5.37692 33.393 5.00421 33.7601 4.65409C33.9408 4.47903 34.1102 4.30962 34.2344 4.18539C34.353 4.06115 34.4321 3.98209 34.4321 3.98209L34.4434 3.98774Z" fill="black" fill-opacity="0.25"/>
<path d="M33.9128 6.42723C33.9128 6.42723 34.0201 6.42723 34.1895 6.42723C34.3589 6.42723 34.5904 6.42723 34.8446 6.42723C35.093 6.43852 35.3641 6.43852 35.6126 6.42723C35.861 6.42723 36.0756 6.42723 36.2281 6.39335C36.3749 6.37076 36.5613 6.28041 36.7702 6.16746L37.2559 4.99852C36.9566 4.95335 36.6121 4.90817 36.2676 4.90252C35.9175 4.90252 35.5674 4.92511 35.2512 4.99287C34.4832 5.18487 34.1613 5.54629 34.0201 5.85688C33.8789 6.16747 33.9128 6.42158 33.9128 6.42158L33.9128 6.42723Z" fill="black" fill-opacity="0.25"/>
<path d="M28.9899 3.37178L28.9899 4.63672C29.2157 4.36001 29.4586 4.00425 29.6449 3.71625C29.8369 3.4339 29.9668 3.21366 29.9668 3.21366C29.9668 3.21366 29.5433 3.25319 28.9842 3.36613L28.9899 3.37178Z" fill="black" fill-opacity="0.25"/>
<path d="M42.0566 7.68733C42.0566 7.68733 41.9606 7.62522 41.7912 7.54616C41.6218 7.46145 41.3846 7.35416 41.1136 7.24122C40.5602 7.02663 39.8373 6.82333 39.2105 6.84027C38.8209 6.84027 38.5272 6.92498 38.307 7.03792C38.0868 7.15086 37.9343 7.29204 37.8326 7.42192C37.6293 7.69863 37.6124 7.95275 37.6124 7.95275C37.6124 7.95275 37.7141 7.97533 37.8778 8.00922C37.9625 8.02616 38.0585 8.04874 38.1658 8.07133C38.2731 8.09957 38.3861 8.1278 38.5103 8.15604C38.7531 8.21251 39.0242 8.26333 39.2557 8.31981C39.4929 8.37063 39.7131 8.41016 39.8599 8.41016C40.1649 8.41016 40.6901 8.2238 41.1701 8.0431C41.4072 7.95274 41.6275 7.86239 41.7912 7.79463C41.9493 7.72686 42.051 7.68733 42.051 7.68733L42.0566 7.68733Z" fill="black" fill-opacity="0.25"/>
<path d="M40.6287 9.73006C40.6287 9.73006 41.0127 9.89383 41.4814 10.0971C41.7129 10.1988 41.9614 10.3061 42.1929 10.3964C42.4188 10.4924 42.6221 10.5715 42.7689 10.5997C42.9158 10.6336 43.1247 10.6223 43.3619 10.5997L44.2598 9.70748C44 9.54936 43.6951 9.38559 43.3845 9.23877C43.0682 9.10324 42.7294 8.99594 42.4132 8.93383C41.6395 8.80959 41.1991 9.02983 40.9506 9.25571C40.7021 9.48724 40.6344 9.73571 40.6344 9.73571L40.6287 9.73006Z" fill="black" fill-opacity="0.25"/>
<path d="M37.2531 5.01661L36.7675 6.18555C37.0893 6.00484 37.4451 5.77896 37.7275 5.58696C38.0098 5.39496 38.2188 5.24814 38.2188 5.24814C38.2188 5.24814 38.1171 5.21426 37.9477 5.16908C37.7726 5.1239 37.5355 5.05614 37.2531 5.01096L37.2531 5.01661Z" fill="black" fill-opacity="0.25"/>
<path d="M47.6699 14.0004C47.6699 14.0004 47.6022 13.9101 47.4836 13.7689C47.3593 13.6277 47.1843 13.4414 46.9697 13.2268C46.7607 13.0178 46.4953 12.8089 46.2243 12.6112C46.0887 12.5152 45.9476 12.4192 45.8064 12.3402C45.6596 12.2611 45.5127 12.1934 45.3659 12.1369C44.6431 11.8489 44.1575 11.9788 43.8695 12.1538C43.5758 12.3289 43.4629 12.5604 43.4629 12.5604C43.4629 12.5604 43.5476 12.6225 43.6887 12.7129C43.8299 12.8089 44.0106 12.9501 44.2196 13.0912C44.3212 13.159 44.4285 13.2324 44.5358 13.3115C44.6375 13.3849 44.7447 13.4583 44.8464 13.5317C45.0497 13.6672 45.236 13.7858 45.3772 13.848C45.6539 13.9722 46.213 13.9948 46.7269 14.0061C46.9753 14.0061 47.2182 14.0061 47.3876 14.0117L47.6699 14.0117L47.6699 14.0004Z" fill="black" fill-opacity="0.25"/>
<path d="M45.5695 15.3507C45.5695 15.3507 45.6429 15.4241 45.7615 15.5483C45.8236 15.6104 45.8914 15.6782 45.9704 15.7573C46.0438 15.8363 46.1285 15.9267 46.2132 16.017C46.3883 16.1977 46.5859 16.3897 46.7554 16.5648C46.9248 16.7399 47.0885 16.8867 47.2128 16.977C47.337 17.0617 47.5347 17.1295 47.7549 17.1973L48.9238 16.7116C48.5737 16.2147 48.0655 15.633 47.5121 15.2942C47.1845 15.0853 46.8852 14.9949 46.6424 14.9667C46.3939 14.9441 46.1963 14.978 46.0325 15.0344C45.7107 15.153 45.5582 15.3563 45.5582 15.3563L45.5695 15.3507Z" fill="black" fill-opacity="0.25"/>
<path d="M44.2528 9.70141L43.3549 10.5936C43.7107 10.5598 44.1342 10.4751 44.473 10.4129C44.8062 10.3452 45.0547 10.2887 45.0547 10.2887C45.0547 10.2887 44.7272 10.0176 44.2528 9.70141Z" fill="black" fill-opacity="0.25"/>
<path d="M50.4414 21.9926C50.4414 21.9926 50.4132 21.8853 50.3567 21.7046C50.2946 21.5295 50.2042 21.281 50.0856 21.01C49.9727 20.7333 49.8146 20.4396 49.6339 20.1573C49.5435 20.0161 49.4532 19.8749 49.3515 19.745C49.2499 19.6151 49.1369 19.4909 49.024 19.3836C48.4649 18.8415 47.9736 18.7737 47.6348 18.8246C47.296 18.8754 47.104 19.0448 47.104 19.0448C47.104 19.0448 47.1605 19.1295 47.2565 19.2763C47.3468 19.4175 47.4654 19.6151 47.6009 19.8297C47.6687 19.937 47.7421 20.0443 47.8099 20.1516C47.8776 20.2589 47.9454 20.3718 48.0132 20.4735C48.1487 20.6768 48.2729 20.8575 48.3802 20.9648C48.5835 21.185 49.0974 21.4278 49.5661 21.6311C49.7976 21.7271 50.0122 21.8231 50.176 21.8909C50.3341 21.9587 50.4358 21.9982 50.4358 21.9982L50.4414 21.9926Z" fill="black" fill-opacity="0.25"/>
<path d="M47.9822 22.4315C47.9822 22.4315 48.0217 22.5331 48.0839 22.6856C48.1177 22.7647 48.1573 22.855 48.1968 22.9623C48.2363 23.0639 48.2815 23.1769 48.3267 23.2955C48.417 23.5327 48.5187 23.7811 48.6147 24.007C48.705 24.2329 48.7954 24.4362 48.8801 24.5604C48.9592 24.6847 49.1173 24.8258 49.3036 24.9727L50.5742 24.9727C50.5008 24.679 50.4048 24.3458 50.2862 24.024C50.162 23.7021 49.9982 23.3858 49.8119 23.1261C49.5916 22.8042 49.3488 22.6065 49.1342 22.4879C48.914 22.3637 48.7163 22.3242 48.5469 22.3185C48.2081 22.3016 47.9822 22.4315 47.9822 22.4315Z" fill="black" fill-opacity="0.25"/>
<path d="M48.9279 16.7117L47.759 17.1974C48.1035 17.299 48.527 17.3837 48.8658 17.4572C49.199 17.5193 49.4531 17.5645 49.4531 17.5645C49.4531 17.5645 49.4418 17.5419 49.4192 17.4967C49.3967 17.4572 49.3571 17.395 49.3176 17.316C49.2272 17.1635 49.0974 16.9489 48.9336 16.7117L48.9279 16.7117Z" fill="black" fill-opacity="0.25"/>
<path d="M49.957 30.4258C49.957 30.4258 49.9739 30.3185 49.9852 30.1265C49.9965 29.9401 50.0078 29.6804 50.0078 29.3811C50.0022 29.0818 49.9683 28.7486 49.9175 28.4211C49.8723 28.0879 49.765 27.7604 49.6464 27.478C49.4939 27.1223 49.3076 26.8794 49.1156 26.7157C48.9292 26.5519 48.7429 26.4728 48.5735 26.4277C48.2459 26.3486 47.9975 26.4277 47.9975 26.4277C47.9975 26.4277 48.0144 26.535 48.0483 26.6987C48.0822 26.8625 48.1217 27.0884 48.1612 27.3368C48.2008 27.5853 48.2572 27.8507 48.2968 28.0879C48.3363 28.3307 48.3871 28.5397 48.4436 28.6808C48.5622 28.9632 48.9349 29.3811 49.285 29.7481C49.46 29.9288 49.6295 30.0983 49.7537 30.2225C49.8779 30.3467 49.957 30.4201 49.957 30.4201L49.957 30.4258Z" fill="black" fill-opacity="0.25"/>
<path d="M47.5126 29.895C47.5126 29.895 47.5126 30.0023 47.5126 30.1717C47.5126 30.3411 47.5126 30.5727 47.5126 30.8268C47.5013 31.0752 47.5013 31.3463 47.507 31.5948C47.5126 31.8432 47.507 32.0578 47.5409 32.2047C47.5691 32.3515 47.6538 32.5435 47.7724 32.7524L48.9413 33.2381C48.9865 32.9388 49.0317 32.5943 49.043 32.2498C49.043 31.8997 49.0204 31.5496 48.9526 31.239C48.7606 30.471 48.3992 30.1548 48.0886 30.0079C47.778 29.8668 47.5239 29.9007 47.5239 29.9007L47.5126 29.895Z" fill="black" fill-opacity="0.25"/>
<path d="M50.5724 24.9723L49.3074 24.9723C49.5841 25.1982 49.9399 25.441 50.2279 25.6273C50.5159 25.8193 50.7305 25.9492 50.7305 25.9492C50.7305 25.9492 50.6909 25.5257 50.578 24.9666L50.5724 24.9723Z" fill="black" fill-opacity="0.25"/>
<path d="M46.2697 38.0432C46.2697 38.0432 46.3318 37.9472 46.4108 37.7778C46.4899 37.614 46.6028 37.3768 46.7158 37.1001C46.9304 36.5467 47.128 35.8239 47.1167 35.2027C47.1167 34.8131 47.0264 34.5194 46.9191 34.2992C46.8061 34.0733 46.665 33.9265 46.5294 33.8248C46.2527 33.6215 45.9986 33.6046 45.9986 33.6046C45.9986 33.6046 45.976 33.7119 45.9421 33.8757C45.9252 33.9604 45.9083 34.0564 45.88 34.1637C45.8574 34.2709 45.8292 34.3895 45.7953 34.5081C45.7332 34.7509 45.688 35.0164 45.6315 35.2535C45.5807 35.4907 45.5412 35.7053 45.5412 35.8578C45.5412 36.1627 45.7275 36.6935 45.9083 37.1679C45.9986 37.4051 46.0946 37.6253 46.1567 37.7891C46.2245 37.9472 46.264 38.0488 46.264 38.0488L46.2697 38.0432Z" fill="black" fill-opacity="0.25"/>
<path d="M44.2191 36.615C44.2191 36.615 44.0553 36.999 43.8576 37.4677C43.756 37.6993 43.6487 37.9477 43.5583 38.1793C43.4623 38.4052 43.3833 38.6084 43.3551 38.7609C43.3268 38.9077 43.3325 39.1167 43.3607 39.3539L44.2586 40.2461C44.4167 39.9863 44.5805 39.6814 44.7273 39.3708C44.8628 39.0489 44.9701 38.7157 45.0266 38.3995C45.1508 37.6202 44.9306 37.1854 44.7047 36.9313C44.4732 36.6828 44.2247 36.615 44.2247 36.615L44.2191 36.615Z" fill="black" fill-opacity="0.25"/>
<path d="M48.9297 33.2394L47.7607 32.7538C47.9415 33.0757 48.1673 33.4258 48.3593 33.7138C48.5513 33.9961 48.6982 34.2051 48.6982 34.2051C48.6982 34.2051 48.732 34.1034 48.7772 33.9284C48.8224 33.759 48.8902 33.5161 48.9297 33.2338L48.9297 33.2394Z" fill="black" fill-opacity="0.25"/>
<path d="M39.9608 43.6643C39.9608 43.6643 40.0512 43.5965 40.1924 43.4779C40.3335 43.3537 40.5255 43.173 40.7288 42.964C40.9378 42.7551 41.1524 42.4897 41.3444 42.2186C41.4404 42.0831 41.5364 41.9419 41.6154 41.8007C41.6945 41.6539 41.7622 41.5071 41.8187 41.3603C42.1067 40.6375 41.9712 40.1518 41.8018 39.8638C41.6267 39.5702 41.3952 39.4572 41.3952 39.4572C41.3952 39.4572 41.158 39.813 40.8644 40.2139C40.7966 40.3156 40.7175 40.4229 40.6441 40.5302C40.5707 40.6318 40.4973 40.7391 40.4295 40.8407C40.294 41.0384 40.1754 41.2304 40.1133 41.3716C39.9947 41.6483 39.9665 42.2073 39.9552 42.7212C39.9552 42.9753 39.9552 43.2125 39.9495 43.3876C39.9495 43.557 39.9495 43.6699 39.9495 43.6699L39.9608 43.6643Z" fill="black" fill-opacity="0.25"/>
<path d="M38.6067 41.564C38.6067 41.564 38.5332 41.6375 38.409 41.7617C38.3469 41.8238 38.2791 41.8916 38.2001 41.9706C38.121 42.044 38.0307 42.1287 37.9403 42.2135C37.7596 42.3829 37.5676 42.5862 37.3925 42.7556C37.2175 42.925 37.0707 43.0887 36.9803 43.213C36.8956 43.3372 36.8278 43.5349 36.7601 43.7607L37.2457 44.9297C37.7427 44.5739 38.3243 44.0657 38.6631 43.5123C38.8777 43.1847 38.9624 42.8855 38.9907 42.6426C39.0189 42.3942 38.9794 42.1965 38.9229 42.0384C38.8043 41.7222 38.601 41.564 38.601 41.564L38.6067 41.564Z" fill="black" fill-opacity="0.25"/>
<path d="M44.2539 40.2413L43.356 39.3491C43.3956 39.7048 43.4746 40.1284 43.5424 40.4672C43.6101 40.8004 43.6666 41.0488 43.6666 41.0488C43.6666 41.0488 43.9377 40.7213 44.2539 40.2413Z" fill="black" fill-opacity="0.25"/>
<path d="M31.9705 46.4414C31.9705 46.4414 32.0777 46.4132 32.2585 46.3623C32.4335 46.3002 32.682 46.2099 32.953 46.0913C33.2297 45.9783 33.5234 45.8202 33.8114 45.6452C33.9526 45.5548 34.0937 45.4588 34.2236 45.3572C34.3535 45.2499 34.4721 45.1426 34.5794 45.0296C35.1215 44.4706 35.1893 43.9793 35.1385 43.6405C35.0876 43.3016 34.9182 43.1096 34.9182 43.1096C34.9182 43.1096 34.8279 43.1661 34.6923 43.2621C34.5512 43.3468 34.3535 43.4711 34.1389 43.6066C34.0316 43.6743 33.9243 43.7421 33.817 43.8155C33.7097 43.8833 33.5968 43.9511 33.4952 44.0188C33.2919 44.1487 33.1112 44.2786 33.0039 44.3859C32.7836 44.5892 32.5465 45.1031 32.3375 45.5718C32.2415 45.8033 32.1455 46.0179 32.0777 46.1816C32.01 46.3398 31.9705 46.4414 31.9705 46.4414Z" fill="black" fill-opacity="0.25"/>
<path d="M31.5313 43.9861C31.5313 43.9861 31.4353 44.0257 31.2772 44.0878C31.1981 44.1217 31.1078 44.1612 31.0061 44.2007C30.9045 44.2402 30.7916 44.2854 30.673 44.3306C30.4414 44.4209 30.1873 44.5226 29.9614 44.6242C29.7356 44.7146 29.5323 44.8049 29.408 44.8897C29.2838 44.9687 29.1426 45.1212 28.9958 45.3132L28.9958 46.5781C29.2894 46.5047 29.6226 46.4087 29.9445 46.2901C30.2664 46.1659 30.5826 46.0021 30.848 45.8214C31.1643 45.6012 31.3676 45.3584 31.4861 45.1438C31.6047 44.9235 31.6499 44.7259 31.6556 44.5565C31.6668 44.2177 31.537 43.9918 31.537 43.9918L31.5313 43.9861Z" fill="black" fill-opacity="0.25"/>
<path d="M37.25 44.9279L36.7644 43.759C36.6627 44.1035 36.578 44.527 36.5102 44.8658C36.4481 45.199 36.4029 45.4531 36.4029 45.4531C36.4029 45.4531 36.4255 45.4418 36.4707 45.4192C36.5102 45.3967 36.5724 45.3571 36.6514 45.3119C36.8039 45.2216 37.0185 45.0917 37.25 44.9279Z" fill="black" fill-opacity="0.25"/>
<path d="M23.5275 45.9626C23.5275 45.9626 23.6404 45.9739 23.8268 45.9852C24.0132 45.9965 24.2729 46.0078 24.5722 46.0078C25.1708 45.9909 25.9106 45.9005 26.4809 45.6464C26.8367 45.4939 27.0795 45.3019 27.2433 45.1156C27.407 44.9292 27.4861 44.7372 27.5313 44.5735C27.6103 44.2459 27.5313 43.9975 27.5313 43.9975C27.5313 43.9975 27.4296 44.02 27.2602 44.0483C27.0908 44.0878 26.8649 44.1217 26.6221 44.1612C26.3736 44.2008 26.1082 44.2572 25.871 44.2968C25.6282 44.3419 25.4193 44.3871 25.2724 44.4436C24.9901 44.5622 24.5722 44.9349 24.2052 45.285C24.0244 45.46 23.855 45.6295 23.7308 45.7537C23.6122 45.8779 23.5332 45.957 23.5332 45.957L23.5275 45.9626Z" fill="black" fill-opacity="0.25"/>
<path d="M24.0648 43.5183C24.0648 43.5183 23.9575 43.5183 23.7881 43.5183C23.6187 43.5183 23.3871 43.5183 23.133 43.5183C22.8846 43.507 22.6135 43.507 22.365 43.5126C22.1166 43.5183 21.902 43.5126 21.7495 43.5465C21.6027 43.5747 21.4107 43.6594 21.2074 43.7724L20.7217 44.9413C21.021 44.9865 21.3655 45.0317 21.71 45.043C22.0601 45.043 22.4102 45.0204 22.7264 44.9526C23.4944 44.7663 23.8163 44.3992 23.9575 44.0886C24.0987 43.778 24.0648 43.5239 24.0648 43.5239L24.0648 43.5183Z" fill="black" fill-opacity="0.25"/>
<path d="M28.9904 46.578L28.9904 45.3074C28.7646 45.5841 28.5217 45.9399 28.3354 46.2279C28.149 46.5102 28.0135 46.7305 28.0135 46.7305C28.0135 46.7305 28.437 46.6853 28.9961 46.578L28.9904 46.578Z" fill="black" fill-opacity="0.25"/>
<path d="M15.921 42.2633C15.921 42.2633 16.017 42.3254 16.1864 42.4045C16.3558 42.4835 16.593 42.5965 16.8641 42.7094C17.4175 42.924 18.1403 43.1273 18.7671 43.1103C19.1511 43.1103 19.4504 43.02 19.6706 42.9127C19.8909 42.7997 20.0434 42.6586 20.145 42.523C20.3483 42.252 20.3652 41.9922 20.3652 41.9922C20.3652 41.9922 20.2636 41.9696 20.0942 41.9358C20.0095 41.9188 19.9135 41.8962 19.8062 41.8736C19.6989 41.851 19.5859 41.8172 19.4617 41.7889C19.2189 41.7325 18.9478 41.6816 18.7106 41.6252C18.4735 41.5743 18.2589 41.5348 18.1064 41.5348C17.8015 41.5348 17.2763 41.7212 16.7963 41.9019C16.5591 41.9922 16.3389 42.0882 16.1751 42.156C16.017 42.2237 15.9154 42.2633 15.9154 42.2633L15.921 42.2633Z" fill="black" fill-opacity="0.25"/>
<path d="M17.3496 40.2128C17.3496 40.2128 16.9656 40.049 16.4969 39.8457C16.2654 39.7441 16.0169 39.6368 15.7854 39.5464C15.5595 39.4504 15.3562 39.3714 15.2094 39.3375C15.0625 39.3092 14.8536 39.3149 14.6164 39.3431L13.7185 40.2354C13.9783 40.3935 14.2833 40.5629 14.5938 40.7041C14.9101 40.8452 15.2489 40.9525 15.5651 41.009C16.3444 41.1332 16.7849 40.913 17.0277 40.6871C17.2762 40.4556 17.344 40.2071 17.344 40.2071L17.3496 40.2128Z" fill="black" fill-opacity="0.25"/>
<path d="M20.7214 44.9297L21.207 43.7607C20.8851 43.9415 20.5294 44.1673 20.247 44.3593C19.9647 44.5457 19.7557 44.6925 19.7557 44.6925C19.7557 44.6925 19.8574 44.7264 20.0268 44.7716C20.2019 44.8167 20.439 44.8845 20.7214 44.9297Z" fill="black" fill-opacity="0.25"/>
<path d="M10.3105 35.9456C10.3105 35.9456 10.3783 36.036 10.4969 36.1771C10.6211 36.3183 10.8018 36.5103 11.0108 36.7136C11.2197 36.9226 11.4851 37.1371 11.7562 37.3348C11.8917 37.4308 12.0329 37.5268 12.1741 37.6059C12.3209 37.6849 12.4677 37.7527 12.6145 37.8091C13.3373 38.0971 13.823 37.9673 14.111 37.7922C14.4046 37.6171 14.5176 37.3856 14.5176 37.3856C14.5176 37.3856 14.4272 37.3291 14.2917 37.2331C14.1505 37.1371 13.9698 37.0016 13.7609 36.8548C13.6592 36.7814 13.5519 36.708 13.4446 36.6346C13.343 36.5611 13.2357 36.4877 13.1341 36.4143C12.9308 36.2788 12.7444 36.1602 12.6032 36.1037C12.3265 35.9795 11.7675 35.9513 11.2536 35.9456C11.0051 35.9456 10.7623 35.94 10.5929 35.94L10.3105 35.94L10.3105 35.9456Z" fill="black" fill-opacity="0.25"/>
<path d="M12.4086 34.5954C12.4086 34.5954 12.3352 34.5219 12.2166 34.3977C12.1545 34.3356 12.0867 34.2678 12.0077 34.1888C11.9343 34.1097 11.8496 34.0194 11.7649 33.929C11.5955 33.7483 11.3922 33.5563 11.2227 33.3812C11.0533 33.2062 10.8896 33.0594 10.7653 32.9747C10.6411 32.8899 10.4435 32.8165 10.2232 32.7544L9.05427 33.2401C9.40439 33.737 9.91263 34.3187 10.466 34.6631C10.7936 34.8721 11.0929 34.9624 11.3357 34.9907C11.5842 35.0189 11.7818 34.9794 11.9456 34.9229C12.2618 34.8043 12.4199 34.5954 12.4199 34.5954L12.4086 34.5954Z" fill="black" fill-opacity="0.25"/>
<path d="M13.7213 40.2404L14.6191 39.3482C14.2634 39.3877 13.8398 39.4668 13.5067 39.5346C13.1678 39.6023 12.925 39.6588 12.925 39.6588C12.925 39.6588 13.2526 39.9299 13.7269 40.2461L13.7213 40.2404Z" fill="black" fill-opacity="0.25"/>
<path d="M7.53737 27.9551C7.53737 27.9551 7.56561 28.0624 7.62208 28.2431C7.67855 28.4181 7.77455 28.6666 7.89314 28.9377C8.00608 29.2144 8.1642 29.5137 8.33926 29.796C8.42961 29.9372 8.52561 30.0784 8.62161 30.2083C8.72326 30.3381 8.8362 30.4567 8.94914 30.564C9.5082 31.1118 9.9995 31.1739 10.3383 31.1287C10.6771 31.0779 10.8691 30.9085 10.8691 30.9085C10.8691 30.9085 10.8127 30.8238 10.7167 30.677C10.6263 30.5358 10.5077 30.3381 10.3722 30.1292C10.3044 30.0275 10.2367 29.9146 10.1633 29.8073C10.0955 29.7 10.0277 29.5871 9.95996 29.4854C9.82443 29.2821 9.69456 29.1014 9.59291 28.9941C9.38961 28.7739 8.87573 28.5311 8.40702 28.3278C8.17549 28.2318 7.96091 28.1358 7.79714 28.068C7.63903 28.0003 7.53737 27.9607 7.53737 27.9607L7.53737 27.9551Z" fill="black" fill-opacity="0.25"/>
<path d="M9.99219 27.5115C9.99219 27.5115 9.95266 27.4155 9.89054 27.2574C9.85666 27.1783 9.81713 27.088 9.7776 26.9863C9.73807 26.8847 9.69854 26.7717 9.65336 26.6531C9.56301 26.416 9.46136 26.1675 9.35972 25.9416C9.26936 25.7157 9.17901 25.5181 9.0943 25.3882C9.01524 25.264 8.85713 25.1171 8.67077 24.976L7.40583 24.976C7.47925 25.2696 7.57525 25.6028 7.69383 25.9247C7.81807 26.2466 7.98748 26.5628 8.16819 26.8226C8.38277 27.1444 8.63124 27.3364 8.84583 27.4607C9.06042 27.5793 9.26371 27.6244 9.43313 27.6301C9.77195 27.6414 9.99219 27.5171 9.99219 27.5171L9.99219 27.5115Z" fill="black" fill-opacity="0.25"/>
<path d="M9.04395 33.2381L10.2129 32.7524C9.86842 32.6508 9.44489 32.5604 9.10607 32.4927C8.77289 32.4305 8.51877 32.3854 8.51877 32.3854C8.51877 32.3854 8.53007 32.4079 8.55265 32.4531C8.57524 32.4927 8.60912 32.5548 8.6543 32.6338C8.74465 32.7863 8.87454 33.0009 9.0383 33.2324L9.04395 33.2381Z" fill="black" fill-opacity="0.25"/>
<path d="M11.2799 20.6008C11.1748 20.6967 11.0436 20.8567 10.9082 21.057C10.784 21.2511 10.6555 21.4797 10.5378 21.6907C10.42 21.9018 10.3308 22.1117 10.2623 22.2634C10.1938 22.4152 10.1576 22.5141 10.1576 22.5141C10.1576 22.5141 10.3805 22.6428 10.7297 22.629C11.0788 22.6152 11.5315 22.4654 12.0227 21.9874C12.2215 21.796 12.3961 21.5713 12.5594 21.3527C12.7284 21.1339 12.8744 20.9103 12.9926 20.7107C13.2464 20.3166 13.3949 20.0126 13.3949 20.0126C13.3949 20.0126 12.978 20.0521 12.5001 20.1455C12.2613 20.1951 12.006 20.2625 11.7853 20.3343C11.5705 20.4116 11.3851 20.505 11.2799 20.6008Z" fill="black" fill-opacity="0.25"/>
<path d="M12.6845 18.963L11.2825 18.4452C11.0268 18.7936 10.8266 19.0938 10.8266 19.0938C10.8266 19.0938 11.0164 19.2526 11.3453 19.3083C11.6743 19.3641 12.1425 19.3169 12.6845 18.963Z" fill="black" fill-opacity="0.25"/>
<path d="M12.6175 23.3564C12.6175 23.3564 12.2154 23.4812 11.7646 23.6768C11.308 23.8726 10.8372 24.1435 10.6631 24.3796C10.4668 24.6339 10.2779 25.2204 10.1314 25.7192L11.6253 25.66L11.6741 25.5893C11.8312 25.3595 11.9643 25.102 12.0691 24.8514C12.1795 24.6005 12.2842 24.3498 12.3612 24.1232C12.4325 23.8968 12.5054 23.7105 12.5458 23.5713C12.5918 23.4319 12.6116 23.3509 12.6116 23.3509L12.6175 23.3564Z" fill="black" fill-opacity="0.25"/>
<path d="M14.2995 14.1562C14.1639 14.2075 13.9844 14.3063 13.7888 14.4344C13.5932 14.5625 13.3933 14.7252 13.2046 14.8817C13.0102 15.0385 12.8501 15.1939 12.7285 15.3076C12.6071 15.4271 12.5354 15.4987 12.5354 15.4987C12.5354 15.4987 12.6924 15.6988 13.0183 15.8235C13.1813 15.8859 13.3835 15.9237 13.6181 15.9144C13.8585 15.9049 14.1314 15.8482 14.4534 15.7266C14.7132 15.6303 14.9541 15.4889 15.195 15.3475C15.4362 15.2119 15.6535 15.0542 15.8371 14.9151C16.0325 14.7812 16.1939 14.6602 16.305 14.5698C16.4161 14.4794 16.4827 14.4252 16.4827 14.4252C16.4827 14.4252 16.3781 14.3892 16.2218 14.3495C16.0654 14.3099 15.8452 14.2498 15.6028 14.2078C15.1232 14.1121 14.5651 14.0597 14.2995 14.1562Z" fill="black" fill-opacity="0.25"/>
<path d="M16.2273 13.1685L15.1267 12.1573C14.7574 12.3841 14.4615 12.585 14.4615 12.585C14.4615 12.585 14.5734 12.8041 14.8613 12.9819C15.1435 13.1599 15.5958 13.291 16.2273 13.1685Z" fill="black" fill-opacity="0.25"/>
<path d="M14.4766 17.2097C14.4766 17.2097 14.0565 17.169 13.5695 17.1769C13.0709 17.1794 12.5352 17.2579 12.283 17.4055C12.1486 17.4854 11.9711 17.6357 11.8012 17.8316C11.631 18.0218 11.4331 18.236 11.2808 18.4427L12.6828 18.9604L12.7554 18.9116C12.9844 18.7593 13.2063 18.5728 13.4051 18.3815C13.5982 18.1904 13.797 17.9991 13.9504 17.821C14.1096 17.6427 14.2413 17.4942 14.3346 17.3873C14.4275 17.2747 14.4766 17.2097 14.4766 17.2097Z" fill="black" fill-opacity="0.25"/>
<path d="M19.5534 9.34593C19.2722 9.33986 18.726 9.44175 18.2621 9.5977C18.0299 9.66995 17.8092 9.74175 17.6569 9.8051C17.4989 9.86869 17.4032 9.9126 17.4032 9.9126C17.4032 9.9126 17.4761 10.1619 17.726 10.3928C17.8512 10.514 18.022 10.6276 18.2488 10.7103C18.3594 10.7518 18.4869 10.7869 18.6254 10.8101C18.7639 10.8332 18.925 10.8498 19.0972 10.8544C19.3726 10.8607 19.6519 10.821 19.9257 10.7872C20.1993 10.7477 20.4546 10.6803 20.682 10.6312C20.9093 10.582 21.1021 10.5286 21.2379 10.4831C21.3796 10.443 21.4591 10.4227 21.4591 10.4227C21.4591 10.4227 21.1327 10.1433 20.7326 9.88395C20.3323 9.61891 19.8288 9.35222 19.5474 9.34043L19.5534 9.34593Z" fill="black" fill-opacity="0.25"/>
<path d="M21.709 9.17578L21.082 7.81907C20.8652 7.84486 20.672 7.8869 20.5298 7.91546C20.3876 7.94402 20.3022 7.95887 20.3022 7.95887C20.3022 7.95887 20.3234 8.20453 20.5174 8.472C20.7117 8.7452 21.0728 9.03473 21.7088 9.17006L21.709 9.17578Z" fill="black" fill-opacity="0.25"/>
<path d="M18.5528 12.2405C18.5528 12.2405 18.1839 12.043 17.7297 11.8661C17.5027 11.7777 17.2529 11.6958 17.0272 11.6417C16.8015 11.5876 16.5941 11.5614 16.4574 11.584C16.3038 11.613 16.0771 11.6793 15.8465 11.7916C15.6157 11.8982 15.3574 12.0346 15.133 12.1581L16.2336 13.1693L16.319 13.1545C16.5921 13.1035 16.8696 13.018 17.1178 12.9165C17.3777 12.8202 17.6257 12.7129 17.8336 12.6072C18.0475 12.507 18.2275 12.4197 18.3566 12.3515C18.4858 12.2833 18.5528 12.2405 18.5528 12.2405Z" fill="black" fill-opacity="0.25"/>
<path d="M26.245 6.92678C25.9881 6.81083 25.4447 6.69477 24.9562 6.66252C24.4727 6.61288 24.0489 6.62393 24.0489 6.62393C24.0489 6.62393 24.0188 6.87735 24.1631 7.19265C24.2324 7.35042 24.3482 7.52354 24.5208 7.68295C24.6933 7.84236 24.9291 8.005 25.2497 8.14134C25.5006 8.25179 25.7728 8.32127 26.0395 8.3967C26.3059 8.4664 26.5653 8.50199 26.7965 8.55016C27.0275 8.5926 27.2292 8.61901 27.3672 8.63074C27.511 8.64225 27.5918 8.65625 27.5918 8.65625C27.5918 8.65625 27.5422 8.56076 27.4619 8.4149C27.3816 8.26903 27.2651 8.07874 27.1253 7.8779C26.8574 7.4815 26.4958 7.03722 26.239 6.92128L26.245 6.92678Z" fill="black" fill-opacity="0.25"/>
<path d="M28.3027 7.58789L28.2436 6.09405C27.821 5.9904 27.4687 5.9241 27.4687 5.9241C27.4687 5.9241 27.3919 6.15644 27.468 6.48591C27.5439 6.80966 27.7667 7.22504 28.3027 7.58789Z" fill="black" fill-opacity="0.25"/>
<path d="M24.2095 9.20076C24.2095 9.20076 23.9445 8.87877 23.593 8.543C23.42 8.37215 23.2183 8.20242 23.0293 8.06086C22.8405 7.92503 22.659 7.82903 22.52 7.7944C22.3696 7.76023 22.134 7.74663 21.8762 7.75111C21.6187 7.76131 21.3389 7.78958 21.0765 7.8229L21.7035 9.17961L21.7903 9.1991C22.062 9.25713 22.3434 9.26892 22.6247 9.28071C22.9004 9.29273 23.1694 9.28207 23.4038 9.26706C23.8731 9.24847 24.2095 9.20076 24.2095 9.20076Z" fill="black" fill-opacity="0.25"/>
<path d="M33.357 7.25203C33.2611 7.14691 33.1011 7.01567 32.9066 6.88006C32.7125 6.7559 32.4838 6.62737 32.2671 6.50984C32.0558 6.38636 31.8461 6.30294 31.6944 6.23443C31.5426 6.16591 31.4437 6.1297 31.4437 6.1297C31.4437 6.1297 31.3207 6.35241 31.3288 6.70177C31.3426 7.05091 31.4867 7.5038 31.9705 7.99483C32.1618 8.19363 32.3865 8.36817 32.6051 8.53149C32.8296 8.70031 33.0475 8.84646 33.2471 8.96467C33.6412 9.21849 33.9395 9.36719 33.9395 9.36719C33.9395 9.36719 33.9 8.95028 33.8066 8.47245C33.757 8.23365 33.6953 7.97813 33.6178 7.75763C33.5405 7.54286 33.4471 7.35738 33.3512 7.25226L33.357 7.25203Z" fill="black" fill-opacity="0.25"/>
<path d="M34.9999 8.64766L35.5176 7.24563C35.1691 6.98427 34.869 6.78979 34.869 6.78979C34.869 6.78979 34.7103 6.97951 34.6545 7.30847C34.5985 7.63171 34.646 8.10563 34.9999 8.64766Z" fill="black" fill-opacity="0.25"/>
<path d="M30.6055 8.58203C30.6055 8.58203 30.4806 8.17997 30.2851 7.72911C30.0893 7.27254 29.8184 6.80173 29.5822 6.62764C29.3337 6.43112 28.7413 6.23674 28.2427 6.09597L28.3018 7.58981L28.3726 7.6386C28.6024 7.79575 28.8599 7.92886 29.1105 8.03359C29.3616 8.14976 29.6122 8.25448 29.8329 8.326C30.0536 8.39752 30.2456 8.47017 30.3848 8.51051C30.524 8.55086 30.6052 8.57631 30.6052 8.57631L30.6055 8.58203Z" fill="black" fill-opacity="0.25"/>
<path d="M39.7987 10.275C39.7477 10.1452 39.6486 9.95996 39.5205 9.7644C39.3924 9.56883 39.2297 9.36891 39.0732 9.1802C38.9221 8.98554 38.7668 8.82545 38.6473 8.70407C38.5279 8.58268 38.456 8.50527 38.456 8.50527C38.456 8.50527 38.2561 8.66797 38.1312 8.9882C38.0688 9.15118 38.031 9.35331 38.0348 9.59393C38.0443 9.83431 38.101 10.1072 38.2226 10.4292C38.3189 10.689 38.4603 10.9299 38.6017 11.1708C38.7431 11.4117 38.8948 11.6236 39.0284 11.8132C39.1622 12.0085 39.2831 12.1643 39.3734 12.2753C39.4638 12.3864 39.5181 12.453 39.5181 12.453C39.5181 12.453 39.5483 12.3487 39.5937 12.1921C39.6389 12.0298 39.6934 11.8155 39.7354 11.5731C39.8313 11.0992 39.8835 10.5354 39.787 10.2698L39.7987 10.275Z" fill="black" fill-opacity="0.25"/>
<path d="M40.781 12.1962L41.7981 11.1012C41.5714 10.7318 41.3703 10.4302 41.3703 10.4302C41.3703 10.4302 41.1512 10.5421 40.9732 10.8243C40.7952 11.1065 40.6583 11.559 40.7808 12.1905L40.781 12.1962Z" fill="black" fill-opacity="0.25"/>
<path d="M36.7445 10.4482C36.7445 10.4482 36.7852 10.0281 36.7774 9.54112C36.7749 9.04249 36.702 8.50653 36.5545 8.25441C36.4746 8.11999 36.3186 7.94273 36.1284 7.77255C35.938 7.59665 35.724 7.40449 35.5173 7.25216L34.9996 8.65419L35.0483 8.72679C35.2007 8.95579 35.3874 9.18342 35.5785 9.37649C35.7696 9.56957 35.9609 9.76836 36.1333 9.92204C36.3115 10.0812 36.4658 10.2127 36.5727 10.3059C36.6853 10.3989 36.7503 10.4479 36.7503 10.4479L36.7445 10.4482Z" fill="black" fill-opacity="0.25"/>
<path d="M44.598 15.5348C44.6098 15.2535 44.5022 14.7074 44.3462 14.2435C44.274 14.0113 44.2022 13.7906 44.139 13.6441C44.0755 13.4861 44.0373 13.3901 44.0373 13.3901C44.0373 13.3901 43.7879 13.4631 43.5513 13.7132C43.4302 13.8384 43.3165 14.0091 43.2338 14.236C43.1923 14.3465 43.157 14.4683 43.1341 14.6125C43.1052 14.7512 43.0886 14.9124 43.0897 15.0843C43.0834 15.3598 43.1231 15.6391 43.1569 15.9129C43.1966 16.1922 43.2638 16.4418 43.3075 16.6751C43.3566 16.9024 43.4101 17.0952 43.4499 17.2312C43.4899 17.373 43.5159 17.4522 43.5159 17.4522C43.5159 17.4522 43.7954 17.1258 44.0545 16.72C44.3195 16.3197 44.5919 15.8159 44.598 15.5348Z" fill="black" fill-opacity="0.25"/>
<path d="M44.771 17.6933L46.1277 17.0663C46.1077 16.8493 46.0599 16.6563 46.0371 16.5139C46.0085 16.3717 45.9879 16.2865 45.9879 16.2865C45.9879 16.2865 45.7423 16.3077 45.4691 16.502C45.1959 16.6962 44.9064 17.0574 44.771 17.6933Z" fill="black" fill-opacity="0.25"/>
<path d="M41.7157 14.5275C41.7157 14.5275 41.9132 14.1585 42.0899 13.6987C42.1784 13.4716 42.2659 13.2216 42.3201 12.9959C42.3742 12.7702 42.3946 12.563 42.3718 12.4206C42.343 12.2727 42.2767 12.046 42.1699 11.8095C42.0633 11.5787 41.9272 11.3261 41.8034 11.096L40.7863 12.191L40.8011 12.2764C40.8521 12.5496 40.9433 12.8269 41.0451 13.0808C41.1414 13.3407 41.2486 13.5887 41.3488 13.8025C41.4488 14.0107 41.5364 14.1964 41.6046 14.3255C41.6727 14.4547 41.7157 14.5275 41.7157 14.5275Z" fill="black" fill-opacity="0.25"/>
<path d="M47.0205 22.2278C47.1365 21.9709 47.2525 21.4275 47.2848 20.9389C47.3344 20.4555 47.3234 20.0317 47.3234 20.0317C47.3234 20.0317 47.0642 20.0018 46.7546 20.1459C46.4336 20.2905 46.0846 20.5967 45.8002 21.2328C45.69 21.4894 45.6203 21.7558 45.5451 22.0282C45.4697 22.2949 45.4398 22.554 45.3919 22.791C45.3494 23.022 45.323 23.2236 45.3115 23.3674C45.2998 23.5054 45.286 23.592 45.286 23.592C45.286 23.592 45.3815 23.5423 45.5274 23.462C45.6675 23.382 45.8633 23.2596 46.0643 23.1255C46.4607 22.8576 46.9107 22.4958 47.021 22.2392L47.0205 22.2278Z" fill="black" fill-opacity="0.25"/>
<path d="M46.3484 24.2838L47.8423 24.2246C47.9402 23.8023 48.0065 23.45 48.0065 23.45C48.0065 23.45 47.7744 23.3789 47.4449 23.455C47.1212 23.5309 46.7056 23.748 46.3429 24.2897L46.3484 24.2838Z" fill="black" fill-opacity="0.25"/>
<path d="M44.7359 20.1921C44.7359 20.1921 45.0579 19.9271 45.3994 19.5753C45.57 19.3966 45.7402 19.2064 45.8815 19.0117C46.0174 18.8228 46.1193 18.6468 46.148 18.5024C46.1821 18.352 46.1957 18.1164 46.1913 17.8586C46.1811 17.6011 46.1526 17.3156 46.1195 17.0589L44.7628 17.6859L44.7433 17.7727C44.6855 18.0501 44.6735 18.3257 44.6617 18.6071C44.6499 18.8885 44.6546 19.152 44.6696 19.3864C44.677 19.8619 44.7302 20.1923 44.7302 20.1923L44.7359 20.1921Z" fill="black" fill-opacity="0.25"/>
<path d="M46.6936 29.3424C46.7988 29.2466 46.93 29.0866 47.0656 28.892C47.1895 28.6922 47.3183 28.4693 47.4301 28.2528C47.5534 28.0358 47.637 27.8318 47.7055 27.6801C47.7738 27.5226 47.8102 27.4294 47.8102 27.4294C47.8102 27.4294 47.5873 27.3007 47.2382 27.3145C46.889 27.3283 46.4364 27.4781 45.9451 27.9561C45.7406 28.1477 45.5718 28.3722 45.4087 28.5965C45.2396 28.8153 45.0937 29.0389 44.9755 29.2385C44.7217 29.6326 44.5732 29.9366 44.5732 29.9366C44.5732 29.9366 44.9901 29.8972 45.4677 29.798C45.7065 29.7484 45.962 29.6867 46.1825 29.6092C46.3973 29.5319 46.583 29.4443 46.6879 29.3427L46.6936 29.3424Z" fill="black" fill-opacity="0.25"/>
<path d="M45.2969 30.9857L46.6989 31.5034C46.9545 31.1551 47.1548 30.8548 47.1548 30.8548C47.1548 30.8548 46.965 30.6961 46.6363 30.646C46.3131 30.59 45.8391 30.6375 45.2971 30.9914L45.2969 30.9857Z" fill="black" fill-opacity="0.25"/>
<path d="M45.36 26.5961C45.36 26.5961 45.762 26.4713 46.2129 26.2757C46.6697 26.0857 47.1403 25.8091 47.3144 25.5729C47.5107 25.3186 47.6995 24.7322 47.8458 24.2276L46.352 24.2868L46.3032 24.3575C46.146 24.5873 46.0129 24.8448 45.9082 25.0954C45.7977 25.3463 45.693 25.597 45.616 25.8236C45.5445 26.0442 45.4718 26.2363 45.4315 26.3755C45.3911 26.5146 45.3657 26.5959 45.3657 26.5959L45.36 26.5961Z" fill="black" fill-opacity="0.25"/>
<path d="M43.6764 35.7846C43.8119 35.7334 43.9914 35.6345 44.187 35.5064C44.3826 35.3783 44.5825 35.2156 44.7712 35.0591C44.9601 34.9083 45.1259 34.7527 45.2473 34.6332C45.3687 34.5138 45.4404 34.4421 45.4404 34.4421C45.4404 34.4421 45.2834 34.242 44.9577 34.123C44.7947 34.0607 44.5924 34.0171 44.352 34.0266C44.1116 34.0362 43.8387 34.0928 43.5167 34.2145C43.2568 34.3108 43.0162 34.4579 42.7751 34.5935C42.5342 34.7349 42.3166 34.8868 42.1329 35.026C41.9376 35.1598 41.7819 35.2806 41.6708 35.371C41.5597 35.4614 41.4931 35.5156 41.4931 35.5156C41.4931 35.5156 41.5975 35.5459 41.754 35.5913C41.9161 35.6307 42.1304 35.6853 42.373 35.733C42.8526 35.8287 43.4108 35.8811 43.6764 35.7846Z" fill="black" fill-opacity="0.25"/>
<path d="M41.7535 36.7736L42.8541 37.7848C43.2234 37.5581 43.5193 37.3572 43.5193 37.3572C43.5193 37.3572 43.4074 37.138 43.1195 36.9603C42.8373 36.7823 42.385 36.6511 41.7478 36.7738L41.7535 36.7736Z" fill="black" fill-opacity="0.25"/>
<path d="M43.5037 32.7383C43.5037 32.7383 43.9238 32.779 44.4108 32.7711C44.9094 32.7686 45.4452 32.6901 45.6973 32.5425C45.8317 32.4627 46.0092 32.3123 46.1794 32.1221C46.3495 31.932 46.5474 31.7177 46.6997 31.5111L45.2977 30.9933L45.2251 31.0421C44.9961 31.1945 44.7685 31.3812 44.5754 31.5723C44.3823 31.7634 44.1833 31.9489 44.0299 32.127C43.8707 32.3053 43.7392 32.4595 43.646 32.5664C43.553 32.679 43.504 32.744 43.504 32.744L43.5037 32.7383Z" fill="black" fill-opacity="0.25"/>
<path d="M38.4263 40.5978C38.7077 40.6096 39.2538 40.502 39.7176 40.3461C39.9496 40.2681 40.1705 40.202 40.3228 40.1387C40.4808 40.0751 40.5765 40.0312 40.5765 40.0312C40.5765 40.0312 40.5036 39.7818 40.2535 39.5452C40.1285 39.4298 39.9575 39.3105 39.7307 39.2277C39.6201 39.1862 39.4926 39.1512 39.3541 39.128C39.2156 39.1048 39.0545 39.0882 38.8823 39.0836C38.6069 39.0773 38.3276 39.117 38.0538 39.1508C37.7802 39.1903 37.5306 39.2575 37.2973 39.3011C37.0699 39.3503 36.8774 39.4095 36.7414 39.4493C36.6054 39.489 36.5202 39.5096 36.5202 39.5096C36.5202 39.5096 36.8465 39.7891 37.2466 40.0484C37.6469 40.3134 38.1505 40.5801 38.4318 40.5919L38.4263 40.5978Z" fill="black" fill-opacity="0.25"/>
<path d="M36.2705 40.7681L36.8975 42.1248C37.1146 42.1047 37.3076 42.057 37.4498 42.0284C37.5919 41.9999 37.6771 41.9793 37.6771 41.9793C37.6771 41.9793 37.6559 41.7336 37.4619 41.4661C37.2676 41.1929 36.9065 40.9034 36.2705 40.7681Z" fill="black" fill-opacity="0.25"/>
<path d="M39.4288 37.7092C39.4288 37.7092 39.7977 37.9067 40.2576 38.0834C40.4847 38.1718 40.7346 38.2594 40.9604 38.3135C41.1858 38.3619 41.3932 38.3881 41.5357 38.3652C41.6893 38.3362 41.916 38.2699 42.1465 38.1576C42.3774 38.051 42.6357 37.9147 42.8601 37.7911L41.7595 36.7799L41.6741 36.7948C41.401 36.8457 41.1292 36.931 40.8698 37.0387C40.6099 37.135 40.3619 37.2423 40.154 37.348C39.9461 37.4537 39.7601 37.5355 39.631 37.6037C39.5018 37.6719 39.429 37.7149 39.429 37.7149L39.4288 37.7092Z" fill="black" fill-opacity="0.25"/>
<path d="M31.7357 43.0177C31.9925 43.1336 32.536 43.2497 33.0245 43.2819C33.5139 43.3371 33.9318 43.3205 33.9318 43.3205C33.9318 43.3205 33.9616 43.0614 33.8175 42.7518C33.7482 42.594 33.6324 42.4209 33.4599 42.2615C33.2873 42.1021 33.0459 41.9397 32.7309 41.8031C32.48 41.6927 32.2076 41.6175 31.9352 41.5423C31.6688 41.4726 31.4094 41.437 31.1782 41.3888C30.9472 41.3464 30.7458 41.3257 30.6075 41.3082C30.4637 41.2967 30.3829 41.2827 30.3829 41.2827C30.3829 41.2827 30.4326 41.3782 30.5128 41.5241C30.5929 41.6642 30.7096 41.8602 30.8494 42.0611C31.1173 42.4575 31.4789 42.9017 31.7357 43.0177Z" fill="black" fill-opacity="0.25"/>
<path d="M29.6766 42.3556L29.7358 43.8494C30.1584 43.9531 30.5107 44.0194 30.5107 44.0194C30.5107 44.0194 30.5875 43.7871 30.5114 43.4576C30.4355 43.1338 30.2127 42.7185 29.6766 42.3556Z" fill="black" fill-opacity="0.25"/>
<path d="M33.7698 40.7422C33.7698 40.7422 34.0348 41.0642 34.3863 41.4C34.5593 41.5708 34.7609 41.7406 34.95 41.8821C35.1388 42.018 35.3146 42.1142 35.4593 42.1486C35.6096 42.1828 35.8452 42.1964 36.103 42.1919C36.3606 42.1817 36.6401 42.1477 36.9027 42.1201L36.2757 40.7634L36.189 40.7439C35.9173 40.6859 35.6357 40.6683 35.3545 40.6623C35.0732 40.6505 34.8097 40.6552 34.5755 40.6759C34.1002 40.689 33.7698 40.7422 33.7698 40.7422Z" fill="black" fill-opacity="0.25"/>
<path d="M24.6254 42.6974C24.7213 42.8025 24.8813 42.9338 25.0758 43.0694C25.2699 43.1936 25.4986 43.3221 25.7151 43.4339C25.9263 43.5574 26.136 43.6408 26.2878 43.7093C26.4453 43.7776 26.5384 43.814 26.5384 43.814C26.5384 43.814 26.6669 43.5854 26.6533 43.242C26.6395 42.8928 26.4897 42.4402 26.0117 41.9489C25.8202 41.7444 25.6014 41.5753 25.3771 41.4122C25.1583 41.2432 24.9349 41.103 24.7351 40.9791C24.3409 40.7252 24.0427 40.5765 24.0427 40.5765C24.0427 40.5765 24.0764 40.9937 24.1756 41.4713C24.2252 41.7101 24.2869 41.9656 24.3644 42.1861C24.4419 42.4066 24.535 42.5864 24.6309 42.6915L24.6254 42.6974Z" fill="black" fill-opacity="0.25"/>
<path d="M22.9811 41.2952L22.4634 42.6972C22.8117 42.9529 23.112 43.1531 23.112 43.1531C23.112 43.1531 23.2707 42.9633 23.3265 42.6344C23.3822 42.3054 23.335 41.8372 22.9811 41.2952Z" fill="black" fill-opacity="0.25"/>
<path d="M27.3677 41.3694C27.3677 41.3694 27.4925 41.7715 27.6881 42.2223C27.8839 42.6789 28.1547 43.1497 28.3909 43.3238C28.6395 43.5203 29.2317 43.709 29.7305 43.8555L29.6713 42.3616L29.6006 42.3128C29.3708 42.1557 29.1133 42.0226 28.8627 41.9179C28.6118 41.8074 28.3611 41.7027 28.1403 41.6254C27.9196 41.5539 27.7275 41.4813 27.5884 41.4409C27.449 41.3949 27.3679 41.3751 27.3679 41.3751L27.3677 41.3694Z" fill="black" fill-opacity="0.25"/>
<path d="M18.1822 39.6742C18.2275 39.8043 18.3323 39.9893 18.4604 40.1849C18.5885 40.3804 18.7512 40.5804 18.9077 40.7691C19.0588 40.9637 19.2144 41.1295 19.3336 41.2452C19.453 41.3666 19.5247 41.4383 19.5247 41.4383C19.5247 41.4383 19.7248 41.2813 19.8495 40.9554C19.9118 40.7924 19.9497 40.5902 19.9459 40.3496C19.9364 40.1092 19.8799 39.842 19.7581 39.5144C19.6618 39.2545 19.5204 39.0136 19.379 38.7727C19.2376 38.5318 19.0857 38.3143 18.9463 38.1249C18.8125 37.9295 18.6914 37.7681 18.6013 37.6627C18.5109 37.5517 18.4567 37.485 18.4567 37.485C18.4567 37.485 18.4264 37.5894 18.381 37.746C18.3356 37.9026 18.287 38.1223 18.2391 38.3592C18.1432 38.8331 18.0853 39.3972 18.1875 39.6626L18.1822 39.6742Z" fill="black" fill-opacity="0.25"/>
<path d="M17.2002 37.7455L16.183 38.8405C16.4097 39.2099 16.6106 39.5058 16.6106 39.5058C16.6106 39.5058 16.8298 39.3939 17.0078 39.1117C17.1855 38.8238 17.3226 38.3769 17.1999 37.7398L17.2002 37.7455Z" fill="black" fill-opacity="0.25"/>
<path d="M21.2298 39.5024C21.2298 39.5024 21.1891 39.9225 21.1969 40.4095C21.1994 40.9081 21.2722 41.4441 21.4255 41.696C21.5054 41.8304 21.6614 42.0077 21.8461 42.1838C22.0363 42.354 22.2505 42.5518 22.4569 42.6984L22.9747 41.2964L22.9259 41.2238C22.7736 40.9948 22.5871 40.7729 22.3958 40.5741C22.2047 40.381 22.0134 40.1822 21.841 40.0286C21.6628 39.8694 21.5085 39.7379 21.4073 39.6445C21.2948 39.5515 21.2298 39.5024 21.2298 39.5024Z" fill="black" fill-opacity="0.25"/>
<path d="M13.3758 34.4114C13.3698 34.6925 13.4717 35.2388 13.6276 35.7027C13.6998 35.9349 13.7716 36.1556 13.835 36.3079C13.8984 36.4601 13.9368 36.5618 13.9368 36.5618C13.9368 36.5618 14.1861 36.4889 14.4227 36.2387C14.5439 36.1136 14.6575 35.9428 14.7402 35.716C14.7817 35.6054 14.817 35.4836 14.84 35.3394C14.8631 35.2009 14.8797 35.0398 14.8843 34.8676C14.8906 34.5922 14.8509 34.3129 14.8171 34.039C14.7776 33.7654 14.7104 33.5159 14.6668 33.2826C14.6177 33.0552 14.5642 32.8624 14.5244 32.7264C14.4844 32.5847 14.464 32.5053 14.464 32.5053C14.464 32.5053 14.1846 32.8316 13.9253 33.2317C13.6603 33.632 13.3936 34.1355 13.3818 34.4169L13.3758 34.4114Z" fill="black" fill-opacity="0.25"/>
<path d="M13.21 32.2568L11.8533 32.8838C11.8793 33.1063 11.9211 33.2938 11.9496 33.436C11.9782 33.5782 11.993 33.6636 11.993 33.6636C11.993 33.6636 12.2387 33.6424 12.5119 33.4481C12.7851 33.2539 13.0746 32.8927 13.21 32.2568Z" fill="black" fill-opacity="0.25"/>
<path d="M16.2634 35.4169C16.2634 35.4169 16.0659 35.7859 15.8893 36.2458C15.8008 36.4728 15.7132 36.7228 15.6591 36.9485C15.605 37.1742 15.5843 37.3757 15.6071 37.5181C15.6362 37.6717 15.7025 37.8984 15.8091 38.1292C15.9156 38.36 16.0518 38.6126 16.1755 38.8427L17.1927 37.7477L17.1778 37.6623C17.1269 37.3891 17.0356 37.1118 16.9341 36.8636C16.8376 36.598 16.7306 36.3558 16.6304 36.1419C16.5304 35.9337 16.4428 35.748 16.3746 35.6189C16.3064 35.4897 16.2634 35.4169 16.2634 35.4169Z" fill="black" fill-opacity="0.25"/>
<path d="M10.9614 27.7145C10.8455 27.9713 10.7297 28.5205 10.6972 29.0033C10.6478 29.4926 10.6588 29.9163 10.6588 29.9163C10.6588 29.9163 10.918 29.9462 11.2275 29.8021C11.5486 29.6575 11.8976 29.3513 12.182 28.7152C12.2924 28.4644 12.3619 28.1922 12.4373 27.9255C12.5127 27.6588 12.5426 27.3997 12.5906 27.1628C12.633 26.9318 12.6594 26.7301 12.6711 26.592C12.6826 26.4483 12.6964 26.3617 12.6964 26.3617C12.6964 26.3617 12.6009 26.4114 12.4551 26.4917C12.3149 26.5718 12.1189 26.6884 11.9181 26.8282C11.5217 27.0962 11.0717 27.4579 10.9614 27.7145Z" fill="black" fill-opacity="0.25"/>
<path d="M11.63 25.6583L10.1362 25.7174C10.0325 26.14 9.96622 26.4923 9.96622 26.4923C9.96622 26.4923 10.2041 26.5632 10.528 26.493C10.8518 26.4171 11.2672 26.1943 11.63 25.6583Z" fill="black" fill-opacity="0.25"/>
<path d="M13.2348 29.7519C13.2348 29.7519 12.9128 30.0169 12.5713 30.3686C12.4007 30.5474 12.2305 30.7375 12.0892 30.9323C11.9534 31.1211 11.8514 31.2971 11.8225 31.4359C11.7883 31.5863 11.7747 31.8218 11.7792 32.0796C11.7894 32.3372 11.8177 32.6169 11.851 32.8793L13.2077 32.2524L13.2272 32.1656C13.2852 31.8939 13.3025 31.6066 13.3088 31.3312C13.3206 31.0498 13.3159 30.7863 13.2952 30.5521C13.2878 30.0766 13.2346 29.7462 13.2346 29.7462L13.2348 29.7519Z" fill="black" fill-opacity="0.25"/>
<g filter="url(#filter2_d_1573_56182)">
<path d="M28.3696 34.2585C26.88 34.2585 25.5566 34.0031 24.3994 33.4922C23.2484 32.9751 22.3435 32.2642 21.6849 31.3594C21.0263 30.4545 20.6939 29.4143 20.6878 28.2386H25.8582C25.8644 28.6018 25.9752 28.928 26.1906 29.2173C26.4122 29.5005 26.7138 29.7221 27.0954 29.8821C27.4771 30.0421 27.9141 30.1222 28.4065 30.1222C28.8805 30.1222 29.299 30.0391 29.6622 29.8729C30.0254 29.7005 30.3085 29.4635 30.5116 29.1619C30.7148 28.8603 30.8132 28.5156 30.8071 28.1278C30.8132 27.7462 30.6963 27.4077 30.4562 27.1122C30.2223 26.8168 29.893 26.5859 29.4683 26.4197C29.0436 26.2536 28.5542 26.1705 28.0003 26.1705H26.0798V22.625H28.0003C28.5112 22.625 28.9605 22.5419 29.3483 22.3757C29.7422 22.2095 30.0469 21.9787 30.2623 21.6832C30.4839 21.3878 30.5916 21.0492 30.5855 20.6676C30.5916 20.2983 30.5024 19.9721 30.3177 19.6889C30.1331 19.4058 29.8746 19.1842 29.5422 19.0241C29.2159 18.8641 28.8374 18.7841 28.4065 18.7841C27.9387 18.7841 27.5202 18.8672 27.1508 19.0334C26.7877 19.1996 26.5015 19.4304 26.2922 19.7259C26.0829 20.0213 25.9752 20.3598 25.969 20.7415H21.0571C21.0632 19.5843 21.3802 18.5625 22.0081 17.6761C22.6421 16.7898 23.51 16.0942 24.6118 15.5895C25.7136 15.0848 26.9785 14.8324 28.4065 14.8324C29.8038 14.8324 31.0379 15.0694 32.1089 15.5433C33.1861 16.0173 34.0263 16.6697 34.6295 17.5007C35.2389 18.3255 35.5405 19.2704 35.5344 20.3352C35.5467 21.3939 35.1835 22.2618 34.4449 22.9389C33.7124 23.616 32.7829 24.0161 31.6565 24.1392V24.2869C33.183 24.4531 34.331 24.9209 35.1004 25.6903C35.8698 26.4536 36.2484 27.4138 36.2361 28.571C36.2422 29.679 35.9098 30.6607 35.2389 31.5163C34.5741 32.3719 33.6478 33.0429 32.4598 33.5291C31.278 34.0154 29.9146 34.2585 28.3696 34.2585Z" fill="#D9BB52"/>
<path d="M28.3696 34.2585C26.88 34.2585 25.5566 34.0031 24.3994 33.4922C23.2484 32.9751 22.3435 32.2642 21.6849 31.3594C21.0263 30.4545 20.6939 29.4143 20.6878 28.2386H25.8582C25.8644 28.6018 25.9752 28.928 26.1906 29.2173C26.4122 29.5005 26.7138 29.7221 27.0954 29.8821C27.4771 30.0421 27.9141 30.1222 28.4065 30.1222C28.8805 30.1222 29.299 30.0391 29.6622 29.8729C30.0254 29.7005 30.3085 29.4635 30.5116 29.1619C30.7148 28.8603 30.8132 28.5156 30.8071 28.1278C30.8132 27.7462 30.6963 27.4077 30.4562 27.1122C30.2223 26.8168 29.893 26.5859 29.4683 26.4197C29.0436 26.2536 28.5542 26.1705 28.0003 26.1705H26.0798V22.625H28.0003C28.5112 22.625 28.9605 22.5419 29.3483 22.3757C29.7422 22.2095 30.0469 21.9787 30.2623 21.6832C30.4839 21.3878 30.5916 21.0492 30.5855 20.6676C30.5916 20.2983 30.5024 19.9721 30.3177 19.6889C30.1331 19.4058 29.8746 19.1842 29.5422 19.0241C29.2159 18.8641 28.8374 18.7841 28.4065 18.7841C27.9387 18.7841 27.5202 18.8672 27.1508 19.0334C26.7877 19.1996 26.5015 19.4304 26.2922 19.7259C26.0829 20.0213 25.9752 20.3598 25.969 20.7415H21.0571C21.0632 19.5843 21.3802 18.5625 22.0081 17.6761C22.6421 16.7898 23.51 16.0942 24.6118 15.5895C25.7136 15.0848 26.9785 14.8324 28.4065 14.8324C29.8038 14.8324 31.0379 15.0694 32.1089 15.5433C33.1861 16.0173 34.0263 16.6697 34.6295 17.5007C35.2389 18.3255 35.5405 19.2704 35.5344 20.3352C35.5467 21.3939 35.1835 22.2618 34.4449 22.9389C33.7124 23.616 32.7829 24.0161 31.6565 24.1392V24.2869C33.183 24.4531 34.331 24.9209 35.1004 25.6903C35.8698 26.4536 36.2484 27.4138 36.2361 28.571C36.2422 29.679 35.9098 30.6607 35.2389 31.5163C34.5741 32.3719 33.6478 33.0429 32.4598 33.5291C31.278 34.0154 29.9146 34.2585 28.3696 34.2585Z" fill="url(#paint4_linear_1573_56182)" fill-opacity="0.2"/>
<path d="M24.3994 33.4922L24.1945 33.9483L24.1975 33.9496L24.3994 33.4922ZM21.6849 31.3594L22.0892 31.0651L21.6849 31.3594ZM20.6878 28.2386V27.7386H20.1851L20.1878 28.2413L20.6878 28.2386ZM25.8582 28.2386L26.3581 28.2302L26.3498 27.7386H25.8582V28.2386ZM26.1906 29.2173L25.7895 29.516L25.7969 29.5255L26.1906 29.2173ZM27.0954 29.8821L26.9021 30.3432L27.0954 29.8821ZM29.6622 29.8729L29.8703 30.3276L29.8766 30.3246L29.6622 29.8729ZM30.5116 29.1619L30.9263 29.4412L30.5116 29.1619ZM30.8071 28.1278L30.3071 28.1198L30.307 28.1278L30.3071 28.1358L30.8071 28.1278ZM30.4562 27.1122L30.0642 27.4226L30.0682 27.4275L30.4562 27.1122ZM26.0798 26.1705H25.5798V26.6705H26.0798V26.1705ZM26.0798 22.625V22.125H25.5798V22.625H26.0798ZM29.3483 22.3757L29.1539 21.915L29.1513 21.9161L29.3483 22.3757ZM30.2623 21.6832L29.8623 21.3832L29.8583 21.3887L30.2623 21.6832ZM30.5855 20.6676L30.0856 20.6593L30.0854 20.6675L30.0856 20.6757L30.5855 20.6676ZM30.3177 19.6889L29.8989 19.9621L30.3177 19.6889ZM29.5422 19.0241L29.322 19.4731L29.3253 19.4746L29.5422 19.0241ZM27.1508 19.0334L26.9456 18.5774L26.9428 18.5787L27.1508 19.0334ZM26.2922 19.7259L26.7002 20.0149V20.0149L26.2922 19.7259ZM25.969 20.7415V21.2415H26.461L26.469 20.7495L25.969 20.7415ZM21.0571 20.7415L20.5571 20.7388L20.5544 21.2415H21.0571V20.7415ZM22.0081 17.6761L21.6014 17.3852L21.6001 17.3871L22.0081 17.6761ZM24.6118 15.5895L24.82 16.0441L24.6118 15.5895ZM32.1089 15.5433L31.9066 16.0006L31.9076 16.001L32.1089 15.5433ZM34.6295 17.5007L34.2249 17.7945L34.2274 17.7978L34.6295 17.5007ZM35.5344 20.3352L35.0343 20.3323L35.0344 20.341L35.5344 20.3352ZM34.4449 22.9389L34.107 22.5703L34.1055 22.5718L34.4449 22.9389ZM31.6565 24.1392L31.6022 23.6422L31.1565 23.6909V24.1392H31.6565ZM31.6565 24.2869H31.1565V24.7355L31.6024 24.784L31.6565 24.2869ZM35.1004 25.6903L34.7469 26.0439L34.7483 26.0453L35.1004 25.6903ZM36.2361 28.571L35.736 28.5657L35.7361 28.5738L36.2361 28.571ZM35.2389 31.5163L34.8454 31.2078L34.8441 31.2096L35.2389 31.5163ZM32.4598 33.5291L32.2704 33.0664L32.2695 33.0667L32.4598 33.5291ZM28.3696 33.7585C26.9373 33.7585 25.6847 33.513 24.6014 33.0348L24.1975 33.9496C25.4286 34.4931 26.8227 34.7585 28.3696 34.7585V33.7585ZM24.6043 33.0361C23.5223 32.5501 22.6903 31.891 22.0892 31.0651L21.2807 31.6536C21.9968 32.6375 22.9744 33.4002 24.1945 33.9483L24.6043 33.0361ZM22.0892 31.0651C21.4955 30.2495 21.1934 29.3125 21.1878 28.236L20.1878 28.2413C20.1944 29.5161 20.5571 30.6596 21.2807 31.6536L22.0892 31.0651ZM20.6878 28.7386H25.8582V27.7386H20.6878V28.7386ZM25.3583 28.2471C25.3662 28.7142 25.5111 29.1421 25.7896 29.516L26.5916 28.9187C26.4392 28.714 26.3625 28.4894 26.3581 28.2302L25.3583 28.2471ZM25.7969 29.5255C26.0786 29.8855 26.4537 30.1552 26.9021 30.3432L27.2888 29.421C26.9739 29.289 26.7458 29.1155 26.5844 28.9092L25.7969 29.5255ZM26.9021 30.3432C27.3554 30.5333 27.8601 30.6222 28.4065 30.6222V29.6222C27.9681 29.6222 27.5987 29.551 27.2888 29.421L26.9021 30.3432ZM28.4065 30.6222C28.939 30.6222 29.4308 30.5287 29.8703 30.3275L29.4541 29.4182C29.1673 29.5495 28.8219 29.6222 28.4065 29.6222V30.6222ZM29.8766 30.3246C30.312 30.1179 30.6679 29.8249 30.9263 29.4412L30.0969 28.8826C29.9491 29.1022 29.7387 29.2831 29.4478 29.4212L29.8766 30.3246ZM30.9263 29.4412C31.1905 29.0491 31.3147 28.6027 31.307 28.1199L30.3071 28.1358C30.3118 28.4285 30.2391 28.6716 30.0969 28.8826L30.9263 29.4412ZM31.307 28.1359C31.3151 27.637 31.1587 27.1839 30.8443 26.7969L30.0682 27.4275C30.2339 27.6314 30.3114 27.8554 30.3071 28.1198L31.307 28.1359ZM30.8483 26.8019C30.5489 26.4237 30.1404 26.1458 29.6505 25.9541L29.2861 26.8854C29.6457 27.0261 29.8958 27.2098 30.0642 27.4226L30.8483 26.8019ZM29.6505 25.9541C29.1567 25.7609 28.6036 25.6705 28.0003 25.6705V26.6705C28.5049 26.6705 28.9304 26.7462 29.2861 26.8854L29.6505 25.9541ZM28.0003 25.6705H26.0798V26.6705H28.0003V25.6705ZM26.5798 26.1705V22.625H25.5798V26.1705H26.5798ZM26.0798 23.125H28.0003V22.125H26.0798V23.125ZM28.0003 23.125C28.5649 23.125 29.0836 23.0331 29.5452 22.8353L29.1513 21.9161C28.8374 22.0507 28.4574 22.125 28.0003 22.125V23.125ZM29.5426 22.8364C30.0059 22.641 30.3889 22.3583 30.6663 21.9778L29.8583 21.3887C29.7049 21.5991 29.4785 21.7781 29.1539 21.915L29.5426 22.8364ZM30.6623 21.9832C30.9529 21.5959 31.0933 21.1481 31.0854 20.6595L30.0856 20.6757C30.09 20.9504 30.015 21.1797 29.8623 21.3832L30.6623 21.9832ZM31.0854 20.6759C31.0931 20.2165 30.9808 19.7903 30.7365 19.4158L29.8989 19.9621C30.024 20.1538 30.0902 20.3801 30.0856 20.6593L31.0854 20.6759ZM30.7365 19.4158C30.4975 19.0493 30.1659 18.7695 29.7591 18.5736L29.3253 19.4746C29.5832 19.5988 29.7686 19.7623 29.8989 19.9621L30.7365 19.4158ZM29.7624 18.5753C29.356 18.3759 28.8997 18.2841 28.4065 18.2841V19.2841C28.7751 19.2841 29.0759 19.3523 29.322 19.473L29.7624 18.5753ZM28.4065 18.2841C27.8789 18.2841 27.3887 18.378 26.9457 18.5774L27.356 19.4893C27.6516 19.3563 27.9985 19.2841 28.4065 19.2841V18.2841ZM26.9428 18.5787C26.508 18.7777 26.1495 19.0623 25.8842 19.4368L26.7002 20.0149C26.8534 19.7985 27.0673 19.6215 27.3589 19.488L26.9428 18.5787ZM25.8842 19.4368C25.6134 19.8191 25.4768 20.2568 25.4691 20.7334L26.469 20.7495C26.4736 20.4629 26.5524 20.2235 26.7002 20.0149L25.8842 19.4368ZM25.969 20.2415H21.0571V21.2415H25.969V20.2415ZM21.5571 20.7441C21.5627 19.6825 21.8515 18.7622 22.4161 17.9651L21.6001 17.3871C20.9089 18.3628 20.5638 19.4861 20.5571 20.7388L21.5571 20.7441ZM22.4148 17.967C22.9925 17.1593 23.7884 16.5166 24.82 16.0441L24.4035 15.1349C23.2315 15.6718 22.2917 16.4202 21.6014 17.3853L22.4148 17.967ZM24.82 16.0441C25.8458 15.5741 27.0377 15.3324 28.4065 15.3324V14.3324C26.9193 14.3324 25.5813 14.5954 24.4035 15.1349L24.82 16.0441ZM28.4065 15.3324C29.7473 15.3324 30.9104 15.5597 31.9066 16.0006L32.3113 15.0861C31.1654 14.579 29.8602 14.3324 28.4065 14.3324V15.3324ZM31.9076 16.001C32.9157 16.4446 33.6809 17.0451 34.2249 17.7944L35.0342 17.207C34.3717 16.2944 33.4565 15.59 32.3103 15.0857L31.9076 16.001ZM34.2274 17.7978C34.77 18.5323 35.0399 19.371 35.0344 20.3323L36.0343 20.3381C36.0411 19.1698 35.7078 18.1187 35.0317 17.2036L34.2274 17.7978ZM35.0344 20.341C35.0452 21.2667 34.7343 21.9953 34.107 22.5703L34.7827 23.3075C35.6327 22.5284 36.0482 21.5212 36.0343 20.3294L35.0344 20.341ZM34.1055 22.5718C33.4621 23.1664 32.6373 23.529 31.6022 23.6422L31.7108 24.6362C32.9286 24.5032 33.9626 24.0656 34.7843 23.3061L34.1055 22.5718ZM31.1565 24.1392V24.2869H32.1565V24.1392H31.1565ZM31.6024 24.784C33.0614 24.9428 34.0854 25.3824 34.7469 26.0439L35.454 25.3368C34.5766 24.4594 33.3047 23.9634 31.7106 23.7899L31.6024 24.784ZM34.7483 26.0453C35.4147 26.7064 35.7471 27.5334 35.7361 28.5657L36.736 28.5763C36.7497 27.2942 36.3249 26.2008 35.4525 25.3354L34.7483 26.0453ZM35.7361 28.5738C35.7416 29.5713 35.4453 30.4428 34.8454 31.2078L35.6324 31.8249C36.3743 30.8787 36.7428 29.7867 36.7361 28.5682L35.7361 28.5738ZM34.8441 31.2096C34.2421 31.9843 33.3924 32.6071 32.2704 33.0664L32.6492 33.9919C33.9031 33.4786 34.9062 32.7595 35.6337 31.8231L34.8441 31.2096ZM32.2695 33.0667C31.1593 33.5236 29.8626 33.7585 28.3696 33.7585V34.7585C29.9665 34.7585 31.3967 34.5072 32.65 33.9915L32.2695 33.0667Z" fill="white"/>
</g>
<defs>
<filter id="filter0_d_1573_56182" x="27.5" y="4.5" width="175" height="50" filterUnits="userSpaceOnUse" color-interpolation-filters="sRGB">
<feFlood flood-opacity="0" result="BackgroundImageFix"/>
<feColorMatrix in="SourceAlpha" type="matrix" values="0 0 0 0 0 0 0 0 0 0 0 0 0 0 0 0 0 0 127 0" result="hardAlpha"/>
<feOffset dy="4"/>
<feGaussianBlur stdDeviation="2"/>
<feComposite in2="hardAlpha" operator="out"/>
<feColorMatrix type="matrix" values="0 0 0 0 0 0 0 0 0 0 0 0 0 0 0 0 0 0 0.25 0"/>
<feBlend mode="normal" in2="BackgroundImageFix" result="effect1_dropShadow_1573_56182"/>
<feBlend mode="normal" in="SourceGraphic" in2="effect1_dropShadow_1573_56182" result="shape"/>
</filter>
<filter id="filter1_d_1573_56182" x="0.5" y="0.5" width="57" height="57" filterUnits="userSpaceOnUse" color-interpolation-filters="sRGB">
<feFlood flood-opacity="0" result="BackgroundImageFix"/>
<feColorMatrix in="SourceAlpha" type="matrix" values="0 0 0 0 0 0 0 0 0 0 0 0 0 0 0 0 0 0 127 0" result="hardAlpha"/>
<feOffset dy="4"/>
<feGaussianBlur stdDeviation="2"/>
<feComposite in2="hardAlpha" operator="out"/>
<feColorMatrix type="matrix" values="0 0 0 0 0 0 0 0 0 0 0 0 0 0 0 0 0 0 0.25 0"/>
<feBlend mode="normal" in2="BackgroundImageFix" result="effect1_dropShadow_1573_56182"/>
<feBlend mode="normal" in="SourceGraphic" in2="effect1_dropShadow_1573_56182" result="shape"/>
</filter>
<filter id="filter2_d_1573_56182" x="10.6875" y="4.83238" width="35.5664" height="39.4261" filterUnits="userSpaceOnUse" color-interpolation-filters="sRGB">
<feFlood flood-opacity="0" result="BackgroundImageFix"/>
<feColorMatrix in="SourceAlpha" type="matrix" values="0 0 0 0 0 0 0 0 0 0 0 0 0 0 0 0 0 0 127 0" result="hardAlpha"/>
<feOffset/>
<feGaussianBlur stdDeviation="5"/>
<feComposite in2="hardAlpha" operator="out"/>
<feColorMatrix type="matrix" values="0 0 0 0 0 0 0 0 0 0 0 0 0 0 0 0 0 0 0.4 0"/>
<feBlend mode="normal" in2="BackgroundImageFix" result="effect1_dropShadow_1573_56182"/>
<feBlend mode="normal" in="SourceGraphic" in2="effect1_dropShadow_1573_56182" result="shape"/>
</filter>
<linearGradient id="paint0_linear_1573_56182" x1="115" y1="5" x2="115" y2="46" gradientUnits="userSpaceOnUse">
<stop offset="0.520733" stop-opacity="0"/>
<stop offset="0.520833"/>
<stop offset="1" stop-opacity="0"/>
</linearGradient>
<linearGradient id="paint1_linear_1573_56182" x1="29" y1="1" x2="29" y2="49" gradientUnits="userSpaceOnUse">
<stop offset="0.520733" stop-opacity="0"/>
<stop offset="0.520833"/>
<stop offset="1" stop-opacity="0"/>
</linearGradient>
<linearGradient id="paint2_linear_1573_56182" x1="28.989" y1="2.68315" x2="28.989" y2="47.2949" gradientUnits="userSpaceOnUse">
<stop stop-opacity="0"/>
<stop offset="0.520833"/>
<stop offset="0.520933" stop-opacity="0"/>
</linearGradient>
<linearGradient id="paint3_linear_1573_56182" x1="28.9901" y1="9.4607" x2="28.9901" y2="40.5195" gradientUnits="userSpaceOnUse">
<stop stop-opacity="0"/>
<stop offset="0.520833"/>
<stop offset="0.520933" stop-opacity="0"/>
</linearGradient>
<linearGradient id="paint4_linear_1573_56182" x1="28.5" y1="1" x2="28.5" y2="49" gradientUnits="userSpaceOnUse">
<stop offset="0.520733" stop-opacity="0"/>
<stop offset="0.520833"/>
<stop offset="1" stop-opacity="0"/>
</linearGradient>
</defs>
</svg>
