<svg width="18" height="18" viewBox="0 0 18 18" fill="none" xmlns="http://www.w3.org/2000/svg">
<path d="M2.12875 10.435C2.12875 9.23503 1.76502 3.61035 2.71747 2.50291C4.32489 0.633022 6.24479 1.94545 8.38092 1.94545C10.5171 1.94545 12.047 0.801762 13.1644 2.46667C14.1031 3.86534 13.7369 9.03754 13.7369 10.435C13.7369 14.3485 11.1383 16.4971 7.93345 16.4971C4.72862 16.4971 2.12875 14.4297 2.12875 10.435Z" fill="#F04E3E"/>
<path d="M9.33542 13.4524C10.7978 13.4524 11.4803 14.3136 11.779 14.6348C11.8903 14.7548 12.0053 14.7073 12.0053 14.7073C12.0053 13.9998 11.1591 12.0512 9.33542 12.0512C7.26553 12.0512 5.9881 13.2361 5.63062 14.7073C5.53312 15.1098 7.39677 13.4524 9.33542 13.4524Z" fill="#FFF8E1"/>
<path d="M12.8287 4.92802C11.8362 4.55929 11.0025 5.34425 10.68 5.66923C10.2775 6.07546 9.41135 6.73042 9.10886 5.84547C9.01887 5.58048 9.10011 5.278 8.96512 5.03302C8.93637 4.98177 8.89887 4.93177 8.84637 4.90677C8.79388 4.88177 8.72263 4.88552 8.68388 4.92927C8.64389 4.97552 8.64889 5.04427 8.65638 5.10426C8.69638 5.41549 8.68888 5.66298 8.49889 5.93046C8.2889 6.2242 7.89768 6.39544 7.55144 6.29169C7.28396 6.21045 7.15147 6.01671 6.98397 5.81672C6.79898 5.59673 6.514 5.393 6.28276 5.22176C5.63655 4.74428 5.20407 4.60179 4.01288 4.96177C3.28042 5.18301 2.90669 4.80053 2.92794 4.18931C2.94919 3.56685 3.11918 2.90689 3.40291 2.42442C3.60915 2.07194 4.15162 1.66821 4.5291 1.51697C3.6829 1.55697 3.18543 1.7582 2.63046 2.62315C1.84175 3.85183 2.12923 9.48526 2.12923 10.6852C2.12923 14.6812 4.72784 16.4974 7.93267 16.4974C8.66014 16.4974 9.39635 16.4086 10.2526 16.0774C10.1413 16.0799 5.14782 16.8273 4.06038 13.8338C3.7329 12.9313 3.73665 11.9389 3.6779 10.9977C3.03918 10.6027 2.61796 8.55281 3.5929 8.05409C4.07913 7.80536 4.6216 7.79786 5.21657 8.32658C6.02778 9.04904 6.81648 8.84405 7.4202 8.62156C7.79393 8.48407 8.07017 8.23658 8.26641 8.14159C8.58389 7.9866 8.84138 8.08534 8.95387 8.18409C9.14011 8.34908 9.29635 9.19778 11.7612 9.08528C13.0624 9.02654 13.8161 8.17034 13.8161 8.17034C13.8436 7.02665 13.8674 5.313 12.8287 4.92802ZM10.64 5.93296L10.7625 5.99421C10.7613 6.01671 10.76 6.03921 10.7588 6.06046C10.7188 6.00546 10.6788 5.95796 10.64 5.93296Z" fill="#B71C1C"/>
<path d="M4.42039 6.19343C4.3329 5.7722 4.66288 5.37723 5.09286 5.39473C5.54658 5.41347 6.14405 5.49347 6.71027 5.73971C7.40898 6.04469 7.9702 6.82589 7.74772 7.64835C7.60772 8.16457 7.27899 8.57704 6.26904 8.4783C5.37534 8.39205 4.65913 7.33961 4.42039 6.19343Z" fill="#FFECB3"/>
<path d="M12.3587 10.0599C12.3599 10.2086 12.3462 10.4011 12.2937 10.6323C12.2937 10.6323 12.8674 10.8061 13.4361 9.3149C13.4574 9.2574 13.5011 9.21365 13.5486 9.21865C13.6423 9.22865 13.6986 9.36989 13.7261 9.49364C13.9598 10.5223 13.6586 11.7298 13.0124 12.3585C12.8586 12.5085 12.3549 12.7097 11.8824 12.546C11.6487 12.4647 9.85505 11.4173 9.39008 11.3623C9.07634 11.3248 9.43132 10.9361 9.54632 10.8248C9.86755 10.5123 10.75 10.7211 11.3637 10.3936C11.6925 10.2173 11.9474 10.0199 12.1099 9.87861C12.2174 9.78487 12.3562 9.88736 12.3587 10.0599Z" fill="#281010"/>
<path d="M12.9002 6.19343C12.9877 5.7722 12.6577 5.37723 12.2277 5.39473C11.774 5.41347 11.1765 5.49347 10.6103 5.73971C9.91157 6.04469 9.35035 6.82589 9.57284 7.64835C9.71283 8.16457 10.2666 8.61829 11.0515 8.4783C12.2415 8.26706 12.6614 7.33961 12.9002 6.19343Z" fill="#FFECB3"/>
<path d="M6.37176 8.00358C6.768 8.00358 7.08922 7.66781 7.08922 7.25362C7.08922 6.83943 6.768 6.50366 6.37176 6.50366C5.97552 6.50366 5.6543 6.83943 5.6543 7.25362C5.6543 7.66781 5.97552 8.00358 6.37176 8.00358Z" fill="#212121"/>
<path d="M11.0417 8.00358C11.4379 8.00358 11.7591 7.66781 11.7591 7.25362C11.7591 6.83943 11.4379 6.50366 11.0417 6.50366C10.6454 6.50366 10.3242 6.83943 10.3242 7.25362C10.3242 7.66781 10.6454 8.00358 11.0417 8.00358Z" fill="#212121"/>
<path d="M4.57126 10.0599C4.56876 10.2086 4.58876 10.4011 4.65876 10.6323C4.65876 10.6323 3.88505 10.8061 3.11634 9.3149C3.08634 9.2574 3.02884 9.21365 2.96385 9.21865C2.83635 9.22865 2.76261 9.36989 2.72386 9.49364C2.40763 10.5223 2.81385 11.7298 3.68631 12.3585C3.89505 12.5085 4.57376 12.7097 5.21123 12.546C5.52746 12.4647 7.94858 11.4173 8.57605 11.3623C8.99977 11.3248 8.5198 10.9361 8.36606 10.8248C7.93233 10.5123 6.74115 10.7211 5.91244 10.3936C5.46746 10.2173 5.12373 10.0199 4.90624 9.87861C4.7625 9.78487 4.57501 9.88736 4.57126 10.0599Z" fill="#281010"/>
<path d="M3.80812 11.0916C4.21935 11.3579 4.73433 11.4604 5.2168 11.3716C5.2168 11.3716 4.83932 11.0804 4.64683 10.5817C4.65183 10.5992 4.65433 10.6142 4.66058 10.6317C4.66058 10.6317 3.88687 10.8054 3.11816 9.31424C3.09441 9.26924 3.05316 9.23299 3.00567 9.22174C2.95692 10.1029 3.3969 10.8254 3.80812 11.0916Z" fill="#394D57"/>
<path d="M8.36762 10.8245C7.9339 10.512 6.74271 10.7208 5.914 10.3933C5.46903 10.2171 5.12529 10.0196 4.90781 9.87832C4.87031 9.85332 4.82906 9.84332 4.78906 9.84332C5.15029 10.0121 5.46903 10.912 6.44772 10.9145C6.8677 10.9158 7.28768 10.857 7.70766 10.8708C8.06514 10.882 8.43637 10.962 8.72135 11.1682C8.64886 11.0408 8.45512 10.887 8.36762 10.8245Z" fill="#394D57"/>
<path d="M13.6592 8.06315C12.2356 8.8781 11.2194 9.25308 9.90693 8.8181C9.21822 8.58937 8.96448 8.18939 8.96448 8.18939C8.96448 8.18939 8.05078 8.7631 8.05078 9.43057C8.05078 10.098 8.40201 10.5005 8.90199 10.713C9.5232 10.9767 11.3844 11.4005 13.8055 10.9555C15.6791 10.6105 17.2615 9.44307 16.3791 8.07314C15.8866 7.30569 14.7929 7.41443 13.6592 8.06315Z" fill="#F44336"/>
<path d="M9.26037 13.2359C7.52546 13.1672 6.02554 14.5909 5.93305 14.5646C5.8868 14.5521 5.8518 14.5084 5.8493 14.4609C5.84805 14.4359 5.70681 14.4746 5.68806 14.4896C5.49307 14.6446 5.48182 14.7871 5.49682 14.8021C5.55432 14.8596 5.62556 14.9821 6.05179 14.8171C6.13679 14.7846 7.86419 13.7859 9.36036 13.8996C10.6265 13.9959 11.504 14.6159 11.6465 14.7171C11.7127 14.7646 11.7502 14.7896 11.7965 14.8033C11.8427 14.8171 12.0027 14.8121 12.0177 14.7096C12.0252 14.6596 10.9078 13.3009 9.26037 13.2359Z" fill="#B31B1B"/>
<path d="M6.15073 14.0569C6.40446 13.6282 7.37191 12.297 9.14932 12.3232C10.668 12.3457 11.4917 13.9669 11.6354 14.2456C11.6779 14.3281 11.9117 14.9206 12.0192 14.7319C12.0517 14.6744 12.0467 14.6031 12.0342 14.5381C11.8929 13.8344 10.978 11.7908 9.12307 11.7908C7.62565 11.7908 6.47946 12.5295 5.73825 13.9256C5.62575 14.1369 5.49951 14.4094 5.46951 14.6469C5.45326 14.7744 5.51201 14.8518 5.59076 14.8518C5.7445 14.8506 6.03698 14.2494 6.15073 14.0569Z" fill="#CC2D2D"/>
<path d="M8.15109 15.0422C8.22608 14.7109 8.60481 14.3797 9.26603 14.3797C9.77225 14.3797 10.0897 14.8522 10.0897 15.1034C10.0897 15.3396 9.92849 15.3459 9.7685 15.2559C9.59726 15.1597 9.44977 15.0634 9.21478 15.0634C8.84855 15.0634 8.72981 15.2671 8.44482 15.3134C8.24983 15.3434 8.11234 15.2084 8.15109 15.0422Z" fill="#FF8A66"/>
<path d="M6.17299 5.61379C6.47798 5.88127 6.82796 6.10376 7.21044 6.23875C7.44167 6.32 7.72666 6.355 7.90915 6.19126C8.18539 5.94377 8.02664 5.12882 7.95165 4.81008C7.8554 4.39761 7.67541 4.00263 7.42293 3.66265C7.35668 3.57391 7.21794 3.59765 7.18294 3.70265L6.9892 4.29386C6.50797 3.25642 5.968 2.8202 5.66552 2.64646C5.56927 2.59146 5.45428 2.67396 5.47678 2.78145C5.50928 2.94019 5.54928 3.14143 5.56927 3.27267C5.0318 2.85645 4.35309 2.62271 3.67188 2.62146C3.75312 2.62271 4.1006 3.79889 6.17299 5.61379Z" fill="#281010"/>
<path d="M5.82676 4.10334L5.72177 3.37963C5.72177 3.37963 6.29674 3.70211 7.08794 4.96704L7.20419 4.25208C7.67541 4.7058 7.97415 5.58575 7.8904 6.20447C7.89165 6.20447 7.8904 6.20447 7.89165 6.20572C8.19164 5.97573 8.02789 5.13578 7.95165 4.80955C7.8554 4.39707 7.67541 4.00459 7.42418 3.66461C7.35793 3.57462 7.21669 3.59962 7.18169 3.70586L6.9892 4.29458C6.50797 3.25839 5.9705 2.82341 5.66677 2.64842C5.57052 2.59342 5.45428 2.67592 5.47678 2.78466C5.50928 2.9434 5.54928 3.14339 5.56927 3.27464C5.0318 2.85841 4.35309 2.62467 3.67188 2.62342C3.67188 2.62217 4.52308 2.74342 5.82676 4.10334Z" fill="#394D57"/>
<path d="M11.0565 5.64817C10.7953 5.9019 10.4953 6.11189 10.1678 6.24064C9.96905 6.31813 9.72531 6.35063 9.56907 6.19564C9.33283 5.96065 9.46908 5.18945 9.53282 4.88696C9.61532 4.49574 9.76906 4.12326 9.98655 3.79953C10.0428 3.71578 10.1615 3.73828 10.1915 3.83827L10.3578 4.39824C10.7703 3.4158 11.2315 3.00332 11.4915 2.83833C11.574 2.78583 11.6727 2.86458 11.654 2.96707C11.6265 3.11706 11.5915 3.3083 11.5752 3.4333C12.0364 3.03832 12.6164 2.81833 13.2001 2.81708C13.1289 2.81458 12.8314 3.92952 11.0565 5.64817Z" fill="#281010"/>
<path d="M11.353 4.2184L11.443 3.53219C11.443 3.53219 10.9505 3.83842 10.273 5.03585L10.173 4.35839C9.76931 4.78836 9.51307 5.62207 9.58557 6.20703C9.58432 6.20703 9.58557 6.20703 9.58432 6.20828C9.32683 5.99079 9.46807 5.19459 9.53307 4.88586C9.61556 4.49588 9.76931 4.1234 9.98429 3.80092C10.0405 3.71592 10.1618 3.73967 10.1918 3.83967L10.3568 4.39714C10.768 3.41594 11.2292 3.00347 11.4892 2.83723C11.5717 2.78473 11.6717 2.86347 11.6517 2.96597C11.6242 3.11596 11.5905 3.30595 11.573 3.42969C12.0342 3.03471 12.6142 2.81473 13.1979 2.81348C13.1979 2.81473 12.4679 2.93097 11.353 4.2184Z" fill="#394D57"/>
<path d="M14.265 8.18379C14.9024 7.82381 15.3524 7.9213 15.4574 8.12754C15.6349 8.47627 15.2324 8.8075 14.7974 8.91625C14.2012 9.06499 13.4875 9.23498 13.4087 8.96249C13.3288 8.69001 13.8387 8.42378 14.265 8.18379Z" fill="#FF8A66"/>
<path d="M16.6317 8.84326C16.6317 8.46328 16.3805 8.0733 16.3805 8.0733C16.3805 8.0733 16.478 8.58827 16.0593 9.21699C15.7093 9.74196 14.8731 10.2519 13.7156 10.4644C13.0444 10.5882 12.3682 10.6507 11.7057 10.6507C10.3833 10.6507 9.44461 10.4019 9.09838 10.2544C8.79965 10.1269 8.41467 9.97819 8.05469 9.49822C8.07719 10.1257 8.42092 10.5082 8.90339 10.7144C9.32837 10.8956 10.3358 11.1506 11.707 11.1506C12.337 11.1506 13.0444 11.0969 13.8081 10.9556C15.3143 10.6782 16.633 9.86945 16.633 8.84951C16.6317 8.84826 16.6317 8.84576 16.6317 8.84326Z" fill="#B71C1C"/>
</svg>
