<svg width="18" height="18" viewBox="0 0 18 18" fill="none" xmlns="http://www.w3.org/2000/svg">
<path d="M10.6471 13.375L9.09583 11.9623C8.33506 11.2694 7.95467 10.923 7.52358 10.7918C7.14391 10.6762 6.73844 10.6762 6.35878 10.7918C5.92768 10.923 5.5473 11.2694 4.78652 11.9623L1.18257 15M10.6471 13.375L10.963 13.0873C11.7238 12.3944 12.1042 12.048 12.5352 11.9168C12.9149 11.8012 13.3204 11.8012 13.7 11.9168C14.1311 12.048 14.5115 12.3944 15.2723 13.0873L16.9014 14.6402M10.6471 13.375L14.1721 16.959M5.8 17H12.2C13.8802 17 14.7202 17 15.362 16.673C15.9265 16.3854 16.3854 15.9265 16.673 15.362C17 14.7202 17 13.8802 17 12.2V5.8C17 4.11984 17 3.27976 16.673 2.63803C16.3854 2.07354 15.9265 1.6146 15.362 1.32698C14.7202 1 13.8802 1 12.2 1H5.8C4.11984 1 3.27976 1 2.63803 1.32698C2.07354 1.6146 1.6146 2.07354 1.32698 2.63803C1 3.27976 1 4.11984 1 5.8V12.2C1 13.8802 1 14.7202 1.32698 15.362C1.6146 15.9265 2.07354 16.3854 2.63803 16.673C3.27976 17 4.11984 17 5.8 17ZM14 6C14 7.10457 13.1046 8 12 8C10.8954 8 10 7.10457 10 6C10 4.89543 10.8954 4 12 4C13.1046 4 14 4.89543 14 6Z" stroke="#307FF5" stroke-width="2" stroke-linecap="round" stroke-linejoin="round"/>
</svg>
