<svg width="21" height="20" viewBox="0 0 21 20" fill="none" xmlns="http://www.w3.org/2000/svg">
<path d="M12 9.5V8.5C12 7.39543 11.1046 6.5 10 6.5C8.89543 6.5 8 7.39543 8 8.5V9.5M19.0039 10C19.0039 14.9706 14.9745 19 10.0039 19C7.9675 19 1.00463 19 1.00463 19C1.00463 19 2.56382 15.2561 1.93982 14.0008C1.34076 12.7956 1.00391 11.4372 1.00391 10C1.00391 5.02944 5.03334 1 10.0039 1C14.9745 1 19.0039 5.02944 19.0039 10ZM8.1 13.5H11.9C12.4601 13.5 12.7401 13.5 12.954 13.391C13.1422 13.2951 13.2951 13.1422 13.391 12.954C13.5 12.7401 13.5 12.4601 13.5 11.9V11.1C13.5 10.5399 13.5 10.2599 13.391 10.046C13.2951 9.85785 13.1422 9.70487 12.954 9.60899C12.7401 9.5 12.4601 9.5 11.9 9.5H8.1C7.53995 9.5 7.25992 9.5 7.04601 9.60899C6.85785 9.70487 6.70487 9.85785 6.60899 10.046C6.5 10.2599 6.5 10.5399 6.5 11.1V11.9C6.5 12.4601 6.5 12.7401 6.60899 12.954C6.70487 13.1422 6.85785 13.2951 7.04601 13.391C7.25992 13.5 7.53995 13.5 8.1 13.5Z" stroke="#659D5C" stroke-width="2" stroke-linecap="round" stroke-linejoin="round"/>
</svg>
