<svg width="24" height="24" viewBox="0 0 24 24" fill="none" xmlns="http://www.w3.org/2000/svg">
<path d="M9.91659 12.2408L17.6645 6.85064L18.8439 8.14655L12.7499 15.354L9.91659 12.2408ZM7.58648 12.652L12.1218 17.6353C12.2157 17.7283 12.3283 17.8003 12.452 17.8466C12.5758 17.8929 12.708 17.9123 12.8399 17.9038C12.9718 17.8952 13.1003 17.8587 13.2171 17.7967C13.3338 17.7348 13.4361 17.6488 13.5171 17.5444L20.9685 8.73139C21.1169 8.56827 21.201 8.35672 21.2049 8.1362C21.2088 7.91569 21.1324 7.70128 20.9898 7.53299L18.4768 4.77183C18.3227 4.6141 18.1164 4.51786 17.8965 4.50105C17.6766 4.48425 17.4581 4.54804 17.2817 4.68051L7.80807 11.2713C7.69651 11.3422 7.60125 11.4359 7.5286 11.5463C7.45595 11.6567 7.40755 11.7813 7.38661 11.9118C7.36567 12.0423 7.37265 12.1757 7.40711 12.3033C7.44156 12.4309 7.5027 12.5498 7.58648 12.652ZM2.79297 18.5277L8.41033 19.5L9.88946 18.1538L6.86057 14.8258L2.79297 18.5277Z" fill="#4B4B4B"/>
</svg>
