<svg width="24" height="24" viewBox="0 0 24 24" fill="none" xmlns="http://www.w3.org/2000/svg">
<path d="M10.1491 4.99999C9.20935 4.98479 8.29278 5.29213 7.55217 5.87079C6.81155 6.44945 6.29164 7.26447 6.07909 8.17999C5.95706 8.76263 5.96661 9.36517 6.10705 9.94365C6.24748 10.5221 6.51527 11.062 6.89087 11.5238C7.26647 11.9857 7.74041 12.3578 8.27814 12.6132C8.81586 12.8686 9.40381 13.0007 9.99909 13V19H11.9991V6.99999H13.9991V19H15.9991V6.99999H17.9991V4.99999H10.1491ZM7.99909 8.99999C7.99909 8.46956 8.20981 7.96085 8.58488 7.58578C8.95995 7.2107 9.46866 6.99999 9.99909 6.99999V11C9.46866 11 8.95995 10.7893 8.58488 10.4142C8.20981 10.0391 7.99909 9.53042 7.99909 8.99999Z" fill="#4B4B4B"/>
</svg>
