<svg width="33" height="32" viewBox="0 0 33 32" fill="none" xmlns="http://www.w3.org/2000/svg">
<path fill-rule="evenodd" clip-rule="evenodd" d="M29.722 7.69349V10.2005C29.722 10.8629 30.2591 11.4 30.9216 11.4C31.584 11.4 32.1211 10.8629 32.1211 10.2005V7.69349C32.1211 3.4445 28.6766 0 24.4276 0H21.9206C21.2581 0 20.7211 0.537049 20.7211 1.19953C20.7211 1.86202 21.2581 2.39907 21.9206 2.39907L24.4276 2.39907C27.3516 2.39907 29.722 4.76946 29.722 7.69349ZM16.4209 7.7002C14.7641 7.7002 13.4209 9.04334 13.4209 10.7002C13.4209 12.357 14.7641 13.7002 16.4209 13.7002C18.0778 13.7002 19.4209 12.357 19.4209 10.7002C19.4209 9.04334 18.0778 7.7002 16.4209 7.7002ZM11.4209 10.7002C11.4209 7.93877 13.6595 5.7002 16.4209 5.7002C19.1824 5.7002 21.4209 7.93877 21.4209 10.7002C21.4209 13.4616 19.1824 15.7002 16.4209 15.7002C13.6595 15.7002 11.4209 13.4616 11.4209 10.7002ZM13.694 16.8919C13.5457 16.7837 13.3665 16.7153 13.1721 16.7024C13.1446 16.7005 13.117 16.6998 13.0895 16.7002L13.011 16.7002C12.4671 16.7 12.0639 16.6998 11.7084 16.7642C10.0668 17.0614 8.7821 18.3461 8.48492 19.9876C8.42057 20.3431 8.42072 20.7463 8.42092 21.2902V21.2902L8.42094 21.3843L8.42094 23.1321V23.1321C8.42091 23.3845 8.42088 23.6303 8.43789 23.8384C8.45657 24.067 8.50063 24.3368 8.63893 24.6082C8.83068 24.9845 9.13664 25.2905 9.51296 25.4822C9.78439 25.6205 10.0541 25.6646 10.2827 25.6833C10.4908 25.7003 10.7364 25.7002 10.9887 25.7002H10.9887H10.9887H10.9888H10.9888H10.9888H10.9889H10.9889H10.989H21.8529H21.853H21.853H21.853H21.8531H21.8531H21.8532H21.8532H21.8532C22.1055 25.7002 22.3511 25.7003 22.5592 25.6833C22.7878 25.6646 23.0575 25.6205 23.3289 25.4822C23.7052 25.2905 24.0112 24.9845 24.203 24.6082C24.3413 24.3368 24.3853 24.067 24.404 23.8384C24.421 23.6303 24.421 23.3845 24.4209 23.1321L24.4209 21.3789L24.421 21.2856C24.4212 20.746 24.4213 20.3459 24.358 19.9932C24.0624 18.3472 22.774 17.0588 21.128 16.7632C20.7752 16.6998 20.3752 16.7 19.8356 16.7002H19.8356L19.7525 16.7002C19.5575 16.6973 19.3597 16.7514 19.1851 16.8675C18.3937 17.3936 17.4447 17.7002 16.4209 17.7002C15.4132 17.7002 14.4778 17.4031 13.694 16.8919ZM12.8143 18.7006C12.3611 18.7021 12.1945 18.7087 12.0647 18.7322C11.2439 18.8808 10.6015 19.5231 10.4529 20.3439C10.425 20.4983 10.4209 20.705 10.4209 21.3843V23.1002C10.4209 23.3967 10.4217 23.559 10.4312 23.6756L10.4324 23.6887L10.4456 23.6899C10.5622 23.6994 10.7244 23.7002 11.0209 23.7002H21.8209C22.1175 23.7002 22.2797 23.6994 22.3963 23.6899L22.4095 23.6887L22.4106 23.6756C22.4202 23.559 22.4209 23.3967 22.4209 23.1002V21.3789C22.4209 20.705 22.417 20.4999 22.3895 20.3467C22.2417 19.5237 21.5975 18.8795 20.7745 18.7317C20.6454 18.7085 20.4795 18.702 20.0276 18.7006C18.9737 19.3352 17.7387 19.7002 16.4209 19.7002C15.1032 19.7002 13.8682 19.3352 12.8143 18.7006ZM3.11977 23.7069L3.11978 21.1999C3.11978 20.5374 2.58273 20.0004 1.92024 20.0004C1.25775 20.0004 0.720703 20.5374 0.720703 21.1999V23.7069C0.720703 27.9559 4.1652 31.4004 8.4142 31.4004H10.9212C11.5837 31.4004 12.1207 30.8633 12.1207 30.2009C12.1207 29.5384 11.5837 29.0013 10.9212 29.0013H8.4142C5.49017 29.0013 3.11977 26.6309 3.11977 23.7069ZM8.4142 2.39907H10.9212C11.5837 2.39907 12.1207 1.86202 12.1207 1.19954C12.1207 0.53705 11.5837 0 10.9212 0H8.4142C4.1652 0 0.720703 3.44449 0.720703 7.69349V10.2005C0.720703 10.8629 1.25775 11.4 1.92024 11.4C2.58272 11.4 3.11977 10.8629 3.11977 10.2005V7.69349C3.11977 4.76946 5.49017 2.39907 8.4142 2.39907ZM21.5693 30.556C21.6596 30.6453 21.7837 30.7004 21.9206 30.7004H24.4276C28.29 30.7004 31.4211 27.5693 31.4211 23.7069V21.1999C31.4211 21.0608 31.3642 20.935 31.2725 20.8444C31.364 20.9349 31.4207 21.0606 31.4207 21.1995V23.7065C31.4207 27.5689 28.2896 30.7 24.4272 30.7H21.9202C21.7835 30.7 21.6595 30.645 21.5693 30.556ZM24.4276 29.0013H21.9206C21.2581 29.0013 20.7211 29.5384 20.7211 30.2009C20.7211 30.8633 21.2581 31.4004 21.9206 31.4004H24.4276C28.6766 31.4004 32.1211 27.9559 32.1211 23.7069V21.1999C32.1211 20.5374 31.584 20.0004 30.9216 20.0004C30.2591 20.0004 29.722 20.5374 29.722 21.1999V23.7069C29.722 26.6309 27.3516 29.0013 24.4276 29.0013Z" fill="#757B8D"/>
</svg>
