<svg width="18" height="18" viewBox="0 0 18 18" fill="none" xmlns="http://www.w3.org/2000/svg">
<path d="M8.99963 1.56128C5.52481 1.56128 2 4.51111 2 7.97341C2 11.4357 7.53721 16.4354 9.02463 16.4354C10.6745 16.4354 15.9993 11.4482 15.9993 7.97341C15.9993 4.49861 12.4744 1.56128 8.99963 1.56128Z" fill="#ADBCC3"/>
<path d="M8.99911 13.7927C7.82792 13.7927 6.99172 13.1027 6.74048 12.7203C6.64549 12.5978 6.62549 12.4315 6.68923 12.2903C6.73798 12.1978 6.83548 12.1428 6.93922 12.1465C6.97672 12.1465 7.01422 12.1528 7.04921 12.1653C7.63668 12.349 8.15291 12.624 8.99911 12.624C9.84532 12.624 10.364 12.354 10.9528 12.1703C10.9878 12.1578 11.0253 12.1515 11.0628 12.1515C11.1665 12.1478 11.264 12.2028 11.3127 12.2953C11.3765 12.4365 11.3565 12.6028 11.2615 12.7253C11.0065 13.1027 10.1703 13.7927 8.99911 13.7927Z" fill="#422B0D"/>
<path d="M7.75517 11.1941C7.38019 11.6791 5.54154 11.6803 4.14911 10.3991C2.88793 9.23919 2.96668 7.19431 3.3829 6.78184C3.79913 6.36936 5.78153 6.35936 6.98896 7.57679C8.1964 8.79422 8.2139 10.7391 7.75517 11.1941Z" fill="#422B0D"/>
<path d="M11.0091 7.57217C12.2166 6.35974 14.199 6.36974 14.6152 6.78097C15.0314 7.19219 15.0564 9.16958 13.849 10.3808C12.6415 11.5919 10.7041 11.6244 10.2417 11.172C9.77919 10.7195 9.80169 8.7846 11.0091 7.57217Z" fill="#422B0D"/>
<path d="M8.99945 1.56163C10.8144 1.56163 12.6405 2.36408 13.9742 3.62401C12.6243 2.18159 10.6456 1.24915 8.68322 1.24915C5.20841 1.24915 1.68359 4.19898 1.68359 7.66128C1.68359 9.61117 3.441 12.0498 5.24215 13.8084C3.55724 12.0785 1.99983 9.8099 1.99983 7.97376C1.99983 4.51146 5.52464 1.56163 8.99945 1.56163Z" fill="#ADBCC3"/>
</svg>
