<svg width="18" height="18" viewBox="0 0 18 18" fill="none" xmlns="http://www.w3.org/2000/svg">
<path d="M8.95079 15.8471C5.46347 15.8471 1.70117 13.6597 1.70117 8.86002C1.70117 4.0603 5.46347 1.87292 8.95079 1.87292C10.8882 1.87292 12.6756 2.51039 14.0005 3.67282C15.4379 4.94775 16.2004 6.74764 16.2004 8.86002C16.2004 10.9724 15.4379 12.7598 14.0005 14.0347C12.6756 15.1972 10.8757 15.8471 8.95079 15.8471Z" fill="url(#paint0_radial_1573_57143)"/>
<path d="M14.9358 4.70648C15.602 5.78142 15.9495 7.06135 15.9495 8.48502C15.9495 10.5974 15.1871 12.3848 13.7496 13.6597C12.4247 14.8222 10.6248 15.4721 8.69991 15.4721C6.44253 15.4721 4.07516 14.5534 2.67773 12.6048C4.02266 14.8122 6.55253 15.8471 8.9499 15.8471C10.8748 15.8471 12.6747 15.1971 13.9996 14.0347C15.4371 12.7598 16.1995 10.9724 16.1995 8.85999C16.1995 7.26759 15.7658 5.85267 14.9358 4.70648Z" fill="#EB8F00"/>
<path d="M11.33 5.20142C11.8063 5.20142 12.2375 5.90763 12.2375 7.07631C12.2375 8.24499 11.8063 8.9512 11.33 8.9512C10.8551 8.9512 10.4238 8.24624 10.4238 7.07631C10.4238 5.90638 10.8551 5.20142 11.33 5.20142Z" fill="#422B0D"/>
<path d="M6.6569 5.20129C6.15068 5.20129 5.68945 5.9075 5.68945 7.07619C5.68945 8.24487 6.15068 8.95108 6.6569 8.95108C7.16438 8.95108 7.6256 8.24612 7.6256 7.07619C7.6256 5.90625 7.16438 5.20129 6.6569 5.20129Z" fill="#422B0D"/>
<path d="M6.63078 5.6598C6.47954 5.56855 6.2833 5.61855 6.19205 5.76979C6.18955 5.77479 6.1858 5.77979 6.1833 5.78479C6.06831 5.91853 6.08206 6.12102 6.2158 6.23601C6.21955 6.23976 6.2233 6.24226 6.2283 6.24601C6.37829 6.33726 6.57453 6.28851 6.66578 6.13852C6.66953 6.13227 6.67203 6.12727 6.67577 6.12102C6.79077 5.98603 6.77577 5.78354 6.64078 5.66854C6.63703 5.66479 6.63453 5.66229 6.63078 5.6598Z" fill="#896024"/>
<path d="M11.4009 5.66032C11.2484 5.57033 11.0509 5.62033 10.9609 5.77282C10.9584 5.77657 10.9559 5.78157 10.9534 5.78532C10.8396 5.92156 10.8584 6.1228 10.9946 6.23654C10.9959 6.23779 10.9984 6.23904 10.9996 6.24029C11.1496 6.33154 11.3459 6.28279 11.4371 6.1328C11.4408 6.12655 11.4433 6.12155 11.4471 6.1153C11.5608 5.97906 11.5421 5.77782 11.4059 5.66407C11.4046 5.66282 11.4021 5.66157 11.4009 5.66032Z" fill="#896024"/>
<path d="M13.7575 9.95175C13.5825 9.63552 13.2025 9.49678 12.8651 9.62427C11.5826 9.998 10.2527 10.1842 8.91652 10.178C7.58034 10.1842 6.25042 9.998 4.96798 9.62427C4.63175 9.49678 4.25177 9.63427 4.07678 9.94925C3.90679 10.263 4.02928 10.6267 4.17303 10.9404C4.97548 12.7028 6.74414 13.7578 8.90652 13.764H8.92652C11.0889 13.764 12.8576 12.7028 13.6613 10.9404C13.8038 10.6242 13.9275 10.2655 13.7575 9.95175Z" fill="#422B0D"/>
<path d="M10.9174 13.2662C10.8712 13.2237 10.8237 13.1849 10.7762 13.1412C10.2662 12.6925 9.60625 12.4512 8.92629 12.465C8.22633 12.4537 7.54511 12.6862 6.99889 13.1237C6.9514 13.1624 6.9014 13.1999 6.85515 13.2487C6.8089 13.2974 6.7839 13.3324 6.75391 13.3737C7.44137 13.6424 8.17383 13.7799 8.91254 13.7761H8.93254C9.64 13.7761 10.3412 13.6499 11.0037 13.4012C10.9787 13.3537 10.9499 13.3087 10.9174 13.2662Z" fill="#ED7770"/>
<path d="M12.8653 9.62303C11.5829 9.99675 10.253 10.183 8.91677 10.1767C7.58059 10.183 6.25066 9.99675 4.96823 9.62303C4.632 9.49553 4.25202 9.63303 4.07703 9.94801C4.05203 9.9955 4.03203 10.0455 4.01953 10.0967C4.06078 10.118 4.10828 10.1392 4.16452 10.1617C5.66944 10.9155 7.33311 11.2979 9.01552 11.2779C10.6292 11.2967 12.2241 10.9455 13.6815 10.253C13.7403 10.228 13.789 10.2042 13.8328 10.1817C13.8228 10.1005 13.7965 10.0205 13.7578 9.94801C13.5828 9.63303 13.2028 9.49428 12.8653 9.62303Z" fill="white"/>
<path d="M13.7625 9.953C13.585 9.63677 13.2038 9.49678 12.8638 9.62427C11.5814 9.998 10.2515 10.1842 8.91652 10.178C7.58034 10.1842 6.25042 9.998 4.96798 9.62427C4.63175 9.49678 4.25177 9.63427 4.07678 9.94925C3.90679 10.263 4.02928 10.6267 4.17303 10.9404C4.23677 11.0817 4.30802 11.2204 4.38676 11.3542C4.38676 11.3542 4.12428 10.3817 4.35177 10.0992C4.42926 9.97925 4.55926 9.90425 4.70175 9.89675C4.76049 9.89675 4.81799 9.90675 4.87424 9.92425C6.17917 10.308 7.53285 10.5017 8.89402 10.4992H8.93777C10.2989 10.5017 11.6526 10.308 12.9576 9.92425C13.0138 9.90675 13.0713 9.89675 13.1301 9.89675C13.2725 9.90425 13.4038 9.97925 13.4813 10.0992C13.7125 10.3817 13.4463 11.3579 13.4463 11.3579C13.5238 11.2242 13.6013 11.0867 13.6663 10.9442C13.8088 10.6305 13.9325 10.268 13.7625 9.953Z" fill="#EB8F00"/>
<defs>
<radialGradient id="paint0_radial_1573_57143" cx="0" cy="0" r="1" gradientUnits="userSpaceOnUse" gradientTransform="translate(8.95079 8.86002) scale(7.11958 7.11955)">
<stop offset="0.5" stop-color="#FDE030"/>
<stop offset="0.92" stop-color="#F7C02B"/>
<stop offset="1" stop-color="#F4A223"/>
</radialGradient>
</defs>
</svg>
