<svg width="18" height="18" viewBox="0 0 18 18" fill="none" xmlns="http://www.w3.org/2000/svg">
<path d="M8.94102 1.87292C5.17997 1.87292 1.69141 4.37278 1.69141 8.85127C1.69141 13.3623 5.17497 15.8421 8.94102 15.8421C12.7071 15.8421 16.1906 13.4235 16.1906 8.85127C16.1744 4.32153 12.6908 1.87292 8.94102 1.87292Z" fill="url(#paint0_radial_1573_57134)"/>
<path d="M13.434 11.8142C14.7643 11.8142 15.8426 10.9877 15.8426 9.96809C15.8426 8.94849 14.7643 8.12195 13.434 8.12195C12.1038 8.12195 11.0254 8.94849 11.0254 9.96809C11.0254 10.9877 12.1038 11.8142 13.434 11.8142Z" fill="url(#paint1_radial_1573_57134)"/>
<path d="M4.65276 11.8166C5.98301 11.8166 7.06138 10.9901 7.06138 9.97047C7.06138 8.95088 5.98301 8.12433 4.65276 8.12433C3.32252 8.12433 2.24414 8.95088 2.24414 9.97047C2.24414 10.9901 3.32252 11.8166 4.65276 11.8166Z" fill="url(#paint2_radial_1573_57134)"/>
<path d="M8.99928 11.1934C10.0085 11.1934 10.8267 10.3752 10.8267 9.36597C10.8267 8.35673 10.0085 7.53857 8.99928 7.53857C7.99003 7.53857 7.17188 8.35673 7.17188 9.36597C7.17188 10.3752 7.99003 11.1934 8.99928 11.1934Z" fill="url(#paint3_radial_1573_57134)"/>
<path d="M5.8285 1.65419C5.36478 1.65169 4.95605 1.95792 4.82855 2.40415C4.0286 1.80918 2.89866 1.97542 2.30369 2.77413C2.0712 3.08661 1.94621 3.46659 1.94621 3.85781C1.94621 4.1028 1.99496 4.34404 2.0912 4.56902C1.47873 4.8865 1.23875 5.64146 1.55623 6.25393C1.87371 6.86639 2.62867 7.10638 3.24114 6.7889C3.65487 6.57391 3.9161 6.14643 3.9161 5.68021C3.9161 5.67271 3.9161 5.66521 3.9161 5.65771C4.8473 5.57396 5.56102 4.79276 5.56102 3.85781C5.56102 3.80157 5.56102 3.74532 5.55227 3.69032C5.64226 3.71657 5.73601 3.72907 5.82975 3.72907C6.40222 3.72907 6.8672 3.2641 6.8672 2.69163C6.8672 2.11916 6.40222 1.65419 5.82975 1.65419H5.8285Z" fill="url(#paint4_linear_1573_57134)"/>
<path d="M14.9358 4.70837C15.602 5.78331 15.9495 7.06324 15.9495 8.48691C15.9495 10.5993 15.1871 12.3867 13.7496 13.6616C12.4247 14.824 10.6248 15.474 8.69991 15.474C6.44253 15.474 4.07516 14.5553 2.67773 12.6067C4.02266 14.814 6.55253 15.849 8.9499 15.849C10.8748 15.849 12.6747 15.199 13.9996 14.0366C15.4371 12.7617 16.1995 10.9743 16.1995 8.86189C16.1995 7.26948 15.7658 5.85456 14.9358 4.70837Z" fill="#ADBCC3"/>
<path d="M15.9634 4.56863C16.3558 3.65118 15.9296 2.58874 15.0109 2.19627C14.7859 2.10002 14.5447 2.05127 14.301 2.05127C13.9122 2.05127 13.5347 2.17627 13.2235 2.41C13.0673 1.85878 12.4948 1.54005 11.9436 1.69504C11.3924 1.85004 11.0736 2.42375 11.2286 2.97497C11.3549 3.41995 11.7598 3.72743 12.2223 3.72868C12.3161 3.72868 12.4086 3.71493 12.4985 3.68993C12.4948 3.74618 12.4948 3.80117 12.4985 3.85742C12.4985 4.79237 13.2123 5.57357 14.1435 5.65732C14.1435 5.66482 14.1435 5.67232 14.1435 5.67982C14.1447 6.36978 14.7047 6.92974 15.3946 6.92849C16.0846 6.92724 16.6446 6.36728 16.6433 5.67732C16.6433 5.21109 16.3821 4.78362 15.9684 4.56863H15.9634Z" fill="url(#paint5_linear_1573_57134)"/>
<path d="M6.49995 6.11652C5.97622 6.11652 5.5 6.55899 5.5 7.29395C5.5 8.02891 5.97622 8.47013 6.49995 8.47013C7.02492 8.47013 7.49989 8.02766 7.49989 7.29395C7.49989 6.56024 7.02992 6.11652 6.49995 6.11652Z" fill="#422B0D"/>
<path d="M6.45567 6.60558C6.27818 6.52059 6.06444 6.59559 5.9782 6.77308C5.91195 6.91182 5.94195 7.07806 6.05319 7.18555C6.23068 7.27055 6.44442 7.19555 6.53067 7.01806C6.59691 6.87932 6.56691 6.71308 6.45567 6.60558Z" fill="#896024"/>
<path d="M11.6699 6.11633C11.1461 6.11633 10.6699 6.55881 10.6699 7.29377C10.6699 8.02872 11.1461 8.46995 11.6699 8.46995C12.1936 8.46995 12.6698 8.02747 12.6698 7.29377C12.6698 6.56006 12.1936 6.11633 11.6699 6.11633Z" fill="#422B0D"/>
<path d="M11.6236 6.60558C11.4461 6.52059 11.2324 6.59559 11.1462 6.77308C11.0799 6.91182 11.1099 7.07806 11.2212 7.18555C11.3987 7.27055 11.6124 7.19555 11.6986 7.01806C11.7649 6.87932 11.7349 6.71308 11.6236 6.60558Z" fill="#896024"/>
<path d="M9.03013 13.6778C7.43771 13.6778 6.30277 12.8516 5.96154 12.3316C5.8328 12.1654 5.8053 11.9404 5.89155 11.7479C5.95779 11.6267 6.08654 11.5517 6.22528 11.5529C6.27653 11.5529 6.32777 11.5617 6.37652 11.5779C7.23897 11.8379 8.13518 11.9667 9.03638 11.9617C9.93258 11.9667 10.825 11.8367 11.6837 11.5779C11.7325 11.5617 11.7837 11.5542 11.835 11.5529C11.9737 11.5517 12.1025 11.6267 12.1687 11.7479C12.255 11.9404 12.2275 12.1654 12.0987 12.3316C11.7575 12.8516 10.6238 13.6778 9.03013 13.6778Z" fill="#422B0D"/>
<path fill-rule="evenodd" clip-rule="evenodd" d="M6.11527 11.8604C6.07236 11.966 6.08896 12.0879 6.15918 12.1786L6.16517 12.1863L6.17054 12.1945C6.31141 12.4091 6.64277 12.7199 7.14141 12.9776C7.63484 13.2326 8.27759 13.4278 9.03012 13.4278C9.78331 13.4278 10.426 13.2326 10.9193 12.9776C11.4177 12.72 11.7488 12.4092 11.8897 12.1945L11.8951 12.1863L11.9011 12.1786C11.9713 12.0879 11.9879 11.966 11.945 11.8604C11.9226 11.8256 11.8827 11.8031 11.8389 11.8029C11.8085 11.8038 11.7832 11.8083 11.7628 11.8151L11.7593 11.8162L11.7559 11.8173C10.8739 12.083 9.95719 12.2166 9.03636 12.2116C8.11089 12.2166 7.19038 12.0844 6.30436 11.8173L6.3009 11.8162L6.29746 11.8151C6.27282 11.8069 6.24823 11.8029 6.22527 11.8029H6.22415L6.22302 11.8029C6.17855 11.8025 6.13796 11.8251 6.11527 11.8604ZM6.22638 11.3029C5.9968 11.3013 5.7829 11.4254 5.67216 11.628L5.66744 11.6367L5.6634 11.6457C5.54065 11.9197 5.57805 12.2386 5.7577 12.4766C5.95983 12.7802 6.36432 13.1388 6.91186 13.4218C7.46931 13.7099 8.19024 13.9278 9.03012 13.9278C9.8706 13.9278 10.5915 13.7099 11.1489 13.4218C11.6963 13.1388 12.1005 12.7802 12.3025 12.4766C12.4822 12.2386 12.5196 11.9197 12.3968 11.6457L12.3928 11.6367L12.3881 11.628C12.2772 11.425 12.0627 11.3009 11.8327 11.3029L11.8308 11.303L11.8289 11.303C11.7589 11.3047 11.6838 11.3149 11.6085 11.3395C10.7744 11.5905 9.90781 11.7165 9.03777 11.7117L9.03638 11.7117L9.03499 11.7117C8.1596 11.7165 7.28926 11.5916 6.45176 11.3395C6.38034 11.3161 6.30415 11.3031 6.22638 11.3029Z" fill="url(#paint6_linear_1573_57134)"/>
<defs>
<radialGradient id="paint0_radial_1573_57134" cx="0" cy="0" r="1" gradientUnits="userSpaceOnUse" gradientTransform="translate(8.94102 8.85754) scale(7.11836 7.11833)">
<stop offset="0.5" stop-color="white"/>
<stop offset="0.76" stop-color="#FDFDFD"/>
<stop offset="0.87" stop-color="#F6F6F6"/>
<stop offset="0.96" stop-color="#E9E9E9"/>
<stop offset="1" stop-color="#E0E0E0"/>
</radialGradient>
<radialGradient id="paint1_radial_1573_57134" cx="0" cy="0" r="1" gradientUnits="userSpaceOnUse" gradientTransform="translate(13.4338 9.96214) scale(2.62111 1.9134)">
<stop stop-color="#ED7770"/>
<stop offset="0.08" stop-color="#ED7770" stop-opacity="0.97"/>
<stop offset="0.21" stop-color="#ED7770" stop-opacity="0.88"/>
<stop offset="0.35" stop-color="#ED7770" stop-opacity="0.74"/>
<stop offset="0.52" stop-color="#ED7770" stop-opacity="0.55"/>
<stop offset="0.71" stop-color="#ED7770" stop-opacity="0.29"/>
<stop offset="0.9" stop-color="#ED7770" stop-opacity="0"/>
</radialGradient>
<radialGradient id="paint2_radial_1573_57134" cx="0" cy="0" r="1" gradientUnits="userSpaceOnUse" gradientTransform="translate(4.65276 9.96452) scale(2.62111 1.9134)">
<stop stop-color="#ED7770"/>
<stop offset="0.08" stop-color="#ED7770" stop-opacity="0.97"/>
<stop offset="0.21" stop-color="#ED7770" stop-opacity="0.88"/>
<stop offset="0.35" stop-color="#ED7770" stop-opacity="0.74"/>
<stop offset="0.52" stop-color="#ED7770" stop-opacity="0.55"/>
<stop offset="0.71" stop-color="#ED7770" stop-opacity="0.29"/>
<stop offset="0.9" stop-color="#ED7770" stop-opacity="0"/>
</radialGradient>
<radialGradient id="paint3_radial_1573_57134" cx="0" cy="0" r="1" gradientUnits="userSpaceOnUse" gradientTransform="translate(9.24177 8.63976) scale(2.49987 2.49986)">
<stop stop-color="#FF4900"/>
<stop offset="0.38" stop-color="#FE4700"/>
<stop offset="0.59" stop-color="#FA3F00"/>
<stop offset="0.76" stop-color="#F43100"/>
<stop offset="0.9" stop-color="#EB1E00"/>
<stop offset="1" stop-color="#E30C00"/>
</radialGradient>
<linearGradient id="paint4_linear_1573_57134" x1="4.14159" y1="1.4642" x2="4.14159" y2="6.47641" gradientUnits="userSpaceOnUse">
<stop stop-color="#FF4900"/>
<stop offset="1" stop-color="#E30C00"/>
</linearGradient>
<linearGradient id="paint5_linear_1573_57134" x1="13.9173" y1="1.46381" x2="13.9173" y2="6.47602" gradientUnits="userSpaceOnUse">
<stop stop-color="#FF4900"/>
<stop offset="1" stop-color="#E30C00"/>
</linearGradient>
<linearGradient id="paint6_linear_1573_57134" x1="5.59182" y1="12.6153" x2="12.4684" y2="12.6153" gradientUnits="userSpaceOnUse">
<stop stop-color="#FF4900"/>
<stop offset="1" stop-color="#E30C00"/>
</linearGradient>
</defs>
</svg>
