<svg width="18" height="18" viewBox="0 0 18 18" fill="none" xmlns="http://www.w3.org/2000/svg">
<path d="M13.6018 13.2806C13.6018 13.2806 15.8404 12.9331 16.4591 9.01836C16.6629 7.72843 16.6016 5.88104 16.5491 5.41607C16.5429 5.36232 16.4866 5.32982 16.4366 5.35232C16.4366 5.35232 15.5842 5.81604 15.2629 5.7548C15.0529 5.7148 16.8278 5.04859 16.4591 2.11876C16.4354 1.92752 16.3454 1.94252 16.3179 1.97501C16.1029 2.22 15.4492 2.93746 15.0804 3.0337C15.0804 3.0337 15.3229 2.2875 15.1067 1.54129C15.0942 1.49754 15.0429 1.47629 15.0004 1.49379C13.3955 2.19125 13.2718 1.18756 11.3756 2.24125C10.9494 2.47873 10.6157 3.0387 10.6157 3.0387C10.6157 3.0387 10.1957 2.22375 9.24825 1.67253C8.57329 1.2788 7.62459 1.43004 7.26086 1.50879C7.20711 1.52004 7.19336 1.59004 7.23836 1.62253C7.47459 1.79252 7.73083 2.57123 7.55584 3.25244C6.89963 2.21125 6.29966 1.41505 4.5435 1.61878C3.91228 1.69128 3.21357 2.03126 2.23237 1.73128C2.15863 1.70878 2.11238 1.75503 2.12988 1.83002C2.34737 2.76747 3.36231 3.11745 3.39481 3.90365C3.39856 3.9924 3.28982 4.03865 3.22857 3.9749C2.97233 3.70866 2.40861 3.20244 1.7174 3.08745C1.65615 3.07745 1.59866 3.14245 1.63116 3.19494C1.87989 3.58492 2.49111 4.22363 2.63735 5.17733C2.6561 5.30232 2.67735 5.43981 2.50611 5.35232C2.33487 5.26482 2.08738 5.09108 1.86114 4.77735C1.83114 4.7361 1.66115 4.57736 1.59741 4.99734C1.48491 5.7323 0.96619 9.49583 2.24612 11.362C3.72479 13.5194 4.41726 13.3944 4.41726 13.3944L13.6018 13.2806Z" fill="url(#paint0_linear_1573_57135)"/>
<path d="M15.0647 6.50629C15.1559 6.41255 15.2509 6.32505 15.3434 6.26381C15.6109 6.08632 15.7271 6.35755 15.6959 6.61754C15.5834 7.56248 15.9409 8.50868 15.8946 9.45987C15.8509 10.3623 15.3834 11.2773 14.5972 11.6522C14.5522 11.6735 14.4985 11.6935 14.4535 11.6697C14.4047 11.6435 14.391 11.5785 14.3835 11.5223C14.2972 10.9273 14.3772 10.2298 14.2572 9.64361C14.1435 9.0874 14.0785 8.68242 14.171 8.0987C14.2572 7.55998 14.4522 7.19375 14.7959 6.80378C14.8772 6.71128 14.9697 6.60504 15.0647 6.50629Z" fill="#CC3333"/>
<path d="M2.90833 6.50629C2.81708 6.41255 2.72209 6.32505 2.62959 6.26381C2.36211 6.08632 2.24586 6.35755 2.27711 6.61754C2.38961 7.56248 2.03213 8.50868 2.07837 9.45987C2.12212 10.3623 2.5896 11.2773 3.3758 11.6522C3.4208 11.6735 3.47455 11.6935 3.51955 11.6697C3.56829 11.6435 3.58204 11.5785 3.58954 11.5223C3.67579 10.9273 3.59579 10.2298 3.71579 9.64361C3.82953 9.0874 3.89453 8.68242 3.80203 8.0987C3.71579 7.55998 3.5208 7.19375 3.17707 6.80378C3.09582 6.71128 3.00457 6.60504 2.90833 6.50629Z" fill="#CC3333"/>
<path d="M13.8707 6.9339C13.8707 6.9339 15.5806 9.565 15.5844 12.1848C15.5881 14.101 13.6782 16.2134 13.6782 16.2134C13.6782 16.2134 13.4657 13.7273 13.2758 12.3111C13.0858 10.8949 13.8707 6.9339 13.8707 6.9339Z" fill="#374C57"/>
<path d="M13.9676 9.13647C13.9676 9.13647 14.4226 10.5626 14.5263 11.6513C14.7051 13.5375 13.6651 16.3361 13.6651 16.3361L13.1914 13.06L13.7151 10.6226L13.9676 9.13647Z" fill="url(#paint1_linear_1573_57135)"/>
<path d="M4.30787 6.72333C4.30787 6.72333 2.39172 9.56441 2.38672 12.1843C2.38297 14.1004 4.29287 16.2128 4.29287 16.2128C4.29287 16.2128 4.50536 13.7267 4.69535 12.3105C4.88534 10.8943 4.30787 6.72333 4.30787 6.72333Z" fill="#374C57"/>
<path d="M4.00321 9.1366C4.00321 9.1366 3.54823 10.5628 3.44449 11.6515C3.26575 13.5376 4.30569 16.3362 4.30569 16.3362L4.77942 13.0601L4.25569 10.6228L4.00321 9.1366Z" fill="url(#paint2_linear_1573_57135)"/>
<path d="M11.6579 4.84265C10.4605 4.84265 9.89053 5.28638 8.99683 5.29013C8.10312 5.28638 7.53315 4.84265 6.33572 4.84265C4.10084 4.84265 3.66211 10.2498 3.66211 10.4661C3.66211 14.5083 6.34322 16.5857 8.99558 16.5857C11.6479 16.5857 14.329 14.5083 14.329 10.4661C14.3315 10.2498 13.8941 4.84265 11.6579 4.84265Z" fill="#F04E3E"/>
<path d="M13.2826 8.78392C13.3538 9.62512 12.7851 10.4276 11.8064 10.6063C10.8277 10.7851 9.94652 10.2476 9.73903 9.43013C9.3953 8.07021 10.2278 7.72898 11.2152 7.60773C12.2551 7.48024 13.2088 7.91022 13.2826 8.78392Z" fill="#A81919"/>
<path d="M11.7278 10.439C12.3823 10.2653 12.7848 9.64208 12.6269 9.04694C12.469 8.45181 11.8103 8.11017 11.1558 8.28387C10.5013 8.45758 10.0987 9.08084 10.2567 9.67597C10.4146 10.2711 11.0733 10.6127 11.7278 10.439Z" fill="#FFECB3"/>
<path d="M11.4461 9.96423C11.7257 9.94425 11.9352 9.68802 11.914 9.39192C11.8928 9.09583 11.6491 8.872 11.3695 8.89198C11.0899 8.91196 10.8804 9.16819 10.9016 9.46429C10.9228 9.76038 11.1666 9.98421 11.4461 9.96423Z" fill="#212121"/>
<path d="M4.80677 8.78392C4.73552 9.62512 5.30424 10.4276 6.28294 10.6063C7.26164 10.7851 8.14284 10.2476 8.35033 9.43013C8.69406 8.07021 7.86161 7.72898 6.87416 7.60773C5.83422 7.48024 4.88177 7.91022 4.80677 8.78392Z" fill="#A81919"/>
<path d="M7.83198 9.67614C7.98992 9.08101 7.58737 8.45774 6.93285 8.28404C6.27834 8.11034 5.61971 8.45198 5.46176 9.04711C5.30382 9.64224 5.70637 10.2655 6.36089 10.4392C7.01541 10.6129 7.67404 10.2713 7.83198 9.67614Z" fill="#FFECB3"/>
<path d="M7.1894 9.46349C7.21057 9.16739 7.00109 8.91116 6.72152 8.89118C6.44195 8.87119 6.19816 9.09503 6.17699 9.39112C6.15583 9.68721 6.36531 9.94345 6.64488 9.96343C6.92444 9.98341 7.16824 9.75958 7.1894 9.46349Z" fill="#212121"/>
<path d="M12.5488 12.2186C12.5113 12.2186 12.4726 12.2248 12.4338 12.2373C11.7751 12.4511 10.4802 12.801 8.98653 12.801C7.49286 12.801 6.19792 12.4523 5.53921 12.2373C5.50046 12.2248 5.46171 12.2186 5.42422 12.2186C5.20548 12.2186 5.01424 12.3173 5.07048 12.5423C5.19423 13.0373 5.54546 13.936 5.89794 14.4022C6.51291 15.2171 6.85289 15.4759 7.34911 15.4884C7.37161 15.4884 7.39286 15.4896 7.41411 15.4896C8.03783 15.4896 8.15282 15.2646 8.98778 15.2646C9.82273 15.2646 9.93773 15.4896 10.5614 15.4896C10.5827 15.4896 10.6039 15.4896 10.6264 15.4884C11.1227 15.4771 11.4614 15.2184 12.0776 14.4022C12.4301 13.936 12.8051 13.071 12.9051 12.5348C12.9601 12.3111 12.7688 12.2186 12.5488 12.2186Z" fill="#281010"/>
<path d="M8.58203 13.6374C8.58203 13.4999 8.58203 13.1562 8.58203 13.1562C8.58203 13.1562 9.29699 13.1562 9.37949 13.1562C9.37949 13.1562 9.37949 13.4174 9.37949 13.6374C9.37949 13.8574 9.20075 13.9536 8.98076 13.9536C8.76077 13.9536 8.58203 13.8574 8.58203 13.6374Z" fill="#FFF8E1"/>
<path d="M7.47885 13.498C7.50384 13.363 7.56509 13.0242 7.56509 13.0242C7.56509 13.0242 8.26755 13.1517 8.3488 13.1667C8.3488 13.1667 8.30255 13.4242 8.26255 13.6404C8.22381 13.8567 8.03007 13.9192 7.81383 13.8804C7.59759 13.8404 7.43885 13.7142 7.47885 13.498Z" fill="#FFF8E1"/>
<path d="M10.495 13.498C10.47 13.363 10.4087 13.0242 10.4087 13.0242C10.4087 13.0242 9.70625 13.1517 9.625 13.1667C9.625 13.1667 9.67125 13.4242 9.71125 13.6404C9.74999 13.8567 9.94373 13.9192 10.16 13.8804C10.3762 13.8404 10.5337 13.7142 10.495 13.498Z" fill="#FFF8E1"/>
<path d="M9.3834 14.4378C9.3834 14.5753 9.3834 14.919 9.3834 14.919C9.3834 14.919 8.66843 14.919 8.58594 14.919C8.58594 14.919 8.58594 14.6578 8.58594 14.4378C8.58594 14.2178 8.76468 14.1216 8.98467 14.1216C9.20465 14.1216 9.3834 14.2178 9.3834 14.4378Z" fill="#FFF8E1"/>
<path d="M10.5592 14.4415C10.5592 14.579 10.5592 14.9227 10.5592 14.9227C10.5592 14.9227 9.84421 14.9227 9.76172 14.9227C9.76172 14.9227 9.76172 14.6615 9.76172 14.4415C9.76172 14.2215 9.94046 14.1252 10.1604 14.1252C10.3804 14.1252 10.5592 14.2215 10.5592 14.4415Z" fill="#FFF8E1"/>
<path d="M8.20957 14.4378C8.20957 14.5753 8.20957 14.919 8.20957 14.919C8.20957 14.919 7.4946 14.919 7.41211 14.919C7.41211 14.919 7.41211 14.6578 7.41211 14.4378C7.41211 14.2178 7.59085 14.1216 7.81084 14.1216C8.03083 14.1216 8.20957 14.2178 8.20957 14.4378Z" fill="#FFF8E1"/>
<path d="M11.5844 12.8101C11.5182 13.1064 11.5232 13.3176 11.6981 13.6963C11.7394 13.7863 11.7819 13.8938 11.7206 13.9726C11.6519 14.0613 11.5232 14.055 11.4019 14.0138C11.0044 13.8776 10.6882 13.5251 10.5957 13.1151" fill="#FFF8E1"/>
<path d="M6.38766 12.8101C6.4539 13.1064 6.4489 13.3176 6.27391 13.6963C6.23266 13.7863 6.19017 13.8938 6.25141 13.9726C6.32016 14.0613 6.4489 14.055 6.57015 14.0138C6.96762 13.8776 7.28386 13.5251 7.37635 13.1151" fill="#FFF8E1"/>
<path d="M5.49297 12.7359C5.49297 12.7359 5.64671 12.7721 5.73546 12.8134C6.17544 13.0221 7.23538 13.4121 8.98654 13.4121C10.7377 13.4121 11.7964 13.0208 12.2376 12.8134C12.3264 12.7721 12.4789 12.7696 12.4789 12.7696C12.3239 13.1896 12.0051 13.8433 11.7801 14.1508C11.2427 14.9207 10.6389 14.9207 10.0652 14.7682C9.82149 14.7008 9.46276 14.617 8.98779 14.617C8.49406 14.617 8.15283 14.7008 7.91034 14.7682C7.29163 14.9195 6.73291 14.847 6.19543 14.1508C5.9692 13.8433 5.64171 13.1721 5.49297 12.7359ZM12.6726 12.1109C12.6338 12.1109 12.5938 12.1172 12.5538 12.1309C11.8726 12.3596 10.5327 12.7334 8.98654 12.7334C7.44037 12.7334 6.10169 12.3596 5.41923 12.1309C5.37923 12.1172 5.33923 12.1109 5.30048 12.1109C5.07424 12.1109 4.8755 12.2171 4.93425 12.4571C5.06174 12.9859 5.42548 13.9483 5.79046 14.447C6.42667 15.3195 6.7779 15.5957 7.29163 15.6082C7.31413 15.6082 7.33662 15.6094 7.35787 15.6094C8.00284 15.6094 8.12283 15.3682 8.98654 15.3682C9.85024 15.3682 9.97023 15.6094 10.6152 15.6094C10.6364 15.6094 10.6589 15.6095 10.6814 15.6082C11.1939 15.5957 11.5464 15.3195 12.1826 14.447C12.5463 13.9483 12.9363 13.0233 13.0388 12.4496C13.0976 12.2096 12.8988 12.1109 12.6726 12.1109Z" fill="#B31B1B"/>
<path d="M12.5526 12.1308C11.8689 12.3546 10.5314 12.7333 8.98528 12.7333C7.43911 12.7333 6.10543 12.3433 5.41797 12.1308C5.22173 12.0696 4.94175 12.0396 4.93175 12.2921C4.92175 12.5433 5.61921 12.7858 5.66171 12.802C6.14793 12.997 7.23412 13.412 8.98528 13.412C10.7364 13.412 11.7926 13.0358 12.2476 12.862C12.4876 12.7708 13.0513 12.5433 13.0376 12.2871C13.0276 12.0721 12.7826 12.0558 12.5526 12.1308Z" fill="#CC2D2D"/>
<path d="M10.8846 11.0827C10.7671 10.839 10.3921 10.6965 10.0771 10.9577C9.97712 11.0402 9.83338 10.9677 9.73713 10.829C9.52089 10.519 9.3734 9.71906 8.98592 9.71906C8.59844 9.71906 8.45095 10.519 8.23471 10.829C8.13722 10.9677 7.96723 11.0177 7.89473 10.9577C7.57975 10.6977 7.20477 10.8402 7.08727 11.0827C6.94853 11.3715 7.04853 11.6239 7.26601 11.7677C7.44975 11.8902 7.67224 11.8689 7.82723 11.7927C7.97848 11.7177 8.04722 11.8077 8.18097 11.9077C8.4747 12.1264 8.76843 12.2314 8.98467 12.2314C9.20091 12.2314 9.49465 12.1277 9.78838 11.9077C9.92212 11.8077 9.99087 11.7177 10.1421 11.7927C10.2971 11.8689 10.5196 11.8902 10.7033 11.7677C10.9246 11.6239 11.0246 11.3715 10.8846 11.0827Z" fill="#FF8A66"/>
<path d="M8.03952 11.5549C7.98827 11.5061 7.93078 11.4624 7.86328 11.4424C7.79578 11.4224 7.70204 11.4361 7.64579 11.5061C7.58579 11.5799 7.58829 11.7011 7.66204 11.7611C7.75704 11.8399 7.87078 11.8074 7.95827 11.7699C8.12702 11.9424 8.4295 12.0649 8.4295 12.0649C8.4295 12.0649 8.10952 11.6211 8.03952 11.5549Z" fill="#CC2D2D"/>
<path d="M9.93553 11.5549C9.98677 11.5061 10.0443 11.4624 10.1118 11.4424C10.1793 11.4224 10.273 11.4361 10.3293 11.5061C10.3893 11.5799 10.3868 11.7011 10.313 11.7611C10.218 11.8399 10.1043 11.8074 10.0168 11.7699C9.84803 11.9424 9.56055 12.0574 9.56055 12.0574C9.56055 12.0574 9.86553 11.6211 9.93553 11.5549Z" fill="#CC2D2D"/>
<path d="M12.0374 10.8026C11.6612 11.1726 11.7587 11.6476 12.1062 11.7413C12.3687 11.8126 12.6549 11.7938 12.9174 11.7213C13.1536 11.6563 13.3836 11.5613 13.5561 11.4101C13.8986 11.1089 13.8898 10.5139 13.3286 10.3914C12.8936 10.2964 12.2924 10.5527 12.0374 10.8026Z" fill="#FF8A66"/>
<path d="M5.93325 10.8026C6.30948 11.1726 6.21199 11.6476 5.86451 11.7413C5.60202 11.8126 5.31579 11.7938 5.0533 11.7213C4.81706 11.6563 4.58708 11.5613 4.41459 11.4101C4.0721 11.1089 4.08085 10.5139 4.64207 10.3914C5.07705 10.2964 5.67827 10.5527 5.93325 10.8026Z" fill="#FF8A66"/>
<path d="M12.994 6.33202C13.6102 5.19709 13.7477 3.67843 13.524 2.66723C13.4765 2.45225 13.254 1.85853 12.8915 1.90478C12.5066 1.95478 12.659 2.461 12.5978 2.91472C12.3941 4.42338 11.6516 4.81836 11.3679 5.11084C11.1879 5.29583 11.1116 5.72081 11.6841 6.21453C12.2566 6.71075 12.8615 6.57451 12.994 6.33202Z" fill="#F2A600"/>
<path d="M13.1985 4.79578C13.0423 5.15326 12.4748 5.90446 11.8774 5.59948C11.6824 5.49949 11.5824 5.1845 11.7024 5.00201C11.8736 4.73828 12.0048 4.52704 12.1073 4.33705C12.3136 4.03582 12.5048 3.59959 12.5973 2.91338C12.6586 2.45966 12.5061 1.95469 12.8911 1.90344C13.6873 1.90594 13.541 4.01207 13.1985 4.79578Z" fill="#FFCA28"/>
<path d="M5.0498 6.34077C4.43358 5.20584 4.22484 3.67843 4.44858 2.66723C4.49607 2.45225 4.71856 1.85853 5.08104 1.90478C5.46602 1.95478 5.31353 2.461 5.37478 2.91472C5.57852 4.42338 6.32973 4.83336 6.61346 5.12584C6.79345 5.31083 6.86095 5.72081 6.28848 6.21578C5.71601 6.71075 5.18104 6.58326 5.0498 6.34077Z" fill="#F2A600"/>
<path d="M4.77349 4.79559C4.92973 5.15307 5.4972 5.90428 6.09467 5.5993C6.28966 5.4993 6.38965 5.18432 6.26966 5.00183C6.09842 4.7381 5.96717 4.52686 5.86468 4.33687C5.65844 4.03564 5.4672 3.59941 5.37471 2.9132C5.31346 2.45948 5.46595 1.95451 5.08097 1.90326C4.28476 1.90576 4.43101 4.01189 4.77349 4.79559Z" fill="#FFCA28"/>
<defs>
<linearGradient id="paint0_linear_1573_57135" x1="8.99951" y1="4.64571" x2="8.99951" y2="12.716" gradientUnits="userSpaceOnUse">
<stop offset="0.3691" stop-color="#374C57"/>
<stop offset="0.5463" stop-color="#263238"/>
</linearGradient>
<linearGradient id="paint1_linear_1573_57135" x1="13.8686" y1="15.8738" x2="13.8686" y2="9.79691" gradientUnits="userSpaceOnUse">
<stop offset="0.1055" stop-color="#374C57"/>
<stop offset="0.5463" stop-color="#263238"/>
</linearGradient>
<linearGradient id="paint2_linear_1573_57135" x1="4.10186" y1="15.8739" x2="4.10186" y2="9.79703" gradientUnits="userSpaceOnUse">
<stop offset="0.1055" stop-color="#374C57"/>
<stop offset="0.5463" stop-color="#263238"/>
</linearGradient>
</defs>
</svg>
