<svg width="18" height="18" viewBox="0 0 18 18" fill="none" xmlns="http://www.w3.org/2000/svg">
<path d="M14.9098 14.67C14.801 14.4438 14.5535 14.32 14.3073 14.3688L14.1823 14.3825H14.1498C13.6773 14.3825 13.4698 14.2575 13.3261 13.9063C13.1073 13.3726 13.2873 12.5889 13.4698 11.9664C13.8448 10.6865 14.3573 8.93532 14.3448 7.21666C14.3435 6.89793 14.3248 6.58045 14.286 6.26422C14.2248 5.7605 14.106 5.26428 13.9336 4.7868C13.9798 7.18667 13.5273 10.2502 11.4612 12.3751C9.81127 14.0725 6.99892 15.0612 5.86523 14.875C7.17766 16.2761 9.06131 16.9974 10.9737 16.8299C12.6711 16.6924 14.6523 16.0037 14.9348 15.2287C15.0022 15.0462 14.9922 14.845 14.9098 14.67Z" fill="#E0E0E0"/>
<path d="M4.45342 6.48377C3.72721 6.39878 2.97475 6.05505 2.70352 5.36759C2.48978 4.83387 2.30729 4.03766 1.68357 4.13266C0.908612 4.2514 1.08985 5.81256 1.27109 6.41503C2.0073 8.86489 4.40593 9.25111 4.44467 9.19237C4.48342 9.13362 4.63341 6.48127 4.45342 6.48377Z" fill="#E0E0E0"/>
<path d="M4.45285 6.48435C4.05787 6.44311 3.67789 6.31561 3.33916 6.10938C3.4229 6.43186 3.38791 6.77309 3.23916 7.07182C2.96293 7.69678 2.19922 8.03176 2.19922 8.03176C3.17167 9.04796 4.4166 9.2367 4.4491 9.1942C4.4991 9.1267 4.63284 6.48185 4.45285 6.48435Z" fill="#CCCCCC"/>
<path d="M13.5448 6.48377C14.271 6.39878 15.0235 6.05505 15.2947 5.36759C15.5085 4.83387 15.691 4.03766 16.3147 4.13266C17.0859 4.25015 16.9046 5.81256 16.7234 6.41503C15.9872 8.86489 13.5886 9.25236 13.5498 9.19237C13.5111 9.13237 13.3648 6.48127 13.5448 6.48377Z" fill="#E0E0E0"/>
<path d="M16.0122 7.00999C15.5397 7.53121 14.4573 8.02868 13.4648 8.10118C13.4686 8.46616 13.4961 8.83114 13.5448 9.19361C13.5848 9.25236 15.9822 8.86613 16.7184 6.41627C16.8459 5.96005 16.8959 5.48633 16.8647 5.01385C16.7934 5.75131 16.4947 6.44877 16.0122 7.00999Z" fill="#CCCCCC"/>
<path d="M14.3522 7.2143C14.351 6.89557 14.3322 6.57808 14.2935 6.26185C14.0435 4.21822 12.8885 2.44332 11.2786 1.62712C10.5499 1.24964 9.72871 1.0909 8.9125 1.17089C7.21634 1.35088 5.70267 2.31333 4.82147 3.77325C2.60409 7.48178 4.02401 11.9678 4.39899 12.7302C6.31639 16.6263 9.41373 16.9587 10.9761 16.8325C12.6736 16.695 14.6547 16.0063 14.9372 15.2313C15.0034 15.0488 14.9947 14.8476 14.9122 14.6714C14.8034 14.4451 14.556 14.3214 14.3097 14.3701L14.1847 14.3839H14.1522C13.6798 14.3839 13.4723 14.2589 13.3285 13.9077C13.1098 13.3739 13.2898 12.5902 13.4723 11.9678C13.8472 10.6903 14.361 8.9392 14.3522 7.2143Z" fill="#E0E0E0"/>
<path d="M14.9098 14.6713C14.801 14.4451 14.5535 14.3213 14.3073 14.3701L14.1823 14.3838H14.1498C13.6773 14.3838 13.4698 14.2589 13.3261 13.9076C13.1073 13.3739 13.2873 12.5902 13.4698 11.9677C13.8448 10.6878 14.3573 8.93666 14.3448 7.21801C14.3435 6.89928 14.3248 6.58179 14.286 6.26556C14.2248 5.76184 14.106 5.26562 13.9336 4.78815C13.9798 7.18801 13.5273 10.2516 11.4612 12.3765C9.81127 14.0739 6.99892 15.0626 5.86523 14.8763C7.17766 16.2775 9.06131 16.9987 10.9737 16.8312C12.6711 16.6937 14.6523 16.005 14.9348 15.23C15.0022 15.0476 14.9922 14.8463 14.9098 14.6713Z" fill="#CCCCCC"/>
<path d="M8.7095 7.73274C7.64581 7.73899 6.58336 7.64899 5.53592 7.46525C5.35843 7.43526 5.19094 7.554 5.16094 7.73149C5.15469 7.76774 5.15469 7.80398 5.16094 7.84023C5.46342 9.32015 6.91959 10.5351 8.71325 10.5351C10.6744 10.5351 11.9956 9.28515 12.2693 7.83523C12.3006 7.65899 12.1831 7.4915 12.0068 7.46025C11.9693 7.454 11.9318 7.454 11.8943 7.46025C10.8431 7.64649 9.77694 7.73774 8.7095 7.73274Z" fill="url(#paint0_linear_1573_57137)"/>
<path d="M8.96021 8.15583H8.71022H8.59398C8.06276 8.15583 7.54154 8.12958 7.03906 8.08834V10.3632C7.04031 11.2394 7.74902 11.9494 8.62523 11.9506H8.92771C9.80517 11.9506 10.5151 11.2407 10.5164 10.3632V8.07709C10.0139 8.12333 9.49143 8.14958 8.96021 8.15583Z" fill="url(#paint1_linear_1573_57137)"/>
<path opacity="0.3" d="M8.775 10.1227C8.87625 10.1239 8.95874 10.0414 8.95999 9.94017V9.93892V8.15527H8.71001H8.59376V9.93642C8.59251 10.0377 8.67376 10.1214 8.775 10.1227Z" fill="#AB3F2E"/>
<path d="M10.3976 6.69755C11.2018 6.69755 11.8538 6.0456 11.8538 5.24138C11.8538 4.43717 11.2018 3.78522 10.3976 3.78522C9.59336 3.78522 8.94141 4.43717 8.94141 5.24138C8.94141 6.0456 9.59336 6.69755 10.3976 6.69755Z" fill="white"/>
<path d="M10.4609 5.87637C10.8061 5.87637 11.0859 5.59209 11.0859 5.24141C11.0859 4.89073 10.8061 4.60645 10.4609 4.60645C10.1157 4.60645 9.83594 4.89073 9.83594 5.24141C9.83594 5.59209 10.1157 5.87637 10.4609 5.87637Z" fill="#422B0D"/>
<path d="M7.89068 5.49802L7.87818 5.47802C7.86443 5.45552 7.84943 5.43302 7.83318 5.41177C7.77818 5.33928 7.71818 5.27053 7.65319 5.20679C7.56569 5.12304 7.47195 5.0443 7.37445 4.97305C7.32071 4.9343 7.26446 4.89305 7.20571 4.85556C7.14697 4.81806 7.08822 4.78306 7.02322 4.74431C6.95822 4.70556 6.89823 4.67807 6.83823 4.64682C6.77823 4.61557 6.71324 4.58932 6.65074 4.56182C6.537 4.51183 6.42075 4.47058 6.30076 4.43683C6.21326 4.41308 6.12327 4.39683 6.03327 4.38683H5.95328H5.92453C5.81079 4.38308 5.71704 4.47183 5.71204 4.58432C5.70829 4.67557 5.76704 4.75806 5.85453 4.78681L5.87703 4.79431L5.94953 4.81806C5.99703 4.83431 6.06577 4.85931 6.15077 4.89555C6.23576 4.9318 6.33326 4.9768 6.43825 5.02805L6.59949 5.11179C6.65449 5.14054 6.70699 5.16929 6.76699 5.20429L6.80073 5.22429L6.68824 5.23553C6.64449 5.24303 6.62449 5.24553 6.58324 5.25428C6.542 5.26303 6.507 5.26928 6.47325 5.27803C6.40325 5.29553 6.33576 5.31803 6.26826 5.34303C6.14702 5.38803 6.03202 5.44802 5.92578 5.52052C5.88203 5.55052 5.84078 5.58426 5.80079 5.61926C5.76954 5.64676 5.73954 5.67676 5.71204 5.70801C5.68829 5.73426 5.67204 5.75675 5.65954 5.77175L5.64204 5.7955C5.57455 5.88675 5.5933 6.01424 5.68454 6.08174C5.75704 6.13548 5.85703 6.13548 5.92953 6.08174L5.95203 6.06549L5.96703 6.05424L6.00828 6.02424C6.06077 5.98924 6.11577 5.95674 6.17327 5.92924C6.25826 5.88925 6.34701 5.8555 6.437 5.828C6.487 5.813 6.54075 5.8005 6.59574 5.788C6.62324 5.7805 6.64949 5.77675 6.67449 5.77175C6.69949 5.76675 6.74199 5.76175 6.76324 5.758C6.87323 5.74301 6.98447 5.73551 7.09572 5.73551C7.18946 5.73676 7.28446 5.74551 7.37695 5.76175C7.41695 5.76925 7.4532 5.7755 7.4832 5.78425C7.50945 5.7905 7.53444 5.798 7.55944 5.80675L7.58444 5.813L7.61069 5.82425L7.63194 5.83425C7.71693 5.8705 7.81568 5.84675 7.87443 5.7755C7.90317 5.74051 7.91942 5.69551 7.91942 5.65051C7.92942 5.59801 7.91942 5.54302 7.89068 5.49802Z" fill="#422B0D"/>
<defs>
<linearGradient id="paint0_linear_1573_57137" x1="8.7153" y1="10.5413" x2="8.7153" y2="7.46159" gradientUnits="userSpaceOnUse">
<stop stop-color="#404040"/>
<stop offset="0.12" stop-color="#3E3A35"/>
<stop offset="0.44" stop-color="#392D1E"/>
<stop offset="0.74" stop-color="#362510"/>
<stop offset="1" stop-color="#35220B"/>
</linearGradient>
<linearGradient id="paint1_linear_1573_57137" x1="8.77772" y1="11.9506" x2="8.77772" y2="8.07709" gradientUnits="userSpaceOnUse">
<stop stop-color="#FF4081"/>
<stop offset="0.28" stop-color="#FB3D80"/>
<stop offset="0.55" stop-color="#EF337D"/>
<stop offset="0.82" stop-color="#DB2378"/>
<stop offset="1" stop-color="#CA1573"/>
</linearGradient>
</defs>
</svg>
