<svg width="18" height="18" viewBox="0 0 18 18" fill="none" xmlns="http://www.w3.org/2000/svg">
<path d="M8.90196 15.8471C5.41464 15.8471 1.65234 13.6597 1.65234 8.86002C1.65234 4.0603 5.41464 1.87292 8.90196 1.87292C10.8394 1.87292 12.6268 2.51039 13.9517 3.67282C15.3891 4.94775 16.1516 6.74764 16.1516 8.86002C16.1516 10.9724 15.3891 12.7598 13.9517 14.0347C12.6243 15.1972 10.8269 15.8471 8.90196 15.8471Z" fill="url(#paint0_radial_1573_57140)"/>
<path d="M6.49995 6.11475C5.97622 6.11475 5.5 6.55722 5.5 7.29218C5.5 8.02714 5.97622 8.46836 6.49995 8.46836C7.02492 8.46836 7.49989 8.02589 7.49989 7.29218C7.49989 6.55847 7.02992 6.11475 6.49995 6.11475Z" fill="#422B0D"/>
<path d="M6.45567 6.60558C6.27818 6.52059 6.06444 6.59559 5.9782 6.77308C5.91195 6.91182 5.94195 7.07806 6.05319 7.18555C6.23068 7.27055 6.44442 7.19555 6.53067 7.01806C6.59691 6.87932 6.56691 6.71308 6.45567 6.60558Z" fill="#896024"/>
<path d="M11.2988 6.11475C10.7751 6.11475 10.2988 6.55722 10.2988 7.29218C10.2988 8.02714 10.7751 8.46836 11.2988 8.46836C11.8225 8.46836 12.2987 8.02589 12.2987 7.29218C12.2987 6.55847 11.8225 6.11475 11.2988 6.11475Z" fill="#422B0D"/>
<path d="M11.2486 6.60558C11.0711 6.52059 10.8574 6.59559 10.7712 6.77308C10.7049 6.91182 10.7349 7.07806 10.8462 7.18555C11.0237 7.27055 11.2374 7.19555 11.3236 7.01806C11.3899 6.87932 11.3599 6.71308 11.2486 6.60558Z" fill="#896024"/>
<path d="M14.9358 4.70648C15.602 5.78142 15.9495 7.06135 15.9495 8.48502C15.9495 10.5974 15.1871 12.3848 13.7496 13.6597C12.4247 14.8222 10.6248 15.4721 8.69991 15.4721C6.44253 15.4721 4.07516 14.5534 2.67773 12.6048C4.02266 14.8122 6.55253 15.8471 8.9499 15.8471C10.8748 15.8471 12.6747 15.1971 13.9996 14.0347C15.4371 12.7598 16.1995 10.9724 16.1995 8.85999C16.1995 7.26759 15.7658 5.85267 14.9358 4.70648Z" fill="#EB8F00"/>
<path d="M13.7575 9.94992C13.5825 9.63369 13.2025 9.49494 12.8651 9.62244C11.5826 9.99617 10.2527 10.1824 8.91652 10.1762C7.58034 10.1824 6.25042 9.99617 4.96798 9.62244C4.63175 9.49494 4.25177 9.63244 4.07678 9.94742C3.90679 10.2612 4.02928 10.6249 4.17303 10.9386C4.97548 12.701 6.74414 13.756 8.90652 13.7622H8.92652C11.0889 13.7622 12.8576 12.701 13.6613 10.9386C13.8038 10.6224 13.9275 10.2637 13.7575 9.94992Z" fill="#422B0D"/>
<path d="M10.9174 13.2647C10.8712 13.2222 10.8237 13.1834 10.7762 13.1397C10.2662 12.6909 9.60625 12.4497 8.92629 12.4634C8.22633 12.4522 7.54511 12.6847 6.99889 13.1222C6.9514 13.1609 6.9014 13.1984 6.85515 13.2472C6.8089 13.2959 6.7839 13.3309 6.75391 13.3721C7.44137 13.6409 8.17383 13.7784 8.91254 13.7746H8.93254C9.64 13.7746 10.3412 13.6484 11.0037 13.3996C10.9787 13.3521 10.9499 13.3071 10.9174 13.2647Z" fill="#ED7770"/>
<path d="M12.8653 9.62309C11.5829 9.99682 10.253 10.1831 8.91677 10.1768C7.58059 10.1831 6.25066 9.99682 4.96823 9.62309C4.632 9.49559 4.25202 9.63309 4.07703 9.94807C4.05203 9.99557 4.03203 10.0456 4.01953 10.0968C4.06078 10.1181 4.10828 10.1393 4.16452 10.1618C5.66944 10.9155 7.33311 11.298 9.01552 11.278C10.6292 11.2967 12.2241 10.9455 13.6815 10.2531C13.7403 10.2281 13.789 10.2043 13.8328 10.1818C13.8228 10.1006 13.7965 10.0206 13.7578 9.94807C13.5828 9.63309 13.2028 9.49434 12.8653 9.62309Z" fill="white"/>
<path d="M13.7625 9.95117C13.585 9.63494 13.2038 9.49494 12.8638 9.62244C11.5814 9.99617 10.2515 10.1824 8.91652 10.1762C7.58034 10.1824 6.25042 9.99617 4.96798 9.62244C4.63175 9.49494 4.25177 9.63244 4.07678 9.94742C3.90679 10.2612 4.02928 10.6249 4.17303 10.9386C4.23677 11.0799 4.30802 11.2186 4.38676 11.3523C4.38676 11.3523 4.12428 10.3799 4.35177 10.0974C4.42926 9.97742 4.55926 9.90242 4.70175 9.89492C4.76049 9.89492 4.81799 9.90492 4.87424 9.92242C6.17917 10.3061 7.53285 10.4999 8.89402 10.4974H8.93777C10.2989 10.4999 11.6526 10.3061 12.9576 9.92242C13.0138 9.90492 13.0713 9.89492 13.1301 9.89492C13.2725 9.90242 13.4038 9.97742 13.4813 10.0974C13.7125 10.3799 13.4463 11.3561 13.4463 11.3561C13.5238 11.2223 13.6013 11.0849 13.6663 10.9424C13.8088 10.6286 13.9325 10.2661 13.7625 9.95117Z" fill="#EB8F00"/>
<defs>
<radialGradient id="paint0_radial_1573_57140" cx="0" cy="0" r="1" gradientUnits="userSpaceOnUse" gradientTransform="translate(8.90196 8.86002) scale(7.11958 7.11955)">
<stop offset="0.5" stop-color="#FDE030"/>
<stop offset="0.92" stop-color="#F7C02B"/>
<stop offset="1" stop-color="#F4A223"/>
</radialGradient>
</defs>
</svg>
