<svg width="18" height="18" viewBox="0 0 18 18" fill="none" xmlns="http://www.w3.org/2000/svg">
<path d="M8.95079 15.8471C5.46347 15.8471 1.70117 13.6597 1.70117 8.86002C1.70117 4.0603 5.46347 1.87292 8.95079 1.87292C10.8882 1.87292 12.6756 2.51039 14.0005 3.67282C15.4379 4.94775 16.2004 6.74764 16.2004 8.86002C16.2004 10.9724 15.4379 12.7598 14.0005 14.0347C12.6756 15.1972 10.8757 15.8471 8.95079 15.8471Z" fill="url(#paint0_radial_1573_57141)"/>
<path d="M14.9358 4.70648C15.602 5.78142 15.9495 7.06135 15.9495 8.48502C15.9495 10.5974 15.1871 12.3848 13.7496 13.6597C12.4247 14.8222 10.6248 15.4721 8.69991 15.4721C6.44253 15.4721 4.07516 14.5534 2.67773 12.6048C4.02266 14.8122 6.55253 15.8471 8.9499 15.8471C10.8748 15.8471 12.6747 15.1971 13.9996 14.0347C15.4371 12.7598 16.1995 10.9724 16.1995 8.85999C16.1995 7.26759 15.7658 5.85267 14.9358 4.70648Z" fill="#EB8F00"/>
<path d="M13.7123 10.023C13.5373 9.70799 13.1573 9.56925 12.8199 9.69799C11.6949 10.048 10.32 10.1767 8.93506 10.178C7.59888 10.183 6.26895 9.99672 4.98652 9.62174C4.64904 9.493 4.26906 9.63174 4.09407 9.94673C3.92408 10.2605 4.04782 10.6242 4.19031 10.9379C5.00027 12.7028 6.76267 13.7578 8.92506 13.764H8.94506C11.1074 13.764 12.8124 12.7766 13.6161 11.0142C13.7586 10.7004 13.8823 10.3367 13.7123 10.023Z" fill="white"/>
<path d="M7.12509 8.10841L7.10634 8.08341L7.0526 8.01467L6.98635 7.94342C6.95885 7.91217 6.92635 7.88218 6.89511 7.84968C6.86386 7.81718 6.82511 7.78593 6.79011 7.75968C6.75761 7.73468 6.72262 7.71094 6.68512 7.69219C6.66012 7.67844 6.63262 7.66719 6.60387 7.66094C6.59512 7.65969 6.58637 7.65969 6.57762 7.66094C6.57762 7.66094 6.57012 7.66094 6.56637 7.66094H6.55637C6.57137 7.66094 6.52263 7.66094 6.59012 7.66094H6.52138C6.50263 7.66094 6.51513 7.66094 6.52138 7.66094H6.53138C6.53138 7.66094 6.54137 7.66094 6.53138 7.66094H6.51763C6.48888 7.66719 6.46138 7.67719 6.43513 7.69219C6.39888 7.71219 6.36263 7.73468 6.33014 7.75968C6.29389 7.78718 6.25889 7.81718 6.22639 7.84968C6.16015 7.91342 6.1014 7.97467 6.0639 8.02342L5.9989 8.09841L5.97015 8.13216C5.79016 8.3334 5.48643 8.3659 5.26769 8.20841C5.1277 8.11091 5.05645 7.94217 5.08395 7.77343C5.08395 7.77343 5.0927 7.72344 5.11645 7.63469C5.15395 7.50845 5.20645 7.38595 5.27269 7.27096C5.37894 7.08347 5.52268 6.91973 5.69517 6.78974C5.80891 6.70224 5.93516 6.63225 6.07015 6.5835C6.10765 6.5685 6.1464 6.55725 6.18514 6.54725C6.22639 6.53475 6.26764 6.526 6.31014 6.5185L6.38638 6.50726L6.45013 6.49976H6.51888H6.61762H6.68137C6.72387 6.49976 6.76511 6.51101 6.80636 6.51725C6.88636 6.531 6.96635 6.55225 7.0426 6.581C7.17759 6.62975 7.30383 6.69974 7.41758 6.78724C7.59007 6.91723 7.73381 7.08097 7.84006 7.26846C7.8788 7.33346 7.91255 7.4022 7.94005 7.4722C7.9638 7.52845 7.9838 7.58469 8.00005 7.64344C8.0088 7.67344 8.0163 7.70344 8.02005 7.73343V7.76468C8.05754 8.01967 7.88005 8.25716 7.62507 8.29465C7.61882 8.2959 7.61257 8.2959 7.60632 8.29715C7.42383 8.3234 7.24134 8.25091 7.12509 8.10841Z" fill="#422B0D"/>
<path d="M12.058 8.10841L12.038 8.08341L11.9842 8.01467L11.918 7.94342C11.8905 7.91217 11.858 7.88218 11.8267 7.84968C11.7955 7.81718 11.7567 7.78593 11.7218 7.75968C11.6893 7.73468 11.6543 7.71094 11.6168 7.69219C11.5918 7.67844 11.5643 7.66719 11.5355 7.66094C11.5268 7.65969 11.518 7.65969 11.5093 7.66094C11.5093 7.66094 11.5018 7.66094 11.498 7.66094H11.488C11.503 7.66094 11.4543 7.66094 11.5218 7.66094H11.453C11.4343 7.66094 11.4468 7.66094 11.453 7.66094H11.463C11.463 7.66094 11.473 7.66094 11.463 7.66094H11.4493C11.4205 7.66719 11.393 7.67719 11.3668 7.69219C11.3305 7.71094 11.2955 7.73468 11.263 7.75968C11.2255 7.78718 11.1905 7.81718 11.158 7.84968C11.0918 7.91342 11.033 7.97467 10.9955 8.02342L10.9305 8.09841L10.903 8.13216C10.7218 8.3334 10.4193 8.3659 10.1993 8.20841C10.0593 8.11091 9.98809 7.94217 10.0156 7.77343C10.0156 7.77343 10.0243 7.72344 10.0493 7.63469C10.0868 7.5072 10.1381 7.3847 10.2056 7.27096C10.3118 7.08347 10.4543 6.91973 10.6268 6.78974C10.7406 6.70224 10.8668 6.63225 11.0018 6.5835C11.0393 6.5685 11.078 6.55725 11.1168 6.54725C11.158 6.53475 11.1993 6.526 11.2418 6.5185L11.3193 6.50726L11.3818 6.49976H11.4505H11.5493H11.613C11.6555 6.49976 11.6968 6.51101 11.738 6.51725C11.8192 6.531 11.898 6.55225 11.9742 6.581C12.1092 6.62975 12.2355 6.69974 12.3492 6.78724C12.5217 6.91723 12.6655 7.08097 12.7717 7.26846C12.8104 7.33346 12.8442 7.4022 12.8717 7.4722C12.8954 7.5272 12.9154 7.58344 12.9317 7.64094C12.9404 7.67094 12.9479 7.70094 12.9517 7.73093V7.76218C12.9917 8.01717 12.8167 8.2559 12.5617 8.2959C12.558 8.2959 12.5542 8.29715 12.5505 8.29715C12.3642 8.3284 12.1755 8.2559 12.058 8.10841Z" fill="#422B0D"/>
<path d="M13.6114 10.4774C13.6002 10.4849 12.8365 11.0561 11.4003 11.4261V10.0136C11.2366 10.0386 11.0691 10.0599 10.9003 10.0786V11.5386C10.3191 11.6536 9.7279 11.7173 9.13543 11.7298V10.1774H8.93794C8.8367 10.1774 8.7367 10.1774 8.63546 10.1774V11.7298C8.68921 11.7311 8.68921 11.7323 8.63546 11.7323L8.63296 11.7298C8.05424 11.7198 7.47802 11.6648 6.90805 11.5636V10.0399C6.73806 10.0174 6.57182 9.99115 6.40808 9.9624V11.4586C4.93066 11.1073 4.18819 10.5461 4.1782 10.5374C4.13695 10.5049 4.0857 10.4861 4.0332 10.4849C4.0682 10.6424 4.1207 10.7961 4.19069 10.9423C4.23444 11.0386 4.28194 11.1311 4.33194 11.2236C4.98565 11.5698 5.68437 11.8223 6.40808 11.9735V11.976V13.206C6.57057 13.2847 6.73806 13.356 6.90805 13.4172V12.0735C7.47802 12.1685 8.05549 12.221 8.63296 12.2298L8.63546 12.2323C8.63421 12.2323 8.63421 12.2323 8.63296 12.2323V13.7584C8.7292 13.7584 8.8267 13.7684 8.92544 13.7684H8.94544C9.00919 13.7684 9.07043 13.7684 9.13293 13.7684V12.2298H9.12543H9.13293C9.7254 12.2185 10.3166 12.1585 10.9003 12.051V13.4522C11.0703 13.3947 11.2378 13.3272 11.4003 13.251V11.9448C12.1628 11.7698 12.8965 11.4836 13.5764 11.0961C13.5889 11.0686 13.6039 11.0436 13.6164 11.0161C13.7077 10.8311 13.7677 10.6324 13.7914 10.4274C13.7277 10.4199 13.6627 10.4386 13.6114 10.4774Z" fill="#B3B3B3"/>
<path d="M13.7625 9.953C13.585 9.63677 13.2038 9.49678 12.8638 9.62427C11.5814 9.998 10.2515 10.1842 8.91652 10.178C7.58034 10.1842 6.25042 9.998 4.96798 9.62427C4.63175 9.49678 4.25177 9.63427 4.07678 9.94925C3.90679 10.263 4.02928 10.6267 4.17303 10.9404C4.23677 11.0817 4.30802 11.2204 4.38676 11.3542C4.38676 11.3542 4.12428 10.3817 4.35177 10.0992C4.42926 9.97925 4.55926 9.90425 4.70175 9.89675C4.76049 9.89675 4.81799 9.90675 4.87424 9.92425C6.17917 10.308 7.53285 10.5017 8.89402 10.4992H8.93777C10.2989 10.5017 11.6526 10.308 12.9576 9.92425C13.0138 9.90675 13.0713 9.89675 13.1301 9.89675C13.2725 9.90425 13.4038 9.97925 13.4813 10.0992C13.7125 10.3817 13.4463 11.3579 13.4463 11.3579C13.5238 11.2242 13.6013 11.0867 13.6663 10.9442C13.8088 10.6305 13.9325 10.268 13.7625 9.953Z" fill="#EB8F00"/>
<defs>
<radialGradient id="paint0_radial_1573_57141" cx="0" cy="0" r="1" gradientUnits="userSpaceOnUse" gradientTransform="translate(8.95079 8.86002) scale(7.11958 7.11955)">
<stop offset="0.5" stop-color="#FDE030"/>
<stop offset="0.92" stop-color="#F7C02B"/>
<stop offset="1" stop-color="#F4A223"/>
</radialGradient>
</defs>
</svg>
