<svg width="18" height="18" viewBox="0 0 18 18" fill="none" xmlns="http://www.w3.org/2000/svg">
<path d="M8.95079 15.8471C5.46347 15.8471 1.70117 13.6597 1.70117 8.86002C1.70117 4.0603 5.46347 1.87292 8.95079 1.87292C10.8882 1.87292 12.6756 2.51039 14.0005 3.67282C15.4379 4.94775 16.2004 6.74764 16.2004 8.86002C16.2004 10.9724 15.4379 12.7598 14.0005 14.0347C12.6756 15.1972 10.8757 15.8471 8.95079 15.8471Z" fill="url(#paint0_radial_1573_57142)"/>
<path d="M14.9358 4.70648C15.602 5.78142 15.9495 7.06135 15.9495 8.48502C15.9495 10.5974 15.1871 12.3848 13.7496 13.6597C12.4247 14.8222 10.6248 15.4721 8.69991 15.4721C6.44253 15.4721 4.07516 14.5534 2.67773 12.6048C4.02266 14.8122 6.55253 15.8471 8.9499 15.8471C10.8748 15.8471 12.6747 15.1971 13.9996 14.0347C15.4371 12.7598 16.1995 10.9724 16.1995 8.85999C16.1995 7.26759 15.7658 5.85267 14.9358 4.70648Z" fill="#EB8F00"/>
<path d="M5.92995 4.89975C5.87495 4.76726 5.72496 4.69976 5.58997 4.74851C5.38748 4.81475 5.19249 4.901 5.00625 5.00474C4.51128 5.27723 4.08755 5.66345 3.77007 6.12968C3.68257 6.24842 3.70507 6.41466 3.82131 6.50466C3.88256 6.5559 3.96256 6.5809 4.04255 6.5709C4.10255 6.56215 4.15755 6.5334 4.20004 6.48966C4.68002 6.01968 5.21749 5.61221 5.79871 5.27723L5.81246 5.26973C5.94495 5.19848 5.99745 5.03474 5.92995 4.89975Z" fill="#422B0D"/>
<path d="M12.3357 4.77469C12.3907 4.64219 12.5407 4.5747 12.6757 4.62345C12.8769 4.68844 13.0719 4.77219 13.2582 4.87343C13.7531 5.14592 14.1769 5.53089 14.4956 5.99837C14.5818 6.11711 14.5593 6.2821 14.4443 6.37334C14.3831 6.42459 14.3031 6.44834 14.2231 6.43959C14.1631 6.43084 14.1081 6.40209 14.0656 6.35835C13.5856 5.88837 13.0482 5.4809 12.4669 5.14592L12.4532 5.13842C12.3245 5.06717 12.272 4.90843 12.3357 4.77469Z" fill="#422B0D"/>
<path d="M13.7575 9.94992C13.5825 9.63369 13.2025 9.49494 12.8651 9.62244C11.5826 9.99617 10.2527 10.1824 8.91652 10.1762C7.58034 10.1824 6.25042 9.99617 4.96798 9.62244C4.63175 9.49494 4.25177 9.63244 4.07678 9.94742C3.90679 10.2612 4.02928 10.6249 4.17303 10.9386C4.97548 12.701 6.74414 13.756 8.90652 13.7622H8.92652C11.0889 13.7622 12.8576 12.701 13.6613 10.9386C13.8038 10.6224 13.9275 10.2637 13.7575 9.94992Z" fill="#422B0D"/>
<path d="M10.9194 13.2647C10.8731 13.2222 10.8256 13.1834 10.7781 13.1397C10.2682 12.6909 9.60821 12.4497 8.92824 12.4634C8.22828 12.4522 7.54707 12.6847 7.00085 13.1222C6.95335 13.1609 6.90335 13.1984 6.8571 13.2472C6.81086 13.2959 6.78586 13.3309 6.75586 13.3721C7.44332 13.6409 8.17578 13.7784 8.91449 13.7746H8.93449C9.64196 13.7746 10.3432 13.6484 11.0056 13.3996C10.9806 13.3521 10.9519 13.3071 10.9194 13.2647Z" fill="#ED7770"/>
<path d="M12.8653 9.62309C11.5829 9.99682 10.253 10.1831 8.91677 10.1768C7.58059 10.1831 6.25066 9.99682 4.96823 9.62309C4.632 9.49559 4.25202 9.63309 4.07703 9.94807C4.05203 9.99557 4.03203 10.0456 4.01953 10.0968C4.06078 10.1181 4.10828 10.1393 4.16452 10.1618C5.66944 10.9155 7.33311 11.298 9.01552 11.278C10.6292 11.2967 12.2241 10.9455 13.6815 10.2531C13.7403 10.2281 13.789 10.2043 13.8328 10.1818C13.8228 10.1006 13.7965 10.0206 13.7578 9.94807C13.5828 9.63309 13.2028 9.49434 12.8653 9.62309Z" fill="white"/>
<path d="M13.7625 9.95117C13.585 9.63494 13.2038 9.49494 12.8638 9.62244C11.5814 9.99617 10.2515 10.1824 8.91652 10.1762C7.58034 10.1824 6.25042 9.99617 4.96798 9.62244C4.63175 9.49494 4.25177 9.63244 4.07678 9.94742C3.90679 10.2612 4.02928 10.6249 4.17303 10.9386C4.23677 11.0799 4.30802 11.2186 4.38676 11.3523C4.38676 11.3523 4.12428 10.3799 4.35177 10.0974C4.42926 9.97742 4.55926 9.90242 4.70175 9.89492C4.76049 9.89492 4.81799 9.90492 4.87424 9.92242C6.17917 10.3061 7.53285 10.4999 8.89402 10.4974H8.93777C10.2989 10.4999 11.6526 10.3061 12.9576 9.92242C13.0138 9.90492 13.0713 9.89492 13.1301 9.89492C13.2725 9.90242 13.4038 9.97742 13.4813 10.0974C13.7125 10.3799 13.4463 11.3561 13.4463 11.3561C13.5238 11.2223 13.6013 11.0849 13.6663 10.9424C13.8088 10.6286 13.9325 10.2661 13.7625 9.95117Z" fill="#EB8F00"/>
<path d="M13.5859 8.13409C13.5859 8.13409 15.7108 8.19284 16.5595 9.759C16.9145 10.4165 16.9345 11.5089 16.1995 11.9076C15.3108 12.3963 14.4771 11.7026 14.3709 10.9627C14.0847 8.9553 13.5859 8.13409 13.5859 8.13409Z" fill="#29B6F6"/>
<path d="M16.407 11.1571C16.3233 11.3096 16.1395 11.3759 15.9783 11.3121C15.8346 11.2359 15.7958 11.0521 15.7733 10.8909L15.7046 10.3909C15.6758 10.1922 15.4733 9.54847 15.6858 9.44348C15.8546 9.36098 16.1783 9.58847 16.2733 9.71971C16.482 10.0172 16.5808 10.8646 16.407 11.1571Z" fill="#81D4FA"/>
<path d="M15.6855 9.44873C15.8543 9.36623 16.178 9.59372 16.273 9.72496C16.4818 10.0162 16.5805 10.8636 16.4068 11.1561C16.323 11.3086 16.1393 11.3749 15.978 11.3111C15.8343 11.2349 15.7955 11.0511 15.773 10.8899L15.7043 10.3899" fill="#81D4FA"/>
<path d="M4.4137 8.13409C4.4137 8.13409 2.28881 8.19284 1.4401 9.759C1.08512 10.4102 1.07137 11.4977 1.80008 11.9014C2.68879 12.3901 3.52249 11.6964 3.62874 10.9564C3.91497 8.9553 4.4137 8.13409 4.4137 8.13409Z" fill="#29B6F6"/>
<path d="M1.59319 11.1571C1.67694 11.3096 1.86068 11.3759 2.02192 11.3121C2.16566 11.2359 2.20441 11.0521 2.22691 10.8909L2.29565 10.3909C2.3244 10.1922 2.52689 9.54847 2.3144 9.44348C2.14566 9.36098 1.82193 9.58847 1.72693 9.71971C1.5182 10.0172 1.41945 10.8646 1.59319 11.1571Z" fill="#81D4FA"/>
<path d="M7.0176 7.98186L6.99885 7.95436L6.97261 7.92062C6.96261 7.90687 6.95261 7.89562 6.94011 7.88437L6.86386 7.80687C6.83136 7.77437 6.79511 7.74188 6.75512 7.70813C6.67262 7.63688 6.58013 7.57939 6.48013 7.53439C6.38389 7.49189 6.27889 7.46939 6.1739 7.46939C6.21765 7.46939 6.18515 7.46939 6.19515 7.46939H6.1239C6.1114 7.46814 6.10015 7.46814 6.08765 7.46939C6.06515 7.47189 6.04265 7.47564 6.02016 7.48064C5.96891 7.49314 5.91766 7.50939 5.86891 7.52939C5.76892 7.57314 5.67642 7.63188 5.59393 7.70313C5.52643 7.75938 5.46269 7.82062 5.40394 7.88687L5.33269 7.96686L5.29519 8.00936C5.14395 8.18185 4.88272 8.19935 4.71023 8.04936C4.58148 7.93687 4.53523 7.75563 4.59273 7.59439L4.60648 7.55439C4.61773 7.52814 4.62773 7.48814 4.65148 7.44064C4.70898 7.30565 4.78397 7.17691 4.87397 7.06067C5.0927 6.77193 5.40019 6.56194 5.74892 6.46195C5.82017 6.4432 5.89266 6.42945 5.96641 6.41945C6.00391 6.41945 6.0589 6.4082 6.07515 6.4082H6.17015C6.31139 6.4107 6.45263 6.4307 6.59013 6.4657C6.72137 6.50195 6.84636 6.55445 6.96511 6.62194C7.15885 6.73568 7.32884 6.88568 7.46508 7.06442C7.55757 7.18566 7.63632 7.3169 7.69757 7.45689C7.70757 7.47689 7.71632 7.49689 7.72132 7.51814C7.72756 7.53439 7.73131 7.54814 7.73506 7.55939L7.74631 7.59313C7.81756 7.81437 7.69632 8.05186 7.47508 8.1231C7.30884 8.17685 7.1251 8.12186 7.01635 7.98561L7.0176 7.98186Z" fill="#422B0D"/>
<path d="M12.6839 7.98186L12.6614 7.95436L12.6351 7.92062C12.6251 7.90687 12.6151 7.89562 12.6026 7.88437L12.5251 7.80687C12.4914 7.77188 12.4551 7.73938 12.4176 7.70813C12.3351 7.63688 12.2426 7.57939 12.1426 7.53439C12.0464 7.49189 11.9414 7.46939 11.8364 7.46939C11.8801 7.46939 11.8476 7.46939 11.8576 7.46939H11.7851C11.7727 7.46814 11.7614 7.46814 11.7489 7.46939C11.7264 7.47189 11.7039 7.47564 11.6814 7.48064C11.6302 7.49314 11.5789 7.50939 11.5302 7.52939C11.4289 7.57564 11.3339 7.63563 11.2489 7.70813C11.1814 7.76563 11.1189 7.82687 11.0602 7.89187L10.9889 7.97186L10.9514 8.01436C10.8002 8.18685 10.539 8.20435 10.3665 8.05436C10.2377 7.94187 10.1915 7.76063 10.249 7.59939L10.2627 7.55939C10.274 7.53314 10.284 7.49314 10.3065 7.44564C10.3665 7.30815 10.4427 7.17941 10.5352 7.06067C10.754 6.77193 11.0614 6.56194 11.4102 6.46195C11.4814 6.4432 11.5539 6.42945 11.6277 6.41945C11.6652 6.41945 11.7202 6.4082 11.7364 6.4082H11.8314C11.9726 6.4107 12.1139 6.4307 12.2514 6.4657C12.3814 6.5032 12.5064 6.55569 12.6239 6.62319C12.8176 6.73568 12.9876 6.88693 13.1238 7.06567C13.1763 7.13316 13.2226 7.20441 13.2651 7.27815C13.2988 7.3369 13.3288 7.3969 13.3563 7.45814C13.3663 7.47814 13.3738 7.49814 13.3801 7.51939C13.3801 7.53564 13.3901 7.54939 13.3938 7.56064L13.4051 7.59439C13.4763 7.81562 13.3551 8.05311 13.1338 8.12435C12.9676 8.1781 12.7838 8.1231 12.6751 7.98686L12.6839 7.98186Z" fill="#422B0D"/>
<defs>
<radialGradient id="paint0_radial_1573_57142" cx="0" cy="0" r="1" gradientUnits="userSpaceOnUse" gradientTransform="translate(8.95079 8.86002) scale(7.11958 7.11955)">
<stop offset="0.5" stop-color="#FDE030"/>
<stop offset="0.92" stop-color="#F7C02B"/>
<stop offset="1" stop-color="#F4A223"/>
</radialGradient>
</defs>
</svg>
