<svg width="14" height="15" viewBox="0 0 14 15" fill="none" xmlns="http://www.w3.org/2000/svg">
<path d="M7 8.5V4.5M5 6.5H9M5.6 12.3L6.57333 13.5978C6.71808 13.7908 6.79045 13.8873 6.87918 13.9218C6.95689 13.952 7.04311 13.952 7.12082 13.9218C7.20955 13.8873 7.28192 13.7908 7.42667 13.5978L8.4 12.3C8.59543 12.0394 8.69315 11.9091 8.81234 11.8097C8.97126 11.677 9.15887 11.5832 9.36033 11.5357C9.51142 11.5 9.67428 11.5 10 11.5C10.9319 11.5 11.3978 11.5 11.7654 11.3478C12.2554 11.1448 12.6448 10.7554 12.8478 10.2654C13 9.89782 13 9.43188 13 8.5V4.7C13 3.57989 13 3.01984 12.782 2.59202C12.5903 2.21569 12.2843 1.90973 11.908 1.71799C11.4802 1.5 10.9201 1.5 9.8 1.5H4.2C3.0799 1.5 2.51984 1.5 2.09202 1.71799C1.71569 1.90973 1.40973 2.21569 1.21799 2.59202C1 3.01984 1 3.57989 1 4.7V8.5C1 9.43188 1 9.89782 1.15224 10.2654C1.35523 10.7554 1.74458 11.1448 2.23463 11.3478C2.60218 11.5 3.06812 11.5 4 11.5C4.32572 11.5 4.48858 11.5 4.63967 11.5357C4.84113 11.5832 5.02874 11.677 5.18766 11.8097C5.30685 11.9091 5.40457 12.0394 5.6 12.3Z" stroke="#307FF5" stroke-width="1.5" stroke-linecap="round" stroke-linejoin="round"/>
</svg>
