<svg width="8" height="5" viewBox="0 0 8 5" fill="none" xmlns="http://www.w3.org/2000/svg">
<path d="M0.223466 0.235052C0.521421 -0.0777055 1.0045 -0.0777055 1.30246 0.235052L4.53942 3.63284C4.83738 3.94559 4.83738 4.45267 4.53942 4.76543C4.24147 5.07819 3.75839 5.07819 3.46043 4.76543L0.223466 1.36765C-0.0744887 1.05489 -0.0744887 0.547809 0.223466 0.235052Z" fill="#307FF5"/>
<path d="M3.46043 4.76543C3.16248 4.45267 3.16262 3.94511 3.46058 3.63235L6.69754 0.234568C6.9955 -0.0781894 7.47858 -0.0781894 7.77653 0.234568C8.07449 0.547325 8.07449 1.05441 7.77653 1.36716L4.53942 4.76543C4.24147 5.07819 3.75839 5.07819 3.46043 4.76543Z" fill="#307FF5"/>
</svg>
