<svg width="34" height="34" viewBox="0 0 34 34" fill="none" xmlns="http://www.w3.org/2000/svg">
<path fill-rule="evenodd" clip-rule="evenodd" d="M11.1212 6.10769L25.6293 12.6363C26.6685 13.1039 27.5364 13.4944 28.181 13.8572C28.8084 14.2103 29.5004 14.6802 29.8714 15.4306C30.3606 16.4199 30.3606 17.5807 29.8714 18.57C29.5004 19.3205 28.8084 19.7904 28.181 20.1434C27.5364 20.5062 26.6685 20.8968 25.6293 21.3644L11.146 27.8819C10.0801 28.3615 9.19241 28.761 8.4795 29.008C7.78907 29.2472 6.96366 29.4589 6.14644 29.2308C5.07344 28.9314 4.20387 28.1445 3.79899 27.1067C3.49063 26.3163 3.61898 25.4739 3.7882 24.7631C3.96292 24.0291 4.27195 23.1061 4.64302 21.9977L6.08845 17.6801C6.23903 17.2302 6.24924 17.1806 6.25403 17.144C6.25863 17.1088 6.26058 17.0734 6.25987 17.038C6.25936 17.0126 6.25749 16.9873 6.25427 16.9622C6.24957 16.9255 6.23949 16.8759 6.09007 16.4257L4.61452 11.9801C4.24746 10.8743 3.94167 9.95302 3.76931 9.22042C3.60227 8.51047 3.47657 7.66966 3.78584 6.8811C4.19212 5.84521 5.0616 5.06048 6.13359 4.7622C6.94963 4.53514 7.77319 4.74612 8.46235 4.98485C9.1735 5.23118 10.0587 5.62953 11.1212 6.10769ZM8.82974 18.4171H16.2916C17.074 18.4171 17.7083 17.7828 17.7083 17.0004C17.7083 16.218 17.074 15.5837 16.2916 15.5837H8.79598C8.79036 15.5669 8.78474 15.55 8.77915 15.5331L7.32544 11.1533C6.93094 9.96474 6.66702 9.16521 6.52733 8.57151C6.41391 8.08945 6.42993 7.91857 6.43103 7.89731C6.5126 7.70527 6.67476 7.55892 6.87413 7.49741C6.89539 7.49848 7.06701 7.50001 7.53496 7.6621C8.11127 7.86174 8.87964 8.20599 10.0217 8.71991L24.4035 15.1917C25.5222 15.6951 26.2716 16.0339 26.7914 16.3264C27.2125 16.5634 27.3249 16.6879 27.3396 16.7031C27.4268 16.8916 27.4268 17.109 27.3396 17.2976C27.3249 17.3128 27.2125 17.4373 26.7914 17.6743C26.2716 17.9668 25.5222 18.3056 24.4035 18.809L10.0465 25.2697C8.90104 25.7851 8.1301 26.1305 7.55196 26.3308C7.08244 26.4935 6.91024 26.495 6.88891 26.4961C6.68948 26.4344 6.5274 26.2877 6.44608 26.0954C6.44505 26.0741 6.42944 25.9026 6.54451 25.4192C6.68621 24.824 6.95308 24.0225 7.35182 22.8314L8.77523 18.5795C8.78363 18.5544 8.79207 18.5293 8.80052 18.5042C8.81027 18.4752 8.82002 18.4461 8.82974 18.4171Z" fill="#A4A4A4"/>
</svg>
