<svg width="34" height="34" viewBox="0 0 34 34" fill="none" xmlns="http://www.w3.org/2000/svg">
<path fill-rule="evenodd" clip-rule="evenodd" d="M16.9997 5.66634C10.7404 5.66634 5.66634 10.7404 5.66634 16.9997C5.66634 23.2589 10.7404 28.333 16.9997 28.333C23.2589 28.333 28.333 23.2589 28.333 16.9997C28.333 10.7404 23.2589 5.66634 16.9997 5.66634ZM2.83301 16.9997C2.83301 9.17564 9.17564 2.83301 16.9997 2.83301C24.8237 2.83301 31.1663 9.17564 31.1663 16.9997C31.1663 24.8237 24.8237 31.1663 16.9997 31.1663C9.17564 31.1663 2.83301 24.8237 2.83301 16.9997ZM12.7497 11.333C12.7497 8.9858 14.6525 7.08301 16.9997 7.08301C19.3469 7.08301 21.2497 8.9858 21.2497 11.333V18.4163C21.2497 20.7636 19.3469 22.6663 16.9997 22.6663C14.6525 22.6663 12.7497 20.7636 12.7497 18.4163V11.333ZM16.9997 9.91634C16.2173 9.91634 15.583 10.5506 15.583 11.333V18.4163C15.583 19.1987 16.2173 19.833 16.9997 19.833C17.7821 19.833 18.4163 19.1987 18.4163 18.4163V11.333C18.4163 10.5506 17.7821 9.91634 16.9997 9.91634ZM9.91634 14.1663C10.6987 14.1663 11.333 14.8006 11.333 15.583V18.4163C11.333 21.546 13.8701 24.083 16.9997 24.083C20.1293 24.083 22.6663 21.546 22.6663 18.4163V15.583C22.6663 14.8006 23.3006 14.1663 24.083 14.1663C24.8654 14.1663 25.4997 14.8006 25.4997 15.583V18.4163C25.4997 23.1108 21.6941 26.9163 16.9997 26.9163C12.3053 26.9163 8.49967 23.1108 8.49967 18.4163V15.583C8.49967 14.8006 9.13394 14.1663 9.91634 14.1663Z" fill="#A4A4A4"/>
</svg>
