<svg width="17" height="17" viewBox="0 0 17 17" fill="none" xmlns="http://www.w3.org/2000/svg">
<path d="M15.1668 8.16732V10.234C15.1668 11.7275 15.1668 12.4742 14.8762 13.0446C14.6205 13.5464 14.2126 13.9543 13.7108 14.21C13.1404 14.5007 12.3936 14.5007 10.9002 14.5007H6.10016C4.60669 14.5007 3.85995 14.5007 3.28952 14.21C2.78776 13.9543 2.37981 13.5464 2.12415 13.0446C1.8335 12.4742 1.8335 11.7275 1.8335 10.234V6.76732C1.8335 5.27384 1.8335 4.52711 2.12415 3.95668C2.37981 3.45491 2.78776 3.04696 3.28952 2.7913C3.85995 2.50065 4.60669 2.50065 6.10016 2.50065H8.8335M13.1668 5.83398V1.83398M11.1668 3.83398H15.1668M11.1668 8.50065C11.1668 9.97341 9.97292 11.1673 8.50016 11.1673C7.0274 11.1673 5.8335 9.97341 5.8335 8.50065C5.8335 7.02789 7.0274 5.83398 8.50016 5.83398C9.97292 5.83398 11.1668 7.02789 11.1668 8.50065Z" stroke="#307FF5" stroke-width="1.5" stroke-linecap="round" stroke-linejoin="round"/>
</svg>
