<svg width="16" height="16" viewBox="0 0 16 16" fill="none" xmlns="http://www.w3.org/2000/svg">
<path d="M4.53253 8H13.25L14.75 2.75H13.25M3.72482 2.75H5.75M14 11H5L3.5 1.25H1.25M9.5 1.25V5.75M9.5 1.25L8 2.75M9.5 1.25L11 2.75M5.75 14C5.75 14.4142 5.41421 14.75 5 14.75C4.58579 14.75 4.25 14.4142 4.25 14C4.25 13.5858 4.58579 13.25 5 13.25C5.41421 13.25 5.75 13.5858 5.75 14ZM14 14C14 14.4142 13.6642 14.75 13.25 14.75C12.8358 14.75 12.5 14.4142 12.5 14C12.5 13.5858 12.8358 13.25 13.25 13.25C13.6642 13.25 14 13.5858 14 14Z" stroke="#307FF5" stroke-width="1.3" stroke-linecap="round" stroke-linejoin="round"/>
</svg>
