<svg width="20" height="20" viewBox="0 0 20 20" fill="none" xmlns="http://www.w3.org/2000/svg">
<path d="M5.36992 12.6523C3.47583 12.6418 1.54177 12.9823 0.360406 11.0616C-0.111627 10.2944 -0.0418864 9.5553 0.130767 8.58044C0.398963 7.07063 0.673679 5.56229 0.954914 4.05542C1.12728 3.131 1.25089 2.5591 1.32574 2.33973C1.77056 1.03405 2.77926 0.00639002 4.20812 0.00375037C6.5595 -0.00152705 8.91117 -0.00123312 11.2631 0.00463219C12.1335 0.0069783 12.8729 0.285888 13.4813 0.841361C13.5045 0.862478 13.5255 0.860423 13.5442 0.835203C14.0077 0.208755 14.5223 0.0222297 15.309 0.0187107C16.1646 0.0146042 17.0194 0.00932667 17.8733 0.00287419C18.827 -0.00475131 19.483 0.420797 19.8414 1.27952C19.9928 1.64202 19.9953 2.06698 19.9962 2.46555C19.9996 5.17135 20.0007 7.87686 19.9996 10.5821C19.9996 12.0831 19.3591 13.028 17.8189 13.0245C16.9655 13.0228 16.1122 13.0228 15.2588 13.0245C14.2901 13.0263 13.5935 12.5925 13.2355 11.6273C13.2224 11.5921 13.2029 11.5874 13.1768 11.6133C10.9093 13.8648 8.71498 16.6961 7.43751 19.7087C7.36777 19.8741 7.05649 19.9937 6.86342 19.999C5.84706 20.0236 4.84941 19.5864 4.35271 18.6573C3.35081 16.7823 4.51941 14.3293 5.39714 12.7007C5.41471 12.6685 5.40564 12.6523 5.36992 12.6523ZM1.39973 9.22624C1.1769 10.4783 2.1014 11.2376 3.24619 11.2402C4.33825 11.2431 5.43031 11.2431 6.52236 11.2402C7.42306 11.2376 7.64164 11.871 7.13218 12.5828C6.75059 13.1148 6.40386 13.6926 6.09201 14.3161C5.60126 15.2971 4.53472 18.3115 6.41605 18.5455C6.42798 18.547 6.44004 18.5447 6.45056 18.5389C6.46108 18.533 6.46953 18.524 6.47474 18.513C7.98014 15.2417 10.484 12.1702 13.0994 9.78934C13.1209 9.76999 13.1317 9.74535 13.1317 9.71544C13.1357 7.70412 13.1357 5.6928 13.1317 3.68149C13.1306 3.18643 13.0889 2.82452 13.0067 2.59576C12.749 1.88309 12.1221 1.41062 11.3686 1.41062C9.09488 1.40886 6.82118 1.40915 4.54748 1.4115C4.17835 1.41208 3.92575 1.43144 3.78967 1.46956C2.86346 1.72736 2.55218 2.89931 2.39228 3.75891C2.05434 5.5796 1.72349 7.40204 1.39973 9.22624ZM14.4951 10.9595C14.4951 11.1343 14.5622 11.3019 14.6816 11.4255C14.8011 11.5491 14.9631 11.6185 15.1321 11.6185L18.0034 11.6185C18.1724 11.6185 18.3344 11.5491 18.4539 11.4255C18.5733 11.3019 18.6405 11.1343 18.6405 10.9595L18.6405 2.07314C18.6405 1.89836 18.5733 1.73074 18.4539 1.60715C18.3344 1.48357 18.1724 1.41414 18.0034 1.41414L15.1321 1.41414C14.9631 1.41414 14.8011 1.48357 14.6816 1.60715C14.5622 1.73074 14.4951 1.89836 14.4951 2.07314L14.4951 10.9595Z" fill="#307FF5"/>
</svg>
