<svg width="22" height="23" viewBox="0 0 22 23" fill="none" xmlns="http://www.w3.org/2000/svg">
<path d="M11 21.5C16.5228 21.5 21 17.0228 21 11.5C21 5.97715 16.5228 1.5 11 1.5C5.47715 1.5 1 5.97715 1 11.5C1 17.0228 5.47715 21.5 11 21.5Z" stroke="#A4A4A4" stroke-width="1.5" stroke-linecap="round" stroke-linejoin="round"/>
<path fill-rule="evenodd" clip-rule="evenodd" d="M10.9966 8.56791C9.9969 7.3992 8.32987 7.08482 7.07735 8.15501C5.82482 9.22519 5.64848 11.0145 6.6321 12.2802C7.26211 13.0909 8.87558 14.5942 9.95424 15.5704C10.3127 15.8947 10.4919 16.0569 10.7066 16.122C10.8911 16.1779 11.102 16.1779 11.2866 16.122C11.5012 16.0569 11.6805 15.8947 12.0389 15.5704C13.1176 14.5942 14.731 13.0909 15.3611 12.2802C16.3447 11.0145 16.1899 9.21393 14.9158 8.15501C13.6417 7.09608 11.9963 7.3992 10.9966 8.56791Z" stroke="#A4A4A4" stroke-width="1.5" stroke-linecap="round" stroke-linejoin="round"/>
</svg>
