<svg width="20" height="20" viewBox="0 0 20 20" fill="none" xmlns="http://www.w3.org/2000/svg">
<path d="M0.886719 15.9516C2.85125 18.4178 5.88065 20.0008 9.27954 20.0008C13.2657 20.0008 16.7442 17.8245 18.593 14.5968C17.6228 14.1538 16.9469 13.538 16.268 12.9688C14.9418 15.4725 12.3104 17.1772 9.27954 17.1772C6.85241 17.1772 4.68061 16.0823 3.23124 14.361C2.72058 14.8972 1.98914 15.4695 0.886719 15.9516Z" fill="#4C3933"/>
<path fill-rule="evenodd" clip-rule="evenodd" d="M1.22355 13.7644C0.912651 9.7602 2.39056 6.40637 5.39743 4.23908C5.9156 3.8651 6.27456 3.65182 6.83478 3.38598C7.08561 3.26733 7.33042 3.15318 7.64282 3.03903C8.03483 2.89485 8.07839 2.9339 8.36976 2.72062C5.60169 2.37217 2.09317 3.74044 0.84206 5.42561C-0.291901 6.95308 -0.294905 11.2111 0.920161 13.3603L1.15296 13.6863C1.16347 13.6667 1.19802 13.7403 1.22355 13.7644Z" fill="#4C3933"/>
<path fill-rule="evenodd" clip-rule="evenodd" d="M17.8664 12.781C19.098 9.90927 18.5363 7.17425 17.3558 4.66602C16.9773 5.54014 18.4747 9.68548 13.5709 14.0967C12.6922 14.8867 11.9007 15.1045 10.7998 15.7338C13.3681 16.0988 17.1575 14.4346 17.8664 12.781Z" fill="#4C3933"/>
<path fill-rule="evenodd" clip-rule="evenodd" d="M15.5344 11.3938C16.9117 9.8198 17.927 5.41162 16.4596 3.40954C15.3166 1.84753 12.4104 -0.107993 9.47559 0.00465249L9.6393 0.124807C9.66333 0.139827 9.77447 0.210418 9.80751 0.229943C11.6324 1.26027 13.0427 2.15693 14.2352 4.23711C15.4548 6.36535 15.9639 8.58521 15.5344 11.3938Z" fill="#4C3933"/>
<path fill-rule="evenodd" clip-rule="evenodd" d="M4.10742 13.332C4.62559 14.6658 6.27922 16.4215 7.34259 17.1454C8.00495 17.596 9.51289 18.4146 10.2594 18.4626C11.3573 18.5347 13.6357 17.4744 14.4122 16.9787C15.2863 16.4215 16.6831 15.0878 17.1262 14.1341C16.2295 14.5005 15.5537 15.1869 14.1614 15.5909C11.114 16.4756 7.97641 16.0295 5.35253 14.2873C4.89444 13.9839 4.52045 13.5874 4.10742 13.332Z" fill="#4C3933"/>
<path fill-rule="evenodd" clip-rule="evenodd" d="M1.24316 4.62386C4.74418 2.29586 7.23288 1.66955 11.5134 3.25409C12.8666 3.75574 13.4269 4.38655 14.3055 4.99333C13.8729 3.86238 12.6489 2.45807 11.8769 1.87081C11.1304 1.30158 9.36563 -0.0862119 7.98535 0.0594759C5.01603 0.37338 2.10678 2.73743 1.24316 4.62386Z" fill="#4C3933"/>
<path fill-rule="evenodd" clip-rule="evenodd" d="M9.35673 18.5389C8.72141 18.0898 8.13866 18.0838 6.57965 16.8928C5.80915 16.304 5.04617 15.3924 4.46192 14.5333C2.94947 12.3104 2.73469 10.5621 2.82781 7.47266C1.63828 9.49126 0.544871 13.5149 2.29913 15.4314C2.76323 15.9376 3.06211 16.2304 3.62684 16.654C5.17534 17.815 7.26753 18.632 9.35673 18.5389Z" fill="#4C3933"/>
<path fill-rule="evenodd" clip-rule="evenodd" d="M12.9207 11.4195C13.6191 11.3699 14.3895 10.317 14.5938 9.9821C15.5776 11.1791 16.4352 11.9511 19.0771 13.6138C18.9569 13.8676 18.7331 14.3527 18.595 14.596C17.3544 14.0298 15.7743 13.0641 14.8762 12.3912L14.2829 12.7351L14.1372 12.265C13.6641 12.5804 13.0243 13.0611 12.5452 12.6676L10.7879 10.6715L9.78761 11.6808L9.25893 10.4252C8.80234 10.9223 7.85913 11.9722 7.5257 12.3897L6.71465 13.3945C6.37371 13.8195 5.62875 13.0325 5.16315 12.8298L4.81921 13.4335L4.23045 13.013C3.76635 13.7159 2.81563 15.2043 0.884138 15.9508C0.718925 15.7435 0.4666 15.3786 0.316406 15.1593C2.23888 13.9863 3.12352 12.0052 4.1914 10.3966C4.63898 10.8592 5.84954 11.9601 6.27308 11.9962C7.61131 10.4387 8.66567 9.45191 9.68698 7.97852C10.1706 8.19329 12.0826 10.8382 12.9207 11.4195Z" fill="url(#paint0_linear_2204_103080)"/>
<defs>
<linearGradient id="paint0_linear_2204_103080" x1="9.69675" y1="7.97852" x2="9.69675" y2="15.9508" gradientUnits="userSpaceOnUse">
<stop stop-color="#FF6760"/>
<stop offset="1" stop-color="#CF3C35"/>
</linearGradient>
</defs>
</svg>
