<svg width="19" height="19" viewBox="0 0 19 19" fill="none" xmlns="http://www.w3.org/2000/svg">
<path fill-rule="evenodd" clip-rule="evenodd" d="M18.7241 0.310347C19.105 0.710277 19.0896 1.34325 18.6897 1.72414L14.4897 5.72414C14.1034 6.09196 13.4966 6.09196 13.1103 5.72414L11.3103 4.00985C10.9104 3.62897 10.895 2.99599 11.2759 2.59606C11.6567 2.19613 12.2897 2.18069 12.6897 2.56158L13.8 3.61905L17.3103 0.275864C17.7103 -0.105022 18.3433 -0.0895837 18.7241 0.310347ZM5.7587 1H8C8.55229 1 9 1.44772 9 2C9 2.55229 8.55229 3 8 3H5.8C4.94342 3 4.36113 3.00078 3.91104 3.03755C3.47262 3.07337 3.24842 3.1383 3.09202 3.21799C2.7157 3.40974 2.40973 3.7157 2.21799 4.09202C2.1383 4.24842 2.07337 4.47262 2.03755 4.91104C2.00078 5.36113 2 5.94342 2 6.8V13.2C2 13.4185 2.00005 13.6191 2.00074 13.8042L4.33955 11.5216L4.36396 11.4974C4.73537 11.1291 5.05594 10.8111 5.34149 10.5707C5.643 10.3167 5.97018 10.0917 6.37184 9.96195C6.97144 9.76824 7.6168 9.76824 8.21639 9.96195C8.61806 10.0917 8.94524 10.3167 9.24675 10.5707C9.5323 10.8111 9.85287 11.1291 10.2243 11.4974L11.2653 12.5298C11.5067 12.2933 11.7255 12.0857 11.9269 11.9163C12.2338 11.6582 12.5672 11.4298 12.9764 11.3006C13.5864 11.1082 14.2418 11.1158 14.8471 11.3222C15.2533 11.4606 15.5813 11.6967 15.8822 11.9618C15.9208 11.9958 15.9601 12.0313 16 12.0682V7.5C16 6.94772 16.4477 6.5 17 6.5C17.5523 6.5 18 6.94772 18 7.5V13.2413C18 13.6609 18 14.0424 17.9938 14.388C18.0039 14.4785 18.0017 14.57 17.9872 14.6599C17.9807 14.8717 17.9708 15.0688 17.9558 15.2518C17.9099 15.8139 17.8113 16.3306 17.564 16.816C17.1805 17.5686 16.5686 18.1805 15.816 18.564C15.6529 18.6471 15.4863 18.7134 15.3157 18.7666C15.2994 18.7719 15.283 18.7769 15.2665 18.7815C14.9441 18.8768 14.607 18.9268 14.2518 18.9558C13.7106 19 13.0463 19 12.2413 19H5.75868C4.95372 19 4.28936 19 3.74817 18.9558C3.18608 18.9099 2.66937 18.8113 2.18404 18.564C1.43139 18.1805 0.819468 17.5686 0.435975 16.816C0.352848 16.6528 0.286527 16.4861 0.233362 16.3154C0.228039 16.2993 0.223135 16.2831 0.21865 16.2669C0.123287 15.9443 0.0732243 15.6071 0.0441945 15.2518C-2.28137e-05 14.7106 -1.23241e-05 14.0463 4.31292e-07 13.2413V6.7587C-1.23241e-05 5.95373 -2.28137e-05 5.28937 0.0441945 4.74818C0.0901197 4.18608 0.188684 3.66938 0.435975 3.18404C0.819468 2.43139 1.43139 1.81947 2.18404 1.43598C2.66937 1.18869 3.18608 1.09012 3.74817 1.0442C4.28937 0.999978 4.95373 0.999989 5.7587 1ZM2.40397 16.2053C2.58574 16.446 2.82058 16.6437 3.09202 16.782C3.24842 16.8617 3.47262 16.9266 3.91104 16.9625C4.36113 16.9992 4.94342 17 5.8 17H12.2C12.4263 17 12.6335 16.9999 12.8242 16.9992L10.5523 14.6394L8.84323 12.9445C8.43689 12.5416 8.17413 12.2821 7.95836 12.1004C7.7516 11.9262 7.65425 11.8821 7.60154 11.8651C7.40168 11.8005 7.18656 11.8005 6.98669 11.8651C6.93398 11.8821 6.83663 11.9262 6.62988 12.1004C6.41411 12.2821 6.15135 12.5416 5.74501 12.9445L5.73934 12.9502L2.40397 16.2053ZM12.6692 13.9545L15.2093 16.593C15.4482 16.4116 15.6445 16.1779 15.782 15.908C15.8617 15.7516 15.9266 15.5274 15.9624 15.089C15.9678 15.0241 15.9723 14.9564 15.9762 14.8856L15.4439 14.3451C15.0387 13.9244 14.7763 13.6529 14.5601 13.4625C14.3526 13.2797 14.2544 13.2331 14.2017 13.2152C13.9999 13.1464 13.7815 13.1439 13.5781 13.208C13.5251 13.2247 13.4258 13.269 13.2141 13.447C13.0647 13.5726 12.8932 13.7349 12.6692 13.9545Z" fill="#307FF5"/>
</svg>
