<svg width="90" height="90" viewBox="0 0 90 90" fill="none" xmlns="http://www.w3.org/2000/svg">
<path d="M45 85C67.0914 85 85 67.0914 85 45C85 22.9086 67.0914 5 45 5C22.9086 5 5 22.9086 5 45C5 67.0914 22.9086 85 45 85Z" stroke="white" stroke-width="8.33333" stroke-linecap="round" stroke-linejoin="round"/>
<path d="M35 32.8613C35 30.9522 35 29.9976 35.399 29.4647C35.7467 29.0003 36.2789 28.7097 36.8575 28.6684C37.5215 28.621 38.3245 29.1372 39.9304 30.1696L58.8128 42.3082C60.2063 43.2041 60.9031 43.652 61.1438 44.2216C61.3541 44.7192 61.3541 45.2808 61.1438 45.7784C60.9031 46.348 60.2063 46.7959 58.8128 47.6918L39.9304 59.8304C38.3245 60.8628 37.5215 61.379 36.8575 61.3316C36.2789 61.2903 35.7467 60.9997 35.399 60.5353C35 60.0024 35 59.0478 35 57.1387V32.8613Z" stroke="white" stroke-width="8.33333" stroke-linecap="round" stroke-linejoin="round"/>
</svg>
