<svg width="20" height="20" viewBox="0 0 20 20" fill="none" xmlns="http://www.w3.org/2000/svg">
<path fill-rule="evenodd" clip-rule="evenodd" d="M2.49442 7.22491C2.17466 8.08944 2 9.02432 2 10C2 11.0609 2.20651 12.0736 2.58152 13H5.38197L3.86344 9.96295C3.85831 9.9531 3.85335 9.94317 3.84855 9.93318L2.49442 7.22491ZM1.58685 4.5923C0.58265 6.15138 0 8.00765 0 10C0 11.5965 0.374101 13.1055 1.03942 14.4444C2.67574 17.7371 6.07361 20 10 20C13.2556 20 16.1479 18.4442 17.9739 16.0355C17.9798 16.028 17.9856 16.0203 17.9913 16.0125C19.2524 14.3391 20 12.2568 20 10C20 8.00816 19.4177 6.15234 18.4139 4.5935C18.3675 4.48922 18.3037 4.39436 18.2263 4.31257C16.4212 1.70674 13.4099 0 10 0C6.5907 0 3.57988 1.70611 1.77475 4.31112C1.69582 4.39423 1.63265 4.48958 1.58685 4.5923ZM3.67106 5.10606L4.84204 7.44801L6.55303 4.67784C6.60201 4.53382 6.68291 4.40457 6.78731 4.29852L8.06083 2.23663C6.29105 2.67726 4.75432 3.70722 3.67106 5.10606ZM10.5464 2.01836L9.32243 4H12.9767C12.9921 3.99964 13.0074 3.99965 13.0227 4H15.2916C14.009 2.86793 12.3606 2.14073 10.5464 2.01836ZM16.9297 6H14.4793L16.1791 10.2319C16.1821 10.2392 16.1851 10.2465 16.1879 10.2539L17.3535 13.1558C17.7696 12.1875 18 11.1207 18 10C18 8.54285 17.6104 7.17669 16.9297 6ZM16.0384 15.2478L15.0599 12.8116L13.991 14.5166C13.9854 14.5259 13.9796 14.5351 13.9737 14.5442L11.9586 17.7585C13.5676 17.3536 14.9829 16.4613 16.0384 15.2478ZM9.45798 17.9819L11.3274 15H7.02167C7.00772 15.0003 6.99379 15.0003 6.97988 15H3.75463C5.11504 16.6971 7.15283 17.8277 9.45798 17.9819ZM7.61803 13H12.5813L14.1381 10.5166L12.324 6H8.08713L5.89368 9.5513L7.61803 13Z" fill="#307FF5"/>
</svg>
