<svg width="16" height="21" viewBox="0 0 16 21" fill="none" xmlns="http://www.w3.org/2000/svg">
<path d="M12 5.00002V3.28434C12 2.51581 12 2.13155 11.8387 1.88315C11.6976 1.66581 11.4776 1.51174 11.2252 1.45339C10.9366 1.38671 10.5755 1.51803 9.85321 1.78067L2.57982 4.42554C2.01064 4.63251 1.72605 4.736 1.51615 4.91839C1.33073 5.0795 1.18772 5.28368 1.09968 5.51298C1 5.77258 1 6.0754 1 6.68104V11M5 16H11M5 12.5H11M5 9.00002H11M4.2 20H11.8C12.9201 20 13.4802 20 13.908 19.782C14.2843 19.5903 14.5903 19.2843 14.782 18.908C15 18.4802 15 17.9201 15 16.8V8.20002C15 7.07991 15 6.51986 14.782 6.09204C14.5903 5.71571 14.2843 5.40975 13.908 5.218C13.4802 5.00002 12.9201 5.00002 11.8 5.00002H4.2C3.0799 5.00002 2.51984 5.00002 2.09202 5.218C1.71569 5.40975 1.40973 5.71571 1.21799 6.09204C1 6.51986 1 7.07991 1 8.20002V16.8C1 17.9201 1 18.4802 1.21799 18.908C1.40973 19.2843 1.71569 19.5903 2.09202 19.782C2.51984 20 3.07989 20 4.2 20Z" stroke="#307FF5" stroke-width="2" stroke-linecap="round" stroke-linejoin="round"/>
</svg>
