<svg width="20" height="20" viewBox="0 0 20 20" fill="none" xmlns="http://www.w3.org/2000/svg">
<path fill-rule="evenodd" clip-rule="evenodd" d="M9.59437 0.14868C9.86372 0.111898 10.1368 0.111898 10.4062 0.14868C10.7125 0.190517 11.0025 0.293114 11.3312 0.409425C11.3533 0.417254 11.3756 0.425144 11.3981 0.433082L17.1981 2.48014C17.2433 2.49607 17.288 2.51181 17.3324 2.5274C17.9665 2.75014 18.5231 2.94568 18.9529 3.31414C19.3288 3.6364 19.6191 4.04667 19.7979 4.50837L19.7745 4.51743L19.7979 4.50838C19.8274 4.58459 19.8526 4.66211 19.8742 4.74098C19.8843 4.7738 19.8926 4.80677 19.8992 4.8398C20.0019 5.28072 20.0012 5.76354 20.0004 6.2983C20.0003 6.34536 20.0003 6.39283 20.0003 6.4407V13.5597C20.0003 13.6075 20.0003 13.655 20.0004 13.7021C20.0014 14.3741 20.0023 14.9641 19.7979 15.492C19.6191 15.9537 19.3288 16.364 18.9529 16.6862C18.5231 17.0547 17.9665 17.2502 17.3324 17.473C17.288 17.4886 17.2433 17.5043 17.1981 17.5202L11.3981 19.5673C11.3756 19.5752 11.3534 19.5831 11.3313 19.5909C11.0025 19.7072 10.7126 19.8098 10.4062 19.8517C10.1368 19.8885 9.86372 19.8885 9.59437 19.8517C9.28799 19.8098 8.99803 19.7072 8.6693 19.5909C8.64719 19.5831 8.62491 19.5752 8.60243 19.5673L2.80243 17.5202C2.75728 17.5043 2.7125 17.4886 2.6681 17.473C2.03405 17.2502 1.4774 17.0547 1.04763 16.6862C0.671757 16.364 0.381483 15.9537 0.202697 15.492C-0.00172199 14.9641 -0.000853558 14.3741 0.000135641 13.7021C0.000204902 13.655 0.000274758 13.6075 0.000274758 13.5597V6.4407C0.000274758 6.39283 0.000204902 6.34536 0.000135641 6.2983C-0.000662704 5.75591 -0.00138237 5.26696 0.10584 4.82096C0.112465 4.78914 0.1207 4.75737 0.130588 4.72575C0.151216 4.65213 0.175084 4.57968 0.202698 4.50837C0.381483 4.04667 0.671758 3.6364 1.04763 3.31414L1.69851 4.07332L1.04763 3.31414C1.4774 2.94568 2.03406 2.75013 2.66811 2.5274C2.71251 2.5118 2.75729 2.49607 2.80243 2.48014L8.60243 0.433082C8.62492 0.425144 8.64722 0.417254 8.66934 0.409426C8.99805 0.293114 9.288 0.190517 9.59437 0.14868ZM2.00028 6.41554C2.00028 6.42386 2.00027 6.43225 2.00027 6.4407V13.5597C2.00027 14.4585 2.01659 14.6377 2.06775 14.7698C2.12734 14.9237 2.2241 15.0604 2.34939 15.1679L1.69851 15.927L2.3494 15.1679C2.45696 15.2601 2.6205 15.3351 3.46807 15.6342L9.00027 17.5868V8.93393L2.00028 6.41554ZM11.0003 8.93479V17.5868L16.5325 15.6342C17.3801 15.3351 17.5436 15.2601 17.6512 15.1679C17.7764 15.0604 17.8732 14.9237 17.9328 14.7698C17.984 14.6377 18.0003 14.4585 18.0003 13.5597V6.4407C18.0003 6.43561 18.0003 6.43055 18.0003 6.42551L11.0003 8.93479ZM17.1714 4.59801C17.0181 4.53939 16.8126 4.465 16.5325 4.36612L10.7325 2.31906C10.2998 2.16635 10.2134 2.14092 10.1356 2.13029C10.0458 2.11803 9.95476 2.11803 9.86497 2.13029C9.78716 2.14092 9.70076 2.16635 9.26807 2.31906L3.46807 4.36612C3.19587 4.46219 2.99421 4.53515 2.84231 4.59298L10.0009 7.16842L17.1714 4.59801Z" fill="#307FF5"/>
</svg>
