<svg width="20" height="20" viewBox="0 0 20 20" fill="none" xmlns="http://www.w3.org/2000/svg">
<path d="M14.6301 7.34766C16.5242 7.35821 18.4582 7.01772 19.6396 8.93841C20.1116 9.70563 20.0419 10.4447 19.8692 11.4196C19.601 12.9294 19.3263 14.4377 19.0451 15.9446C18.8727 16.869 18.7491 17.4409 18.6743 17.6603C18.2294 18.966 17.2207 19.9936 15.7919 19.9963C13.4405 20.0015 11.0888 20.0012 8.73688 19.9954C7.86653 19.993 7.12715 19.7141 6.51875 19.1586C6.4955 19.1375 6.47452 19.1396 6.45581 19.1648C5.99228 19.7912 5.47772 19.9778 4.691 19.9813C3.83538 19.9854 2.98062 19.9907 2.1267 19.9971C1.173 20.0048 0.516969 19.5792 0.15862 18.7205C0.00722939 18.358 0.00467788 17.933 0.00382737 17.5345C0.000425322 14.8287 -0.000708772 12.1231 0.000425244 9.41792C0.000425244 7.91691 0.640861 6.97196 2.18114 6.97548C3.03448 6.97724 3.88783 6.97724 4.74118 6.97548C5.70991 6.97372 6.40648 7.40749 6.76455 8.37267C6.77759 8.40786 6.79715 8.41256 6.82323 8.38675C9.0907 6.13524 11.285 3.30391 12.5625 0.291332C12.6322 0.125922 12.9435 0.0062639 13.1366 0.000984855C14.1529 -0.0236507 15.1506 0.41363 15.6473 1.34274C16.6492 3.21768 15.4806 5.67068 14.6029 7.29926C14.5853 7.33153 14.5944 7.34766 14.6301 7.34766ZM18.6003 10.7738C18.8231 9.52174 17.8986 8.76244 16.7538 8.7598C15.6617 8.75687 14.5697 8.75687 13.4776 8.7598C12.5769 8.76244 12.3584 8.12895 12.8678 7.41716C13.2494 6.88515 13.5961 6.30739 13.908 5.68388C14.3987 4.70285 15.4653 1.68852 13.5839 1.45448C13.572 1.45298 13.56 1.4553 13.5494 1.46114C13.5389 1.46697 13.5305 1.47602 13.5253 1.48704C12.0199 4.75828 9.51595 7.82981 6.90063 10.2107C6.87908 10.23 6.86831 10.2547 6.86831 10.2846C6.86434 12.2959 6.86434 14.3072 6.86831 16.3185C6.86944 16.8136 6.91112 17.1755 6.99333 17.4042C7.25104 18.1169 7.87787 18.5894 8.63142 18.5894C10.9051 18.5911 13.1788 18.5909 15.4525 18.5885C15.8216 18.5879 16.0742 18.5686 16.2103 18.5304C17.1365 18.2726 17.4478 17.1007 17.6077 16.2411C17.9457 14.4204 18.2765 12.598 18.6003 10.7738ZM5.50494 9.04047C5.50494 8.86569 5.43782 8.69807 5.31835 8.57449C5.19889 8.4509 5.03686 8.38147 4.8679 8.38147H1.99658C1.82762 8.38147 1.66559 8.4509 1.54613 8.57449C1.42666 8.69807 1.35954 8.86569 1.35954 9.04047V17.9269C1.35954 18.1016 1.42666 18.2693 1.54613 18.3928C1.66559 18.5164 1.82762 18.5859 1.99658 18.5859H4.8679C5.03686 18.5859 5.19889 18.5164 5.31835 18.3928C5.43782 18.2693 5.50494 18.1016 5.50494 17.9269V9.04047Z" fill="#307FF5"/>
</svg>
