<svg width="18" height="16" viewBox="0 0 18 16" fill="none" xmlns="http://www.w3.org/2000/svg">
<path d="M6 15C5.06812 15 4.60218 15 4.23463 14.8478C3.74458 14.6448 3.35523 14.2554 3.15224 13.7654C3 13.3978 3 12.9319 3 12V11.3255C3 10.8363 3 10.5917 2.94474 10.3615C2.89575 10.1575 2.81494 9.96237 2.70528 9.78343C2.5816 9.5816 2.40864 9.40864 2.06274 9.06274L1 8L2.06274 6.93726C2.40864 6.59136 2.5816 6.4184 2.70528 6.21657C2.81494 6.03763 2.89575 5.84254 2.94474 5.63846C3 5.40829 3 5.1637 3 4.67452V4C3 3.06812 3 2.60218 3.15224 2.23463C3.35523 1.74458 3.74458 1.35523 4.23463 1.15224C4.60218 1 5.06812 1 6 1M12 15C12.9319 15 13.3978 15 13.7654 14.8478C14.2554 14.6448 14.6448 14.2554 14.8478 13.7654C15 13.3978 15 12.9319 15 12V11.3255C15 10.8363 15 10.5917 15.0553 10.3615C15.1043 10.1575 15.1851 9.96237 15.2947 9.78343C15.4184 9.5816 15.5914 9.40864 15.9373 9.06274L17 8L15.9373 6.93726C15.5914 6.59136 15.4184 6.4184 15.2947 6.21657C15.1851 6.03763 15.1043 5.84254 15.0553 5.63846C15 5.40829 15 5.1637 15 4.67452V4C15 3.06812 15 2.60218 14.8478 2.23463C14.6448 1.74458 14.2554 1.35523 13.7654 1.15224C13.3978 1 12.9319 1 12 1" stroke="#307FF5" stroke-width="2" stroke-linecap="round" stroke-linejoin="round"/>
</svg>
