<svg width="18" height="18" viewBox="0 0 18 18" fill="none" xmlns="http://www.w3.org/2000/svg">
<path d="M5.02176 13.04L1 15V4.2C1 3.0799 1 2.51984 1.21799 2.09202C1.40973 1.71569 1.71569 1.40973 2.09202 1.21799C2.51984 1 3.0799 1 4.2 1H11.8C12.9201 1 13.4802 1 13.908 1.21799C14.2843 1.40973 14.5903 1.71569 14.782 2.09202C15 2.51984 15 3.0799 15 4.2V6M17 17L14.8062 15.5374C14.5065 15.3377 14.3567 15.2378 14.1946 15.167C14.0507 15.1042 13.9 15.0586 13.7454 15.031C13.5713 15 13.3912 15 13.0311 15H8.2C7.07989 15 6.51984 15 6.09202 14.782C5.71569 14.5903 5.40973 14.2843 5.21799 13.908C5 13.4802 5 12.9201 5 11.8V9.2C5 8.07989 5 7.51984 5.21799 7.09202C5.40973 6.71569 5.71569 6.40973 6.09202 6.21799C6.51984 6 7.0799 6 8.2 6H13.8C14.9201 6 15.4802 6 15.908 6.21799C16.2843 6.40973 16.5903 6.71569 16.782 7.09202C17 7.51984 17 8.07989 17 9.2V17Z" stroke="#307FF5" stroke-width="2" stroke-linecap="round" stroke-linejoin="round"/>
</svg>
