<svg width="20" height="18" viewBox="0 0 20 18" fill="none" xmlns="http://www.w3.org/2000/svg">
<path d="M3.12027 14.8508L14 5L19 9.5M3.12027 14.8508L8.47368 10L4.63259 7L1 10.2M3.12027 14.8508C3.71078 15 4.50639 15 5.8 15H14.2446C14.5263 15 14.6672 15 14.8052 15.0193C14.9277 15.0365 15.0484 15.065 15.1656 15.1044C15.2977 15.1488 15.4237 15.2118 15.6757 15.3378L19 17V5.8C19 4.11984 19 3.27976 18.673 2.63803C18.3854 2.07354 17.9265 1.6146 17.362 1.32698C16.7202 1 15.8802 1 14.2 1H5.8C4.11984 1 3.27976 1 2.63803 1.32698C2.07354 1.6146 1.6146 2.07354 1.32698 2.63803C1 3.27976 1 4.11984 1 5.8V10.2M3.12027 14.8508C2.94381 14.8062 2.78567 14.7482 2.63803 14.673C2.07354 14.3854 1.6146 13.9265 1.32698 13.362C1 12.7202 1 11.8802 1 10.2" stroke="#307FF5" stroke-width="2" stroke-linecap="round" stroke-linejoin="round"/>
</svg>
