<svg width="21" height="21" viewBox="0 0 21 21" fill="none" xmlns="http://www.w3.org/2000/svg">
<path d="M6 8.00006H4.2C3.0799 8.00006 2.51984 8.00006 2.09202 8.21805C1.71569 8.40979 1.40973 8.71575 1.21799 9.09208C1 9.5199 1 10.08 1 11.2001V16.8001C1 17.9202 1 18.4802 1.21799 18.908C1.40973 19.2844 1.71569 19.5903 2.09202 19.7821C2.51984 20.0001 3.07989 20.0001 4.2 20.0001H15.787C16.9071 20.0001 17.4671 20.0001 17.895 19.7821C18.2713 19.5903 18.5772 19.2844 18.769 18.908C18.987 18.4802 18.987 17.9202 18.987 16.8001V11.0001M4 14.0001H4.01M9.51893 11.8946L10.8337 11.6347C11.5432 11.4945 11.8979 11.4244 12.2287 11.2953C12.5223 11.1807 12.8013 11.0318 13.06 10.8516C13.3514 10.6487 13.607 10.393 14.1184 9.88165L19.2668 4.73321C19.9541 4.04596 19.9541 2.9317 19.2668 2.24444C18.5796 1.55719 17.4653 1.55719 16.7781 2.24445L11.5416 7.48088C11.0625 7.96004 10.8229 8.19963 10.6294 8.47121C10.4576 8.71232 10.3131 8.97174 10.1986 9.24473C10.0696 9.55223 9.99205 9.88206 9.83697 10.5417L9.51893 11.8946Z" stroke="#307FF5" stroke-width="2" stroke-linecap="round" stroke-linejoin="round"/>
</svg>
