<svg width="209" height="41" viewBox="0 0 209 41" fill="none" xmlns="http://www.w3.org/2000/svg">
<path d="M123.281 8.37643C123.281 8.14696 123.471 7.96094 123.705 7.96094H139.842C140.076 7.96094 140.265 8.14696 140.265 8.37643V11.7802C140.265 12.0096 140.076 12.1957 139.842 12.1957H134.324C134.09 12.1957 133.9 12.3817 133.9 12.6111V29.8079C133.9 30.0374 133.711 30.2234 133.477 30.2234H129.854C129.62 30.2234 129.43 30.0374 129.43 29.8079V12.6111C129.43 12.3817 129.241 12.1957 129.007 12.1957H123.705C123.471 12.1957 123.281 12.0096 123.281 11.7802V8.37643Z" fill="url(#paint0_linear_1480_771)"/>
<path d="M83.125 8.37643C83.125 8.14696 83.3146 7.96094 83.5485 7.96094H96.8821C97.1159 7.96094 97.3055 8.14696 97.3055 8.37643V11.7802C97.3055 12.0096 97.1159 12.1957 96.8821 12.1957H88.0184C87.7845 12.1957 87.5949 12.3817 87.5949 12.6111V16.8316C87.5949 17.061 87.7845 17.2471 88.0184 17.2471H95.5873C95.8212 17.2471 96.0108 17.4331 96.0108 17.6626V21.0663C96.0108 21.2958 95.8212 21.4818 95.5873 21.4818H88.0184C87.7845 21.4818 87.5949 21.6678 87.5949 21.8973V29.8079C87.5949 30.0374 87.4054 30.2234 87.1715 30.2234H83.5485C83.3146 30.2234 83.125 30.0374 83.125 29.8079V8.37643Z" fill="url(#paint1_linear_1480_771)"/>
<path fill-rule="evenodd" clip-rule="evenodd" d="M153.655 30.7074C159.938 30.7074 165.031 25.6154 165.031 19.3342C165.031 13.0529 159.938 7.96094 153.655 7.96094C147.372 7.96094 142.279 13.0529 142.279 19.3342C142.279 25.6154 147.372 30.7074 153.655 30.7074ZM153.655 26.7268C157.739 26.7268 161.049 23.417 161.049 19.3342C161.049 15.2514 157.739 11.9416 153.655 11.9416C149.571 11.9416 146.261 15.2514 146.261 19.3342C146.261 23.417 149.571 26.7268 153.655 26.7268Z" fill="url(#paint2_linear_1480_771)"/>
<path d="M165.143 28.0362C165.143 27.4111 165.369 26.8868 165.821 26.4633C166.293 26.0399 166.807 25.8281 167.362 25.8281C167.876 25.8281 168.359 26.0399 168.811 26.4633C169.284 26.8868 169.52 27.4111 169.52 28.0362C169.52 28.7017 169.284 29.2361 168.811 29.6394C168.359 30.0225 167.876 30.2141 167.362 30.2141C166.807 30.2141 166.293 30.0225 165.821 29.6394C165.369 29.2361 165.143 28.7017 165.143 28.0362Z" fill="url(#paint3_linear_1480_771)"/>
<path d="M74.417 28.0362C74.417 27.4111 74.6431 26.8868 75.0952 26.4633C75.5679 26.0399 76.0817 25.8281 76.6366 25.8281C77.1503 25.8281 77.6333 26.0399 78.0854 26.4633C78.5581 26.8868 78.7945 27.4111 78.7945 28.0362C78.7945 28.7017 78.5581 29.2361 78.0854 29.6394C77.6333 30.0225 77.1503 30.2141 76.6366 30.2141C76.0817 30.2141 75.5679 30.0225 75.0952 29.6394C74.6431 29.2361 74.417 28.7017 74.417 28.0362Z" fill="url(#paint4_linear_1480_771)"/>
<path d="M179.502 7.96094C180.92 7.96094 182.184 8.14243 183.294 8.5054C184.404 8.84821 185.329 9.35234 186.069 10.0178C186.829 10.6631 187.404 11.4495 187.795 12.3771C188.185 13.2846 188.381 14.313 188.381 15.4624C188.381 16.3699 188.237 17.2773 187.949 18.1848C187.682 19.0922 187.23 19.919 186.593 20.6651C185.976 21.4112 185.154 22.0162 184.126 22.48C183.099 22.9236 181.825 23.1454 180.304 23.1454H177.521C177.287 23.1454 177.098 23.3314 177.098 23.5609V29.8079C177.098 30.0374 176.908 30.2234 176.674 30.2234H173.051C172.818 30.2234 172.628 30.0374 172.628 29.8079V8.37643C172.628 8.14696 172.818 7.96094 173.051 7.96094H179.502ZM180.273 18.9107C180.951 18.9107 181.516 18.7998 181.969 18.578C182.421 18.3562 182.77 18.0738 183.017 17.731C183.284 17.3882 183.469 17.0353 183.572 16.6724C183.695 16.2892 183.757 15.9363 183.757 15.6137C183.757 15.3717 183.715 15.0692 183.633 14.7062C183.572 14.3231 183.428 13.94 183.202 13.5568C182.976 13.1737 182.626 12.851 182.154 12.5889C181.701 12.3267 181.085 12.1957 180.304 12.1957H177.521C177.287 12.1957 177.098 12.3817 177.098 12.6111V18.4952C177.098 18.7247 177.287 18.9107 177.521 18.9107H180.273ZM184.228 21.6384C184.375 21.6351 184.514 21.7075 184.594 21.8296L189.658 29.5838C189.839 29.8603 189.637 30.2234 189.302 30.2234H185.093C184.952 30.2234 184.819 30.1538 184.741 30.0379L179.558 22.3819C179.373 22.1093 179.567 21.7442 179.9 21.7366L184.228 21.6384Z" fill="url(#paint5_linear_1480_771)"/>
<path d="M195.097 21.996C195.097 22.7018 195.313 23.3773 195.744 24.0226C196.176 24.6679 196.741 25.1922 197.44 25.5955C198.159 25.9988 198.94 26.2005 199.783 26.2005C200.707 26.2005 201.53 25.9988 202.249 25.5955C202.968 25.1922 203.533 24.6679 203.944 24.0226C204.376 23.3773 204.592 22.7018 204.592 21.996V8.37643C204.592 8.14696 204.781 7.96094 205.015 7.96094H208.577C208.81 7.96094 209 8.14696 209 8.37643V22.0867C209 23.7201 208.589 25.172 207.767 26.4424C206.945 27.6927 205.835 28.6808 204.438 29.4067C203.04 30.1125 201.488 30.4654 199.783 30.4654C198.097 30.4654 196.556 30.1125 195.159 29.4067C193.782 28.6808 192.682 27.6927 191.86 26.4424C191.038 25.172 190.627 23.7201 190.627 22.0867V8.37643C190.627 8.14696 190.817 7.96094 191.05 7.96094H194.673C194.907 7.96094 195.097 8.14696 195.097 8.37643V21.996Z" fill="url(#paint6_linear_1480_771)"/>
<path fill-rule="evenodd" clip-rule="evenodd" d="M110.996 30.7074C117.279 30.7074 122.372 25.6154 122.372 19.3342C122.372 13.0529 117.279 7.96094 110.996 7.96094C104.713 7.96094 99.6201 13.0529 99.6201 19.3342C99.6201 25.6154 104.713 30.7074 110.996 30.7074ZM110.996 26.7268C115.08 26.7268 118.39 23.417 118.39 19.3342C118.39 15.2514 115.08 11.9416 110.996 11.9416C106.912 11.9416 103.602 15.2514 103.602 19.3342C103.602 23.417 106.912 26.7268 110.996 26.7268Z" fill="url(#paint7_linear_1480_771)"/>
<path fill-rule="evenodd" clip-rule="evenodd" d="M110.342 15.6739C110.342 15.5132 110.187 15.3975 110.038 15.4575C108.723 15.9874 107.782 17.3955 107.782 19.0493C107.782 20.7031 108.723 22.1112 110.038 22.6411C110.187 22.7011 110.342 22.5854 110.342 22.4247C110.342 22.3207 110.275 22.2293 110.178 22.1902C109.03 21.7251 108.209 20.4944 108.209 19.0493C108.209 17.6042 109.03 16.3735 110.178 15.9084C110.275 15.8693 110.342 15.7779 110.342 15.6739ZM112.048 22.4247C112.048 22.3207 112.115 22.2293 112.212 22.1902C113.36 21.7251 114.181 20.4944 114.181 19.0493C114.181 17.6042 113.36 16.3735 112.212 15.9084C112.115 15.8693 112.048 15.7779 112.048 15.6739C112.048 15.5132 112.202 15.3975 112.352 15.4575C113.667 15.9874 114.608 17.3955 114.608 19.0493C114.608 20.7031 113.667 22.1112 112.352 22.6411C112.202 22.7011 112.048 22.5854 112.048 22.4247Z" fill="black"/>
<path fill-rule="evenodd" clip-rule="evenodd" d="M128.544 0.568662C128.387 0.568662 128.259 0.441363 128.259 0.284331C128.259 0.127299 128.387 0 128.544 0H130.535C132.733 0 134.516 1.78219 134.516 3.98063V5.97088C134.516 6.12795 134.389 6.25528 134.232 6.25528C134.075 6.25528 133.947 6.12795 133.947 5.97088V3.98063C133.947 2.09625 132.419 0.568662 130.535 0.568662H128.544ZM128.259 38.9533C128.259 38.7963 128.387 38.669 128.544 38.669H130.535C132.419 38.669 133.947 37.1414 133.947 35.257V33.2668C133.947 33.1097 134.075 32.9824 134.232 32.9824C134.389 32.9824 134.516 33.1097 134.516 33.2668V35.257C134.516 37.4555 132.733 39.2377 130.535 39.2377H128.544C128.387 39.2377 128.259 39.1104 128.259 38.9533ZM88.1594 32.9824C88.3165 32.9824 88.4438 33.1097 88.4438 33.2668V35.257C88.4438 37.1414 89.9717 38.669 91.8566 38.669H93.8474C94.0044 38.669 94.1317 38.7963 94.1317 38.9533C94.1317 39.1104 94.0044 39.2377 93.8474 39.2377H91.8566C89.6576 39.2377 87.875 37.4555 87.875 35.257V33.2668C87.875 33.1097 88.0023 32.9824 88.1594 32.9824ZM94.1317 0.284331C94.1317 0.441363 94.0044 0.568662 93.8474 0.568662H91.8566C89.9717 0.568662 88.4438 2.09625 88.4438 3.98063V5.97088C88.4438 6.12795 88.3165 6.25528 88.1594 6.25528C88.0023 6.25528 87.875 6.12795 87.875 5.97088V3.98063C87.875 1.78219 89.6576 0 91.8566 0H93.8474C94.0044 0 94.1317 0.127299 94.1317 0.284331Z" fill="black"/>
<path fill-rule="evenodd" clip-rule="evenodd" d="M103.802 4.37853H100.389C100.295 4.37853 100.218 4.45491 100.218 4.54913V6.82378C100.218 6.918 100.295 6.99438 100.389 6.99438H103.802C103.896 6.99438 103.972 6.918 103.972 6.82378V4.54913C103.972 4.45491 103.896 4.37853 103.802 4.37853ZM100.389 3.98047C100.075 3.98047 99.8203 4.23507 99.8203 4.54913V6.82378C99.8203 7.13784 100.075 7.39244 100.389 7.39244H103.802C104.116 7.39244 104.371 7.13784 104.371 6.82378V4.54913C104.371 4.23507 104.116 3.98047 103.802 3.98047H100.389Z" fill="black"/>
<path fill-rule="evenodd" clip-rule="evenodd" d="M103.802 31.6754H100.389C100.295 31.6754 100.218 31.7518 100.218 31.846V34.1207C100.218 34.2149 100.295 34.2912 100.389 34.2912H103.802C103.896 34.2912 103.973 34.2149 103.973 34.1207V31.846C103.973 31.7518 103.896 31.6754 103.802 31.6754ZM100.389 31.2773C100.075 31.2773 99.8203 31.5319 99.8203 31.846V34.1207C99.8203 34.4347 100.075 34.6893 100.389 34.6893H103.802C104.116 34.6893 104.371 34.4347 104.371 34.1207V31.846C104.371 31.5319 104.116 31.2773 103.802 31.2773H100.389Z" fill="black"/>
<path fill-rule="evenodd" clip-rule="evenodd" d="M122.003 4.37853H118.59C118.496 4.37853 118.42 4.45491 118.42 4.54913V6.82378C118.42 6.918 118.496 6.99438 118.59 6.99438H122.003C122.097 6.99438 122.174 6.918 122.174 6.82378V4.54913C122.174 4.45491 122.097 4.37853 122.003 4.37853ZM118.59 3.98047C118.276 3.98047 118.022 4.23507 118.022 4.54913V6.82378C118.022 7.13784 118.276 7.39244 118.59 7.39244H122.003C122.317 7.39244 122.572 7.13784 122.572 6.82378V4.54913C122.572 4.23507 122.317 3.98047 122.003 3.98047H118.59Z" fill="black"/>
<path fill-rule="evenodd" clip-rule="evenodd" d="M122.003 31.6754H118.59C118.496 31.6754 118.42 31.7518 118.42 31.846V34.1207C118.42 34.2149 118.496 34.2912 118.59 34.2912H122.003C122.097 34.2912 122.174 34.2149 122.174 34.1207V31.846C122.174 31.7518 122.097 31.6754 122.003 31.6754ZM118.59 31.2773C118.276 31.2773 118.021 31.5319 118.021 31.846V34.1207C118.021 34.4347 118.276 34.6893 118.59 34.6893H122.003C122.317 34.6893 122.572 34.4347 122.572 34.1207V31.846C122.572 31.5319 122.317 31.2773 122.003 31.2773H118.59Z" fill="black"/>
<path fill-rule="evenodd" clip-rule="evenodd" d="M128.26 18.027H124.847C124.753 18.027 124.676 18.1033 124.676 18.1976V20.4722C124.676 20.5664 124.753 20.6428 124.847 20.6428H128.26C128.354 20.6428 128.431 20.5664 128.431 20.4722V18.1976C128.431 18.1033 128.354 18.027 128.26 18.027ZM124.847 17.6289C124.533 17.6289 124.278 17.8835 124.278 18.1976V20.4722C124.278 20.7863 124.533 21.0409 124.847 21.0409H128.26C128.574 21.0409 128.829 20.7863 128.829 20.4722V18.1976C128.829 17.8835 128.574 17.6289 128.26 17.6289H124.847Z" fill="black"/>
<path fill-rule="evenodd" clip-rule="evenodd" d="M97.545 18.027H94.1323C94.038 18.027 93.9616 18.1033 93.9616 18.1976V20.4722C93.9616 20.5664 94.038 20.6428 94.1323 20.6428H97.545C97.6393 20.6428 97.7157 20.5664 97.7157 20.4722V18.1976C97.7157 18.1033 97.6393 18.027 97.545 18.027ZM94.1323 17.6289C93.8181 17.6289 93.5635 17.8835 93.5635 18.1976V20.4722C93.5635 20.7863 93.8181 21.0409 94.1323 21.0409H97.545C97.8592 21.0409 98.1138 20.7863 98.1138 20.4722V18.1976C98.1138 17.8835 97.8592 17.6289 97.545 17.6289H94.1323Z" fill="black"/>
<path fill-rule="evenodd" clip-rule="evenodd" d="M103.233 36.6789C103.233 36.5219 103.106 36.3945 102.948 36.3945C102.791 36.3945 102.664 36.5219 102.664 36.6789V40.0908C102.664 40.2478 102.791 40.3752 102.948 40.3752C103.106 40.3752 103.233 40.2478 103.233 40.0908V36.6789ZM95.8379 37.8156C95.8379 37.6586 95.9652 37.5312 96.1223 37.5312C96.2794 37.5312 96.4067 37.6586 96.4067 37.8156V40.0902C96.4067 40.2472 96.2794 40.3746 96.1223 40.3746C95.9652 40.3746 95.8379 40.2472 95.8379 40.0902V37.8156ZM97.5439 37.8156C97.5439 37.6586 97.6713 37.5312 97.8283 37.5312C97.9854 37.5312 98.1127 37.6586 98.1127 37.8156V40.0902C98.1127 40.2472 97.9854 40.3746 97.8283 40.3746C97.6713 40.3746 97.5439 40.2472 97.5439 40.0902V37.8156ZM99.8188 37.8156C99.8188 37.6586 99.6915 37.5312 99.5344 37.5312C99.3773 37.5312 99.25 37.6586 99.25 37.8156V40.0902C99.25 40.2472 99.3773 40.3746 99.5344 40.3746C99.6915 40.3746 99.8188 40.2472 99.8188 40.0902V37.8156ZM100.957 37.8156C100.957 37.6586 101.084 37.5312 101.241 37.5312C101.398 37.5312 101.526 37.6586 101.526 37.8156V40.0902C101.526 40.2472 101.398 40.3746 101.241 40.3746C101.084 40.3746 100.957 40.2472 100.957 40.0902V37.8156ZM104.37 37.8156C104.37 37.6586 104.497 37.5312 104.655 37.5312C104.812 37.5312 104.939 37.6586 104.939 37.8156V40.0902C104.939 40.2472 104.812 40.3746 104.655 40.3746C104.497 40.3746 104.37 40.2472 104.37 40.0902V37.8156ZM106.645 37.8156C106.645 37.6586 106.518 37.5312 106.361 37.5312C106.204 37.5312 106.076 37.6586 106.076 37.8156V40.0902C106.076 40.2472 106.204 40.3746 106.361 40.3746C106.518 40.3746 106.645 40.2472 106.645 40.0902V37.8156ZM107.782 37.8156C107.782 37.6586 107.91 37.5312 108.067 37.5312C108.224 37.5312 108.351 37.6586 108.351 37.8156V40.0902C108.351 40.2472 108.224 40.3746 108.067 40.3746C107.91 40.3746 107.782 40.2472 107.782 40.0902V37.8156ZM110.058 37.8156C110.058 37.6586 109.931 37.5312 109.774 37.5312C109.617 37.5312 109.489 37.6586 109.489 37.8156V40.0902C109.489 40.2472 109.617 40.3746 109.774 40.3746C109.931 40.3746 110.058 40.2472 110.058 40.0902V37.8156ZM111.196 36.6789C111.196 36.5219 111.324 36.3945 111.481 36.3945C111.638 36.3945 111.765 36.5219 111.765 36.6789V40.0908C111.765 40.2478 111.638 40.3752 111.481 40.3752C111.324 40.3752 111.196 40.2478 111.196 40.0908V36.6789ZM113.47 37.8156C113.47 37.6586 113.343 37.5312 113.186 37.5312C113.029 37.5312 112.901 37.6586 112.901 37.8156V40.0902C112.901 40.2472 113.029 40.3746 113.186 40.3746C113.343 40.3746 113.47 40.2472 113.47 40.0902V37.8156ZM114.607 37.8156C114.607 37.6586 114.735 37.5312 114.892 37.5312C115.049 37.5312 115.176 37.6586 115.176 37.8156V40.0902C115.176 40.2472 115.049 40.3746 114.892 40.3746C114.735 40.3746 114.607 40.2472 114.607 40.0902V37.8156ZM116.882 37.8156C116.882 37.6586 116.755 37.5312 116.598 37.5312C116.441 37.5312 116.313 37.6586 116.313 37.8156V40.0902C116.313 40.2472 116.441 40.3746 116.598 40.3746C116.755 40.3746 116.882 40.2472 116.882 40.0902V37.8156ZM118.021 37.8156C118.021 37.6586 118.148 37.5312 118.305 37.5312C118.462 37.5312 118.589 37.6586 118.589 37.8156V40.0902C118.589 40.2472 118.462 40.3746 118.305 40.3746C118.148 40.3746 118.021 40.2472 118.021 40.0902V37.8156ZM120.296 36.6789C120.296 36.5219 120.169 36.3945 120.012 36.3945C119.855 36.3945 119.728 36.5219 119.728 36.6789V40.0908C119.728 40.2478 119.855 40.3752 120.012 40.3752C120.169 40.3752 120.296 40.2478 120.296 40.0908V36.6789ZM121.434 37.8156C121.434 37.6586 121.561 37.5312 121.718 37.5312C121.875 37.5312 122.002 37.6586 122.002 37.8156V40.0902C122.002 40.2472 121.875 40.3746 121.718 40.3746C121.561 40.3746 121.434 40.2472 121.434 40.0902V37.8156ZM123.709 37.8159C123.709 37.6588 123.581 37.5315 123.424 37.5315C123.267 37.5315 123.14 37.6588 123.14 37.8159V40.0904C123.14 40.2475 123.267 40.3748 123.424 40.3748C123.581 40.3748 123.709 40.2475 123.709 40.0904V37.8159ZM124.846 37.8156C124.846 37.6586 124.973 37.5312 125.13 37.5312C125.287 37.5312 125.414 37.6586 125.414 37.8156V40.0902C125.414 40.2472 125.287 40.3746 125.13 40.3746C124.973 40.3746 124.846 40.2472 124.846 40.0902V37.8156ZM127.121 37.8156C127.121 37.6586 126.993 37.5312 126.836 37.5312C126.679 37.5312 126.552 37.6586 126.552 37.8156V40.0902C126.552 40.2472 126.679 40.3746 126.836 40.3746C126.993 40.3746 127.121 40.2472 127.121 40.0902V37.8156Z" fill="black"/>
<path d="M7.5082 22.3572H4.42791V30.0869H0V10.8998H4.42791V18.6569H7.61821L12.6787 10.8998H17.3816L11.0835 20.1644L17.5741 30.0869H12.5137L7.5082 22.3572Z" fill="url(#paint8_linear_1480_771)"/>
<path d="M33.9523 15.3403V30.0869H29.6619V18.8487H24.9865L24.849 21.4527C24.7757 23.3897 24.5923 24.9977 24.2989 26.2769C24.0056 27.556 23.5289 28.561 22.8688 29.292C22.2087 30.0229 21.292 30.3884 20.1186 30.3884C19.4952 30.3884 18.7526 30.2787 17.8908 30.0595L18.1109 26.551C18.4042 26.5875 18.6151 26.6058 18.7434 26.6058C19.3851 26.6058 19.8619 26.3774 20.1736 25.9205C20.5036 25.4454 20.7236 24.8515 20.8336 24.1389C20.9436 23.408 21.0261 22.4486 21.0811 21.2608L21.3012 15.3403H33.9523Z" fill="url(#paint9_linear_1480_771)"/>
<path d="M52.902 15.3403L46.2189 30.9914C45.5405 32.6908 44.6971 33.8877 43.6887 34.5821C42.6986 35.2765 41.4976 35.6237 40.0858 35.6237C39.3158 35.6237 38.5549 35.5049 37.8031 35.2674C37.0514 35.0298 36.4372 34.7009 35.9605 34.2806L37.5281 31.2381C37.8581 31.5305 38.234 31.7589 38.6557 31.9233C39.0957 32.0878 39.5266 32.17 39.9483 32.17C40.535 32.17 41.0118 32.0238 41.3785 31.7315C41.7452 31.4574 42.0752 30.9914 42.3685 30.3336L42.4236 30.1965L36.0155 15.3403H40.4434L44.5963 25.3449L48.7766 15.3403H52.902Z" fill="url(#paint10_linear_1480_771)"/>
<path d="M63.4177 16.3544C64.8295 16.3544 66.0671 16.6468 67.1305 17.2316C68.1939 17.798 69.0099 18.6021 69.5782 19.6436C70.165 20.6852 70.4583 21.8913 70.4583 23.2618C70.4583 24.6688 70.11 25.9205 69.4132 27.0169C68.7348 28.0951 67.7814 28.9356 66.553 29.5387C65.3245 30.1234 63.9311 30.4158 62.3726 30.4158C59.7873 30.4158 57.7521 29.5935 56.267 27.9489C54.8002 26.286 54.0668 23.8556 54.0668 20.6578C54.0668 17.6975 54.7085 15.3403 55.992 13.586C57.2938 11.8135 59.2831 10.6531 61.96 10.1049L69.0007 8.70703L69.5782 12.38L63.3627 13.6134C61.6758 13.9423 60.4199 14.4906 59.5948 15.258C58.7881 16.0255 58.3114 17.1128 58.1647 18.5198C58.8064 17.8254 59.5765 17.2955 60.4749 16.93C61.3733 16.5463 62.3542 16.3544 63.4177 16.3544ZM62.4001 27.0992C63.5002 27.0992 64.3803 26.7428 65.0403 26.0302C65.7187 25.3175 66.0579 24.413 66.0579 23.3166C66.0579 22.2019 65.7187 21.3157 65.0403 20.6578C64.3803 20 63.5002 19.671 62.4001 19.671C61.2816 19.671 60.3832 20 59.7048 20.6578C59.0264 21.3157 58.6872 22.2019 58.6872 23.3166C58.6872 24.4313 59.0356 25.3449 59.7323 26.0576C60.4291 26.752 61.3183 27.0992 62.4001 27.0992Z" fill="url(#paint11_linear_1480_771)"/>
<defs>
<linearGradient id="paint0_linear_1480_771" x1="131.773" y1="7.96094" x2="131.773" y2="30.2234" gradientUnits="userSpaceOnUse">
<stop stop-color="#4270FB"/>
<stop offset="1" stop-color="#3452AB"/>
</linearGradient>
<linearGradient id="paint1_linear_1480_771" x1="90.2153" y1="7.96094" x2="90.2153" y2="30.2234" gradientUnits="userSpaceOnUse">
<stop stop-color="#4270FB"/>
<stop offset="1" stop-color="#3452AB"/>
</linearGradient>
<linearGradient id="paint2_linear_1480_771" x1="153.655" y1="7.96094" x2="153.655" y2="30.7074" gradientUnits="userSpaceOnUse">
<stop stop-color="#4270FB"/>
<stop offset="1" stop-color="#3452AB"/>
</linearGradient>
<linearGradient id="paint3_linear_1480_771" x1="167.331" y1="25.8281" x2="167.331" y2="30.2141" gradientUnits="userSpaceOnUse">
<stop stop-color="#4270FB"/>
<stop offset="1" stop-color="#3452AB"/>
</linearGradient>
<linearGradient id="paint4_linear_1480_771" x1="76.6057" y1="25.8281" x2="76.6057" y2="30.2141" gradientUnits="userSpaceOnUse">
<stop stop-color="#4270FB"/>
<stop offset="1" stop-color="#3452AB"/>
</linearGradient>
<linearGradient id="paint5_linear_1480_771" x1="181.177" y1="7.96094" x2="181.177" y2="30.2234" gradientUnits="userSpaceOnUse">
<stop stop-color="#4270FB"/>
<stop offset="1" stop-color="#3452AB"/>
</linearGradient>
<linearGradient id="paint6_linear_1480_771" x1="199.813" y1="7.96094" x2="199.813" y2="30.4654" gradientUnits="userSpaceOnUse">
<stop stop-color="#4270FB"/>
<stop offset="1" stop-color="#3452AB"/>
</linearGradient>
<linearGradient id="paint7_linear_1480_771" x1="110.996" y1="7.96094" x2="110.996" y2="30.7074" gradientUnits="userSpaceOnUse">
<stop stop-color="#4270FB"/>
<stop offset="1" stop-color="#3452AB"/>
</linearGradient>
<linearGradient id="paint8_linear_1480_771" x1="34.7909" y1="5.41818" x2="34.7909" y2="35.5692" gradientUnits="userSpaceOnUse">
<stop stop-color="#4270FB"/>
<stop offset="1" stop-color="#3452AB"/>
</linearGradient>
<linearGradient id="paint9_linear_1480_771" x1="34.7909" y1="5.41818" x2="34.7909" y2="35.5692" gradientUnits="userSpaceOnUse">
<stop stop-color="#4270FB"/>
<stop offset="1" stop-color="#3452AB"/>
</linearGradient>
<linearGradient id="paint10_linear_1480_771" x1="34.7909" y1="5.41818" x2="34.7909" y2="35.5692" gradientUnits="userSpaceOnUse">
<stop stop-color="#4270FB"/>
<stop offset="1" stop-color="#3452AB"/>
</linearGradient>
<linearGradient id="paint11_linear_1480_771" x1="34.7909" y1="5.41818" x2="34.7909" y2="35.5692" gradientUnits="userSpaceOnUse">
<stop stop-color="#4270FB"/>
<stop offset="1" stop-color="#3452AB"/>
</linearGradient>
</defs>
</svg>
