<svg width="210" height="41" viewBox="0 0 210 41" fill="none" xmlns="http://www.w3.org/2000/svg">
<path d="M123.871 8.41748C123.871 8.18691 124.062 8 124.297 8H140.511C140.746 8 140.936 8.18691 140.936 8.41748V11.8375C140.936 12.0681 140.746 12.255 140.511 12.255H134.967C134.732 12.255 134.541 12.4419 134.541 12.6725V29.9515C134.541 30.1821 134.351 30.369 134.116 30.369H130.475C130.24 30.369 130.05 30.1821 130.05 29.9515V12.6725C130.05 12.4419 129.859 12.255 129.624 12.255H124.297C124.062 12.255 123.871 12.0681 123.871 11.8375V8.41748Z" fill="url(#paint0_linear_1602_954)"/>
<path d="M83.5225 8.41748C83.5225 8.18691 83.713 8 83.9479 8H97.3454C97.5803 8 97.7708 8.18691 97.7708 8.41748V11.8375C97.7708 12.0681 97.5803 12.255 97.3454 12.255H88.4393C88.2043 12.255 88.0138 12.4419 88.0138 12.6725V16.9131C88.0138 17.1436 88.2043 17.3306 88.4393 17.3306H96.0444C96.2794 17.3306 96.4699 17.5175 96.4699 17.748V21.1681C96.4699 21.3986 96.2794 21.5855 96.0444 21.5855H88.4393C88.2043 21.5855 88.0138 21.7724 88.0138 22.003V29.9515C88.0138 30.1821 87.8233 30.369 87.5883 30.369H83.9479C83.713 30.369 83.5225 30.1821 83.5225 29.9515V8.41748Z" fill="url(#paint1_linear_1602_954)"/>
<path fill-rule="evenodd" clip-rule="evenodd" d="M154.39 30.8553C160.703 30.8553 165.821 25.739 165.821 19.4277C165.821 13.1163 160.703 8 154.39 8C148.077 8 142.96 13.1163 142.96 19.4277C142.96 25.739 148.077 30.8553 154.39 30.8553ZM154.39 26.8556C158.494 26.8556 161.82 23.53 161.82 19.4277C161.82 15.3253 158.494 11.9997 154.39 11.9997C150.287 11.9997 146.961 15.3253 146.961 19.4277C146.961 23.53 150.287 26.8556 154.39 26.8556Z" fill="url(#paint2_linear_1602_954)"/>
<path d="M165.933 28.1698C165.933 27.5417 166.16 27.0149 166.614 26.5894C167.089 26.1639 167.605 25.9512 168.163 25.9512C168.679 25.9512 169.164 26.1639 169.619 26.5894C170.094 27.0149 170.331 27.5417 170.331 28.1698C170.331 28.8385 170.094 29.3754 169.619 29.7807C169.164 30.1656 168.679 30.3581 168.163 30.3581C167.605 30.3581 167.089 30.1656 166.614 29.7807C166.16 29.3754 165.933 28.8385 165.933 28.1698Z" fill="url(#paint3_linear_1602_954)"/>
<path d="M74.7725 28.1698C74.7725 27.5417 74.9996 27.0149 75.4539 26.5894C75.9289 26.1639 76.4451 25.9512 77.0026 25.9512C77.5189 25.9512 78.0042 26.1639 78.4585 26.5894C78.9334 27.0149 79.1709 27.5417 79.1709 28.1698C79.1709 28.8385 78.9334 29.3754 78.4585 29.7807C78.0042 30.1656 77.5189 30.3581 77.0026 30.3581C76.4451 30.3581 75.9289 30.1656 75.4539 29.7807C74.9996 29.3754 74.7725 28.8385 74.7725 28.1698Z" fill="url(#paint4_linear_1602_954)"/>
<path d="M180.361 8C181.786 8 183.056 8.18236 184.171 8.54707C185.286 8.89152 186.216 9.39806 186.959 10.0667C187.723 10.7151 188.301 11.5053 188.694 12.4373C189.086 13.3491 189.282 14.3825 189.282 15.5374C189.282 16.4492 189.138 17.361 188.849 18.2727C188.58 19.1845 188.126 20.0152 187.486 20.7649C186.866 21.5146 186.04 22.1225 185.008 22.5885C183.975 23.0343 182.695 23.2571 181.167 23.2571H178.371C178.136 23.2571 177.945 23.444 177.945 23.6746V29.9515C177.945 30.1821 177.755 30.369 177.52 30.369H173.88C173.645 30.369 173.454 30.1821 173.454 29.9515V8.41748C173.454 8.18691 173.645 8 173.88 8H180.361ZM181.136 19.0022C181.817 19.0022 182.385 18.8907 182.839 18.6678C183.294 18.445 183.645 18.1613 183.893 17.8168C184.161 17.4724 184.347 17.1178 184.45 16.7531C184.574 16.3681 184.636 16.0135 184.636 15.6894C184.636 15.4462 184.595 15.1423 184.512 14.7776C184.45 14.3926 184.306 14.0076 184.078 13.6227C183.851 13.2377 183.5 12.9135 183.025 12.6501C182.571 12.3867 181.952 12.255 181.167 12.255H178.371C178.136 12.255 177.945 12.4419 177.945 12.6725V18.5847C177.945 18.8152 178.136 19.0022 178.371 19.0022H181.136ZM185.109 21.7429C185.258 21.7396 185.397 21.8124 185.477 21.935L190.566 29.7263C190.747 30.0042 190.544 30.369 190.208 30.369H185.979C185.837 30.369 185.704 30.299 185.625 30.1825L180.417 22.4899C180.231 22.2161 180.426 21.8492 180.761 21.8416L185.109 21.7429Z" fill="url(#paint5_linear_1602_954)"/>
<path d="M196.03 22.1022C196.03 22.8114 196.247 23.4901 196.681 24.1385C197.115 24.7869 197.682 25.3137 198.384 25.7189C199.107 26.1242 199.892 26.3268 200.739 26.3268C201.668 26.3268 202.494 26.1242 203.217 25.7189C203.939 25.3137 204.507 24.7869 204.92 24.1385C205.354 23.4901 205.571 22.8114 205.571 22.1022V8.41748C205.571 8.18691 205.761 8 205.996 8H209.575C209.81 8 210 8.18691 210 8.41748V22.1934C210 23.8346 209.587 25.2934 208.761 26.5699C207.935 27.8262 206.82 28.819 205.416 29.5484C204.012 30.2576 202.452 30.6122 200.739 30.6122C199.045 30.6122 197.497 30.2576 196.092 29.5484C194.709 28.819 193.604 27.8262 192.778 26.5699C191.952 25.2934 191.539 23.8346 191.539 22.1934V8.41748C191.539 8.18691 191.73 8 191.965 8H195.605C195.84 8 196.03 8.18691 196.03 8.41748V22.1022Z" fill="url(#paint6_linear_1602_954)"/>
<path fill-rule="evenodd" clip-rule="evenodd" d="M111.527 30.8553C117.84 30.8553 122.957 25.739 122.957 19.4277C122.957 13.1163 117.84 8 111.527 8C105.214 8 100.097 13.1163 100.097 19.4277C100.097 25.739 105.214 30.8553 111.527 30.8553ZM111.527 26.8556C115.63 26.8556 118.957 23.53 118.957 19.4277C118.957 15.3253 115.63 11.9997 111.527 11.9997C107.424 11.9997 104.097 15.3253 104.097 19.4277C104.097 23.53 107.424 26.8556 111.527 26.8556Z" fill="url(#paint7_linear_1602_954)"/>
<path fill-rule="evenodd" clip-rule="evenodd" d="M110.87 15.7493C110.87 15.5878 110.715 15.4715 110.565 15.5318C109.243 16.0642 108.298 17.4791 108.298 19.1408C108.298 20.8025 109.243 22.2173 110.565 22.7498C110.715 22.8101 110.87 22.6938 110.87 22.5323C110.87 22.4278 110.802 22.336 110.705 22.2967C109.551 21.8294 108.727 20.5928 108.727 19.1408C108.727 17.6887 109.551 16.4521 110.705 15.9848C110.802 15.9456 110.87 15.8538 110.87 15.7493ZM112.584 22.5323C112.584 22.4278 112.652 22.336 112.749 22.2967C113.903 21.8294 114.727 20.5928 114.727 19.1408C114.727 17.6887 113.903 16.4521 112.749 15.9848C112.652 15.9456 112.584 15.8538 112.584 15.7493C112.584 15.5878 112.739 15.4715 112.889 15.5318C114.211 16.0642 115.156 17.4791 115.156 19.1408C115.156 20.8025 114.211 22.2173 112.889 22.7498C112.739 22.8101 112.584 22.6938 112.584 22.5323Z" fill="black"/>
<path fill-rule="evenodd" clip-rule="evenodd" d="M129.158 0.571383C129 0.571383 128.873 0.443474 128.873 0.285691C128.873 0.127908 129 0 129.158 0H131.159C133.368 0 135.159 1.79072 135.159 3.99968V5.99945C135.159 6.15727 135.031 6.28521 134.873 6.28521C134.716 6.28521 134.588 6.15727 134.588 5.99945V3.99968C134.588 2.10628 133.052 0.571383 131.159 0.571383H129.158ZM128.873 39.1397C128.873 38.9819 129 38.854 129.158 38.854H131.159C133.052 38.854 134.588 37.3191 134.588 35.4257V33.4259C134.588 33.2681 134.716 33.1402 134.873 33.1402C135.031 33.1402 135.159 33.2681 135.159 33.4259V35.4257C135.159 37.6347 133.368 39.4254 131.159 39.4254H129.158C129 39.4254 128.873 39.2975 128.873 39.1397ZM88.5807 33.1402C88.7386 33.1402 88.8665 33.2681 88.8665 33.4259V35.4257C88.8665 37.3191 90.4018 38.854 92.2956 38.854H94.296C94.4537 38.854 94.5816 38.9819 94.5816 39.1397C94.5816 39.2975 94.4537 39.4254 94.296 39.4254H92.2956C90.0861 39.4254 88.295 37.6347 88.295 35.4257V33.4259C88.295 33.2681 88.4229 33.1402 88.5807 33.1402ZM94.5816 0.285691C94.5816 0.443474 94.4537 0.571383 94.296 0.571383H92.2956C90.4018 0.571383 88.8665 2.10628 88.8665 3.99968V5.99945C88.8665 6.15727 88.7386 6.28521 88.5807 6.28521C88.4229 6.28521 88.295 6.15727 88.295 5.99945V3.99968C88.295 1.79072 90.0861 0 92.2956 0H94.296C94.4537 0 94.5816 0.127908 94.5816 0.285691Z" fill="black"/>
<path fill-rule="evenodd" clip-rule="evenodd" d="M104.298 4.39899H100.868C100.774 4.39899 100.697 4.47574 100.697 4.57041V6.85594C100.697 6.95061 100.774 7.02735 100.868 7.02735H104.298C104.392 7.02735 104.469 6.95061 104.469 6.85594V4.57041C104.469 4.47574 104.392 4.39899 104.298 4.39899ZM100.868 3.99902C100.553 3.99902 100.297 4.25484 100.297 4.57041V6.85594C100.297 7.1715 100.553 7.42732 100.868 7.42732H104.298C104.613 7.42732 104.869 7.1715 104.869 6.85594V4.57041C104.869 4.25484 104.613 3.99902 104.298 3.99902H100.868Z" fill="black"/>
<path fill-rule="evenodd" clip-rule="evenodd" d="M104.298 31.8248H100.868C100.774 31.8248 100.697 31.9015 100.697 31.9962V34.2817C100.697 34.3764 100.774 34.4531 100.868 34.4531H104.298C104.392 34.4531 104.469 34.3764 104.469 34.2817V31.9962C104.469 31.9015 104.392 31.8248 104.298 31.8248ZM100.868 31.4248C100.553 31.4248 100.297 31.6806 100.297 31.9962V34.2817C100.297 34.5973 100.553 34.8531 100.868 34.8531H104.298C104.613 34.8531 104.869 34.5973 104.869 34.2817V31.9962C104.869 31.6806 104.613 31.4248 104.298 31.4248H100.868Z" fill="black"/>
<path fill-rule="evenodd" clip-rule="evenodd" d="M122.586 4.39899H119.157C119.062 4.39899 118.985 4.47574 118.985 4.57041V6.85594C118.985 6.95061 119.062 7.02735 119.157 7.02735H122.586C122.68 7.02735 122.757 6.95061 122.757 6.85594V4.57041C122.757 4.47574 122.68 4.39899 122.586 4.39899ZM119.157 3.99902C118.841 3.99902 118.585 4.25484 118.585 4.57041V6.85594C118.585 7.1715 118.841 7.42732 119.157 7.42732H122.586C122.901 7.42732 123.157 7.1715 123.157 6.85594V4.57041C123.157 4.25484 122.901 3.99902 122.586 3.99902H119.157Z" fill="black"/>
<path fill-rule="evenodd" clip-rule="evenodd" d="M122.586 31.8248H119.157C119.062 31.8248 118.985 31.9015 118.985 31.9962V34.2817C118.985 34.3764 119.062 34.4531 119.157 34.4531H122.586C122.68 34.4531 122.757 34.3764 122.757 34.2817V31.9962C122.757 31.9015 122.68 31.8248 122.586 31.8248ZM119.157 31.4248C118.841 31.4248 118.585 31.6806 118.585 31.9962V34.2817C118.585 34.5973 118.841 34.8531 119.157 34.8531H122.586C122.901 34.8531 123.157 34.5973 123.157 34.2817V31.9962C123.157 31.6806 122.901 31.4248 122.586 31.4248H119.157Z" fill="black"/>
<path fill-rule="evenodd" clip-rule="evenodd" d="M128.873 18.1119H125.444C125.349 18.1119 125.272 18.1886 125.272 18.2833V20.5688C125.272 20.6635 125.349 20.7402 125.444 20.7402H128.873C128.967 20.7402 129.044 20.6635 129.044 20.5688V18.2833C129.044 18.1886 128.967 18.1119 128.873 18.1119ZM125.444 17.7119C125.128 17.7119 124.872 17.9677 124.872 18.2833V20.5688C124.872 20.8844 125.128 21.1402 125.444 21.1402H128.873C129.188 21.1402 129.444 20.8844 129.444 20.5688V18.2833C129.444 17.9677 129.188 17.7119 128.873 17.7119H125.444Z" fill="black"/>
<path fill-rule="evenodd" clip-rule="evenodd" d="M98.0104 18.112H94.5813C94.4867 18.112 94.4099 18.1887 94.4099 18.2834V20.5689C94.4099 20.6636 94.4867 20.7404 94.5813 20.7404H98.0104C98.1051 20.7404 98.1819 20.6636 98.1819 20.5689V18.2834C98.1819 18.1887 98.1051 18.112 98.0104 18.112ZM94.5813 17.712C94.2657 17.712 94.0098 17.9679 94.0098 18.2834V20.5689C94.0098 20.8845 94.2657 21.1403 94.5813 21.1403H98.0104C98.3261 21.1403 98.5819 20.8845 98.5819 20.5689V18.2834C98.5819 17.9679 98.3261 17.712 98.0104 17.712H94.5813Z" fill="black"/>
<path fill-rule="evenodd" clip-rule="evenodd" d="M103.725 36.8541C103.725 36.6963 103.597 36.5684 103.439 36.5684C103.281 36.5684 103.153 36.6963 103.153 36.8541V40.2823C103.153 40.4401 103.281 40.568 103.439 40.568C103.597 40.568 103.725 40.4401 103.725 40.2823V36.8541ZM98.0098 37.9967C98.0098 37.8389 98.1378 37.7109 98.2956 37.7109C98.4534 37.7109 98.5813 37.8389 98.5813 37.9967V40.2821C98.5813 40.4399 98.4534 40.5678 98.2956 40.5678C98.1378 40.5678 98.0098 40.4399 98.0098 40.2821V37.9967ZM96.295 37.9968C96.295 37.839 96.4229 37.711 96.5807 37.711C96.7386 37.711 96.8665 37.839 96.8665 37.9968V40.2822C96.8665 40.44 96.7386 40.568 96.5807 40.568C96.4229 40.568 96.295 40.44 96.295 40.2822V37.9968ZM100.295 37.9968C100.295 37.839 100.167 37.711 100.01 37.711C99.8518 37.711 99.7238 37.839 99.7238 37.9968V40.2822C99.7238 40.44 99.8518 40.568 100.01 40.568C100.167 40.568 100.295 40.44 100.295 40.2822V37.9968ZM101.439 37.9967C101.439 37.8389 101.566 37.7109 101.724 37.7109C101.882 37.7109 102.01 37.8389 102.01 37.9967V40.2821C102.01 40.4399 101.882 40.5678 101.724 40.5678C101.566 40.5678 101.439 40.4399 101.439 40.2821V37.9967ZM104.868 37.9968C104.868 37.839 104.996 37.711 105.154 37.711C105.312 37.711 105.44 37.839 105.44 37.9968V40.2822C105.44 40.44 105.312 40.568 105.154 40.568C104.996 40.568 104.868 40.44 104.868 40.2822V37.9968ZM107.155 37.9967C107.155 37.8389 107.027 37.7109 106.869 37.7109C106.711 37.7109 106.583 37.8389 106.583 37.9967V40.2821C106.583 40.4399 106.711 40.5679 106.869 40.5679C107.027 40.5679 107.155 40.4399 107.155 40.2821V37.9967ZM108.297 37.9968C108.297 37.839 108.425 37.711 108.583 37.711C108.741 37.711 108.869 37.839 108.869 37.9968V40.2822C108.869 40.44 108.741 40.568 108.583 40.568C108.425 40.568 108.297 40.44 108.297 40.2822V37.9968ZM110.583 37.9967C110.583 37.8389 110.455 37.7109 110.298 37.7109C110.14 37.7109 110.012 37.8389 110.012 37.9967V40.2821C110.012 40.4399 110.14 40.5679 110.298 40.5679C110.455 40.5679 110.583 40.4399 110.583 40.2821V37.9967ZM111.727 36.8541C111.727 36.6963 111.855 36.5684 112.012 36.5684C112.17 36.5684 112.298 36.6963 112.298 36.8541V40.2823C112.298 40.4401 112.17 40.568 112.012 40.568C111.855 40.568 111.727 40.4401 111.727 40.2823V36.8541ZM114.013 37.9968C114.013 37.839 113.885 37.7111 113.727 37.7111C113.569 37.7111 113.441 37.839 113.441 37.9968V40.2822C113.441 40.44 113.569 40.568 113.727 40.568C113.885 40.568 114.013 40.44 114.013 40.2822V37.9968ZM115.156 37.9967C115.156 37.8389 115.284 37.7109 115.442 37.7109C115.6 37.7109 115.728 37.8389 115.728 37.9967V40.2821C115.728 40.4399 115.6 40.5679 115.442 40.5679C115.284 40.5679 115.156 40.4399 115.156 40.2821V37.9967ZM117.442 37.9968C117.442 37.839 117.314 37.7111 117.156 37.7111C116.998 37.7111 116.87 37.839 116.87 37.9968V40.2822C116.87 40.44 116.998 40.568 117.156 40.568C117.314 40.568 117.442 40.44 117.442 40.2822V37.9968ZM118.585 37.9967C118.585 37.8389 118.713 37.7109 118.871 37.7109C119.029 37.7109 119.157 37.8389 119.157 37.9967V40.2821C119.157 40.4399 119.029 40.5679 118.871 40.5679C118.713 40.5679 118.585 40.4399 118.585 40.2821V37.9967ZM120.871 36.8541C120.871 36.6963 120.743 36.5684 120.586 36.5684C120.428 36.5684 120.3 36.6963 120.3 36.8541V40.2823C120.3 40.4401 120.428 40.5681 120.586 40.5681C120.743 40.5681 120.871 40.4401 120.871 40.2823V36.8541ZM122.013 37.9967C122.013 37.8389 122.141 37.7109 122.299 37.7109C122.456 37.7109 122.584 37.8389 122.584 37.9967V40.2821C122.584 40.4399 122.456 40.5678 122.299 40.5678C122.141 40.5678 122.013 40.4399 122.013 40.2821V37.9967ZM124.298 37.9967C124.298 37.8389 124.17 37.7109 124.012 37.7109C123.855 37.7109 123.727 37.8389 123.727 37.9967V40.2821C123.727 40.4399 123.855 40.5679 124.012 40.5679C124.17 40.5679 124.298 40.4399 124.298 40.2821V37.9967ZM125.441 37.9968C125.441 37.839 125.569 37.7111 125.727 37.7111C125.885 37.7111 126.013 37.839 126.013 37.9968V40.2822C126.013 40.44 125.885 40.568 125.727 40.568C125.569 40.568 125.441 40.44 125.441 40.2822V37.9968ZM127.728 37.9967C127.728 37.8389 127.6 37.7109 127.442 37.7109C127.284 37.7109 127.156 37.8389 127.156 37.9967V40.2821C127.156 40.4399 127.284 40.5679 127.442 40.5679C127.6 40.5679 127.728 40.4399 127.728 40.2821V37.9967Z" fill="black"/>
<path d="M7.54412 22.4655H4.4491V30.2321H0V10.9533H4.4491V18.7475H7.65466L12.7393 10.9533H17.4648L11.1366 20.2622L17.6582 30.2321H12.5735L7.54412 22.4655Z" fill="url(#paint8_linear_1602_954)"/>
<path d="M34.1148 15.415V30.2321H29.8039V18.9402H25.1061L24.9679 21.5567C24.8942 23.5029 24.71 25.1186 24.4152 26.4039C24.1204 27.6892 23.6414 28.699 22.9782 29.4334C22.315 30.1679 21.3939 30.5351 20.2148 30.5351C19.5884 30.5351 18.8423 30.4249 17.9764 30.2046L18.1975 26.6793C18.4923 26.716 18.7041 26.7344 18.8331 26.7344C19.4779 26.7344 19.9569 26.5049 20.2701 26.0459C20.6017 25.5685 20.8228 24.9718 20.9333 24.2557C21.0438 23.5213 21.1267 22.5573 21.182 21.3639L21.4031 15.415H34.1148Z" fill="url(#paint9_linear_1602_954)"/>
<path d="M53.1552 15.415L46.4401 31.141C45.7584 32.8485 44.911 34.0512 43.8977 34.7489C42.9029 35.4466 41.6962 35.7955 40.2776 35.7955C39.5039 35.7955 38.7393 35.6761 37.984 35.4374C37.2287 35.1987 36.6115 34.8682 36.1325 34.4459L37.7077 31.3889C38.0393 31.6826 38.4169 31.9121 38.8407 32.0774C39.2828 32.2426 39.7157 32.3253 40.1395 32.3253C40.729 32.3253 41.208 32.1784 41.5764 31.8846C41.9449 31.6092 42.2765 31.141 42.5713 30.48L42.6265 30.3423L36.1878 15.415H40.6369L44.8096 25.4675L49.01 15.415H53.1552Z" fill="url(#paint10_linear_1602_954)"/>
<path d="M63.7211 16.434C65.1397 16.434 66.3832 16.7278 67.4517 17.3153C68.5202 17.8845 69.34 18.6924 69.9112 19.7389C70.5007 20.7855 70.7954 21.9973 70.7954 23.3744C70.7954 24.7882 70.4454 26.0459 69.7454 27.1475C69.0637 28.2308 68.1057 29.0754 66.8714 29.6813C65.6371 30.2689 64.2369 30.5626 62.671 30.5626C60.0734 30.5626 58.0285 29.7364 56.5362 28.0839C55.0624 26.4131 54.3255 23.9711 54.3255 20.758C54.3255 17.7835 54.9703 15.415 56.2599 13.6523C57.5679 11.8713 59.5668 10.7054 62.2565 10.1546L69.3308 8.75L69.9112 12.4405L63.6658 13.6799C61.9709 14.0104 60.709 14.5612 59.88 15.3323C59.0694 16.1035 58.5904 17.196 58.443 18.6097C59.0878 17.912 59.8615 17.3796 60.7643 17.0124C61.667 16.6268 62.6526 16.434 63.7211 16.434ZM62.6986 27.2301C63.804 27.2301 64.6883 26.8721 65.3515 26.156C66.0332 25.44 66.374 24.5311 66.374 23.4295C66.374 22.3094 66.0332 21.4189 65.3515 20.758C64.6883 20.097 63.804 19.7665 62.6986 19.7665C61.5749 19.7665 60.6721 20.097 59.9905 20.758C59.3089 21.4189 58.968 22.3094 58.968 23.4295C58.968 24.5495 59.3181 25.4675 60.0181 26.1836C60.7182 26.8813 61.6117 27.2301 62.6986 27.2301Z" fill="url(#paint11_linear_1602_954)"/>
<defs>
<linearGradient id="paint0_linear_1602_954" x1="132.404" y1="8" x2="132.404" y2="30.369" gradientUnits="userSpaceOnUse">
<stop stop-color="#4270FB"/>
<stop offset="1" stop-color="#3452AB"/>
</linearGradient>
<linearGradient id="paint1_linear_1602_954" x1="90.6466" y1="8" x2="90.6466" y2="30.369" gradientUnits="userSpaceOnUse">
<stop stop-color="#4270FB"/>
<stop offset="1" stop-color="#3452AB"/>
</linearGradient>
<linearGradient id="paint2_linear_1602_954" x1="154.39" y1="8" x2="154.39" y2="30.8553" gradientUnits="userSpaceOnUse">
<stop stop-color="#4270FB"/>
<stop offset="1" stop-color="#3452AB"/>
</linearGradient>
<linearGradient id="paint3_linear_1602_954" x1="168.132" y1="25.9512" x2="168.132" y2="30.3581" gradientUnits="userSpaceOnUse">
<stop stop-color="#4270FB"/>
<stop offset="1" stop-color="#3452AB"/>
</linearGradient>
<linearGradient id="paint4_linear_1602_954" x1="76.9717" y1="25.9512" x2="76.9717" y2="30.3581" gradientUnits="userSpaceOnUse">
<stop stop-color="#4270FB"/>
<stop offset="1" stop-color="#3452AB"/>
</linearGradient>
<linearGradient id="paint5_linear_1602_954" x1="182.044" y1="8" x2="182.044" y2="30.369" gradientUnits="userSpaceOnUse">
<stop stop-color="#4270FB"/>
<stop offset="1" stop-color="#3452AB"/>
</linearGradient>
<linearGradient id="paint6_linear_1602_954" x1="200.77" y1="8" x2="200.77" y2="30.6122" gradientUnits="userSpaceOnUse">
<stop stop-color="#4270FB"/>
<stop offset="1" stop-color="#3452AB"/>
</linearGradient>
<linearGradient id="paint7_linear_1602_954" x1="111.527" y1="8" x2="111.527" y2="30.8553" gradientUnits="userSpaceOnUse">
<stop stop-color="#4270FB"/>
<stop offset="1" stop-color="#3452AB"/>
</linearGradient>
<linearGradient id="paint8_linear_1602_954" x1="34.9574" y1="5.44542" x2="34.9574" y2="35.7407" gradientUnits="userSpaceOnUse">
<stop stop-color="#4270FB"/>
<stop offset="1" stop-color="#3452AB"/>
</linearGradient>
<linearGradient id="paint9_linear_1602_954" x1="34.9574" y1="5.44542" x2="34.9574" y2="35.7407" gradientUnits="userSpaceOnUse">
<stop stop-color="#4270FB"/>
<stop offset="1" stop-color="#3452AB"/>
</linearGradient>
<linearGradient id="paint10_linear_1602_954" x1="34.9574" y1="5.44542" x2="34.9574" y2="35.7407" gradientUnits="userSpaceOnUse">
<stop stop-color="#4270FB"/>
<stop offset="1" stop-color="#3452AB"/>
</linearGradient>
<linearGradient id="paint11_linear_1602_954" x1="34.9574" y1="5.44542" x2="34.9574" y2="35.7407" gradientUnits="userSpaceOnUse">
<stop stop-color="#4270FB"/>
<stop offset="1" stop-color="#3452AB"/>
</linearGradient>
</defs>
</svg>
