<svg width="133" height="26" viewBox="0 0 133 26" fill="none" xmlns="http://www.w3.org/2000/svg">
<path d="M78.3301 5.39095C78.3301 5.24515 78.4505 5.12695 78.5991 5.12695H88.8525C89.0011 5.12695 89.1215 5.24515 89.1215 5.39095V7.55363C89.1215 7.69943 89.0011 7.81763 88.8525 7.81763H85.3464C85.1978 7.81763 85.0773 7.93582 85.0773 8.08163V19.0082C85.0773 19.154 84.9569 19.2722 84.8083 19.2722H82.5062C82.3576 19.2722 82.2372 19.154 82.2372 19.0082V8.08163C82.2372 7.93582 82.1167 7.81763 81.9681 7.81763H78.5991C78.4505 7.81763 78.3301 7.69943 78.3301 7.55363V5.39095Z" fill="url(#paint0_linear_1602_1828)"/>
<path d="M52.8164 5.39095C52.8164 5.24515 52.9369 5.12695 53.0855 5.12695H61.5574C61.706 5.12695 61.8265 5.24515 61.8265 5.39095V7.55363C61.8265 7.69943 61.706 7.81763 61.5574 7.81763H55.9256C55.777 7.81763 55.6565 7.93582 55.6565 8.08163V10.7632C55.6565 10.909 55.777 11.0272 55.9256 11.0272H60.7348C60.8834 11.0272 61.0038 11.1454 61.0038 11.2912V13.4539C61.0038 13.5997 60.8834 13.7179 60.7348 13.7179H55.9256C55.777 13.7179 55.6565 13.8361 55.6565 13.9819V19.0082C55.6565 19.154 55.5361 19.2722 55.3875 19.2722H53.0855C52.9369 19.2722 52.8164 19.154 52.8164 19.0082V5.39095Z" fill="url(#paint1_linear_1602_1828)"/>
<path fill-rule="evenodd" clip-rule="evenodd" d="M97.6304 19.5797C101.622 19.5797 104.858 16.3443 104.858 12.3533C104.858 8.36231 101.622 5.12695 97.6304 5.12695C93.6385 5.12695 90.4023 8.36231 90.4023 12.3533C90.4023 16.3443 93.6385 19.5797 97.6304 19.5797ZM97.6304 17.0505C100.225 17.0505 102.329 14.9475 102.329 12.3533C102.329 9.75917 100.225 7.65619 97.6304 7.65619C95.0356 7.65619 92.9322 9.75917 92.9322 12.3533C92.9322 14.9475 95.0356 17.0505 97.6304 17.0505Z" fill="url(#paint2_linear_1602_1828)"/>
<path d="M104.928 17.8815C104.928 17.4843 105.071 17.1512 105.359 16.8821C105.659 16.613 105.985 16.4785 106.338 16.4785C106.664 16.4785 106.971 16.613 107.259 16.8821C107.559 17.1512 107.709 17.4843 107.709 17.8815C107.709 18.3043 107.559 18.6439 107.259 18.9001C106.971 19.1436 106.664 19.2653 106.338 19.2653C105.985 19.2653 105.659 19.1436 105.359 18.9001C105.071 18.6439 104.928 18.3043 104.928 17.8815Z" fill="url(#paint3_linear_1602_1828)"/>
<path d="M47.2852 17.8815C47.2852 17.4843 47.4288 17.1512 47.7161 16.8821C48.0164 16.613 48.3429 16.4785 48.6954 16.4785C49.0219 16.4785 49.3288 16.613 49.616 16.8821C49.9164 17.1512 50.0665 17.4843 50.0665 17.8815C50.0665 18.3043 49.9164 18.6439 49.616 18.9001C49.3288 19.1436 49.0219 19.2653 48.6954 19.2653C48.3429 19.2653 48.0164 19.1436 47.7161 18.9001C47.4288 18.6439 47.2852 18.3043 47.2852 17.8815Z" fill="url(#paint4_linear_1602_1828)"/>
<path d="M114.052 5.12695C114.953 5.12695 115.756 5.24227 116.461 5.4729C117.166 5.69071 117.754 6.01103 118.224 6.43385C118.707 6.84386 119.072 7.34356 119.32 7.93294C119.569 8.50951 119.693 9.16296 119.693 9.89329C119.693 10.4699 119.601 11.0464 119.418 11.623C119.249 12.1996 118.961 12.7249 118.557 13.199C118.165 13.673 117.643 14.0574 116.99 14.3521C116.337 14.634 115.527 14.7749 114.561 14.7749H112.793C112.644 14.7749 112.524 14.8931 112.524 15.0389V19.0082C112.524 19.154 112.403 19.2722 112.255 19.2722H109.953C109.804 19.2722 109.684 19.154 109.684 19.0082V5.39095C109.684 5.24515 109.804 5.12695 109.953 5.12695H114.052ZM114.541 12.0843C114.972 12.0843 115.331 12.0138 115.619 11.8729C115.906 11.7319 116.128 11.5525 116.284 11.3347C116.454 11.1169 116.572 10.8927 116.637 10.6621C116.715 10.4186 116.755 10.1944 116.755 9.98938C116.755 9.83563 116.728 9.64344 116.676 9.41281C116.637 9.16937 116.546 8.92593 116.402 8.68249C116.258 8.43904 116.036 8.23404 115.736 8.06748C115.449 7.90091 115.057 7.81763 114.561 7.81763H112.793C112.644 7.81763 112.524 7.93582 112.524 8.08163V11.8203C112.524 11.9661 112.644 12.0843 112.793 12.0843H114.541ZM117.054 13.8174C117.148 13.8153 117.236 13.8613 117.287 13.9389L120.504 18.8658C120.619 19.0415 120.491 19.2722 120.278 19.2722H117.604C117.514 19.2722 117.43 19.2279 117.38 19.1543L114.087 14.2898C113.969 14.1166 114.093 13.8846 114.304 13.8798L117.054 13.8174Z" fill="url(#paint5_linear_1602_1828)"/>
<path d="M123.963 14.0446C123.963 14.4931 124.1 14.9223 124.375 15.3323C124.649 15.7423 125.008 16.0754 125.452 16.3317C125.909 16.5879 126.405 16.7161 126.94 16.7161C127.528 16.7161 128.05 16.5879 128.507 16.3317C128.964 16.0754 129.324 15.7423 129.585 15.3323C129.859 14.9223 129.996 14.4931 129.996 14.0446V5.39095C129.996 5.24515 130.116 5.12695 130.265 5.12695H132.528C132.677 5.12695 132.797 5.24515 132.797 5.39095V14.1023C132.797 15.1401 132.536 16.0626 132.014 16.8698C131.491 17.6642 130.786 18.292 129.898 18.7533C129.01 19.2017 128.024 19.426 126.94 19.426C125.87 19.426 124.89 19.2017 124.002 18.7533C123.127 18.292 122.429 17.6642 121.907 16.8698C121.384 16.0626 121.123 15.1401 121.123 14.1023V5.39095C121.123 5.24515 121.244 5.12695 121.392 5.12695H123.694C123.843 5.12695 123.963 5.24515 123.963 5.39095V14.0446Z" fill="url(#paint6_linear_1602_1828)"/>
<path fill-rule="evenodd" clip-rule="evenodd" d="M70.5249 19.5797C74.5169 19.5797 77.753 16.3443 77.753 12.3533C77.753 8.36231 74.5169 5.12695 70.5249 5.12695C66.533 5.12695 63.2969 8.36231 63.2969 12.3533C63.2969 16.3443 66.533 19.5797 70.5249 19.5797ZM70.5249 17.0505C73.1197 17.0505 75.2232 14.9475 75.2232 12.3533C75.2232 9.75917 73.1197 7.65619 70.5249 7.65619C67.9302 7.65619 65.8267 9.75917 65.8267 12.3533C65.8267 14.9475 67.9302 17.0505 70.5249 17.0505Z" fill="url(#paint7_linear_1602_1828)"/>
<path fill-rule="evenodd" clip-rule="evenodd" d="M70.1087 10.0257C70.1087 9.92357 70.0107 9.85001 69.916 9.88816C69.0801 10.2248 68.4824 11.1195 68.4824 12.1703C68.4824 13.2211 69.0801 14.1158 69.916 14.4525C70.0107 14.4907 70.1087 14.4171 70.1087 14.315C70.1087 14.2489 70.0661 14.1908 70.0049 14.166C69.275 13.8705 68.7535 13.0885 68.7535 12.1703C68.7535 11.2521 69.275 10.4701 70.0049 10.1746C70.0661 10.1498 70.1087 10.0918 70.1087 10.0257ZM71.1929 14.315C71.1929 14.2489 71.2355 14.1908 71.2968 14.166C72.0267 13.8705 72.5482 13.0885 72.5482 12.1703C72.5482 11.2521 72.0267 10.4701 71.2968 10.1746C71.2355 10.1498 71.1929 10.0918 71.1929 10.0257C71.1929 9.92357 71.291 9.85001 71.3857 9.88816C72.2216 10.2248 72.8192 11.1195 72.8192 12.1703C72.8192 13.2211 72.2216 14.1158 71.3857 14.4525C71.291 14.4907 71.1929 14.4171 71.1929 14.315Z" fill="black"/>
<path fill-rule="evenodd" clip-rule="evenodd" d="M81.6723 0.428702C81.5725 0.428702 81.4916 0.347818 81.4916 0.248042C81.4916 0.148267 81.5725 0.0673828 81.6723 0.0673828H82.9372C84.3344 0.0673828 85.467 1.19976 85.467 2.59662V3.86119C85.467 3.96099 85.3861 4.04189 85.2863 4.04189C85.1865 4.04189 85.1056 3.96099 85.1056 3.86119V2.59662C85.1056 1.39931 84.1348 0.428702 82.9372 0.428702H81.6723ZM81.4916 24.8177C81.4916 24.718 81.5725 24.6371 81.6723 24.6371H82.9372C84.1348 24.6371 85.1056 23.6665 85.1056 22.4692V21.2046C85.1056 21.1048 85.1865 21.0239 85.2863 21.0239C85.3861 21.0239 85.467 21.1048 85.467 21.2046V22.4692C85.467 23.866 84.3344 24.9984 82.9372 24.9984H81.6723C81.5725 24.9984 81.4916 24.9175 81.4916 24.8177ZM56.0127 21.0239C56.1125 21.0239 56.1934 21.1048 56.1934 21.2046V22.4692C56.1934 23.6665 57.1643 24.6371 58.3618 24.6371H59.6268C59.7266 24.6371 59.8075 24.718 59.8075 24.8177C59.8075 24.9175 59.7266 24.9984 59.6268 24.9984H58.3618C56.9647 24.9984 55.832 23.866 55.832 22.4692V21.2046C55.832 21.1048 55.9129 21.0239 56.0127 21.0239ZM59.8075 0.248042C59.8075 0.347818 59.7266 0.428702 59.6268 0.428702H58.3618C57.1643 0.428702 56.1934 1.39931 56.1934 2.59661V3.86119C56.1934 3.96099 56.1125 4.04189 56.0127 4.04189C55.9129 4.04189 55.832 3.96099 55.832 3.86119V2.59661C55.832 1.19976 56.9647 0.0673828 58.3618 0.0673828H59.6268C59.7266 0.0673828 59.8075 0.148267 59.8075 0.248042Z" fill="black"/>
<path fill-rule="evenodd" clip-rule="evenodd" d="M65.9517 2.84863H63.7833C63.7234 2.84863 63.6749 2.89716 63.6749 2.95702V4.4023C63.6749 4.46216 63.7234 4.51069 63.7833 4.51069H65.9517C66.0116 4.51069 66.0601 4.46216 66.0601 4.4023V2.95702C66.0601 2.89716 66.0116 2.84863 65.9517 2.84863ZM63.7833 2.5957C63.5837 2.5957 63.4219 2.75747 63.4219 2.95702V4.4023C63.4219 4.60185 63.5837 4.76362 63.7833 4.76362H65.9517C66.1513 4.76362 66.3131 4.60185 66.3131 4.4023V2.95702C66.3131 2.75747 66.1513 2.5957 65.9517 2.5957H63.7833Z" fill="black"/>
<path fill-rule="evenodd" clip-rule="evenodd" d="M65.9517 20.1914H63.7833C63.7234 20.1914 63.6749 20.2399 63.6749 20.2998V21.7451C63.6749 21.8049 63.7234 21.8535 63.7833 21.8535H65.9517C66.0116 21.8535 66.0601 21.8049 66.0601 21.7451V20.2998C66.0601 20.2399 66.0116 20.1914 65.9517 20.1914ZM63.7833 19.9385C63.5837 19.9385 63.4219 20.1002 63.4219 20.2998V21.7451C63.4219 21.9446 63.5837 22.1064 63.7833 22.1064H65.9517C66.1513 22.1064 66.3131 21.9446 66.3131 21.7451V20.2998C66.3131 20.1002 66.1513 19.9385 65.9517 19.9385H63.7833Z" fill="black"/>
<path fill-rule="evenodd" clip-rule="evenodd" d="M77.5142 2.84863H75.3458C75.2859 2.84863 75.2374 2.89716 75.2374 2.95702V4.4023C75.2374 4.46216 75.2859 4.51069 75.3458 4.51069H77.5142C77.5741 4.51069 77.6226 4.46216 77.6226 4.4023V2.95702C77.6226 2.89716 77.5741 2.84863 77.5142 2.84863ZM75.3458 2.5957C75.1462 2.5957 74.9844 2.75747 74.9844 2.95702V4.4023C74.9844 4.60185 75.1462 4.76362 75.3458 4.76362H77.5142C77.7138 4.76362 77.8756 4.60185 77.8756 4.4023V2.95702C77.8756 2.75747 77.7138 2.5957 77.5142 2.5957H75.3458Z" fill="black"/>
<path fill-rule="evenodd" clip-rule="evenodd" d="M77.5181 20.1914H75.3497C75.2898 20.1914 75.2413 20.2399 75.2413 20.2998V21.7451C75.2413 21.8049 75.2898 21.8535 75.3497 21.8535H77.5181C77.578 21.8535 77.6265 21.8049 77.6265 21.7451V20.2998C77.6265 20.2399 77.578 20.1914 77.5181 20.1914ZM75.3497 19.9385C75.1501 19.9385 74.9883 20.1002 74.9883 20.2998V21.7451C74.9883 21.9446 75.1501 22.1064 75.3497 22.1064H77.5181C77.7177 22.1064 77.8795 21.9446 77.8795 21.7451V20.2998C77.8795 20.1002 77.7177 19.9385 77.5181 19.9385H75.3497Z" fill="black"/>
<path fill-rule="evenodd" clip-rule="evenodd" d="M81.4888 11.5195H79.3204C79.2605 11.5195 79.212 11.5681 79.212 11.6279V13.0732C79.212 13.1331 79.2605 13.1816 79.3204 13.1816H81.4888C81.5487 13.1816 81.5972 13.1331 81.5972 13.0732V11.6279C81.5972 11.5681 81.5487 11.5195 81.4888 11.5195ZM79.3204 11.2666C79.1208 11.2666 78.959 11.4284 78.959 11.6279V13.0732C78.959 13.2727 79.1208 13.4345 79.3204 13.4345H81.4888C81.6884 13.4345 81.8502 13.2727 81.8502 13.0732V11.6279C81.8502 11.4284 81.6884 11.2666 81.4888 11.2666H79.3204Z" fill="black"/>
<path fill-rule="evenodd" clip-rule="evenodd" d="M61.9751 11.5193H59.8067C59.7468 11.5193 59.6983 11.5678 59.6983 11.6277V13.073C59.6983 13.1328 59.7468 13.1813 59.8067 13.1813H61.9751C62.035 13.1813 62.0836 13.1328 62.0836 13.073V11.6277C62.0836 11.5678 62.035 11.5193 61.9751 11.5193ZM59.8067 11.2664C59.6071 11.2664 59.4453 11.4281 59.4453 11.6277V13.073C59.4453 13.2725 59.6071 13.4343 59.8067 13.4343H61.9751C62.1747 13.4343 62.3365 13.2725 62.3365 13.073V11.6277C62.3365 11.4281 62.1747 11.2664 61.9751 11.2664H59.8067Z" fill="black"/>
<path fill-rule="evenodd" clip-rule="evenodd" d="M65.586 23.3731C65.586 23.2733 65.5051 23.1924 65.4053 23.1924C65.3055 23.1924 65.2246 23.2733 65.2246 23.3731V25.5409C65.2246 25.6407 65.3055 25.7216 65.4053 25.7216C65.5051 25.7216 65.586 25.6407 65.586 25.5409V23.3731ZM61.9727 24.0948C61.9727 23.995 62.0536 23.9141 62.1534 23.9141C62.2532 23.9141 62.3341 23.995 62.3341 24.0948V25.54C62.3341 25.6398 62.2532 25.7207 62.1534 25.7207C62.0536 25.7207 61.9727 25.6398 61.9727 25.54V24.0948ZM60.8887 24.095C60.8887 23.9952 60.9696 23.9143 61.0694 23.9143C61.1692 23.9143 61.2501 23.9952 61.2501 24.095V25.5402C61.2501 25.64 61.1692 25.7209 61.0694 25.7209C60.9696 25.7209 60.8887 25.64 60.8887 25.5402V24.095ZM63.418 24.0948C63.418 23.995 63.3371 23.9141 63.2373 23.9141C63.1375 23.9141 63.0566 23.995 63.0566 24.0948V25.54C63.0566 25.6398 63.1375 25.7207 63.2373 25.7207C63.3371 25.7207 63.418 25.6398 63.418 25.54V24.0948ZM64.1406 24.0948C64.1406 23.995 64.2215 23.9141 64.3213 23.9141C64.4211 23.9141 64.502 23.995 64.502 24.0948V25.54C64.502 25.6398 64.4211 25.7207 64.3213 25.7207C64.2215 25.7207 64.1406 25.6398 64.1406 25.54V24.0948ZM66.3105 24.095C66.3105 23.9952 66.3914 23.9143 66.4912 23.9143C66.591 23.9143 66.6719 23.9952 66.6719 24.095V25.5402C66.6719 25.64 66.591 25.7209 66.4912 25.7209C66.3914 25.7209 66.3105 25.64 66.3105 25.5402V24.095ZM67.7559 24.0948C67.7559 23.995 67.675 23.9141 67.5752 23.9141C67.4754 23.9141 67.3945 23.995 67.3945 24.0948V25.54C67.3945 25.6398 67.4754 25.7207 67.5752 25.7207C67.675 25.7207 67.7559 25.6398 67.7559 25.54V24.0948ZM68.4785 24.0948C68.4785 23.995 68.5594 23.9141 68.6592 23.9141C68.759 23.9141 68.8399 23.995 68.8399 24.0948V25.54C68.8399 25.6398 68.759 25.7207 68.6592 25.7207C68.5594 25.7207 68.4785 25.6398 68.4785 25.54V24.0948ZM69.9239 24.0948C69.9239 23.995 69.843 23.9141 69.7432 23.9141C69.6434 23.9141 69.5625 23.995 69.5625 24.0948V25.54C69.5625 25.6398 69.6434 25.7207 69.7432 25.7207C69.843 25.7207 69.9239 25.6398 69.9239 25.54V24.0948ZM70.6465 23.3731C70.6465 23.2733 70.7274 23.1924 70.8272 23.1924C70.927 23.1924 71.0079 23.2733 71.0079 23.3731V25.5409C71.0079 25.6407 70.927 25.7216 70.8272 25.7216C70.7274 25.7216 70.6465 25.6407 70.6465 25.5409V23.3731ZM72.0958 24.095C72.0958 23.9952 72.0149 23.9143 71.9151 23.9143C71.8153 23.9143 71.7344 23.9952 71.7344 24.095V25.5402C71.7344 25.64 71.8153 25.7209 71.9151 25.7209C72.0149 25.7209 72.0958 25.64 72.0958 25.5402V24.095ZM72.8184 24.0948C72.8184 23.995 72.8993 23.9141 72.9991 23.9141C73.0989 23.9141 73.1798 23.995 73.1798 24.0948V25.54C73.1798 25.6398 73.0989 25.7207 72.9991 25.7207C72.8993 25.7207 72.8184 25.6398 72.8184 25.54V24.0948ZM74.2637 24.0948C74.2637 23.995 74.1828 23.9141 74.083 23.9141C73.9832 23.9141 73.9023 23.995 73.9023 24.0948V25.54C73.9023 25.6398 73.9832 25.7207 74.083 25.7207C74.1828 25.7207 74.2637 25.6398 74.2637 25.54V24.0948ZM74.9863 24.0948C74.9863 23.995 75.0672 23.9141 75.167 23.9141C75.2668 23.9141 75.3477 23.995 75.3477 24.0948V25.54C75.3477 25.6398 75.2668 25.7207 75.167 25.7207C75.0672 25.7207 74.9863 25.6398 74.9863 25.54V24.0948ZM76.4317 23.3731C76.4317 23.2733 76.3508 23.1924 76.251 23.1924C76.1512 23.1924 76.0703 23.2733 76.0703 23.3731V25.5409C76.0703 25.6407 76.1512 25.7216 76.251 25.7216C76.3508 25.7216 76.4317 25.6407 76.4317 25.5409V23.3731ZM77.1484 24.0957C77.1484 23.9959 77.2293 23.915 77.3291 23.915C77.4289 23.915 77.5098 23.9959 77.5098 24.0957V25.5409C77.5098 25.6407 77.4289 25.7216 77.3291 25.7216C77.2293 25.7216 77.1484 25.6407 77.1484 25.5409V24.0957ZM78.5938 24.0957C78.5938 23.9959 78.5129 23.915 78.4131 23.915C78.3133 23.915 78.2324 23.9959 78.2324 24.0957V25.5409C78.2324 25.6407 78.3133 25.7216 78.4131 25.7216C78.5129 25.7216 78.5938 25.6407 78.5938 25.5409V24.0957ZM79.3145 24.0957C79.3145 23.9959 79.3954 23.915 79.4952 23.915C79.595 23.915 79.6759 23.9959 79.6759 24.0957V25.5409C79.6759 25.6407 79.595 25.7216 79.4952 25.7216C79.3954 25.7216 79.3145 25.6407 79.3145 25.5409V24.0957ZM80.7618 24.0957C80.7618 23.9959 80.6809 23.915 80.5811 23.915C80.4813 23.915 80.4004 23.9959 80.4004 24.0957V25.5409C80.4004 25.6407 80.4813 25.7216 80.5811 25.7216C80.6809 25.7216 80.7618 25.6407 80.7618 25.5409V24.0957Z" fill="black"/>
<path d="M4.77059 14.2737H2.81343V19.185H0V6.99386H2.81343V11.9226H4.84049L8.05584 6.99386H11.044L7.04231 12.8804L11.1663 19.185H7.95099L4.77059 14.2737Z" fill="url(#paint8_linear_1602_1828)"/>
<path d="M21.5728 9.81524V19.185H18.8467V12.0445H15.876L15.7887 13.699C15.7421 14.9297 15.6256 15.9514 15.4392 16.7642C15.2528 17.5769 14.9499 18.2155 14.5305 18.6799C14.1111 19.1444 13.5286 19.3766 12.783 19.3766C12.3869 19.3766 11.9151 19.3069 11.3676 19.1676L11.5074 16.9383C11.6938 16.9616 11.8277 16.9732 11.9093 16.9732C12.317 16.9732 12.6199 16.828 12.818 16.5378C13.0277 16.2359 13.1675 15.8586 13.2374 15.4057C13.3073 14.9413 13.3597 14.3318 13.3946 13.5771L13.5344 9.81524H21.5728Z" fill="url(#paint9_linear_1602_1828)"/>
<path d="M33.6131 9.81524L29.3668 19.7597C28.9357 20.8395 28.3999 21.6 27.7591 22.0412C27.13 22.4824 26.367 22.703 25.4699 22.703C24.9806 22.703 24.4972 22.6276 24.0195 22.4766C23.5419 22.3257 23.1516 22.1167 22.8487 21.8496L23.8448 19.9165C24.0545 20.1022 24.2933 20.2474 24.5612 20.3519C24.8408 20.4564 25.1146 20.5086 25.3826 20.5086C25.7553 20.5086 26.0582 20.4157 26.2912 20.23C26.5242 20.0558 26.7339 19.7597 26.9203 19.3417L26.9553 19.2547L22.8837 9.81524H25.6971L28.3358 16.172L30.9919 9.81524H33.6131Z" fill="url(#paint10_linear_1602_1828)"/>
<path d="M40.2946 10.4596C41.1917 10.4596 41.978 10.6454 42.6537 11.0169C43.3294 11.3769 43.8478 11.8877 44.209 12.5495C44.5817 13.2113 44.7681 13.9776 44.7681 14.8484C44.7681 15.7425 44.5468 16.5378 44.1041 17.2344C43.6731 17.9194 43.0673 18.4535 42.2867 18.8367C41.5062 19.2082 40.6208 19.394 39.6306 19.394C37.988 19.394 36.6948 18.8715 35.7512 17.8266C34.8192 16.77 34.3532 15.2258 34.3532 13.1939C34.3532 11.313 34.761 9.81524 35.5764 8.70062C36.4036 7.57439 37.6676 6.83712 39.3685 6.4888L43.842 5.60059L44.209 7.93432L40.2597 8.71804C39.1879 8.92703 38.3899 9.27534 37.8656 9.76299C37.353 10.2506 37.0501 10.9415 36.9569 11.8355C37.3647 11.3943 37.854 11.0576 38.4248 10.8254C38.9957 10.5815 39.6189 10.4596 40.2946 10.4596ZM39.6481 17.2867C40.347 17.2867 40.9062 17.0603 41.3256 16.6074C41.7567 16.1546 41.9722 15.5799 41.9722 14.8833C41.9722 14.175 41.7567 13.6119 41.3256 13.1939C40.9062 12.7759 40.347 12.567 39.6481 12.567C38.9374 12.567 38.3666 12.7759 37.9355 13.1939C37.5045 13.6119 37.289 14.175 37.289 14.8833C37.289 15.5915 37.5103 16.172 37.953 16.6249C38.3957 17.0661 38.9607 17.2867 39.6481 17.2867Z" fill="url(#paint11_linear_1602_1828)"/>
<defs>
<linearGradient id="paint0_linear_1602_1828" x1="83.7258" y1="5.12695" x2="83.7258" y2="19.2722" gradientUnits="userSpaceOnUse">
<stop stop-color="#4270FB"/>
<stop offset="1" stop-color="#3452AB"/>
</linearGradient>
<linearGradient id="paint1_linear_1602_1828" x1="57.3214" y1="5.12695" x2="57.3214" y2="19.2722" gradientUnits="userSpaceOnUse">
<stop stop-color="#4270FB"/>
<stop offset="1" stop-color="#3452AB"/>
</linearGradient>
<linearGradient id="paint2_linear_1602_1828" x1="97.6304" y1="5.12695" x2="97.6304" y2="19.5797" gradientUnits="userSpaceOnUse">
<stop stop-color="#4270FB"/>
<stop offset="1" stop-color="#3452AB"/>
</linearGradient>
<linearGradient id="paint3_linear_1602_1828" x1="106.318" y1="16.4785" x2="106.318" y2="19.2653" gradientUnits="userSpaceOnUse">
<stop stop-color="#4270FB"/>
<stop offset="1" stop-color="#3452AB"/>
</linearGradient>
<linearGradient id="paint4_linear_1602_1828" x1="48.6758" y1="16.4785" x2="48.6758" y2="19.2653" gradientUnits="userSpaceOnUse">
<stop stop-color="#4270FB"/>
<stop offset="1" stop-color="#3452AB"/>
</linearGradient>
<linearGradient id="paint5_linear_1602_1828" x1="115.116" y1="5.12695" x2="115.116" y2="19.2722" gradientUnits="userSpaceOnUse">
<stop stop-color="#4270FB"/>
<stop offset="1" stop-color="#3452AB"/>
</linearGradient>
<linearGradient id="paint6_linear_1602_1828" x1="126.96" y1="5.12695" x2="126.96" y2="19.426" gradientUnits="userSpaceOnUse">
<stop stop-color="#4270FB"/>
<stop offset="1" stop-color="#3452AB"/>
</linearGradient>
<linearGradient id="paint7_linear_1602_1828" x1="70.5249" y1="5.12695" x2="70.5249" y2="19.5797" gradientUnits="userSpaceOnUse">
<stop stop-color="#4270FB"/>
<stop offset="1" stop-color="#3452AB"/>
</linearGradient>
<linearGradient id="paint8_linear_1602_1828" x1="22.1056" y1="3.5109" x2="22.1056" y2="22.6684" gradientUnits="userSpaceOnUse">
<stop stop-color="#4270FB"/>
<stop offset="1" stop-color="#3452AB"/>
</linearGradient>
<linearGradient id="paint9_linear_1602_1828" x1="22.1056" y1="3.5109" x2="22.1056" y2="22.6684" gradientUnits="userSpaceOnUse">
<stop stop-color="#4270FB"/>
<stop offset="1" stop-color="#3452AB"/>
</linearGradient>
<linearGradient id="paint10_linear_1602_1828" x1="22.1056" y1="3.5109" x2="22.1056" y2="22.6684" gradientUnits="userSpaceOnUse">
<stop stop-color="#4270FB"/>
<stop offset="1" stop-color="#3452AB"/>
</linearGradient>
<linearGradient id="paint11_linear_1602_1828" x1="22.1056" y1="3.5109" x2="22.1056" y2="22.6684" gradientUnits="userSpaceOnUse">
<stop stop-color="#4270FB"/>
<stop offset="1" stop-color="#3452AB"/>
</linearGradient>
</defs>
</svg>
