<svg width="34" height="30" viewBox="0 0 34 30" fill="none" xmlns="http://www.w3.org/2000/svg">
<path d="M10.2221 17.2914C10.3362 17.0938 10.6214 17.0938 10.7356 17.2913L17.28 28.6207C17.3938 28.8176 17.2526 29.0654 17.0251 29.0657C17.0182 29.0657 17.0112 29.0657 17.0042 29.0657C12.7946 29.0657 9.00431 27.2709 6.35642 24.405C6.2681 24.3093 6.25211 24.1675 6.31712 24.0549L10.2221 17.2914ZM16.2344 21.361L29.3024 21.3731C29.53 21.3733 29.6735 21.6199 29.5596 21.8169C27.5675 25.2615 24.1988 27.8099 20.2056 28.7102C20.0786 28.7389 19.9476 28.6819 19.8825 28.5694L15.9773 21.8054C15.8631 21.6075 16.006 21.3608 16.2344 21.361ZM4.44311 7.33625C6.43687 3.88245 9.81415 1.32786 13.8176 0.429648C13.9446 0.401144 14.0754 0.457911 14.1405 0.570722L18.0477 7.33832C18.1619 7.53617 18.0192 7.78316 17.7908 7.78309L4.70057 7.78068C4.47301 7.78063 4.3293 7.53336 4.44311 7.33625ZM3.44381 10.059H11.2571C11.4854 10.059 11.6281 10.3062 11.5139 10.5038L4.96991 21.8303C4.85553 22.0282 4.57044 22.0272 4.45584 21.8296C3.21877 19.6952 2.51036 17.2163 2.51036 14.5719C2.51036 13.0731 2.73799 11.6277 3.16031 10.2679C3.19884 10.1438 3.31375 10.059 3.44381 10.059ZM16.9991 0.0780029C17.0008 0.0780029 17.0025 0.0780029 17.0042 0.0780029C21.2132 0.0780029 25.0029 1.87222 27.6507 4.73732C27.7391 4.83274 27.7551 4.97478 27.69 5.08745L23.7857 11.85C23.6715 12.0478 23.386 12.0476 23.272 11.8498L16.744 0.522554C16.6305 0.325679 16.7717 0.0780512 16.9991 0.0780029ZM30.5615 19.0949H22.7454C22.5171 19.0949 22.3745 18.8477 22.4887 18.65L29.0376 7.31166C29.1519 7.11357 29.437 7.11454 29.5516 7.31238C30.7893 9.44706 31.498 11.9267 31.498 14.5719C31.498 16.0744 31.2692 17.5233 30.8449 18.8861C30.8063 19.0103 30.6914 19.0949 30.5615 19.0949Z" fill="#3D70F3"/>
<path fill-rule="evenodd" clip-rule="evenodd" d="M11.1959 27.3478C11.1959 27.2333 11.1031 27.1405 10.9886 27.1405C10.8741 27.1405 10.7812 27.2333 10.7812 27.3478V29.7924C10.7812 29.9069 10.8741 29.9997 10.9886 29.9997C11.1031 29.9997 11.1959 29.9069 11.1959 29.7924V27.3478ZM5.80566 28.1652C5.80566 28.0507 5.89848 27.9579 6.01298 27.9579C6.12748 27.9579 6.2203 28.0507 6.2203 28.1652V29.7928C6.2203 29.9073 6.12748 30.0002 6.01298 30.0002C5.89848 30.0002 5.80566 29.9073 5.80566 29.7928V28.1652ZM7.0498 28.1652C7.0498 28.0507 7.14262 27.9579 7.25712 27.9579C7.37162 27.9579 7.46444 28.0507 7.46444 28.1652V29.7928C7.46444 29.9073 7.37162 30.0002 7.25712 30.0002C7.14262 30.0002 7.0498 29.9073 7.0498 29.7928V28.1652ZM8.7076 28.1652C8.7076 28.0507 8.61478 27.9579 8.50029 27.9579C8.38579 27.9579 8.29297 28.0507 8.29297 28.1652V29.7928C8.29297 29.9073 8.38579 30.0002 8.50029 30.0002C8.61478 30.0002 8.7076 29.9073 8.7076 29.7928V28.1652ZM9.53712 28.1652C9.53712 28.0507 9.62994 27.9579 9.74444 27.9579C9.85893 27.9579 9.95175 28.0507 9.95175 28.1652V29.7928C9.95175 29.9073 9.85893 30.0002 9.74444 30.0002C9.62994 30.0002 9.53712 29.9073 9.53712 29.7928V28.1652ZM12.0253 28.1642C12.0253 28.0497 12.1181 27.9569 12.2326 27.9569C12.3471 27.9569 12.4399 28.0497 12.4399 28.1642V29.7919C12.4399 29.9064 12.3471 29.9992 12.2326 29.9992C12.1181 29.9992 12.0253 29.9064 12.0253 29.7919V28.1642ZM13.6841 28.1642C13.6841 28.0497 13.5912 27.9569 13.4767 27.9569C13.3623 27.9569 13.2694 28.0497 13.2694 28.1642V29.7919C13.2694 29.9064 13.3623 29.9992 13.4767 29.9992C13.5912 29.9992 13.6841 29.9064 13.6841 29.7919V28.1642ZM14.5128 28.1642C14.5128 28.0497 14.6056 27.9569 14.7201 27.9569C14.8346 27.9569 14.9274 28.0497 14.9274 28.1642V29.7919C14.9274 29.9064 14.8346 29.9992 14.7201 29.9992C14.6056 29.9992 14.5128 29.9064 14.5128 29.7919V28.1642ZM16.1712 28.1642C16.1712 28.0497 16.0784 27.9569 15.9639 27.9569C15.8494 27.9569 15.7566 28.0497 15.7566 28.1642V29.7919C15.7566 29.9064 15.8494 29.9992 15.9639 29.9992C16.0784 29.9992 16.1712 29.9064 16.1712 29.7919V28.1642ZM17.0009 27.3478C17.0009 27.2333 17.0937 27.1405 17.2082 27.1405C17.3227 27.1405 17.4155 27.2333 17.4155 27.3478V29.7924C17.4155 29.9069 17.3227 29.9997 17.2082 29.9997C17.0937 29.9997 17.0009 29.9069 17.0009 29.7924V27.3478ZM18.659 28.1652C18.659 28.0507 18.5662 27.9579 18.4517 27.9579C18.3372 27.9579 18.2444 28.0507 18.2444 28.1652V29.7928C18.2444 29.9073 18.3372 30.0002 18.4517 30.0002C18.5662 30.0002 18.659 29.9073 18.659 29.7928V28.1652ZM19.4884 28.1652C19.4884 28.0507 19.5812 27.9579 19.6957 27.9579C19.8102 27.9579 19.903 28.0507 19.903 28.1652V29.7928C19.903 29.9073 19.8102 30.0002 19.6957 30.0002C19.5812 30.0002 19.4884 29.9073 19.4884 29.7928V28.1652ZM21.1473 28.1652C21.1473 28.0507 21.0545 27.9579 20.94 27.9579C20.8255 27.9579 20.7327 28.0507 20.7327 28.1652V29.7928C20.7327 29.9073 20.8255 30.0002 20.94 30.0002C21.0545 30.0002 21.1473 29.9073 21.1473 29.7928V28.1652ZM21.976 28.1652C21.976 28.0507 22.0688 27.9579 22.1833 27.9579C22.2978 27.9579 22.3907 28.0507 22.3907 28.1652V29.7928C22.3907 29.9073 22.2978 30.0002 22.1833 30.0002C22.0688 30.0002 21.976 29.9073 21.976 29.7928V28.1652ZM23.6345 27.3478C23.6345 27.2333 23.5417 27.1405 23.4272 27.1405C23.3127 27.1405 23.2198 27.2333 23.2198 27.3478V29.7924C23.2198 29.9069 23.3127 29.9997 23.4272 29.9997C23.5417 29.9997 23.6345 29.9069 23.6345 29.7924V27.3478ZM24.462 28.1642C24.462 28.0497 24.5548 27.9569 24.6693 27.9569C24.7838 27.9569 24.8766 28.0497 24.8766 28.1642V29.7919C24.8766 29.9064 24.7838 29.9992 24.6693 29.9992C24.5548 29.9992 24.462 29.9064 24.462 29.7919V28.1642ZM26.1208 28.1642C26.1208 28.0497 26.028 27.9569 25.9135 27.9569C25.799 27.9569 25.7061 28.0497 25.7061 28.1642V29.7919C25.7061 29.9064 25.799 29.9992 25.9135 29.9992C26.028 29.9992 26.1208 29.9064 26.1208 29.7919V28.1642ZM26.9493 28.1642C26.9493 28.0497 27.0421 27.9569 27.1566 27.9569C27.2711 27.9569 27.3639 28.0497 27.3639 28.1642V29.7919C27.3639 29.9064 27.2711 29.9992 27.1566 29.9992C27.0421 29.9992 26.9493 29.9064 26.9493 29.7919V28.1642ZM28.6081 28.1642C28.6081 28.0497 28.5153 27.9569 28.4008 27.9569C28.2863 27.9569 28.1935 28.0497 28.1935 28.1642V29.7919C28.1935 29.9064 28.2863 29.9992 28.4008 29.9992C28.5153 29.9992 28.6081 29.9064 28.6081 29.7919V28.1642Z" fill="black"/>
<path fill-rule="evenodd" clip-rule="evenodd" d="M7.04892 13.9479H4.56112C4.49242 13.9479 4.43673 14.0028 4.43673 14.0704V15.7043C4.43673 15.7719 4.49242 15.8268 4.56112 15.8268H7.04892C7.11762 15.8268 7.17332 15.7719 7.17332 15.7043V14.0704C7.17332 14.0028 7.11762 13.9479 7.04892 13.9479ZM4.56112 13.662C4.33212 13.662 4.14648 13.8449 4.14648 14.0704V15.7043C4.14648 15.9298 4.33212 16.1127 4.56112 16.1127H7.04892C7.27792 16.1127 7.46356 15.9298 7.46356 15.7043V14.0704C7.46356 13.8449 7.27792 13.662 7.04892 13.662H4.56112Z" fill="black"/>
<path fill-rule="evenodd" clip-rule="evenodd" d="M29.4395 13.9479H26.9517C26.883 13.9479 26.8274 14.0028 26.8274 14.0704V15.7043C26.8274 15.7719 26.883 15.8268 26.9517 15.8268H29.4395C29.5082 15.8268 29.5639 15.7719 29.5639 15.7043V14.0704C29.5639 14.0028 29.5082 13.9479 29.4395 13.9479ZM26.9517 13.662C26.7227 13.662 26.5371 13.8449 26.5371 14.0704V15.7043C26.5371 15.9298 26.7227 16.1127 26.9517 16.1127H29.4395C29.6685 16.1127 29.8542 15.9298 29.8542 15.7043V14.0704C29.8542 13.8449 29.6685 13.662 29.4395 13.662H26.9517Z" fill="black"/>
<path fill-rule="evenodd" clip-rule="evenodd" d="M24.878 23.7506H22.3902C22.3215 23.7506 22.2658 23.8055 22.2658 23.8732V25.507C22.2658 25.5747 22.3215 25.6295 22.3902 25.6295H24.878C24.9467 25.6295 25.0024 25.5747 25.0024 25.507V23.8732C25.0024 23.8055 24.9467 23.7506 24.878 23.7506ZM22.3902 23.4647C22.1612 23.4647 21.9756 23.6476 21.9756 23.8732V25.507C21.9756 25.7326 22.1612 25.9154 22.3902 25.9154H24.878C25.107 25.9154 25.2927 25.7326 25.2927 25.507V23.8732C25.2927 23.6476 25.107 23.4647 24.878 23.4647H22.3902Z" fill="black"/>
<path fill-rule="evenodd" clip-rule="evenodd" d="M24.878 4.14517H22.3902C22.3215 4.14517 22.2658 4.20003 22.2658 4.26771V5.90152C22.2658 5.9692 22.3215 6.02406 22.3902 6.02406H24.878C24.9467 6.02406 25.0024 5.9692 25.0024 5.90152V4.26771C25.0024 4.20003 24.9467 4.14517 24.878 4.14517ZM22.3902 3.85925C22.1612 3.85925 21.9756 4.04212 21.9756 4.26771V5.90152C21.9756 6.1271 22.1612 6.30997 22.3902 6.30997H24.878C25.107 6.30997 25.2927 6.1271 25.2927 5.90152V4.26771C25.2927 4.04212 25.107 3.85925 24.878 3.85925H22.3902Z" fill="black"/>
<path fill-rule="evenodd" clip-rule="evenodd" d="M11.6095 23.7506H9.12167C9.05297 23.7506 8.99728 23.8055 8.99728 23.8732V25.507C8.99728 25.5747 9.05297 25.6295 9.12167 25.6295H11.6095C11.6782 25.6295 11.7339 25.5747 11.7339 25.507V23.8732C11.7339 23.8055 11.6782 23.7506 11.6095 23.7506ZM9.12167 23.4647C8.89267 23.4647 8.70703 23.6476 8.70703 23.8732V25.507C8.70703 25.7326 8.89267 25.9154 9.12167 25.9154H11.6095C11.8385 25.9154 12.0241 25.7326 12.0241 25.507V23.8732C12.0241 23.6476 11.8385 23.4647 11.6095 23.4647H9.12167Z" fill="black"/>
<path fill-rule="evenodd" clip-rule="evenodd" d="M11.6095 4.14517H9.12167C9.05297 4.14517 8.99728 4.20003 8.99728 4.26771V5.90152C8.99728 5.9692 9.05297 6.02406 9.12167 6.02406H11.6095C11.6782 6.02406 11.7339 5.9692 11.7339 5.90152V4.26771C11.7339 4.20003 11.6782 4.14517 11.6095 4.14517ZM9.12167 3.85925C8.89267 3.85925 8.70703 4.04212 8.70703 4.26771V5.90152C8.70703 6.1271 8.89267 6.30997 9.12167 6.30997H11.6095C11.8385 6.30997 12.0241 6.1271 12.0241 5.90152V4.26771C12.0241 4.04212 11.8385 3.85925 11.6095 3.85925H9.12167Z" fill="black"/>
<path fill-rule="evenodd" clip-rule="evenodd" d="M29.6433 1.40833C29.5305 1.40833 29.439 1.3169 29.439 1.2041C29.439 1.09131 29.5305 0.999878 29.6433 0.999878H31.0976C32.7005 0.999878 34 2.27997 34 3.85905V5.28555C34 5.40005 33.9072 5.49287 33.7927 5.49287C33.6782 5.49287 33.5854 5.40005 33.5854 5.28555V3.85905C33.5854 2.50556 32.4715 1.40833 31.0976 1.40833H29.6433ZM29.439 28.979C29.439 28.8662 29.5305 28.7747 29.6433 28.7747H31.0976C32.4715 28.7747 33.5854 27.6775 33.5854 26.324V24.8975C33.5854 24.783 33.6782 24.6902 33.7927 24.6902C33.9072 24.6902 34 24.783 34 24.8975V26.324C34 27.9031 32.7005 29.1832 31.0976 29.1832H29.6433C29.5305 29.1832 29.439 29.0917 29.439 28.979ZM0.207317 24.6902C0.321815 24.6902 0.414634 24.783 0.414634 24.8975V26.324C0.414634 27.6775 1.52846 28.7747 2.90244 28.7747H4.35675C4.46954 28.7747 4.56098 28.8662 4.56098 28.979C4.56098 29.0917 4.46954 29.1832 4.35675 29.1832H2.90244C1.29947 29.1832 0 27.9031 0 26.324V24.8975C0 24.783 0.092819 24.6902 0.207317 24.6902ZM4.56098 1.2041C4.56098 1.3169 4.46954 1.40833 4.35675 1.40833H2.90244C1.52846 1.40833 0.414634 2.50556 0.414634 3.85905V5.28555C0.414634 5.40005 0.321815 5.49287 0.207317 5.49287C0.092819 5.49287 0 5.40005 0 5.28555V3.85905C0 2.27997 1.29947 0.999878 2.90244 0.999878H4.35675C4.46954 0.999878 4.56098 1.09131 4.56098 1.2041Z" fill="black"/>
<path fill-rule="evenodd" clip-rule="evenodd" d="M16.3776 12.2587C16.3776 12.1433 16.2651 12.0601 16.1564 12.1032C15.1974 12.4838 14.5117 13.4953 14.5117 14.6831C14.5117 15.871 15.1974 16.8824 16.1564 17.263C16.2651 17.3061 16.3776 17.223 16.3776 17.1076C16.3776 17.0328 16.3287 16.9672 16.2584 16.9392C15.421 16.6051 14.8227 15.7211 14.8227 14.6831C14.8227 13.6451 15.421 12.7611 16.2584 12.4271C16.3287 12.399 16.3776 12.3334 16.3776 12.2587ZM17.6215 17.1076C17.6215 17.0328 17.6703 16.9672 17.7406 16.9392C18.578 16.6051 19.1763 15.7211 19.1763 14.6831C19.1763 13.6451 18.578 12.7611 17.7406 12.4271C17.6703 12.399 17.6215 12.3334 17.6215 12.2587C17.6215 12.1433 17.734 12.0601 17.8426 12.1032C18.8017 12.4838 19.4873 13.4953 19.4873 14.6831C19.4873 15.871 18.8017 16.8824 17.8426 17.263C17.734 17.3061 17.6215 17.223 17.6215 17.1076Z" fill="black"/>
</svg>
