<svg width="29" height="30" viewBox="0 0 29 30" fill="none" xmlns="http://www.w3.org/2000/svg">
<path d="M1.66504 23.4307C4.54117 27.0413 8.97631 29.3589 13.9524 29.3589C19.7882 29.3589 24.8808 26.1727 27.5876 21.4473C26.1671 20.7986 25.1776 19.8971 24.1838 19.0637C22.2421 22.7293 18.3897 25.225 13.9524 25.225C10.399 25.225 7.21941 23.622 5.09749 21.1021C4.34987 21.8871 3.27902 22.7249 1.66504 23.4307Z" fill="#4C3933"/>
<path fill-rule="evenodd" clip-rule="evenodd" d="M2.15753 20.2308C1.70236 14.3686 3.86606 9.45854 8.26821 6.28556C9.02682 5.73804 9.55236 5.42579 10.3725 5.03659C10.7397 4.86288 11.0982 4.69577 11.5555 4.52865C12.1294 4.31756 12.1932 4.37473 12.6198 4.06249C8.56726 3.55235 3.43068 5.55553 1.59901 8.02267C-0.0611413 10.2589 -0.0655392 16.4928 1.71335 19.6393L2.05418 20.1165C2.06957 20.0879 2.12015 20.1957 2.15753 20.2308Z" fill="#4C3933"/>
<path fill-rule="evenodd" clip-rule="evenodd" d="M26.5235 18.7887C28.3265 14.5845 27.5042 10.5803 25.7758 6.9082C25.2217 8.18795 27.414 14.2569 20.2347 20.715C18.9483 21.8716 17.7895 22.1904 16.1777 23.1117C19.9378 23.6461 25.4856 21.2097 26.5235 18.7887Z" fill="#4C3933"/>
<path fill-rule="evenodd" clip-rule="evenodd" d="M23.1086 16.7592C25.1249 14.4547 26.6114 8.00102 24.4631 5.06992C22.7897 2.78308 18.5349 -0.0798575 14.2383 0.0850585L14.478 0.260969C14.5131 0.282958 14.6759 0.386305 14.7242 0.41489C17.3959 1.92332 19.4606 3.23605 21.2065 6.2815C22.992 9.39731 23.7374 12.6473 23.1086 16.7592Z" fill="#4C3933"/>
<path fill-rule="evenodd" clip-rule="evenodd" d="M6.37988 19.5958C7.1385 21.5484 9.55946 24.1189 11.1163 25.1788C12.086 25.8384 14.2936 27.0368 15.3865 27.1072C16.9939 27.2127 20.3296 25.6603 21.4664 24.9347C22.7461 24.1189 24.7911 22.1663 25.4398 20.77C24.127 21.3066 23.1375 22.3114 21.0992 22.9029C16.6377 24.1981 12.0442 23.545 8.20275 20.9943C7.5321 20.5501 6.98457 19.9696 6.37988 19.5958Z" fill="#4C3933"/>
<path fill-rule="evenodd" clip-rule="evenodd" d="M2.18652 6.84654C7.31211 3.43828 10.9557 2.52135 17.2225 4.84116C19.2036 5.57559 20.0238 6.49912 21.3102 7.38747C20.6769 5.73171 18.8848 3.67576 17.7546 2.816C16.6617 1.98262 14.0781 -0.049143 12.0573 0.164148C7.71011 0.623714 3.45088 4.08475 2.18652 6.84654Z" fill="#4C3933"/>
<path fill-rule="evenodd" clip-rule="evenodd" d="M14.0651 27.222C13.135 26.5645 12.2818 26.5557 9.9994 24.812C8.87138 23.95 7.75435 22.6153 6.89898 21.3576C4.68471 18.1032 4.37027 15.5437 4.5066 11.0206C2.76509 13.9759 1.16431 19.8667 3.7326 22.6725C4.41205 23.4135 4.84963 23.8423 5.67641 24.4624C7.94345 26.1621 11.0065 27.3583 14.0651 27.222Z" fill="#4C3933"/>
<path fill-rule="evenodd" clip-rule="evenodd" d="M19.2821 16.7965C20.3046 16.724 21.4326 15.1826 21.7316 14.6922C23.1719 16.4447 24.4275 17.5749 28.2953 20.0091C28.1194 20.3807 27.7918 21.091 27.5895 21.4472C25.7732 20.6182 23.46 19.2043 22.145 18.2192L21.2765 18.7228L21.0632 18.0345C20.3705 18.4963 19.4338 19.1999 18.7324 18.6238L16.1597 15.7015L14.6952 17.1791L13.9212 15.3409C13.2528 16.0687 11.8719 17.6057 11.3837 18.217L10.1963 19.6881C9.69718 20.3104 8.60654 19.1581 7.92488 18.8613L7.42134 19.7452L6.55938 19.1296C5.87993 20.1586 4.48804 22.3377 1.66028 23.4306C1.4184 23.1271 1.04899 22.5928 0.829102 22.2718C3.64367 20.5544 4.93881 17.6541 6.50221 15.2991C7.15747 15.9764 8.92977 17.5881 9.54986 17.6409C11.5091 15.3607 13.0527 13.916 14.5479 11.7589C15.2559 12.0734 18.0551 15.9456 19.2821 16.7965Z" fill="url(#paint0_linear_1602_431)"/>
<defs>
<linearGradient id="paint0_linear_1602_431" x1="23.7176" y1="13.2179" x2="18.7847" y2="27.3656" gradientUnits="userSpaceOnUse">
<stop stop-color="#FF6B00"/>
<stop offset="1" stop-color="#FFE600"/>
</linearGradient>
</defs>
</svg>
