<svg width="29" height="30" viewBox="0 0 29 30" fill="none" xmlns="http://www.w3.org/2000/svg">
<path d="M1.37695 23.4307C4.25309 27.0413 8.68822 29.3589 13.6643 29.3589C19.5001 29.3589 24.5927 26.1727 27.2995 21.4473C25.8791 20.7986 24.8896 19.8971 23.8957 19.0637C21.9541 22.7293 18.1016 25.225 13.6643 25.225C10.1109 25.225 6.93132 23.622 4.8094 21.1021C4.06178 21.8871 2.99093 22.7249 1.37695 23.4307Z" fill="#4C3933"/>
<path fill-rule="evenodd" clip-rule="evenodd" d="M1.86944 20.2308C1.41427 14.3686 3.57797 9.45854 7.98012 6.28556C8.73874 5.73804 9.26427 5.42579 10.0845 5.03659C10.4517 4.86288 10.8101 4.69577 11.2674 4.52865C11.8414 4.31756 11.9051 4.37473 12.3317 4.06249C8.27917 3.55235 3.14259 5.55553 1.31093 8.02267C-0.349227 10.2589 -0.353625 16.4928 1.42527 19.6393L1.76609 20.1165C1.78149 20.0879 1.83206 20.1957 1.86944 20.2308Z" fill="#4C3933"/>
<path fill-rule="evenodd" clip-rule="evenodd" d="M26.2354 18.7887C28.0385 14.5845 27.2161 10.5803 25.4878 6.9082C24.9336 8.18795 27.1259 14.2569 19.9466 20.715C18.6602 21.8716 17.5014 22.1904 15.8896 23.1117C19.6497 23.6461 25.1975 21.2097 26.2354 18.7887Z" fill="#4C3933"/>
<path fill-rule="evenodd" clip-rule="evenodd" d="M22.8205 16.7592C24.8368 14.4547 26.3233 8.00102 24.175 5.06992C22.5016 2.78308 18.2468 -0.0798575 13.9502 0.0850585L14.1899 0.260969C14.2251 0.282958 14.3878 0.386305 14.4361 0.41489C17.1078 1.92332 19.1725 3.23605 20.9184 6.2815C22.7039 9.39731 23.4493 12.6473 22.8205 16.7592Z" fill="#4C3933"/>
<path fill-rule="evenodd" clip-rule="evenodd" d="M6.0918 19.5958C6.85041 21.5484 9.27138 24.1189 10.8282 25.1788C11.7979 25.8384 14.0056 27.0368 15.0984 27.1072C16.7058 27.2127 20.0415 25.6603 21.1783 24.9347C22.4581 24.1189 24.503 22.1663 25.1517 20.77C23.8389 21.3066 22.8495 22.3114 20.8111 22.9029C16.3496 24.1981 11.7561 23.545 7.91467 20.9943C7.24401 20.5501 6.69649 19.9696 6.0918 19.5958Z" fill="#4C3933"/>
<path fill-rule="evenodd" clip-rule="evenodd" d="M1.89844 6.84654C7.02402 3.43828 10.6676 2.52135 16.9344 4.84116C18.9156 5.57559 19.7357 6.49912 21.0221 7.38747C20.3888 5.73171 18.5967 3.67576 17.4665 2.816C16.3737 1.98262 13.79 -0.049143 11.7692 0.164148C7.42202 0.623714 3.16279 4.08475 1.89844 6.84654Z" fill="#4C3933"/>
<path fill-rule="evenodd" clip-rule="evenodd" d="M13.777 27.222C12.8469 26.5645 11.9938 26.5557 9.71131 24.812C8.58329 23.95 7.46626 22.6153 6.6109 21.3576C4.39663 18.1032 4.08219 15.5437 4.21852 11.0206C2.477 13.9759 0.876221 19.8667 3.44451 22.6725C4.12396 23.4135 4.56154 23.8423 5.38832 24.4624C7.65536 26.1621 10.7184 27.3583 13.777 27.222Z" fill="#4C3933"/>
<path fill-rule="evenodd" clip-rule="evenodd" d="M18.994 16.7965C20.0165 16.724 21.1445 15.1826 21.4436 14.6922C22.8838 16.4447 24.1394 17.5749 28.0072 20.0091C27.8313 20.3807 27.5037 21.091 27.3014 21.4472C25.4851 20.6182 23.1719 19.2043 21.8569 18.2192L20.9884 18.7228L20.7751 18.0345C20.0825 18.4963 19.1457 19.1999 18.4443 18.6238L15.8716 15.7015L14.4071 17.1791L13.6331 15.3409C12.9647 16.0687 11.5838 17.6057 11.0956 18.217L9.90824 19.6881C9.40909 20.3104 8.31845 19.1581 7.6368 18.8613L7.13325 19.7452L6.27129 19.1296C5.59184 20.1586 4.19995 22.3377 1.37219 23.4306C1.13032 23.1271 0.760904 22.5928 0.541016 22.2718C3.35558 20.5544 4.65072 17.6541 6.21412 15.2991C6.86939 15.9764 8.64169 17.5881 9.26177 17.6409C11.221 15.3607 12.7646 13.916 14.2598 11.7589C14.9679 12.0734 17.767 15.9456 18.994 16.7965Z" fill="url(#paint0_linear_1602_418)"/>
<defs>
<linearGradient id="paint0_linear_1602_418" x1="14.2741" y1="11.7589" x2="14.2741" y2="23.4306" gradientUnits="userSpaceOnUse">
<stop stop-color="#FF6760"/>
<stop offset="1" stop-color="#CF3C35"/>
</linearGradient>
</defs>
</svg>
