<svg width="29" height="30" viewBox="0 0 29 30" fill="none" xmlns="http://www.w3.org/2000/svg">
<path d="M1.95312 23.4307C4.82926 27.0413 9.2644 29.3589 14.2405 29.3589C20.0763 29.3589 25.1689 26.1727 27.8757 21.4473C26.4552 20.7986 25.4657 19.8971 24.4718 19.0637C22.5302 22.7293 18.6778 25.225 14.2405 25.225C10.6871 25.225 7.50749 23.622 5.38557 21.1021C4.63796 21.8871 3.5671 22.7249 1.95312 23.4307Z" fill="#23252D"/>
<path fill-rule="evenodd" clip-rule="evenodd" d="M2.44561 20.2308C1.99045 14.3686 4.15414 9.45854 8.5563 6.28556C9.31491 5.73804 9.84044 5.42579 10.6606 5.03659C11.0278 4.86288 11.3863 4.69577 11.8436 4.52865C12.4175 4.31756 12.4813 4.37473 12.9079 4.06249C8.85534 3.55235 3.71876 5.55553 1.8871 8.02267C0.226945 10.2589 0.222547 16.4928 2.00144 19.6393L2.34227 20.1165C2.35766 20.0879 2.40823 20.1957 2.44561 20.2308Z" fill="#23252D"/>
<path fill-rule="evenodd" clip-rule="evenodd" d="M26.8115 18.7887C28.6146 14.5845 27.7922 10.5803 26.0639 6.9082C25.5098 8.18795 27.7021 14.2569 20.5228 20.715C19.2364 21.8716 18.0776 22.1904 16.4658 23.1117C20.2259 23.6461 25.7737 21.2097 26.8115 18.7887Z" fill="#23252D"/>
<path fill-rule="evenodd" clip-rule="evenodd" d="M23.3966 16.7592C25.413 14.4547 26.8995 8.00102 24.7512 5.06992C23.0778 2.78308 18.823 -0.0798575 14.5264 0.0850585L14.766 0.260969C14.8012 0.282958 14.9639 0.386305 15.0123 0.41489C17.684 1.92332 19.7487 3.23605 21.4946 6.2815C23.2801 9.39731 24.0255 12.6473 23.3966 16.7592Z" fill="#23252D"/>
<path fill-rule="evenodd" clip-rule="evenodd" d="M6.66797 19.5958C7.42658 21.5484 9.84755 24.1189 11.4044 25.1788C12.3741 25.8384 14.5817 27.0368 15.6746 27.1072C17.282 27.2127 20.6177 25.6603 21.7545 24.9347C23.0342 24.1189 25.0792 22.1663 25.7279 20.77C24.4151 21.3066 23.4256 22.3114 21.3873 22.9029C16.9257 24.1981 12.3323 23.545 8.49084 20.9943C7.82018 20.5501 7.27266 19.9696 6.66797 19.5958Z" fill="#23252D"/>
<path fill-rule="evenodd" clip-rule="evenodd" d="M2.47461 6.84654C7.6002 3.43828 11.2437 2.52135 17.5105 4.84116C19.4917 5.57559 20.3119 6.49912 21.5983 7.38747C20.965 5.73171 19.1729 3.67576 18.0427 2.816C16.9498 1.98262 14.3661 -0.049143 12.3454 0.164148C7.99819 0.623714 3.73896 4.08475 2.47461 6.84654Z" fill="#23252D"/>
<path fill-rule="evenodd" clip-rule="evenodd" d="M14.3532 27.222C13.4231 26.5645 12.5699 26.5557 10.2875 24.812C9.15946 23.95 8.04243 22.6153 7.18707 21.3576C4.9728 18.1032 4.65836 15.5437 4.79469 11.0206C3.05318 13.9759 1.45239 19.8667 4.02068 22.6725C4.70014 23.4135 5.13771 23.8423 5.96449 24.4624C8.23154 26.1621 11.2946 27.3583 14.3532 27.222Z" fill="#23252D"/>
<path fill-rule="evenodd" clip-rule="evenodd" d="M19.5702 16.7965C20.5927 16.724 21.7207 15.1826 22.0197 14.6922C23.46 16.4447 24.7156 17.5749 28.5834 20.0091C28.4075 20.3807 28.0798 21.091 27.8775 21.4472C26.0613 20.6182 23.748 19.2043 22.4331 18.2192L21.5646 18.7228L21.3513 18.0345C20.6586 18.4963 19.7219 19.1999 19.0205 18.6238L16.4478 15.7015L14.9833 17.1791L14.2093 15.3409C13.5409 16.0687 12.16 17.6057 11.6718 18.217L10.4844 19.6881C9.98527 20.3104 8.89462 19.1581 8.21297 18.8613L7.70943 19.7452L6.84747 19.1296C6.16801 20.1586 4.77612 22.3377 1.94836 23.4306C1.70649 23.1271 1.33708 22.5928 1.11719 22.2718C3.93175 20.5544 5.22689 17.6541 6.79029 15.2991C7.44556 15.9764 9.21786 17.5881 9.83794 17.6409C11.7971 15.3607 13.3408 13.916 14.836 11.7589C15.544 12.0734 18.3432 15.9456 19.5702 16.7965Z" fill="#3D70F3"/>
</svg>
