<svg width="19" height="19" viewBox="0 0 19 19" fill="none" xmlns="http://www.w3.org/2000/svg">
<path d="M15 7V1M18 4H12M8 2H5.8C4.11984 2 3.27976 2 2.63803 2.32698C2.07354 2.6146 1.6146 3.07354 1.32698 3.63803C1 4.27976 1 5.11984 1 6.8V13.2C1 14.8802 1 15.7202 1.32698 16.362C1.6146 16.9265 2.07354 17.3854 2.63803 17.673C3.27976 18 4.11984 18 5.8 18H12.2C13.8802 18 14.7202 18 15.362 17.673C15.9265 17.3854 16.3854 16.9265 16.673 16.362C17 15.7202 17 14.8802 17 13.2V11M11.2647 13.9375L9.59666 12.2834C8.79174 11.4851 8.38928 11.086 7.92741 10.9401C7.52121 10.8118 7.08465 10.8165 6.68132 10.9536C6.22271 11.1095 5.82898 11.5172 5.04152 12.3326L1.26034 16.2177M11.2647 13.9375L11.6061 13.599C12.412 12.7998 12.815 12.4002 13.2773 12.2543C13.6839 12.126 14.1209 12.1311 14.5244 12.2687C14.9833 12.4251 15.3769 12.8339 16.1643 13.6514L16.9912 14.5M11.2647 13.9375L15 17.8174" stroke="#659D5C" stroke-width="2" stroke-linecap="round" stroke-linejoin="round"/>
</svg>
