<svg width="34" height="34" viewBox="0 0 34 34" fill="none" xmlns="http://www.w3.org/2000/svg">
<path fill-rule="evenodd" clip-rule="evenodd" d="M16.9997 5.66634C10.7404 5.66634 5.66634 10.7404 5.66634 16.9997C5.66634 23.2589 10.7404 28.333 16.9997 28.333C23.2589 28.333 28.333 23.2589 28.333 16.9997C28.333 10.7404 23.2589 5.66634 16.9997 5.66634ZM2.83301 16.9997C2.83301 9.17564 9.17564 2.83301 16.9997 2.83301C24.8237 2.83301 31.1663 9.17564 31.1663 16.9997C31.1663 24.8237 24.8237 31.1663 16.9997 31.1663C9.17564 31.1663 2.83301 24.8237 2.83301 16.9997ZM11.1205 13.1747C11.1205 12.0402 12.0402 11.1205 13.1747 11.1205C14.3092 11.1205 15.2288 12.0402 15.2288 13.1747C15.2288 14.3092 14.3092 15.2288 13.1747 15.2288C12.0402 15.2288 11.1205 14.3092 11.1205 13.1747ZM18.7705 13.1747C18.7705 12.0402 19.6902 11.1205 20.8247 11.1205C21.9592 11.1205 22.8788 12.0402 22.8788 13.1747C22.8788 14.3092 21.9592 15.2288 20.8247 15.2288C19.6902 15.2288 18.7705 14.3092 18.7705 13.1747ZM13.0324 18.6988C13.0324 18.6988 13.0324 18.6988 13.0324 18.6988V18.6988ZM11.0497 18.4163C11.6735 17.9485 12.5576 18.0729 13.0283 18.6934C13.0291 18.6944 13.0299 18.6955 13.0307 18.6966L13.029 18.6944L13.0283 18.6934C13.0279 18.6929 13.0283 18.6934 13.0283 18.6934C13.029 18.6944 13.0302 18.6961 13.0324 18.6988C13.0392 18.7074 13.053 18.7245 13.0732 18.7485C13.1137 18.7967 13.1801 18.8729 13.2711 18.9679C13.4543 19.1591 13.7303 19.4191 14.0876 19.679C14.8077 20.2027 15.7963 20.683 16.9997 20.683C18.2031 20.683 19.1916 20.2027 19.9117 19.679C20.2691 19.4191 20.545 19.1591 20.7282 18.9679C20.8193 18.8729 20.8857 18.7967 20.9261 18.7485C20.9463 18.7245 20.9599 18.7076 20.9667 18.699C20.9689 18.6962 20.9704 18.6943 20.9711 18.6933M20.9667 18.699L20.9687 18.6966L20.9703 18.6944L20.9711 18.6933C20.971 18.6934 20.9714 18.693 20.9711 18.6933C21.4418 18.0729 22.3259 17.9485 22.9497 18.4163C23.5756 18.8858 23.7024 19.7738 23.233 20.3997L22.1488 19.5865C23.233 20.3997 23.2327 20.4001 23.2323 20.4006L23.2316 20.4016L23.23 20.4037L23.2262 20.4087L23.2165 20.4214C23.209 20.4311 23.1995 20.4432 23.1881 20.4576C23.1654 20.4864 23.1347 20.5243 23.0964 20.57C23.0198 20.6612 22.9119 20.7842 22.7739 20.9283C22.4989 21.2153 22.0975 21.5928 21.5782 21.9704C20.5452 22.7217 18.9838 23.5163 16.9997 23.5163C15.0156 23.5163 13.4541 22.7217 12.4211 21.9704C11.9019 21.5928 11.5005 21.2153 11.2255 20.9283C11.0874 20.7842 10.9795 20.6612 10.9029 20.57C10.8646 20.5243 10.834 20.4864 10.8112 20.4576C10.7998 20.4432 10.7904 20.4311 10.7829 20.4214L10.7731 20.4087L10.7694 20.4037L10.7678 20.4016L10.767 20.4006C10.7667 20.4001 10.7664 20.3997 11.8505 19.5866L10.7663 20.3997C10.2969 19.7738 10.4238 18.8858 11.0497 18.4163" fill="#A4A4A4"/>
</svg>
