<svg width="13" height="14" viewBox="0 0 13 14" fill="none" xmlns="http://www.w3.org/2000/svg">
<path d="M11.375 5.91732H1.625M8.66667 1.58398V3.75065M4.33333 1.58398V3.75065M4.875 9.16732L5.95833 10.2507L8.39583 7.81315M4.225 12.4173H8.775C9.68509 12.4173 10.1401 12.4173 10.4877 12.2402C10.7935 12.0844 11.0421 11.8358 11.1979 11.5301C11.375 11.1824 11.375 10.7274 11.375 9.81732V5.26732C11.375 4.35723 11.375 3.90219 11.1979 3.55458C11.0421 3.24882 10.7935 3.00023 10.4877 2.84443C10.1401 2.66732 9.68509 2.66732 8.775 2.66732H4.225C3.31491 2.66732 2.85987 2.66732 2.51227 2.84443C2.2065 3.00023 1.95791 3.24882 1.80211 3.55458C1.625 3.90219 1.625 4.35723 1.625 5.26732V9.81732C1.625 10.7274 1.625 11.1824 1.80211 11.5301C1.95791 11.8358 2.2065 12.0844 2.51227 12.2402C2.85987 12.4173 3.31491 12.4173 4.225 12.4173Z" stroke="#307FF5" stroke-linecap="round" stroke-linejoin="round"/>
</svg>
