<svg width="16" height="16" viewBox="0 0 16 16" fill="none" xmlns="http://www.w3.org/2000/svg">
<g clip-path="url(#clip0_2525_95645)">
<path d="M3.33337 9.52489C2.09913 10.0694 1.33337 10.8281 1.33337 11.6673C1.33337 13.3242 4.31814 14.6673 8.00004 14.6673C11.6819 14.6673 14.6667 13.3242 14.6667 11.6673C14.6667 10.8281 13.9009 10.0694 12.6667 9.52489M12 5.33398C12 8.04312 9.00004 9.33398 8.00004 11.334C7.00004 9.33398 4.00004 8.04312 4.00004 5.33398C4.00004 3.12485 5.7909 1.33398 8.00004 1.33398C10.2092 1.33398 12 3.12485 12 5.33398ZM8.66671 5.33398C8.66671 5.70217 8.36823 6.00065 8.00004 6.00065C7.63185 6.00065 7.33337 5.70217 7.33337 5.33398C7.33337 4.96579 7.63185 4.66732 8.00004 4.66732C8.36823 4.66732 8.66671 4.96579 8.66671 5.33398Z" stroke="#307FF5" stroke-width="1.2" stroke-linecap="round" stroke-linejoin="round"/>
</g>
<defs>
<clipPath id="clip0_2525_95645">
<rect width="16" height="16" fill="white"/>
</clipPath>
</defs>
</svg>
