<svg width="20" height="20" viewBox="0 0 20 20" fill="none" xmlns="http://www.w3.org/2000/svg">
<path d="M7 19H2.6C2.03995 19 1.75992 19 1.54601 18.891C1.35785 18.7951 1.20487 18.6422 1.10899 18.454C1 18.2401 1 17.9601 1 17.4V15C1 13.3431 2.34315 12 4 12H4.5M4.68213 12C5.63244 12.6318 6.77319 13 7.99992 13C8.34066 13 8.67477 12.9716 9 12.917M12 5C12 7.20914 10.2091 9 8 9C5.79086 9 4 7.20914 4 5C4 2.79086 5.79086 1 8 1C10.2091 1 12 2.79086 12 5ZM11 19L13.025 18.595C13.2015 18.5597 13.2898 18.542 13.3721 18.5097C13.4452 18.4811 13.5147 18.4439 13.579 18.399C13.6516 18.3484 13.7152 18.2848 13.8426 18.1574L18 14C18.5523 13.4477 18.5523 12.5523 18 12C17.4477 11.4477 16.5523 11.4477 16 12L11.8426 16.1574C11.7152 16.2848 11.6516 16.3484 11.601 16.421C11.5561 16.4853 11.5189 16.5548 11.4903 16.6279C11.458 16.7102 11.4403 16.7985 11.405 16.975L11 19Z" stroke="#307FF5" stroke-width="2" stroke-linecap="round" stroke-linejoin="round"/>
</svg>
