<svg width="32" height="32" viewBox="0 0 32 32" fill="none" xmlns="http://www.w3.org/2000/svg">
<path d="M16 0C24.8366 0 32 7.16344 32 16C32 24.8366 24.8366 32 16 32C7.16344 32 0 24.8366 0 16C2.57703e-07 7.16344 7.16344 2.5772e-07 16 0ZM15.6738 11.7344C14.7581 11.7254 13.983 11.7377 13.5439 11.9482C13.2519 12.0883 13.0267 12.4017 13.1641 12.4199C13.3335 12.442 13.7182 12.5209 13.9219 12.793C14.1822 13.1412 14.175 13.9177 14.1748 13.9326C14.1748 13.9326 14.3261 16.1047 13.8223 16.375C13.4767 16.5602 13.0025 16.1828 11.9834 14.4551C11.4661 13.5776 11.0739 12.608 11.0674 12.5918C11.0674 12.5918 10.9915 12.4089 10.8555 12.3105C10.6957 12.1951 10.4744 12.1573 10.4619 12.1553L8.02344 12.1699C8.02344 12.1699 7.65685 12.1804 7.52246 12.3369C7.40512 12.4732 7.50925 12.7536 7.5127 12.7627C7.5127 12.7627 9.42203 17.1476 11.584 19.3574C13.5664 21.3828 15.8174 21.25 15.8174 21.25H16.8369C16.8369 21.25 17.145 21.2161 17.3027 21.0498C17.4437 20.901 17.4425 20.6233 17.4424 20.6104C17.4424 20.6104 17.4234 19.2666 18.0586 19.0684C18.6845 18.874 19.4881 20.3669 20.3408 20.9414C20.9759 21.3694 21.4607 21.2838 21.4746 21.2812L23.7549 21.25C23.7779 21.2485 24.9408 21.1685 24.3818 20.2578C24.3351 20.1824 24.0513 19.5768 22.6865 18.333C21.2568 17.0312 21.449 17.2413 23.1699 14.9893C24.2183 13.6177 24.6379 12.78 24.5068 12.4219C24.3842 12.084 23.6318 12.1676 23.6113 12.1699L21.0449 12.1855C21.0397 12.1849 20.8529 12.1618 20.7139 12.2432C20.5761 12.3243 20.4863 12.5137 20.4863 12.5137C20.4829 12.5226 20.0785 13.5784 19.5391 14.4775C18.3963 16.3818 17.9399 16.4822 17.7529 16.3643C17.3182 16.0881 17.4268 15.2567 17.4268 14.666C17.4268 12.8201 17.7116 12.0507 16.8711 11.8516C16.5925 11.7852 16.387 11.7418 15.6738 11.7344Z" fill="#307FF5"/>
</svg>
