<svg width="18" height="18" viewBox="0 0 18 18" fill="none" xmlns="http://www.w3.org/2000/svg">
<path fill-rule="evenodd" clip-rule="evenodd" d="M4.16146 8.6011e-07H11.8385C12.3657 -1.70213e-05 12.8205 -3.25181e-05 13.195 0.0305713C13.5904 0.0628723 13.9836 0.134188 14.362 0.326982C14.9265 0.614602 15.3854 1.07354 15.673 1.63803C15.8658 2.01641 15.9371 2.40963 15.9694 2.80497C16 3.17955 16 3.63432 16 4.16148V5.17825C16.1219 5.21747 16.2427 5.26619 16.362 5.32698C16.9265 5.6146 17.3854 6.07354 17.673 6.63803C17.8658 7.01641 17.9371 7.40963 17.9694 7.80497C18 8.17954 18 8.6343 18 9.16144V17C18 17.3688 17.797 17.7077 17.4719 17.8817C17.1467 18.0557 16.7522 18.0366 16.4453 17.8321L14.2515 16.3695C13.9232 16.1506 13.8569 16.1108 13.7945 16.0835C13.7226 16.0521 13.6472 16.0293 13.5699 16.0155C13.5029 16.0036 13.4257 16 13.0311 16H8.16148C7.63432 16 7.17955 16 6.80497 15.9694C6.40963 15.9371 6.01641 15.8658 5.63803 15.673C5.10807 15.403 4.67114 14.982 4.38167 14.4644L1.4381 15.8989C1.12818 16.05 0.762307 16.0307 0.469954 15.848C0.1776 15.6652 1.81378e-06 15.3448 1.81378e-06 15L8.60109e-07 4.16146C-1.70213e-05 3.63431 -3.25181e-05 3.17955 0.0305713 2.80497C0.0628723 2.40963 0.134188 2.01641 0.326982 1.63803C0.614602 1.07354 1.07354 0.614602 1.63803 0.326982C2.01641 0.134188 2.40963 0.0628723 2.80497 0.0305712C3.17955 -3.25181e-05 3.63431 -1.70213e-05 4.16146 8.6011e-07ZM6.02092 12.9932C6.02026 12.9789 6.01929 12.9646 6.01801 12.9503C6.00064 12.6775 6 12.3227 6 11.8V9.2C6 8.62345 6.00078 8.25117 6.02393 7.96784C6.04612 7.69617 6.0838 7.59546 6.109 7.54601C6.20487 7.35785 6.35785 7.20487 6.54601 7.109C6.59546 7.0838 6.69617 7.04612 6.96784 7.02393C7.25118 7.00078 7.62345 7 8.2 7H13.8C14.3766 7 14.7488 7.00078 15.0322 7.02393C15.3038 7.04612 15.4045 7.0838 15.454 7.109C15.6422 7.20487 15.7951 7.35785 15.891 7.54601C15.9162 7.59546 15.9539 7.69617 15.9761 7.96784C15.9992 8.25117 16 8.62345 16 9.2V15.1315L15.3609 14.7054C15.3438 14.694 15.327 14.6828 15.3102 14.6716C15.0604 14.5048 14.84 14.3577 14.5947 14.2506C14.3789 14.1564 14.1527 14.0879 13.9209 14.0466C13.6574 13.9996 13.3924 13.9998 13.092 14C13.0719 14 13.0516 14 13.0311 14H8.2C7.62345 14 7.25117 13.9992 6.96784 13.9761C6.69617 13.9539 6.59546 13.9162 6.54601 13.891C6.35785 13.7951 6.20487 13.6422 6.109 13.454C6.0838 13.4045 6.04612 13.3038 6.02393 13.0322C6.02288 13.0193 6.02188 13.0063 6.02092 12.9932ZM4.00182 12.4246L2 13.4002V4.2C2 3.62345 2.00078 3.25118 2.02393 2.96784C2.04612 2.69617 2.0838 2.59546 2.109 2.54601C2.20487 2.35785 2.35785 2.20487 2.54601 2.109C2.59545 2.0838 2.69617 2.04612 2.96784 2.02393C3.25117 2.00078 3.62345 2 4.2 2H11.8C12.3766 2 12.7488 2.00078 13.0322 2.02393C13.3038 2.04612 13.4045 2.0838 13.454 2.109C13.6422 2.20487 13.7951 2.35785 13.891 2.54601C13.9162 2.59546 13.9539 2.69617 13.9761 2.96784C13.9992 3.25118 14 3.62345 14 4.2V5.00003C13.947 5 13.8931 5 13.8385 5H8.16146C7.63431 4.99998 7.17955 4.99997 6.80497 5.03057C6.40963 5.06287 6.01641 5.13419 5.63803 5.32698C5.07354 5.6146 4.6146 6.07354 4.32698 6.63803C4.13419 7.01641 4.06287 7.40963 4.03057 7.80497C3.99997 8.17955 3.99998 8.63431 4 9.16146V11.8385C3.99999 12.0452 3.99999 12.2407 4.00182 12.4246Z" fill="#307FF5"/>
</svg>
