<svg width="21" height="19" viewBox="0 0 21 19" fill="none" xmlns="http://www.w3.org/2000/svg">
<path d="M18 6.5V4.2C18 3.0799 18 2.51984 17.782 2.09202C17.5903 1.71569 17.2843 1.40973 16.908 1.21799C16.4802 1 15.9201 1 14.8 1H4.2C3.0799 1 2.51984 1 2.09202 1.21799C1.71569 1.40973 1.40973 1.71569 1.21799 2.09202C1 2.51984 1 3.0799 1 4.2V10.8C1 11.9201 1 12.4802 1.21799 12.908C1.40973 13.2843 1.71569 13.5903 2.09202 13.782C2.51984 14 3.07989 14 4.2 14H8.5M1.27486 1.98813L7.50097 7.40078C8.21441 7.97153 8.57113 8.2569 8.96674 8.36635C9.31569 8.46288 9.68431 8.46288 10.0333 8.36635C10.4289 8.2569 10.7856 7.97153 11.499 7.40078L17.7418 2.01711M12 18L14.025 17.595C14.2015 17.5597 14.2898 17.542 14.3721 17.5097C14.4452 17.4811 14.5147 17.4439 14.579 17.399C14.6516 17.3484 14.7152 17.2848 14.8426 17.1574L19 13C19.5523 12.4477 19.5523 11.5523 19 11C18.4477 10.4477 17.5523 10.4477 17 11L12.8426 15.1574C12.7152 15.2848 12.6516 15.3484 12.601 15.421C12.5561 15.4853 12.5189 15.5548 12.4903 15.6279C12.458 15.7102 12.4403 15.7985 12.405 15.975L12 18Z" stroke="#307FF5" stroke-width="2" stroke-linecap="round" stroke-linejoin="round"/>
</svg>
