<svg width="20" height="20" viewBox="0 0 20 20" fill="none" xmlns="http://www.w3.org/2000/svg">
<path fill-rule="evenodd" clip-rule="evenodd" d="M9.00006 2.00006C5.13407 2.00006 2.00006 5.13407 2.00006 9.00006C2.00006 12.8661 5.13407 16.0001 9.00006 16.0001C12.8661 16.0001 16.0001 12.8661 16.0001 9.00006C16.0001 5.13407 12.8661 2.00006 9.00006 2.00006ZM6.10352e-05 9.00006C6.10352e-05 4.0295 4.0295 6.10352e-05 9.00006 6.10352e-05C13.9706 6.10352e-05 18.0001 4.0295 18.0001 9.00006C18.0001 11.1242 17.2642 13.0765 16.0334 14.6159L19.7075 18.2933C20.0978 18.684 20.0975 19.3171 19.7068 19.7075C19.3161 20.0978 18.683 20.0975 18.2926 19.7068L14.6196 16.0305C13.0796 17.263 11.1259 18.0001 9.00006 18.0001C4.0295 18.0001 6.10352e-05 13.9706 6.10352e-05 9.00006ZM8.00006 4.00006C8.00006 3.44778 8.44777 3.00006 9.00006 3.00006C12.3138 3.00006 15.0001 5.68635 15.0001 9.00006C15.0001 9.55234 14.5523 10.0001 14.0001 10.0001C13.4478 10.0001 13.0001 9.55234 13.0001 9.00006C13.0001 6.79092 11.2092 5.00006 9.00006 5.00006C8.44777 5.00006 8.00006 4.55234 8.00006 4.00006Z" fill="#757B8D"/>
</svg>
