<svg width="20" height="19" viewBox="0 0 20 19" fill="none" xmlns="http://www.w3.org/2000/svg">
<path d="M2 6L4 18H16L18 6M2 6L3.71624 7.37299C4.83218 8.26574 5.39014 8.71212 5.95256 8.78139C6.4453 8.84207 6.94299 8.71733 7.34885 8.43142C7.81211 8.10507 8.09359 7.4483 8.65653 6.13476L10 3M2 6C2.55228 6 3 5.55228 3 5C3 4.44772 2.55228 4 2 4C1.44772 4 1 4.44772 1 5C1 5.55228 1.44772 6 2 6ZM18 6L16.2838 7.373C15.1678 8.26574 14.6099 8.71212 14.0474 8.78139C13.5547 8.84207 13.057 8.71733 12.6511 8.43142C12.1879 8.10507 11.9064 7.4483 11.3435 6.13476L10 3M18 6C18.5523 6 19 5.55228 19 5C19 4.44772 18.5523 4 18 4C17.4477 4 17 4.44772 17 5C17 5.55228 17.4477 6 18 6ZM10 3C10.5523 3 11 2.55228 11 2C11 1.44772 10.5523 1 10 1C9.44772 1 9 1.44772 9 2C9 2.55228 9.44772 3 10 3Z" stroke="#307FF5" stroke-width="2" stroke-linecap="round" stroke-linejoin="round"/>
</svg>
