<svg width="19" height="19" viewBox="0 0 19 19" fill="none" xmlns="http://www.w3.org/2000/svg">
<path d="M17 10V7.4C17 5.15979 17 4.03969 16.564 3.18404C16.1805 2.43139 15.5686 1.81947 14.816 1.43597C13.9603 1 12.8402 1 10.6 1H7.4C5.15979 1 4.03969 1 3.18404 1.43597C2.43139 1.81947 1.81947 2.43139 1.43597 3.18404C1 4.03969 1 5.15979 1 7.4V10.6C1 12.8402 1 13.9603 1.43597 14.816C1.81947 15.5686 2.43139 16.1805 3.18404 16.564C4.03969 17 5.15979 17 7.4 17M12 16L14 18L18 14M12 12C11.7164 10.8589 10.481 10 9 10C7.519 10 6.28364 10.8589 6 12M9 6H9.01M10 6C10 6.55228 9.55228 7 9 7C8.44772 7 8 6.55228 8 6C8 5.44772 8.44772 5 9 5C9.55228 5 10 5.44772 10 6Z" stroke="#307FF5" stroke-width="2" stroke-linecap="round" stroke-linejoin="round"/>
</svg>
