<svg width="20" height="18" viewBox="0 0 20 18" fill="none" xmlns="http://www.w3.org/2000/svg">
<path fill-rule="evenodd" clip-rule="evenodd" d="M5.17067 2.00072C5.58244 0.834884 6.69329 0 8 0H12C13.3067 0 14.4176 0.834884 14.8293 2.00072C15.3767 2.00285 15.8485 2.01124 16.2518 2.04419C16.8139 2.09012 17.3306 2.18868 17.816 2.43597C18.5686 2.81947 19.1805 3.43139 19.564 4.18404C19.8113 4.66937 19.9099 5.18608 19.9558 5.74817C20 6.28936 20 6.95372 20 7.75868V12.2413C20 13.0463 20 13.7106 19.9558 14.2518C19.9099 14.8139 19.8113 15.3306 19.564 15.816C19.1805 16.5686 18.5686 17.1805 17.816 17.564C17.3306 17.8113 16.8139 17.9099 16.2518 17.9558C15.7106 18 15.0463 18 14.2413 18H5.75868C4.95372 18 4.28936 18 3.74817 17.9558C3.18608 17.9099 2.66937 17.8113 2.18404 17.564C1.43139 17.1805 0.819468 16.5686 0.435975 15.816C0.188684 15.3306 0.0901197 14.8139 0.0441945 14.2518C-2.28137e-05 13.7106 -1.23241e-05 13.0463 4.31292e-07 12.2413V7.7587C-1.23241e-05 6.95373 -2.28137e-05 6.28937 0.0441945 5.74817C0.0901197 5.18608 0.188684 4.66937 0.435975 4.18404C0.819468 3.43139 1.43139 2.81947 2.18404 2.43597C2.66937 2.18868 3.18608 2.09012 3.74818 2.04419C4.15152 2.01124 4.62328 2.00285 5.17067 2.00072ZM5.8 4C4.94342 4 4.36113 4.00078 3.91104 4.03755C3.47262 4.07337 3.24842 4.1383 3.09202 4.21799C2.7157 4.40973 2.40973 4.71569 2.21799 5.09202C2.1383 5.24842 2.07337 5.47262 2.03755 5.91104C2.00078 6.36113 2 6.94342 2 7.8V12.2C2 13.0566 2.00078 13.6389 2.03755 14.089C2.07337 14.5274 2.1383 14.7516 2.21799 14.908C2.40973 15.2843 2.7157 15.5903 3.09202 15.782C3.24842 15.8617 3.47262 15.9266 3.91104 15.9624C4.36113 15.9992 4.94342 16 5.8 16H14.2C15.0566 16 15.6389 15.9992 16.089 15.9624C16.5274 15.9266 16.7516 15.8617 16.908 15.782C17.2843 15.5903 17.5903 15.2843 17.782 14.908C17.8617 14.7516 17.9266 14.5274 17.9624 14.089C17.9992 13.6389 18 13.0566 18 12.2V7.8C18 6.94342 17.9992 6.36113 17.9624 5.91104C17.9266 5.47262 17.8617 5.24842 17.782 5.09202C17.5903 4.71569 17.2843 4.40973 16.908 4.21799C16.7516 4.1383 16.5274 4.07337 16.089 4.03755C15.6389 4.00078 15.0566 4 14.2 4C13.5148 4 13.0504 3.45767 12.995 2.89894C12.945 2.39461 12.518 2 12 2H8C7.48202 2 7.05497 2.39461 7.00497 2.89894C6.94957 3.45767 6.48525 4 5.8 4ZM10 8C8.89543 8 8 8.89543 8 10C8 11.1046 8.89543 12 10 12C11.1046 12 12 11.1046 12 10C12 8.89543 11.1046 8 10 8ZM6 10C6 7.79086 7.79086 6 10 6C12.2091 6 14 7.79086 14 10C14 12.2091 12.2091 14 10 14C7.79086 14 6 12.2091 6 10Z" fill="#307FF5"/>
</svg>
