<svg width="20" height="18" viewBox="0 0 20 18" fill="none" xmlns="http://www.w3.org/2000/svg">
<path fill-rule="evenodd" clip-rule="evenodd" d="M7.25382 -8.69799e-05C7.29272 -3.78657e-05 7.33194 1.16062e-05 7.37149 1.16062e-05H12.6285C12.668 1.16062e-05 12.7072 -3.78657e-05 12.7461 -8.69799e-05C13.3101 -0.000798183 13.8062 -0.00142391 14.2669 0.149976C14.6706 0.282651 15.0416 0.499581 15.3551 0.786397C15.7129 1.11369 15.9556 1.54645 16.2315 2.0383C16.2505 2.07223 16.2697 2.10644 16.2891 2.14091L18.9891 6.94091C19.0077 6.97407 19.0263 7.00693 19.0447 7.03952C19.3118 7.51315 19.547 7.93002 19.6425 8.38944C19.7262 8.79218 19.7262 9.20784 19.6425 9.61058C19.547 10.07 19.3118 10.4869 19.0447 10.9605C19.0263 10.9931 19.0077 11.026 18.9891 11.0591L16.2891 15.8591C16.2697 15.8936 16.2505 15.9278 16.2315 15.9617C15.9556 16.4536 15.7129 16.8863 15.3551 17.2136C15.0416 17.5004 14.6706 17.7174 14.2669 17.85C13.8062 18.0014 13.3101 18.0008 12.7461 18.0001C12.7072 18.0001 12.668 18 12.6285 18H7.37149C7.33194 18 7.29272 18.0001 7.25382 18.0001C6.6899 18.0008 6.19372 18.0014 5.73304 17.85C5.32933 17.7174 4.95841 17.5004 4.64485 17.2136C4.28704 16.8863 4.04433 16.4536 3.76848 15.9617C3.74945 15.9278 3.73027 15.8936 3.71088 15.8591L1.01088 11.0591C0.992229 11.026 0.973697 10.9931 0.955316 10.9605C0.688134 10.4869 0.45297 10.07 0.357468 9.61058C0.273748 9.20784 0.273748 8.79218 0.357468 8.38944C0.45297 7.93002 0.688133 7.51314 0.955312 7.03951C0.973694 7.00693 0.992227 6.97407 1.01088 6.94092L3.71088 2.14092C3.73027 2.10644 3.74946 2.07223 3.76848 2.0383C4.04433 1.54645 4.28704 1.11369 4.64485 0.786397C4.95841 0.49958 5.32933 0.282651 5.73304 0.149976C6.19372 -0.00142391 6.6899 -0.000798183 7.25382 -8.69799e-05ZM7.37149 2.00001C6.62176 2.00001 6.47342 2.01189 6.35746 2.05C6.22289 2.09422 6.09926 2.16653 5.99474 2.26214C5.90467 2.34452 5.8216 2.46798 5.45403 3.12144L2.75403 7.92144C2.39996 8.5509 2.33967 8.68073 2.31561 8.79649C2.2877 8.93074 2.2877 9.06929 2.31561 9.20354C2.33967 9.31929 2.39996 9.44913 2.75403 10.0786L3.55551 11.5034C3.75812 11.2972 3.94427 11.1146 4.11778 10.9618C4.41865 10.6967 4.74669 10.4607 5.15287 10.3222C5.7582 10.1158 6.41363 10.1082 7.02354 10.3007C7.4328 10.4298 7.76618 10.6582 8.07306 10.9163C8.27452 11.0857 8.49324 11.2933 8.73464 11.5298L9.69721 10.5753C10.0806 10.195 10.4109 9.8675 10.7046 9.62067C11.0142 9.36053 11.3507 9.13032 11.7638 9.00157C12.3788 8.80986 13.0393 8.82125 13.6474 9.03404C14.0557 9.17696 14.3841 9.41863 14.6845 9.68929C14.9696 9.9461 15.2884 10.2848 15.6584 10.678L16.441 11.5095L17.2459 10.0786C17.6 9.44913 17.6603 9.31929 17.6844 9.20354C17.7123 9.06929 17.7123 8.93074 17.6844 8.79649C17.6603 8.68073 17.6 8.5509 17.2459 7.92144L14.5459 3.12144C14.1784 2.46798 14.0953 2.34452 14.0052 2.26214C13.9007 2.16653 13.7771 2.09422 13.6425 2.05C13.5265 2.01189 13.3782 2.00001 12.6285 2.00001H7.37149ZM15.4239 13.3177C15.3699 13.2795 15.3189 13.2354 15.2718 13.1854L14.2289 12.0773C13.8244 11.6475 13.5622 11.3701 13.3459 11.1752C13.1381 10.988 13.0394 10.9402 12.9868 10.9218C12.7841 10.8509 12.5639 10.8471 12.3589 10.911C12.3056 10.9276 12.2054 10.9719 11.9913 11.1519C11.7683 11.3392 11.4967 11.6074 11.0777 12.0229L7.0681 15.9991C7.15656 15.9997 7.25702 16 7.37149 16H12.6285C13.3782 16 13.5265 15.9881 13.6425 15.95C13.7771 15.9058 13.9007 15.8335 14.0052 15.7379C14.0953 15.6555 14.1784 15.532 14.5459 14.8786L15.4239 13.3177ZM5.41954 14.8173L7.31431 12.9383C7.09829 12.7269 6.93155 12.5695 6.78584 12.447C6.57418 12.269 6.47491 12.2247 6.42183 12.208C6.21853 12.1439 6.00005 12.1464 5.79828 12.2152C5.7456 12.2331 5.64737 12.2797 5.43987 12.4625C5.22767 12.6494 4.9709 12.9143 4.57837 13.3219L5.41954 14.8173ZM5.99998 5.50001C5.99998 4.67159 6.67155 4.00001 7.49998 4.00001C8.32841 4.00001 8.99998 4.67158 8.99998 5.50001C8.99998 6.32844 8.32841 7.00001 7.49998 7.00001C6.67155 7.00001 5.99998 6.32844 5.99998 5.50001Z" fill="#307FF5"/>
</svg>
