<svg width="100%" height="100%" viewBox="0 0 420 418" fill="none" xmlns="http://www.w3.org/2000/svg">
    <path d="M40 1.5H380C401.263 1.5 418.5 18.737 418.5 40V378C418.5 399.263 401.263 416.5 380 416.5H40C18.737 416.5 1.5 399.263 1.5 378V40C1.5 18.737 18.737 1.5 40 1.5Z" stroke="url(#paint0_linear_2328_51854)" stroke-opacity="0.65" stroke-width="3"/>
    <path d="M40 1.5H380C401.263 1.5 418.5 18.737 418.5 40V378C418.5 399.263 401.263 416.5 380 416.5H40C18.737 416.5 1.5 399.263 1.5 378V40C1.5 18.737 18.737 1.5 40 1.5Z" stroke="url(#paint1_linear_2328_51854)" stroke-width="3" style="mix-blend-mode:overlay"/>
    <path d="M40 1.5H380C401.263 1.5 418.5 18.737 418.5 40V378C418.5 399.263 401.263 416.5 380 416.5H40C18.737 416.5 1.5 399.263 1.5 378V40C1.5 18.737 18.737 1.5 40 1.5Z" stroke="#D09742" stroke-width="3" style="mix-blend-mode:color"/>
    <defs>
    <linearGradient id="paint0_linear_2328_51854" x1="-692.301" y1="352.128" x2="1010.44" y2="-438.919" gradientUnits="userSpaceOnUse">
        <stop stop-color="#576265"/>
        <stop offset="0.172016" stop-color="#9EA1A1"/>
        <stop offset="0.45741" stop-color="#848B8A"/>
        <stop offset="0.553567" stop-color="#576265"/>
        <stop offset="0.823421" stop-color="#576265"/>
        <stop offset="0.925155" stop-color="#757A7B"/>
        <stop offset="1" stop-color="#576265"/>
    </linearGradient>
    <linearGradient id="paint1_linear_2328_51854" x1="31.0606" y1="219.028" x2="-86.9199" y2="-391.591" gradientUnits="userSpaceOnUse">
        <stop stop-color="white" stop-opacity="0"/>
        <stop offset="1" stop-color="white"/>
    </linearGradient>
    </defs>
</svg>